<?xml version="1.0" standalone="no"?>
<!DOCTYPE svg PUBLIC "-//W3C//DTD SVG 20010904//EN"
 "http://www.w3.org/TR/2001/REC-SVG-20010904/DTD/svg10.dtd">
<svg version="1.0" xmlns="http://www.w3.org/2000/svg"
 width="120.000000pt" height="30.000000pt" viewBox="0 0 120.000000 30.000000"
 preserveAspectRatio="xMidYMid meet">

<g transform="translate(0.000000,30.000000) scale(0.100000,-0.100000)"
fill="#000000" stroke="none">
<path d="M0 150 l0 -150 600 0 600 0 0 150 0 150 -600 0 -600 0 0 -150z m935
90 l-49 -50 -248 0 c-194 0 -256 -3 -281 -14 -18 -8 -66 -49 -107 -90 l-75
-76 -85 0 -85 0 125 125 c68 68 138 131 155 140 25 12 88 15 365 15 l334 0
-49 -50z m120 -90 l-140 -140 -95 0 -95 0 140 140 140 140 95 0 95 0 -140
-140z m-245 -35 l-54 -55 -162 0 c-159 0 -163 -1 -192 -25 -27 -22 -39 -25
-113 -25 l-83 0 59 61 c101 103 85 99 360 99 l239 0 -54 -55z m240 -89 c0 -16
-31 -16 -42 -1 -5 6 -8 5 -8 -2 0 -18 -17 -16 -24 2 -4 12 3 15 34 15 28 0 40
-4 40 -14z"/>
</g>
</svg>
