<?xml version="1.0" encoding="UTF-8"?>
<svg xmlns="http://www.w3.org/2000/svg" viewBox="0 0 630 800">
  <defs>
    <style>
      .cls-1 {
        stroke-width: 6px;
      }

      .cls-1, .cls-2, .cls-3, .cls-4, .cls-5, .cls-6, .cls-7, .cls-8, .cls-9, .cls-10 {
        fill: none;
      }

      .cls-1, .cls-11, .cls-5 {
        stroke-miterlimit: 10;
      }

      .cls-1, .cls-11, .cls-5, .cls-6 {
        stroke: #fff;
      }

      .cls-2 {
        stroke-width: .47px;
      }

      .cls-2, .cls-3, .cls-4, .cls-7, .cls-8, .cls-9 {
        opacity: .3;
        stroke: #1a171b;
      }

      .cls-3 {
        stroke-width: .45px;
      }

      .cls-11, .cls-5 {
        stroke-width: 4px;
      }

      .cls-11, .cls-12 {
        fill: #7d7d7d;
      }

      .cls-4 {
        stroke-width: .66px;
      }

      .cls-6 {
        stroke-width: 1.8px;
      }

      .cls-7 {
        fill-rule: evenodd;
        stroke-width: .37px;
      }

      .cls-13, .cls-12 {
        stroke-width: 0px;
      }

      .cls-8 {
        stroke-width: .43px;
      }

      .cls-9 {
        stroke-width: .5px;
      }

      .cls-10 {
        stroke: #000;
        stroke-width: 15.3px;
      }
    
     #GA path, #GA rect{
        mask: url(#mask-stripe)
      }

    </style>

   <pattern id="pattern-stripe" 
            width="4" height="4" 
            patternUnits="userSpaceOnUse"
            patternTransform="rotate(45)">
            <rect width="1.5" height="4" transform="translate(0,0)" fill="white"></rect>
    </pattern>
    <mask id="mask-stripe">
          <rect x="0" y="0" width="1000" height="1000" fill="url(#pattern-stripe)" />
    </mask>  
</defs>  

  <g id="GA">
    <g id="ga_imola" data-name="ga imola">
      <g id="general-admission">
        <path idGrandstand="17947" class="cls-12" d="M328.49,463.4c-1.38,0-2.75-.02-4.11-.07-13.92-.7-28.35-3.03-42.31-5.29-10.74-1.74-21.84-3.53-32.58-4.56l-.16-.02h-.16c-7.62.26-14.58.48-20.99.69-34.14,1.07-51.27,1.72-67.34,4.77l-1.67-8.84c17.48-3.31,36.77-3.91,68.73-4.92,6.4-.2,13.36-.42,20.97-.68l.75-.03.75.07c11.02,1.06,22.27,2.88,33.14,4.64,13.72,2.22,27.91,4.51,41.26,5.18,13.36.46,28.19-1.69,42.53-3.76,3.38-.49,6.72-.97,9.99-1.41,18.33-2.36,32.86-5.64,44.45-10.02l.84-.32.88-.18c.49-.1,1.24-.26,1.85-.41.03-.26.07-.54.1-.79.71-6.04,2.03-17.25,19.02-25.36,2.96-1.94,6.03-3.55,9.01-5.12,3.51-1.84,6.84-3.58,9.26-5.5,6.57-14.83,12.22-32.14,17.68-48.9,3.91-11.98,7.93-24.32,12.25-35.58.89-3.57,2.37-7.52,3.93-11.69,1.63-4.35,3.63-9.7,4.1-12.75-.29-1.83-1.09-4.22-1.87-6.53-.58-1.74-1.18-3.54-1.69-5.41-6.51-16.27,5.89-27.23,11.87-32.52.87-.77,1.66-1.47,2.42-2.17l6.13,6.59c-.82.76-1.67,1.51-2.53,2.27-7.29,6.45-13.45,12.99-9.46,22.68l.19.55c.45,1.7,1.04,3.45,1.61,5.14,1,2.98,2.03,6.05,2.35,8.88l.06.49-.05.49c-.44,4.08-2.6,9.85-4.69,15.44-1.51,4.02-2.93,7.83-3.68,10.94l-.17.56c-4.27,11.12-8.29,23.45-12.18,35.37-5.67,17.39-11.52,35.32-18.47,50.79l-.4.89-.74.65c-3.26,2.86-7.37,5.02-11.72,7.3-2.87,1.51-5.83,3.06-8.49,4.83l-.58.33c-12.75,6-13.6,13.17-14.21,18.41-.75,6.35-2.6,7.61-9.05,8.96l-.37.11c-12.26,4.64-27.46,8.08-46.46,10.53-3.22.44-6.52.91-9.87,1.4-13.33,1.93-27.06,3.92-40.09,3.92ZM176.9,380.17l-4.07-8.03c7.65-3.88,15.84-7.1,23.76-10.21,4.77-1.87,9.69-3.8,14.41-5.85l.25-.1c1.11-.41,2.07-.77,2.9-1.08l3.41-1.26,2.04,2.33c.59.67,1.24,1.34,1.94,2l.74.69,1.01-.02c6.4-.12,13.12-.37,20.56-.76l.47,8.99c-7.53.39-14.35.64-20.85.77l-4.65.09-3.4-3.17c-.14-.13-.27-.25-.4-.38-.18.07-.36.13-.55.2-4.83,2.09-9.79,4.04-14.58,5.92-7.73,3.03-15.72,6.17-22.98,9.86ZM266.68,365.46l-.65-8.98c6.41-.46,12.8-.96,19.12-1.45,21.79-1.69,44.24-3.42,65.87-3.67h.72s.69.21.69.21c1.44.46,2.89.99,4.18,1.46,4.12,1.51,8.01,2.93,11.77,2.4,4.31-.61,7.59-3.7,10.02-9.46l.12-.26c1.04-2.08,2.39-4.25,3.82-6.55,2.97-4.77,6.31-10.13,7.22-15.66l.06-.36-.04-.36h.11s.04-.28.04-.28l.92.15,7.86-.98.21,1.65-.27,1.64c-1.2,7.3-5.04,13.48-8.44,18.93-1.3,2.09-2.52,4.04-3.36,5.72-4.62,10.84-11.79,14-17,14.73-6,.84-11.38-1.13-16.12-2.86-1.03-.38-2.1-.77-3.14-1.11-21.11.27-43.15,1.98-64.47,3.63-6.41.5-12.81.99-19.25,1.45Z"/>
      </g>
      <g id="low_rivazza" data-name="low rivazza">
        <polygon idGrandstand="17937" class="cls-12" points="105.22 471.72 73.65 485.29 68.47 475.24 72.73 467.88 98.19 457.11 105.22 471.72"/>
      </g>
      <g id="low_tosa" data-name="low tosa">
        <path idGrandstand="17927" class="cls-12" d="M492.61,203.02c-16.87,5.11-34.82,7.53-53.16,6.91-2.29-.08-4.05-1.66-3.95-3.51.11-2.16.23-4.32.36-6.48.13-1.91,2.03-3.37,4.2-3.3,16.93.55,33.47-1.71,48.98-6.44,1.92-.58,3.88.31,4.44,2.07.65,2.06,1.31,4.12,1.97,6.18.6,1.82-.67,3.9-2.85,4.56Z"/>
      </g>
    </g>
  </g>
  <g id="track">
    <g>
      <path class="cls-10" d="M447.39,220.96c-15.17.31-27.81-2.67-40.44-4.47-8.54-1.15-18.94-3.04-23.8,6.11-5.07,11.92-11.26,24.55-11.26,37.77,1.02,20.82,12.67,42.19,15.23,62.73-1.25,7.59-7.61,14.98-10.91,21.72-5.58,13.49-13.84,7.02-24.1,4.03-42.4.38-86.53,6.47-128.84,7.29-6.31-5.87-1.41-6.69-13.05-2.44-16.91,7.36-36.11,13.03-51.27,23.81-25.37,18.14-43.03,45.46-66.31,65.76-8.78,6.18-19.37,10.3-28.73,15.46-5.7,3.71-22.62,6.75-14.77,17.38,5.61,8.71,7.97,26.19,21.83,20.37,90.66-40.64,78.85-37.13,178.31-40.52,24.59,2.36,50.28,8.63,74.99,9.86,17.77.62,37.09-2.9,54.58-5.27,15.34-1.97,32.32-5.12,46.98-10.66,20.42-4.26.98-17.14,24.28-27.77,6.87-4.7,16.13-7.81,22.09-13.72,12.22-26.72,20.82-60.44,31.46-88.02,1.66-7.42,8.11-20.31,8.58-27.89-.37-5.14-2.95-10.62-4.21-15.6-4.6-10.46,4.6-16.41,11.3-22.66,13.39-13.34,29.71-25.4,41.43-40.23,1.91-4.52-1.83-9.4-6.31-10.35-8.8-.09-22.42,4.09-31.33,5.17-24.81,4.01-50.54,11.38-75.7,12.14"/>
      <path class="cls-6" d="M447.39,220.96c-15.17.31-27.81-2.67-40.44-4.47-8.54-1.15-18.94-3.04-23.8,6.11-5.07,11.92-11.26,24.55-11.26,37.77,1.02,20.82,12.67,42.19,15.23,62.73-1.25,7.59-7.61,14.98-10.91,21.72-5.58,13.49-13.84,7.02-24.1,4.03-42.4.38-86.53,6.47-128.84,7.29-6.31-5.87-1.41-6.69-13.05-2.44-16.91,7.36-36.11,13.03-51.27,23.81-25.37,18.14-43.03,45.46-66.31,65.76-8.78,6.18-19.37,10.3-28.73,15.46-5.7,3.71-22.62,6.75-14.77,17.38,5.61,8.71,7.97,26.19,21.83,20.37,90.66-40.64,78.85-37.13,178.31-40.52,24.59,2.36,50.28,8.63,74.99,9.86,17.77.62,37.09-2.9,54.58-5.27,15.34-1.97,32.32-5.12,46.98-10.66,20.42-4.26.98-17.14,24.28-27.77,6.87-4.7,16.13-7.81,22.09-13.72,12.22-26.72,20.82-60.44,31.46-88.02,1.66-7.42,8.11-20.31,8.58-27.89-.37-5.14-2.95-10.62-4.21-15.6-4.6-10.46,4.6-16.41,11.3-22.66,13.39-13.34,29.71-25.4,41.43-40.23,1.91-4.52-1.83-9.4-6.31-10.35-8.8-.09-22.42,4.09-31.33,5.17-24.81,4.01-50.54,11.38-75.7,12.14"/>
    </g>
  </g>
  <g id="arrow">
    <g>
      <path class="cls-13" d="M317.23,483.71l3.72-3.12c.17-.14.27-.32.29-.54s-.04-.42-.19-.59l-3.01-3.85,1.22-.96,2.99,3.85c.41.5.58,1.07.51,1.72s-.35,1.17-.85,1.56l-3.7,3.12-.98-1.18Z"/>
      <path class="cls-13" d="M306.85,482.66l3.72-3.12c.17-.14.27-.32.29-.54s-.04-.42-.19-.59l-3.01-3.85,1.22-.96,2.99,3.85c.41.5.58,1.07.51,1.72s-.35,1.17-.85,1.56l-3.7,3.12-.98-1.18Z"/>
      <path class="cls-13" d="M312.04,483.18l3.72-3.12c.17-.14.27-.32.29-.54s-.04-.42-.19-.59l-3.01-3.85,1.22-.96,2.99,3.85c.41.5.58,1.07.51,1.72s-.35,1.17-.85,1.56l-3.7,3.12-.98-1.18Z"/>
    </g>
  </g>
  <g id="start">
    <g>
      <rect class="cls-13" x="286.33" y="474.44" width="3.47" height="3.44" transform="translate(-232.62 672.63) rotate(-79.5)"/>
      <rect class="cls-13" x="289.08" y="478.48" width="3.47" height="3.44" transform="translate(-234.34 678.65) rotate(-79.5)"/>
      <rect class="cls-13" x="290.34" y="471.64" width="3.47" height="3.44" transform="translate(-226.58 674.3) rotate(-79.5)"/>
      <rect class="cls-13" x="282.32" y="477.23" width="3.47" height="3.44" transform="translate(-238.63 670.98) rotate(-79.5)"/>
      <rect class="cls-13" x="283.59" y="470.39" width="3.47" height="3.44" transform="translate(-230.88 666.64) rotate(-79.5)"/>
      <rect class="cls-13" x="293.09" y="475.69" width="3.47" height="3.44" transform="translate(-228.31 680.32) rotate(-79.5)"/>
      <rect class="cls-13" x="295.85" y="479.74" width="3.47" height="3.44" transform="translate(-230.04 686.33) rotate(-79.5)"/>
      <rect class="cls-13" x="297.11" y="472.9" width="3.47" height="3.44" transform="translate(-222.28 681.98) rotate(-79.5)"/>
    </g>
  </g>
  <g id="grandstands">
    <g id="Imola">
      <g id="Tosa">
        <path idGrandstand="17877" class="cls-12" d="M562.84,195.96l-37.72-12.11,4.04-12.58,37.72,12.11-4.04,12.57ZM592.73,194.61l-25.02-8.45-4.23,12.51,25.03,8.45,4.22-12.51Z"/>
        <rect idGrandstand="20437" class="cls-12" x="413.98" y="179.56" width="39.62" height="13.21" transform="translate(-27.79 87.31) rotate(-11.14)"/>
      </g>
      <g id="Villeuneuve">
        <path idGrandstand="17917" class="cls-12" d="M451.89,388.43l8.54-25.96,11.84,3.89-8.54,25.96-11.84-3.89Z"/>
        <path idGrandstand="20447" class="cls-12" d="M467.93,291.4l7.1-43.86,20.01,3.24-7.1,43.87-20.01-3.24Z"/>
        <polygon idGrandstand="20457" class="cls-12" points="461.11 361.09 476.44 315.84 488.28 319.73 472.95 364.99 461.11 361.09"/>
      </g>
      <g id="paddock_club" data-name="paddock club">
        <rect idGrandstand="15428" class="cls-12" x="224.53" y="476.75" width="39.62" height="13.21"/>
      </g>
      <g id="Rivazza">
        <g id="rivazza2">
          <path idGrandstand="17897" class="cls-12" d="M74.03,440.35l-20.68,9.63-5.15-11.05,20.68-9.63,5.15,11.05ZM89.24,416.53l-20.68,9.63,5.15,11.05,20.68-9.63-5.15-11.05Z"/>
        </g>
        <g id="rivazza1">
          <polygon idGrandstand="17907" class="cls-12" points="150.66 453.01 108.15 470.44 103.17 460.29 107.58 453.01 136.35 440.76 146.64 442.67 150.66 453.01"/>
        </g>
      </g>
      <g id="Gresini">
        <g id="gresini1">
          <path idGrandstand="17887" class="cls-12" d="M213.84,341.48l-26.59,10.68-4.71-11.25,26.59-10.68,4.71,11.25Z"/>
        </g>
        <g id="gresini2">
          <path idGrandstand="22518" class="cls-12" d="M185.57,352.84l-26.59,10.68-4.71-11.25,26.59-10.68,4.71,11.25Z"/>
        </g>
      </g>
      <g id="starting_grid" data-name="starting grid">
        <g id="start1">
          <polygon idGrandstand="18017" class="cls-12" points="304.77 449.95 267.08 445.45 268.8 432.36 306.5 436.86 304.77 449.95"/>
        </g>
        <g id="start2">
          <polygon idGrandstand="15808" class="cls-12" points="264.5 444.3 226.7 444.52 226.7 431.32 264.5 431.09 264.5 444.3"/>
        </g>
        <g id="start3">
          <polygon idGrandstand="15828" class="cls-12" points="186.74 444.94 222.89 443.64 222.11 430.47 185.97 431.77 186.74 444.94"/>
        </g>
        <g id="start4">
          <polygon idGrandstand="15818" class="cls-12" points="184.02 444.94 157.43 447.72 156.43 434.55 183.02 431.77 184.02 444.94"/>
        </g>
      </g>
      <g id="acque_minerali" data-name="acque minerali">
        <g id="_1" data-name="1">
          <rect idGrandstand="22528" class="cls-12" x="354.53" y="356.82" width="13.21" height="26.41" transform="translate(-40.47 695.67) rotate(-84.73)"/>
        </g>
        <g id="_5" data-name="5">
          <polygon idGrandstand="20467" class="cls-12" points="330.54 337.96 290.59 338.27 290.83 325.07 330.77 324.75 330.54 337.96"/>
        </g>
        <g id="_2" data-name="2">
          <rect idGrandstand="20487" class="cls-12" x="318.66" y="362.39" width="26.41" height="13.21" transform="translate(-14.58 13.65) rotate(-2.31)"/>
        </g>
        <g id="_3" data-name="3">
          <rect idGrandstand="22538" class="cls-12" x="288.25" y="363.42" width="26.41" height="13.21" transform="translate(-14.65 12.43) rotate(-2.31)"/>
        </g>
      </g>
    </g>
  </g>
  <g id="misc">
    <rect class="cls-2" x="273.43" y="311.9" width="129.94" height="83.17" rx="5.57" ry="5.57"/>
    <rect class="cls-4" x="440.71" y="241.53" width="150.37" height="155.4" rx="6.73" ry="6.73"/>
    <rect class="cls-8" x="398.72" y="162.24" width="201.7" height="51.42" rx="6.85" ry="6.85"/>
    <g>
      <g>
        <path class="cls-12" d="M481.91,159.08v-1.46h6v1.46h-2.16v6.7h-1.66v-6.7h-2.18Z"/>
        <path class="cls-12" d="M494.52,164.9c-.51.68-1.38,1.01-2.62,1.01s-2.11-.34-2.62-1.01c-.51-.68-.76-1.73-.76-3.17s.25-2.51.76-3.21c.51-.7,1.38-1.05,2.62-1.05s2.11.35,2.62,1.05c.51.7.76,1.77.76,3.21s-.25,2.5-.76,3.17ZM490.58,163.85c.24.42.68.63,1.33.63s1.09-.21,1.33-.63.35-1.12.35-2.11-.12-1.71-.36-2.15c-.24-.45-.68-.67-1.32-.67s-1.08.22-1.32.67c-.24.45-.36,1.17-.36,2.15s.12,1.69.35,2.11Z"/>
        <path class="cls-12" d="M499.21,158.91c-.87,0-1.31.29-1.31.86,0,.26.11.45.32.59.22.14.72.33,1.52.59.8.26,1.35.55,1.67.87.32.32.48.82.48,1.49,0,.86-.26,1.5-.78,1.94-.52.44-1.2.66-2.04.66-.62,0-1.39-.1-2.29-.29l-.43-.08.17-1.28c1.07.14,1.89.22,2.46.22.85,0,1.27-.35,1.27-1.06,0-.26-.1-.46-.29-.6-.2-.14-.59-.3-1.17-.47-.93-.26-1.58-.58-1.96-.94-.38-.37-.57-.87-.57-1.52,0-.82.25-1.42.74-1.82.5-.4,1.18-.6,2.04-.6.59,0,1.34.08,2.26.24l.43.08-.13,1.31c-1.13-.13-1.92-.19-2.39-.19Z"/>
        <path class="cls-12" d="M502.45,165.77l1.84-8.16h3.14l1.84,8.16h-1.66l-.32-1.48h-2.86l-.32,1.48h-1.66ZM505.57,158.98l-.83,3.88h2.23l-.83-3.88h-.58Z"/>
      </g>
      <g>
        <path class="cls-5" d="M481.91,159.08v-1.46h6v1.46h-2.16v6.7h-1.66v-6.7h-2.18Z"/>
        <path class="cls-5" d="M494.52,164.9c-.51.68-1.38,1.01-2.62,1.01s-2.11-.34-2.62-1.01c-.51-.68-.76-1.73-.76-3.17s.25-2.51.76-3.21c.51-.7,1.38-1.05,2.62-1.05s2.11.35,2.62,1.05c.51.7.76,1.77.76,3.21s-.25,2.5-.76,3.17ZM490.58,163.85c.24.42.68.63,1.33.63s1.09-.21,1.33-.63.35-1.12.35-2.11-.12-1.71-.36-2.15c-.24-.45-.68-.67-1.32-.67s-1.08.22-1.32.67c-.24.45-.36,1.17-.36,2.15s.12,1.69.35,2.11Z"/>
        <path class="cls-5" d="M499.21,158.91c-.87,0-1.31.29-1.31.86,0,.26.11.45.32.59.22.14.72.33,1.52.59.8.26,1.35.55,1.67.87.32.32.48.82.48,1.49,0,.86-.26,1.5-.78,1.94-.52.44-1.2.66-2.04.66-.62,0-1.39-.1-2.29-.29l-.43-.08.17-1.28c1.07.14,1.89.22,2.46.22.85,0,1.27-.35,1.27-1.06,0-.26-.1-.46-.29-.6-.2-.14-.59-.3-1.17-.47-.93-.26-1.58-.58-1.96-.94-.38-.37-.57-.87-.57-1.52,0-.82.25-1.42.74-1.82.5-.4,1.18-.6,2.04-.6.59,0,1.34.08,2.26.24l.43.08-.13,1.31c-1.13-.13-1.92-.19-2.39-.19Z"/>
        <path class="cls-5" d="M502.45,165.77l1.84-8.16h3.14l1.84,8.16h-1.66l-.32-1.48h-2.86l-.32,1.48h-1.66ZM505.57,158.98l-.83,3.88h2.23l-.83-3.88h-.58Z"/>
      </g>
    </g>
    <g>
      <path class="cls-12" d="M481.91,159.08v-1.46h6v1.46h-2.16v6.7h-1.66v-6.7h-2.18Z"/>
      <path class="cls-12" d="M494.52,164.9c-.51.68-1.38,1.01-2.62,1.01s-2.11-.34-2.62-1.01c-.51-.68-.76-1.73-.76-3.17s.25-2.51.76-3.21c.51-.7,1.38-1.05,2.62-1.05s2.11.35,2.62,1.05c.51.7.76,1.77.76,3.21s-.25,2.5-.76,3.17ZM490.58,163.85c.24.42.68.63,1.33.63s1.09-.21,1.33-.63.35-1.12.35-2.11-.12-1.71-.36-2.15c-.24-.45-.68-.67-1.32-.67s-1.08.22-1.32.67c-.24.45-.36,1.17-.36,2.15s.12,1.69.35,2.11Z"/>
      <path class="cls-12" d="M499.21,158.91c-.87,0-1.31.29-1.31.86,0,.26.11.45.32.59.22.14.72.33,1.52.59.8.26,1.35.55,1.67.87.32.32.48.82.48,1.49,0,.86-.26,1.5-.78,1.94-.52.44-1.2.66-2.04.66-.62,0-1.39-.1-2.29-.29l-.43-.08.17-1.28c1.07.14,1.89.22,2.46.22.85,0,1.27-.35,1.27-1.06,0-.26-.1-.46-.29-.6-.2-.14-.59-.3-1.17-.47-.93-.26-1.58-.58-1.96-.94-.38-.37-.57-.87-.57-1.52,0-.82.25-1.42.74-1.82.5-.4,1.18-.6,2.04-.6.59,0,1.34.08,2.26.24l.43.08-.13,1.31c-1.13-.13-1.92-.19-2.39-.19Z"/>
      <path class="cls-12" d="M502.45,165.77l1.84-8.16h3.14l1.84,8.16h-1.66l-.32-1.48h-2.86l-.32,1.48h-1.66ZM505.57,158.98l-.83,3.88h2.23l-.83-3.88h-.58Z"/>
    </g>
    <rect class="cls-3" x="134.34" y="319.13" width="113.66" height="69.1" rx="5.44" ry="5.44"/>
    <rect class="cls-9" x="28.31" y="410.23" width="123.09" height="115.46" rx="6.91" ry="6.91"/>
    <path class="cls-7" d="M304.44,415.57h-145.23c-2.56,0-4.64,2.43-4.64,5.44v29.61c0,3,2.08,5.44,4.64,5.44h113.31l30.87-1.01c3.17-.1,5.69-2.88,5.69-6.26v-27.77c0-3-2.08-5.44-4.64-5.44Z"/>
  </g>
  <g id="Names">
    <g>
      <path class="cls-12" d="M206.51,502.72l-.04-6.8,4.34-.03v1.2s-2.95.02-2.95.02v2s2.43-.01,2.43-.01v1.2s-2.41.01-2.41.01v2.4s-1.37,0-1.37,0Z"/>
      <path class="cls-12" d="M215.23,496.07l.04,6.6h-1.38s-.03-5.03-.03-5.03l-1.42.93-.64-1.03,2.17-1.46h1.26Z"/>
      <path class="cls-12" d="M222.11,500.65h-1.12s.01,1.99.01,1.99h-1.38s-.04-6.79-.04-6.79h2.5c1.61-.02,2.42.76,2.43,2.33,0,.79-.2,1.4-.6,1.83s-1.01.64-1.8.65ZM220.98,499.47h1.11c.69-.01,1.03-.44,1.02-1.29,0-.42-.09-.72-.26-.9-.17-.18-.43-.27-.78-.27h-1.11s.01,2.47.01,2.47Z"/>
      <path class="cls-12" d="M224.75,502.61l1.49-6.81,2.62-.02,1.57,6.79h-1.38s-.28-1.22-.28-1.22h-2.38s-.26,1.25-.26,1.25h-1.38ZM227.32,496.94l-.67,3.23h1.86s-.71-3.24-.71-3.24h-.48Z"/>
      <path class="cls-12" d="M233.63,502.56h-2.29s-.04-6.79-.04-6.79h2.29c.59-.02,1.07.04,1.45.16.38.12.68.32.89.6.21.28.36.61.44,1,.08.38.13.88.13,1.49,0,.61-.03,1.12-.1,1.53-.07.4-.21.76-.41,1.08-.2.32-.5.55-.88.7-.39.15-.88.22-1.48.22ZM235.07,499.85c.01-.21.02-.51.01-.88,0-.38-.02-.68-.05-.91s-.09-.43-.19-.62c-.1-.19-.25-.31-.45-.38-.2-.07-.46-.1-.8-.1h-.91s.03,4.4.03,4.4h.91c.5,0,.86-.14,1.09-.39.19-.21.31-.58.35-1.12Z"/>
      <path class="cls-12" d="M240.01,502.52h-2.29s-.04-6.79-.04-6.79h2.29c.59-.02,1.07.04,1.45.16.38.12.68.32.89.61.21.28.36.61.44,1,.08.38.13.88.13,1.49,0,.61-.03,1.12-.1,1.53-.07.4-.21.76-.41,1.08-.2.32-.5.55-.88.7-.39.15-.88.22-1.48.22ZM241.45,499.81c.01-.21.02-.51.01-.88,0-.38-.02-.68-.05-.91s-.09-.43-.19-.62c-.1-.19-.25-.31-.45-.38s-.46-.1-.8-.1h-.91s.03,4.4.03,4.4h.91c.5,0,.86-.14,1.09-.39.19-.21.31-.58.35-1.12Z"/>
      <path class="cls-12" d="M248.8,501.74c-.42.57-1.15.85-2.18.86-1.03,0-1.76-.27-2.19-.83-.43-.56-.64-1.44-.65-2.64s.2-2.09.62-2.68c.42-.59,1.15-.88,2.18-.89,1.03,0,1.76.28,2.19.86.43.58.64,1.47.65,2.67s-.2,2.08-.62,2.65ZM245.51,500.88c.2.35.57.52,1.11.52.54,0,.91-.18,1.1-.53.19-.35.29-.94.28-1.76s-.11-1.42-.31-1.79c-.2-.37-.57-.56-1.1-.55-.53,0-.9.19-1.1.57-.2.38-.29.97-.29,1.8s.11,1.41.31,1.76Z"/>
      <path class="cls-12" d="M254.93,502.32c-.71.16-1.34.24-1.91.24-.57,0-1.02-.06-1.36-.2-.34-.14-.61-.36-.8-.67-.2-.31-.33-.67-.41-1.08-.08-.41-.12-.93-.12-1.56,0-1.31.17-2.23.54-2.75.37-.52,1.05-.78,2.04-.79.57,0,1.24.08,1.99.26l-.03,1.1c-.66-.1-1.21-.14-1.65-.14s-.75.06-.93.18c-.19.12-.32.34-.41.67-.09.33-.13.88-.12,1.67,0,.79.1,1.33.28,1.63.19.3.55.45,1.1.45.55,0,1.13-.05,1.75-.15l.04,1.13Z"/>
      <path class="cls-12" d="M257.43,502.42h-1.38s-.04-6.79-.04-6.79h1.38s.02,2.98.02,2.98l.92-.11,1.1-2.9h1.57s-1.46,3.41-1.46,3.41l1.54,3.38h-1.59s-1.16-2.69-1.16-2.69l-.92.11.02,2.61Z"/>
      <path class="cls-12" d="M268.49,502.24c-.71.16-1.34.24-1.91.24-.57,0-1.02-.06-1.36-.2-.34-.14-.61-.36-.8-.67-.2-.31-.33-.67-.41-1.08-.08-.41-.12-.93-.12-1.56,0-1.31.17-2.23.54-2.75s1.05-.78,2.04-.79c.57,0,1.24.08,1.99.26l-.03,1.1c-.66-.1-1.21-.14-1.65-.14-.44,0-.75.06-.93.18-.19.12-.32.34-.41.67-.09.33-.13.88-.12,1.67,0,.79.1,1.33.28,1.63.19.3.55.45,1.1.45.55,0,1.13-.05,1.75-.15l.04,1.13Z"/>
      <path class="cls-12" d="M273.48,502.32l-3.87.02-.04-6.8h1.38s.03,5.57.03,5.57h2.49s0,1.21,0,1.21Z"/>
      <path class="cls-12" d="M275.59,500.04c0,.79.41,1.19,1.22,1.18.81,0,1.21-.4,1.2-1.2l-.03-4.53h1.38s.03,4.49.03,4.49c0,.83-.21,1.45-.63,1.84-.43.39-1.07.59-1.94.6-.87,0-1.52-.19-1.95-.57s-.65-1-.66-1.83l-.03-4.5h1.38s.03,4.52.03,4.52Z"/>
      <path class="cls-12" d="M280.78,495.48l2.67-.02c.71,0,1.24.13,1.59.42.36.28.53.74.54,1.37,0,.38-.05.68-.16.91s-.3.42-.58.6c.3.12.52.31.67.54.15.24.22.57.22,1,0,.66-.19,1.15-.57,1.47s-.93.49-1.63.49l-2.71.02-.04-6.8ZM283.39,496.64h-1.22s0,1.63,0,1.63h1.23c.52-.01.78-.28.77-.82,0-.54-.27-.81-.79-.81ZM283.44,499.42h-1.26s.01,1.67.01,1.67h1.26c.3,0,.52-.07.66-.19.14-.12.21-.34.21-.66,0-.55-.3-.82-.88-.82Z"/>
    </g>
    <path class="cls-12" d="M169.45,431.04v-1.09h-2.8v-1.05l1.63-4.46h1.52l-1.77,4.31h1.42v-1.85h1.38v1.85h.63v1.2h-.63v1.09h-1.38Z"/>
    <path class="cls-12" d="M119.27,439.1v6.6h-1.38v-5.04l-1.43.92-.63-1.03,2.18-1.45h1.26Z"/>
    <g>
      <path class="cls-12" d="M48.38,514.11h-1.12v1.98h-1.38v-6.8h2.5c1.61,0,2.42.79,2.42,2.36,0,.79-.21,1.4-.62,1.83-.41.42-1.01.63-1.8.63ZM47.26,512.93h1.11c.69,0,1.03-.43,1.03-1.28,0-.42-.08-.72-.25-.91-.17-.18-.43-.27-.78-.27h-1.11v2.46Z"/>
      <path class="cls-12" d="M53.15,513.81v2.28h-1.38v-6.8h2.64c1.6,0,2.4.75,2.4,2.24,0,.89-.33,1.54-1,1.96l.97,2.6h-1.51l-.79-2.28h-1.33ZM55.15,512.33c.16-.2.24-.46.24-.79s-.08-.59-.25-.78c-.17-.19-.42-.29-.74-.29h-1.26v2.16h1.28c.33,0,.57-.1.73-.3Z"/>
      <path class="cls-12" d="M57.31,516.09l1.53-6.8h2.62l1.53,6.8h-1.38l-.27-1.23h-2.38l-.27,1.23h-1.38ZM59.92,510.43l-.69,3.23h1.86l-.69-3.23h-.48Z"/>
      <path class="cls-12" d="M62.93,510.51v-1.22h5v1.22h-1.8v5.58h-1.38v-5.58h-1.82Z"/>
      <path class="cls-12" d="M73.44,515.36c-.42.56-1.15.85-2.19.85s-1.76-.28-2.18-.85c-.42-.56-.64-1.44-.64-2.64s.21-2.09.64-2.67c.42-.58,1.15-.88,2.18-.88s1.76.29,2.19.88c.42.58.64,1.47.64,2.67s-.21,2.08-.64,2.64ZM70.15,514.48c.2.35.57.53,1.1.53s.91-.17,1.11-.53c.2-.35.29-.94.29-1.76s-.1-1.42-.3-1.79c-.2-.37-.57-.56-1.1-.56s-.9.19-1.1.56c-.2.37-.3.97-.3,1.79s.1,1.41.29,1.76Z"/>
      <path class="cls-12" d="M78.83,513.81v2.28h-1.38v-6.8h2.64c1.6,0,2.4.75,2.4,2.24,0,.89-.33,1.54-1,1.96l.97,2.6h-1.51l-.79-2.28h-1.33ZM80.84,512.33c.16-.2.24-.46.24-.79s-.08-.59-.25-.78c-.17-.19-.42-.29-.74-.29h-1.26v2.16h1.28c.33,0,.57-.1.73-.3Z"/>
      <path class="cls-12" d="M83.65,516.09v-6.8h1.38v6.8h-1.38Z"/>
      <path class="cls-12" d="M90.19,509.29h1.45l-1.58,6.8h-2.55l-1.58-6.8h1.45l1.18,5.6h.45l1.18-5.6Z"/>
      <path class="cls-12" d="M91.7,516.09l1.53-6.8h2.62l1.53,6.8h-1.38l-.27-1.23h-2.38l-.27,1.23h-1.38ZM94.3,510.43l-.69,3.23h1.86l-.69-3.23h-.48Z"/>
      <path class="cls-12" d="M97.96,510.49v-1.2h4.5v1.2l-2.84,4.22v.18h2.84v1.2h-4.5v-1.19l2.84-4.23v-.18h-2.84Z"/>
      <path class="cls-12" d="M103.28,510.49v-1.2h4.5v1.2l-2.84,4.22v.18h2.84v1.2h-4.5v-1.19l2.84-4.23v-.18h-2.84Z"/>
      <path class="cls-12" d="M108.36,516.09l1.53-6.8h2.62l1.53,6.8h-1.38l-.27-1.23h-2.38l-.27,1.23h-1.38ZM110.96,510.43l-.69,3.23h1.86l-.69-3.23h-.48Z"/>
    </g>
    <path class="cls-12" d="M67.6,425.15h-4.28v-1.17l1.41-1.43c.5-.51.85-.91,1.04-1.18s.29-.57.29-.88-.08-.53-.25-.66c-.16-.13-.4-.19-.69-.19-.45,0-.93.04-1.46.12l-.24.03-.07-1.07c.65-.2,1.33-.3,2.03-.3,1.4,0,2.1.63,2.1,1.89,0,.49-.11.92-.32,1.28s-.6.8-1.16,1.31l-1.15,1.04h2.74v1.2Z"/>
    <path class="cls-12" d="M192.06,328.62v6.6h-1.38v-5.04l-1.43.92-.63-1.03,2.18-1.45h1.26Z"/>
    <path class="cls-12" d="M167.43,345.21h-4.28v-1.17l1.41-1.43c.5-.51.85-.91,1.04-1.18s.29-.57.29-.88-.08-.53-.25-.66c-.16-.13-.4-.19-.69-.19-.45,0-.93.04-1.46.12l-.24.03-.07-1.07c.65-.2,1.33-.3,2.03-.3,1.4,0,2.1.63,2.1,1.89,0,.49-.11.92-.32,1.28-.21.36-.6.8-1.16,1.31l-1.15,1.04h2.74v1.2Z"/>
    <path class="cls-12" d="M247.07,429.69h-4.28v-1.17l1.41-1.43c.5-.51.85-.91,1.04-1.18.2-.27.29-.57.29-.88s-.08-.53-.25-.66c-.16-.13-.4-.19-.7-.19-.45,0-.93.04-1.46.12l-.24.03-.07-1.07c.65-.2,1.33-.3,2.03-.3,1.4,0,2.1.63,2.1,1.89,0,.49-.11.92-.32,1.28-.21.36-.6.8-1.16,1.31l-1.15,1.04h2.74v1.2Z"/>
    <path class="cls-12" d="M200.76,423.33c.61-.24,1.3-.36,2.05-.36s1.31.15,1.66.44.52.75.52,1.39-.26,1.13-.77,1.47c.32.17.55.35.69.54.14.19.21.48.21.89,0,.71-.18,1.24-.54,1.59-.36.35-.93.52-1.71.52-.58,0-1.19-.09-1.83-.26l-.32-.08.07-1.05c.75.13,1.37.19,1.88.19.69,0,1.03-.29,1.03-.88,0-.25-.09-.44-.26-.59-.18-.15-.41-.22-.7-.22h-1.33v-1.14h1.33c.22,0,.42-.09.58-.28.17-.19.26-.39.26-.62,0-.47-.33-.71-.99-.71-.46,0-.95.05-1.47.14l-.26.04-.09-1.02Z"/>
    <path class="cls-12" d="M288.35,426.35v6.6h-1.38v-5.04l-1.43.92-.63-1.03,2.18-1.45h1.26Z"/>
    <path class="cls-12" d="M299.72,383.34c.61-.24,1.3-.36,2.05-.36s1.31.15,1.66.44.52.76.52,1.39-.26,1.13-.77,1.47c.32.17.55.35.69.54.14.19.21.48.21.89,0,.71-.18,1.24-.54,1.59-.36.35-.93.52-1.71.52-.58,0-1.19-.09-1.83-.26l-.32-.08.07-1.05c.75.13,1.37.19,1.88.19.69,0,1.03-.29,1.03-.88,0-.25-.09-.44-.26-.59-.18-.15-.41-.22-.7-.22h-1.33v-1.14h1.33c.22,0,.42-.09.58-.28.17-.19.26-.39.26-.62,0-.47-.33-.71-.99-.71-.46,0-.95.05-1.47.14l-.26.04-.09-1.02Z"/>
    <g>
      <g>
        <path class="cls-12" d="M282.08,314.99l1.84-8.16h3.14l1.84,8.16h-1.66l-.32-1.48h-2.86l-.32,1.48h-1.66ZM285.2,308.2l-.83,3.88h2.23l-.83-3.88h-.58Z"/>
        <path class="cls-12" d="M295.05,314.86c-.85.18-1.61.28-2.29.28s-1.22-.08-1.63-.25c-.41-.17-.73-.44-.96-.8-.23-.37-.39-.8-.48-1.29-.09-.5-.13-1.12-.13-1.87,0-1.58.22-2.67.67-3.29.44-.62,1.26-.93,2.45-.93.69,0,1.48.11,2.39.32l-.05,1.32c-.79-.12-1.45-.18-1.97-.18s-.9.07-1.12.21c-.22.14-.39.41-.5.8-.11.39-.16,1.06-.16,2s.11,1.6.33,1.96c.22.36.66.55,1.32.55s1.36-.06,2.11-.17l.04,1.36Z"/>
        <path class="cls-12" d="M299.35,315.13c-1.25,0-2.12-.34-2.63-1.01-.5-.67-.76-1.73-.76-3.17s.25-2.52.76-3.22c.51-.7,1.38-1.05,2.62-1.05s2.11.35,2.62,1.05c.51.7.76,1.77.76,3.22,0,1.78-.42,2.97-1.26,3.59l1,1.61-1.51.71-1.08-1.76c-.08.02-.26.04-.53.04ZM298.02,313.07c.24.42.68.62,1.33.62s1.09-.21,1.33-.62.35-1.12.35-2.11-.12-1.71-.36-2.16c-.24-.45-.68-.67-1.32-.67s-1.08.22-1.32.67c-.24.45-.36,1.17-.36,2.16s.12,1.7.35,2.11Z"/>
        <path class="cls-12" d="M305.73,312.26c0,.95.48,1.43,1.45,1.43s1.45-.48,1.45-1.43v-5.44h1.66v5.4c0,1-.26,1.73-.77,2.2-.52.47-1.29.7-2.33.7s-1.82-.23-2.33-.7c-.52-.47-.77-1.2-.77-2.2v-5.4h1.66v5.44Z"/>
        <path class="cls-12" d="M312,314.99v-8.16h5.28v1.44h-3.62v1.91h2.9v1.42h-2.9v1.96h3.62v1.44h-5.28Z"/>
        <path class="cls-12" d="M321.28,314.99v-8.16h2.82l1.44,5.95,1.44-5.95h2.82v8.16h-1.66v-6.31h-.18l-1.6,5.95h-1.66l-1.6-5.95h-.18v6.31h-1.66Z"/>
        <path class="cls-12" d="M331.58,314.99v-8.16h1.66v8.16h-1.66Z"/>
        <path class="cls-12" d="M335.01,314.99v-8.16h2.8l1.97,6.72h.12v-6.72h1.66v8.16h-2.72l-2.04-6.72h-.12v6.72h-1.66Z"/>
        <path class="cls-12" d="M343.33,314.99v-8.16h5.28v1.44h-3.62v1.91h2.9v1.42h-2.9v1.96h3.62v1.44h-5.28Z"/>
        <path class="cls-12" d="M351.63,312.25v2.74h-1.66v-8.16h3.17c1.92,0,2.88.9,2.88,2.69,0,1.06-.4,1.85-1.2,2.35l1.16,3.12h-1.81l-.95-2.74h-1.6ZM354.04,310.48c.19-.24.29-.56.29-.95s-.1-.71-.31-.94-.5-.35-.88-.35h-1.51v2.59h1.54c.39,0,.68-.12.88-.36Z"/>
        <path class="cls-12" d="M356.63,314.99l1.84-8.16h3.14l1.84,8.16h-1.66l-.32-1.48h-2.86l-.32,1.48h-1.66ZM359.75,308.2l-.83,3.88h2.23l-.83-3.88h-.58Z"/>
        <path class="cls-12" d="M369.19,314.99h-4.64v-8.16h1.66v6.7h2.99v1.46Z"/>
        <path class="cls-12" d="M370.21,314.99v-8.16h1.66v8.16h-1.66Z"/>
      </g>
      <g>
        <path class="cls-1" d="M282.08,314.99l1.84-8.16h3.14l1.84,8.16h-1.66l-.32-1.48h-2.86l-.32,1.48h-1.66ZM285.2,308.2l-.83,3.88h2.23l-.83-3.88h-.58Z"/>
        <path class="cls-1" d="M295.05,314.86c-.85.18-1.61.28-2.29.28s-1.22-.08-1.63-.25c-.41-.17-.73-.44-.96-.8-.23-.37-.39-.8-.48-1.29-.09-.5-.13-1.12-.13-1.87,0-1.58.22-2.67.67-3.29.44-.62,1.26-.93,2.45-.93.69,0,1.48.11,2.39.32l-.05,1.32c-.79-.12-1.45-.18-1.97-.18s-.9.07-1.12.21c-.22.14-.39.41-.5.8-.11.39-.16,1.06-.16,2s.11,1.6.33,1.96c.22.36.66.55,1.32.55s1.36-.06,2.11-.17l.04,1.36Z"/>
        <path class="cls-1" d="M299.35,315.13c-1.25,0-2.12-.34-2.63-1.01-.5-.67-.76-1.73-.76-3.17s.25-2.52.76-3.22c.51-.7,1.38-1.05,2.62-1.05s2.11.35,2.62,1.05c.51.7.76,1.77.76,3.22,0,1.78-.42,2.97-1.26,3.59l1,1.61-1.51.71-1.08-1.76c-.08.02-.26.04-.53.04ZM298.02,313.07c.24.42.68.62,1.33.62s1.09-.21,1.33-.62.35-1.12.35-2.11-.12-1.71-.36-2.16c-.24-.45-.68-.67-1.32-.67s-1.08.22-1.32.67c-.24.45-.36,1.17-.36,2.16s.12,1.7.35,2.11Z"/>
        <path class="cls-1" d="M305.73,312.26c0,.95.48,1.43,1.45,1.43s1.45-.48,1.45-1.43v-5.44h1.66v5.4c0,1-.26,1.73-.77,2.2-.52.47-1.29.7-2.33.7s-1.82-.23-2.33-.7c-.52-.47-.77-1.2-.77-2.2v-5.4h1.66v5.44Z"/>
        <path class="cls-1" d="M312,314.99v-8.16h5.28v1.44h-3.62v1.91h2.9v1.42h-2.9v1.96h3.62v1.44h-5.28Z"/>
        <path class="cls-1" d="M321.28,314.99v-8.16h2.82l1.44,5.95,1.44-5.95h2.82v8.16h-1.66v-6.31h-.18l-1.6,5.95h-1.66l-1.6-5.95h-.18v6.31h-1.66Z"/>
        <path class="cls-1" d="M331.58,314.99v-8.16h1.66v8.16h-1.66Z"/>
        <path class="cls-1" d="M335.01,314.99v-8.16h2.8l1.97,6.72h.12v-6.72h1.66v8.16h-2.72l-2.04-6.72h-.12v6.72h-1.66Z"/>
        <path class="cls-1" d="M343.33,314.99v-8.16h5.28v1.44h-3.62v1.91h2.9v1.42h-2.9v1.96h3.62v1.44h-5.28Z"/>
        <path class="cls-1" d="M351.63,312.25v2.74h-1.66v-8.16h3.17c1.92,0,2.88.9,2.88,2.69,0,1.06-.4,1.85-1.2,2.35l1.16,3.12h-1.81l-.95-2.74h-1.6ZM354.04,310.48c.19-.24.29-.56.29-.95s-.1-.71-.31-.94-.5-.35-.88-.35h-1.51v2.59h1.54c.39,0,.68-.12.88-.36Z"/>
        <path class="cls-1" d="M356.63,314.99l1.84-8.16h3.14l1.84,8.16h-1.66l-.32-1.48h-2.86l-.32,1.48h-1.66ZM359.75,308.2l-.83,3.88h2.23l-.83-3.88h-.58Z"/>
        <path class="cls-1" d="M369.19,314.99h-4.64v-8.16h1.66v6.7h2.99v1.46Z"/>
        <path class="cls-1" d="M370.21,314.99v-8.16h1.66v8.16h-1.66Z"/>
      </g>
    </g>
    <g>
      <path class="cls-12" d="M282.37,314.38l1.84-8.16h3.14l1.84,8.16h-1.66l-.32-1.48h-2.86l-.32,1.48h-1.66ZM285.49,307.59l-.83,3.88h2.23l-.83-3.88h-.58Z"/>
      <path class="cls-12" d="M295.34,314.25c-.85.18-1.61.28-2.29.28s-1.22-.08-1.63-.25c-.41-.17-.73-.44-.96-.8-.23-.37-.39-.8-.48-1.3-.09-.5-.13-1.12-.13-1.87,0-1.58.22-2.67.67-3.29.44-.62,1.26-.93,2.45-.93.69,0,1.48.11,2.39.32l-.05,1.32c-.79-.12-1.45-.18-1.97-.18s-.9.07-1.12.21c-.22.14-.39.41-.5.8-.11.39-.16,1.06-.16,2s.11,1.6.33,1.96c.22.37.66.55,1.32.55s1.36-.06,2.11-.17l.04,1.36Z"/>
      <path class="cls-12" d="M299.63,314.53c-1.25,0-2.12-.34-2.63-1.01-.5-.67-.76-1.73-.76-3.17s.25-2.52.76-3.21c.51-.7,1.38-1.05,2.62-1.05s2.11.35,2.62,1.05c.51.7.76,1.77.76,3.22,0,1.78-.42,2.97-1.26,3.59l1,1.61-1.51.71-1.08-1.76c-.08.02-.26.04-.53.04ZM298.31,312.46c.24.42.68.62,1.33.62s1.09-.21,1.33-.62.35-1.12.35-2.11-.12-1.71-.36-2.16c-.24-.45-.68-.67-1.32-.67s-1.08.22-1.32.67c-.24.45-.36,1.17-.36,2.16s.12,1.7.35,2.11Z"/>
      <path class="cls-12" d="M306.02,311.66c0,.95.48,1.43,1.45,1.43s1.45-.48,1.45-1.43v-5.44h1.66v5.4c0,1-.26,1.73-.77,2.2-.52.47-1.29.7-2.33.7s-1.82-.23-2.33-.7c-.52-.47-.77-1.2-.77-2.2v-5.4h1.66v5.44Z"/>
      <path class="cls-12" d="M312.28,314.38v-8.16h5.28v1.44h-3.62v1.91h2.9v1.42h-2.9v1.96h3.62v1.44h-5.28Z"/>
      <path class="cls-12" d="M321.57,314.38v-8.16h2.82l1.44,5.95,1.44-5.95h2.82v8.16h-1.66v-6.31h-.18l-1.6,5.95h-1.66l-1.6-5.95h-.18v6.31h-1.66Z"/>
      <path class="cls-12" d="M331.87,314.38v-8.16h1.66v8.16h-1.66Z"/>
      <path class="cls-12" d="M335.3,314.38v-8.16h2.8l1.97,6.72h.12v-6.72h1.66v8.16h-2.72l-2.04-6.72h-.12v6.72h-1.66Z"/>
      <path class="cls-12" d="M343.61,314.38v-8.16h5.28v1.44h-3.62v1.91h2.9v1.42h-2.9v1.96h3.62v1.44h-5.28Z"/>
      <path class="cls-12" d="M351.92,311.65v2.74h-1.66v-8.16h3.17c1.92,0,2.88.9,2.88,2.69,0,1.06-.4,1.85-1.2,2.35l1.16,3.12h-1.81l-.95-2.74h-1.6ZM354.33,309.87c.19-.24.29-.56.29-.95s-.1-.7-.31-.94-.5-.35-.88-.35h-1.51v2.59h1.54c.39,0,.68-.12.88-.36Z"/>
      <path class="cls-12" d="M356.92,314.38l1.84-8.16h3.14l1.84,8.16h-1.66l-.32-1.48h-2.86l-.32,1.48h-1.66ZM360.04,307.59l-.83,3.88h2.23l-.83-3.88h-.58Z"/>
      <path class="cls-12" d="M369.47,314.38h-4.64v-8.16h1.66v6.7h2.99v1.46Z"/>
      <path class="cls-12" d="M370.49,314.38v-8.16h1.66v8.16h-1.66Z"/>
    </g>
    <g>
      <g>
        <path class="cls-12" d="M201.09,411.77c-.87,0-1.31.29-1.31.86,0,.26.11.45.32.59.22.14.72.33,1.52.59.8.26,1.35.55,1.67.87s.48.82.48,1.49c0,.86-.26,1.5-.78,1.94-.52.44-1.2.66-2.04.66-.62,0-1.39-.1-2.29-.29l-.43-.08.17-1.28c1.07.14,1.89.22,2.46.22.85,0,1.27-.35,1.27-1.06,0-.26-.1-.46-.29-.6-.2-.14-.59-.3-1.17-.47-.93-.26-1.58-.58-1.96-.94-.38-.36-.57-.87-.57-1.52,0-.82.25-1.42.74-1.82s1.18-.6,2.04-.6c.59,0,1.34.08,2.26.24l.43.08-.13,1.31c-1.13-.13-1.92-.19-2.39-.19Z"/>
        <path class="cls-12" d="M204.38,411.94v-1.46h6v1.46h-2.16v6.7h-1.66v-6.7h-2.18Z"/>
        <path class="cls-12" d="M210.29,418.64l1.84-8.16h3.14l1.84,8.16h-1.66l-.32-1.48h-2.86l-.32,1.48h-1.66ZM213.41,411.84l-.83,3.88h2.23l-.83-3.88h-.58Z"/>
        <path class="cls-12" d="M219.86,415.9v2.74h-1.66v-8.16h3.17c1.92,0,2.88.9,2.88,2.69,0,1.06-.4,1.85-1.2,2.35l1.16,3.12h-1.81l-.95-2.74h-1.6ZM222.27,414.12c.19-.24.29-.56.29-.95s-.1-.7-.31-.94c-.2-.23-.5-.35-.88-.35h-1.51v2.59h1.54c.39,0,.68-.12.88-.36Z"/>
        <path class="cls-12" d="M224.91,411.94v-1.46h6v1.46h-2.16v6.7h-1.66v-6.7h-2.18Z"/>
        <path class="cls-12" d="M234.08,418.54l3.46-8.52,1.42.5-3.46,8.52-1.42-.5Z"/>
        <path class="cls-12" d="M245.83,416.26h-1.34v2.38h-1.66v-8.16h3c1.94,0,2.9.94,2.9,2.83,0,.95-.25,1.68-.74,2.19-.49.51-1.21.76-2.17.76ZM244.48,414.84h1.33c.82,0,1.24-.51,1.24-1.54,0-.5-.1-.87-.3-1.09-.2-.22-.51-.33-.94-.33h-1.33v2.95Z"/>
        <path class="cls-12" d="M248.98,418.64l1.84-8.16h3.14l1.84,8.16h-1.66l-.32-1.48h-2.86l-.32,1.48h-1.66ZM252.1,411.84l-.83,3.88h2.23l-.83-3.88h-.58Z"/>
        <path class="cls-12" d="M258.54,415.9v2.74h-1.66v-8.16h3.17c1.92,0,2.88.9,2.88,2.69,0,1.06-.4,1.85-1.2,2.35l1.16,3.12h-1.81l-.95-2.74h-1.6ZM260.96,414.12c.19-.24.29-.56.29-.95s-.1-.7-.31-.94c-.2-.23-.5-.35-.88-.35h-1.51v2.59h1.54c.39,0,.68-.12.88-.36Z"/>
        <path class="cls-12" d="M263.6,411.94v-1.46h6v1.46h-2.16v6.7h-1.66v-6.7h-2.18Z"/>
        <path class="cls-12" d="M270.64,418.64v-8.16h5.28v1.44h-3.62v1.91h2.9v1.42h-2.9v1.96h3.62v1.44h-5.28Z"/>
        <path class="cls-12" d="M277.29,418.64v-8.16h2.8l1.97,6.72h.12v-6.72h1.66v8.16h-2.72l-2.04-6.72h-.12v6.72h-1.66Z"/>
        <path class="cls-12" d="M285.21,411.92v-1.44h5.4v1.44l-3.41,5.06v.22h3.41v1.44h-5.4v-1.43l3.41-5.08v-.22h-3.41Z"/>
        <path class="cls-12" d="M291.3,418.64l1.84-8.16h3.14l1.84,8.16h-1.66l-.32-1.48h-2.86l-.32,1.48h-1.66ZM294.42,411.84l-.83,3.88h2.23l-.83-3.88h-.58Z"/>
      </g>
      <g>
        <path class="cls-1" d="M201.09,411.77c-.87,0-1.31.29-1.31.86,0,.26.11.45.32.59.22.14.72.33,1.52.59.8.26,1.35.55,1.67.87s.48.82.48,1.49c0,.86-.26,1.5-.78,1.94-.52.44-1.2.66-2.04.66-.62,0-1.39-.1-2.29-.29l-.43-.08.17-1.28c1.07.14,1.89.22,2.46.22.85,0,1.27-.35,1.27-1.06,0-.26-.1-.46-.29-.6-.2-.14-.59-.3-1.17-.47-.93-.26-1.58-.58-1.96-.94-.38-.36-.57-.87-.57-1.52,0-.82.25-1.42.74-1.82s1.18-.6,2.04-.6c.59,0,1.34.08,2.26.24l.43.08-.13,1.31c-1.13-.13-1.92-.19-2.39-.19Z"/>
        <path class="cls-1" d="M204.38,411.94v-1.46h6v1.46h-2.16v6.7h-1.66v-6.7h-2.18Z"/>
        <path class="cls-1" d="M210.29,418.64l1.84-8.16h3.14l1.84,8.16h-1.66l-.32-1.48h-2.86l-.32,1.48h-1.66ZM213.41,411.84l-.83,3.88h2.23l-.83-3.88h-.58Z"/>
        <path class="cls-1" d="M219.86,415.9v2.74h-1.66v-8.16h3.17c1.92,0,2.88.9,2.88,2.69,0,1.06-.4,1.85-1.2,2.35l1.16,3.12h-1.81l-.95-2.74h-1.6ZM222.27,414.12c.19-.24.29-.56.29-.95s-.1-.7-.31-.94c-.2-.23-.5-.35-.88-.35h-1.51v2.59h1.54c.39,0,.68-.12.88-.36Z"/>
        <path class="cls-1" d="M224.91,411.94v-1.46h6v1.46h-2.16v6.7h-1.66v-6.7h-2.18Z"/>
        <path class="cls-1" d="M234.08,418.54l3.46-8.52,1.42.5-3.46,8.52-1.42-.5Z"/>
        <path class="cls-1" d="M245.83,416.26h-1.34v2.38h-1.66v-8.16h3c1.94,0,2.9.94,2.9,2.83,0,.95-.25,1.68-.74,2.19-.49.51-1.21.76-2.17.76ZM244.48,414.84h1.33c.82,0,1.24-.51,1.24-1.54,0-.5-.1-.87-.3-1.09-.2-.22-.51-.33-.94-.33h-1.33v2.95Z"/>
        <path class="cls-1" d="M248.98,418.64l1.84-8.16h3.14l1.84,8.16h-1.66l-.32-1.48h-2.86l-.32,1.48h-1.66ZM252.1,411.84l-.83,3.88h2.23l-.83-3.88h-.58Z"/>
        <path class="cls-1" d="M258.54,415.9v2.74h-1.66v-8.16h3.17c1.92,0,2.88.9,2.88,2.69,0,1.06-.4,1.85-1.2,2.35l1.16,3.12h-1.81l-.95-2.74h-1.6ZM260.96,414.12c.19-.24.29-.56.29-.95s-.1-.7-.31-.94c-.2-.23-.5-.35-.88-.35h-1.51v2.59h1.54c.39,0,.68-.12.88-.36Z"/>
        <path class="cls-1" d="M263.6,411.94v-1.46h6v1.46h-2.16v6.7h-1.66v-6.7h-2.18Z"/>
        <path class="cls-1" d="M270.64,418.64v-8.16h5.28v1.44h-3.62v1.91h2.9v1.42h-2.9v1.96h3.62v1.44h-5.28Z"/>
        <path class="cls-1" d="M277.29,418.64v-8.16h2.8l1.97,6.72h.12v-6.72h1.66v8.16h-2.72l-2.04-6.72h-.12v6.72h-1.66Z"/>
        <path class="cls-1" d="M285.21,411.92v-1.44h5.4v1.44l-3.41,5.06v.22h3.41v1.44h-5.4v-1.43l3.41-5.08v-.22h-3.41Z"/>
        <path class="cls-1" d="M291.3,418.64l1.84-8.16h3.14l1.84,8.16h-1.66l-.32-1.48h-2.86l-.32,1.48h-1.66ZM294.42,411.84l-.83,3.88h2.23l-.83-3.88h-.58Z"/>
      </g>
    </g>
    <g>
      <path class="cls-12" d="M201.09,411.77c-.87,0-1.31.29-1.31.86,0,.26.11.45.32.59.22.14.72.33,1.52.59.8.26,1.35.55,1.67.87s.48.82.48,1.49c0,.86-.26,1.5-.78,1.94-.52.44-1.2.66-2.04.66-.62,0-1.39-.1-2.29-.29l-.43-.08.17-1.28c1.07.14,1.89.22,2.46.22.85,0,1.27-.35,1.27-1.06,0-.26-.1-.46-.29-.6-.2-.14-.59-.3-1.17-.47-.93-.26-1.58-.58-1.96-.94-.38-.36-.57-.87-.57-1.52,0-.82.25-1.42.74-1.82s1.18-.6,2.04-.6c.59,0,1.34.08,2.26.24l.43.08-.13,1.31c-1.13-.13-1.92-.19-2.39-.19Z"/>
      <path class="cls-12" d="M204.38,411.94v-1.46h6v1.46h-2.16v6.7h-1.66v-6.7h-2.18Z"/>
      <path class="cls-12" d="M210.29,418.64l1.84-8.16h3.14l1.84,8.16h-1.66l-.32-1.48h-2.86l-.32,1.48h-1.66ZM213.41,411.84l-.83,3.88h2.23l-.83-3.88h-.58Z"/>
      <path class="cls-12" d="M219.86,415.9v2.74h-1.66v-8.16h3.17c1.92,0,2.88.9,2.88,2.69,0,1.06-.4,1.85-1.2,2.35l1.16,3.12h-1.81l-.95-2.74h-1.6ZM222.27,414.12c.19-.24.29-.56.29-.95s-.1-.7-.31-.94c-.2-.23-.5-.35-.88-.35h-1.51v2.59h1.54c.39,0,.68-.12.88-.36Z"/>
      <path class="cls-12" d="M224.91,411.94v-1.46h6v1.46h-2.16v6.7h-1.66v-6.7h-2.18Z"/>
      <path class="cls-12" d="M234.08,418.54l3.46-8.52,1.42.5-3.46,8.52-1.42-.5Z"/>
      <path class="cls-12" d="M245.83,416.26h-1.34v2.38h-1.66v-8.16h3c1.94,0,2.9.94,2.9,2.83,0,.95-.25,1.68-.74,2.19-.49.51-1.21.76-2.17.76ZM244.48,414.84h1.33c.82,0,1.24-.51,1.24-1.54,0-.5-.1-.87-.3-1.09-.2-.22-.51-.33-.94-.33h-1.33v2.95Z"/>
      <path class="cls-12" d="M248.98,418.64l1.84-8.16h3.14l1.84,8.16h-1.66l-.32-1.48h-2.86l-.32,1.48h-1.66ZM252.1,411.84l-.83,3.88h2.23l-.83-3.88h-.58Z"/>
      <path class="cls-12" d="M258.54,415.9v2.74h-1.66v-8.16h3.17c1.92,0,2.88.9,2.88,2.69,0,1.06-.4,1.85-1.2,2.35l1.16,3.12h-1.81l-.95-2.74h-1.6ZM260.96,414.12c.19-.24.29-.56.29-.95s-.1-.7-.31-.94c-.2-.23-.5-.35-.88-.35h-1.51v2.59h1.54c.39,0,.68-.12.88-.36Z"/>
      <path class="cls-12" d="M263.6,411.94v-1.46h6v1.46h-2.16v6.7h-1.66v-6.7h-2.18Z"/>
      <path class="cls-12" d="M270.64,418.64v-8.16h5.28v1.44h-3.62v1.91h2.9v1.42h-2.9v1.96h3.62v1.44h-5.28Z"/>
      <path class="cls-12" d="M277.29,418.64v-8.16h2.8l1.97,6.72h.12v-6.72h1.66v8.16h-2.72l-2.04-6.72h-.12v6.72h-1.66Z"/>
      <path class="cls-12" d="M285.21,411.92v-1.44h5.4v1.44l-3.41,5.06v.22h3.41v1.44h-5.4v-1.43l3.41-5.08v-.22h-3.41Z"/>
      <path class="cls-12" d="M291.3,418.64l1.84-8.16h3.14l1.84,8.16h-1.66l-.32-1.48h-2.86l-.32,1.48h-1.66ZM294.42,411.84l-.83,3.88h2.23l-.83-3.88h-.58Z"/>
    </g>
    <g>
      <path class="cls-12" d="M522.99,317.72h1.74l-1.9,8.16h-3.06l-1.9-8.16h1.74l1.42,6.72h.54l1.42-6.72Z"/>
      <path class="cls-12" d="M525.81,325.88v-8.16h1.66v8.16h-1.66Z"/>
      <path class="cls-12" d="M533.88,325.88h-4.64v-8.16h1.66v6.7h2.99v1.46Z"/>
      <path class="cls-12" d="M539.55,325.88h-4.64v-8.16h1.66v6.7h2.99v1.46Z"/>
      <path class="cls-12" d="M540.57,325.88v-8.16h5.28v1.44h-3.62v1.91h2.9v1.42h-2.9v1.96h3.62v1.44h-5.28Z"/>
      <path class="cls-12" d="M547.22,325.88v-8.16h2.8l1.97,6.72h.12v-6.72h1.66v8.16h-2.72l-2.04-6.72h-.12v6.72h-1.66Z"/>
      <path class="cls-12" d="M555.53,325.88v-8.16h5.28v1.44h-3.62v1.91h2.9v1.42h-2.9v1.96h3.62v1.44h-5.28Z"/>
      <path class="cls-12" d="M563.76,323.15c0,.95.48,1.43,1.45,1.43s1.45-.48,1.45-1.43v-5.44h1.66v5.4c0,1-.26,1.73-.77,2.2s-1.29.7-2.33.7-1.82-.23-2.33-.7-.77-1.2-.77-2.2v-5.4h1.66v5.44Z"/>
      <path class="cls-12" d="M574.44,317.72h1.74l-1.9,8.16h-3.06l-1.9-8.16h1.74l1.42,6.72h.54l1.42-6.72Z"/>
      <path class="cls-12" d="M577.26,325.88v-8.16h5.28v1.44h-3.62v1.91h2.9v1.42h-2.9v1.96h3.62v1.44h-5.28Z"/>
    </g>
    <path class="cls-12" d="M335.05,388.17h-4.28v-1.17l1.41-1.43c.5-.51.85-.91,1.04-1.18s.29-.57.29-.88-.08-.53-.25-.66c-.16-.13-.4-.19-.69-.19-.45,0-.93.04-1.46.12l-.24.03-.07-1.07c.65-.2,1.33-.3,2.03-.3,1.4,0,2.1.63,2.1,1.89,0,.49-.11.92-.32,1.28-.21.36-.6.8-1.16,1.31l-1.15,1.04h2.74v1.2Z"/>
    <path class="cls-12" d="M340.13,327.25v1.2h-2.95l-.17,1.43c.41-.16.81-.24,1.18-.24,1.43,0,2.14.66,2.14,1.99,0,.75-.2,1.32-.59,1.73-.39.41-.95.61-1.67.61-.31,0-.65-.03-1.04-.09-.39-.06-.7-.12-.94-.19l-.36-.09.15-1.02c.81.13,1.48.19,2.02.19.33,0,.58-.09.75-.26.17-.17.26-.42.26-.75s-.07-.56-.22-.71c-.15-.15-.35-.22-.62-.22-.45,0-.84.04-1.18.13l-.15.04-.82-.19.18-3.57h4.03Z"/>
    <path class="cls-12" d="M363.79,383.1v6.6h-1.38v-5.04l-1.43.92-.63-1.03,2.18-1.45h1.26Z"/>
    <path class="cls-12" d="M568.45,173.97v6.6h-1.38v-5.04l-1.43.92-.63-1.03,2.18-1.45h1.26Z"/>
    <path class="cls-12" d="M435.92,175.79h-4.28v-1.17l1.41-1.43c.5-.51.85-.91,1.04-1.18s.29-.57.29-.88-.08-.53-.25-.66c-.16-.13-.4-.19-.69-.19-.45,0-.93.04-1.46.12l-.24.03-.07-1.07c.65-.2,1.33-.3,2.03-.3,1.4,0,2.1.63,2.1,1.89,0,.49-.11.92-.32,1.28-.21.36-.6.8-1.16,1.31l-1.15,1.04h2.74v1.2Z"/>
    <path class="cls-12" d="M451.34,366.82v6.6h-1.38v-5.04l-1.43.92-.63-1.03,2.18-1.45h1.26Z"/>
    <path class="cls-12" d="M461.66,346.35h-4.28v-1.17l1.41-1.43c.5-.51.85-.91,1.04-1.18s.29-.57.29-.88-.08-.53-.25-.66c-.16-.13-.4-.19-.69-.19-.45,0-.93.04-1.46.12l-.24.03-.07-1.07c.65-.2,1.33-.3,2.03-.3,1.4,0,2.1.63,2.1,1.89,0,.49-.11.92-.32,1.28s-.6.8-1.16,1.31l-1.15,1.04h2.74v1.2Z"/>
    <path class="cls-12" d="M461.38,265.87c.61-.24,1.3-.36,2.05-.36s1.31.14,1.66.44c.35.29.52.75.52,1.39s-.26,1.13-.77,1.47c.32.17.55.35.69.54.14.19.21.48.21.89,0,.71-.18,1.24-.54,1.59-.36.35-.93.52-1.71.52-.58,0-1.19-.09-1.83-.26l-.32-.08.07-1.05c.75.13,1.37.19,1.88.19.69,0,1.03-.29,1.03-.88,0-.25-.09-.44-.26-.59-.18-.15-.41-.22-.7-.22h-1.33v-1.14h1.33c.22,0,.42-.09.58-.28.17-.19.26-.39.26-.62,0-.47-.33-.71-.99-.71-.46,0-.95.05-1.47.14l-.26.04-.09-1.02Z"/>
    <g>
      <g>
        <path class="cls-12" d="M171.18,319.86v-1.44h2.38v4.24c-1.14.18-2.07.28-2.78.28-1.27,0-2.15-.34-2.62-1.02s-.71-1.76-.71-3.24.25-2.55.74-3.2c.5-.66,1.34-.98,2.53-.98.74,0,1.55.08,2.41.25l.43.08-.05,1.28c-.96-.1-1.75-.16-2.36-.16s-1.04.07-1.29.22c-.25.14-.43.41-.55.8-.12.39-.17,1.05-.17,1.99s.12,1.6.35,1.97.71.56,1.44.56l1-.05v-1.58h-.74Z"/>
        <path class="cls-12" d="M176.77,320.05v2.74h-1.66v-8.16h3.17c1.92,0,2.88.9,2.88,2.69,0,1.06-.4,1.85-1.2,2.35l1.16,3.12h-1.81l-.95-2.74h-1.6ZM179.18,318.27c.19-.24.29-.56.29-.95s-.1-.71-.31-.94-.5-.35-.88-.35h-1.51v2.59h1.54c.39,0,.68-.12.88-.36Z"/>
        <path class="cls-12" d="M182.55,322.79v-8.16h5.28v1.44h-3.62v1.91h2.9v1.42h-2.9v1.96h3.62v1.44h-5.28Z"/>
        <path class="cls-12" d="M191.71,315.92c-.87,0-1.31.29-1.31.86,0,.26.11.45.32.59.22.14.72.33,1.52.59.8.26,1.35.55,1.67.87s.48.82.48,1.49c0,.86-.26,1.5-.78,1.94-.52.44-1.2.66-2.04.66-.62,0-1.39-.1-2.29-.29l-.43-.08.17-1.28c1.07.14,1.89.22,2.46.22.85,0,1.27-.35,1.27-1.06,0-.26-.1-.46-.29-.6-.2-.14-.59-.3-1.17-.47-.93-.26-1.58-.58-1.96-.94-.38-.36-.57-.87-.57-1.52,0-.82.25-1.42.74-1.82s1.18-.6,2.04-.6c.59,0,1.34.08,2.26.24l.43.08-.13,1.31c-1.13-.13-1.92-.19-2.39-.19Z"/>
        <path class="cls-12" d="M195.73,322.79v-8.16h1.66v8.16h-1.66Z"/>
        <path class="cls-12" d="M199.16,322.79v-8.16h2.8l1.97,6.72h.12v-6.72h1.66v8.16h-2.72l-2.04-6.72h-.12v6.72h-1.66Z"/>
        <path class="cls-12" d="M207.48,322.79v-8.16h1.66v8.16h-1.66Z"/>
      </g>
      <g>
        <path class="cls-5" d="M171.18,319.86v-1.44h2.38v4.24c-1.14.18-2.07.28-2.78.28-1.27,0-2.15-.34-2.62-1.02s-.71-1.76-.71-3.24.25-2.55.74-3.2c.5-.66,1.34-.98,2.53-.98.74,0,1.55.08,2.41.25l.43.08-.05,1.28c-.96-.1-1.75-.16-2.36-.16s-1.04.07-1.29.22c-.25.14-.43.41-.55.8-.12.39-.17,1.05-.17,1.99s.12,1.6.35,1.97.71.56,1.44.56l1-.05v-1.58h-.74Z"/>
        <path class="cls-5" d="M176.77,320.05v2.74h-1.66v-8.16h3.17c1.92,0,2.88.9,2.88,2.69,0,1.06-.4,1.85-1.2,2.35l1.16,3.12h-1.81l-.95-2.74h-1.6ZM179.18,318.27c.19-.24.29-.56.29-.95s-.1-.71-.31-.94-.5-.35-.88-.35h-1.51v2.59h1.54c.39,0,.68-.12.88-.36Z"/>
        <path class="cls-5" d="M182.55,322.79v-8.16h5.28v1.44h-3.62v1.91h2.9v1.42h-2.9v1.96h3.62v1.44h-5.28Z"/>
        <path class="cls-5" d="M191.71,315.92c-.87,0-1.31.29-1.31.86,0,.26.11.45.32.59.22.14.72.33,1.52.59.8.26,1.35.55,1.67.87s.48.82.48,1.49c0,.86-.26,1.5-.78,1.94-.52.44-1.2.66-2.04.66-.62,0-1.39-.1-2.29-.29l-.43-.08.17-1.28c1.07.14,1.89.22,2.46.22.85,0,1.27-.35,1.27-1.06,0-.26-.1-.46-.29-.6-.2-.14-.59-.3-1.17-.47-.93-.26-1.58-.58-1.96-.94-.38-.36-.57-.87-.57-1.52,0-.82.25-1.42.74-1.82s1.18-.6,2.04-.6c.59,0,1.34.08,2.26.24l.43.08-.13,1.31c-1.13-.13-1.92-.19-2.39-.19Z"/>
        <path class="cls-5" d="M195.73,322.79v-8.16h1.66v8.16h-1.66Z"/>
        <path class="cls-5" d="M199.16,322.79v-8.16h2.8l1.97,6.72h.12v-6.72h1.66v8.16h-2.72l-2.04-6.72h-.12v6.72h-1.66Z"/>
        <path class="cls-5" d="M207.48,322.79v-8.16h1.66v8.16h-1.66Z"/>
      </g>
    </g>
    <g>
      <path class="cls-12" d="M171.18,319.86v-1.44h2.38v4.24c-1.14.18-2.07.28-2.78.28-1.27,0-2.15-.34-2.62-1.02s-.71-1.76-.71-3.24.25-2.55.74-3.2c.5-.66,1.34-.98,2.53-.98.74,0,1.55.08,2.41.25l.43.08-.05,1.28c-.96-.1-1.75-.16-2.36-.16s-1.04.07-1.29.22c-.25.14-.43.41-.55.8-.12.39-.17,1.05-.17,1.99s.12,1.6.35,1.97.71.56,1.44.56l1-.05v-1.58h-.74Z"/>
      <path class="cls-12" d="M176.77,320.05v2.74h-1.66v-8.16h3.17c1.92,0,2.88.9,2.88,2.69,0,1.06-.4,1.85-1.2,2.35l1.16,3.12h-1.81l-.95-2.74h-1.6ZM179.18,318.27c.19-.24.29-.56.29-.95s-.1-.71-.31-.94-.5-.35-.88-.35h-1.51v2.59h1.54c.39,0,.68-.12.88-.36Z"/>
      <path class="cls-12" d="M182.55,322.79v-8.16h5.28v1.44h-3.62v1.91h2.9v1.42h-2.9v1.96h3.62v1.44h-5.28Z"/>
      <path class="cls-12" d="M191.71,315.92c-.87,0-1.31.29-1.31.86,0,.26.11.45.32.59.22.14.72.33,1.52.59.8.26,1.35.55,1.67.87s.48.82.48,1.49c0,.86-.26,1.5-.78,1.94-.52.44-1.2.66-2.04.66-.62,0-1.39-.1-2.29-.29l-.43-.08.17-1.28c1.07.14,1.89.22,2.46.22.85,0,1.27-.35,1.27-1.06,0-.26-.1-.46-.29-.6-.2-.14-.59-.3-1.17-.47-.93-.26-1.58-.58-1.96-.94-.38-.36-.57-.87-.57-1.52,0-.82.25-1.42.74-1.82s1.18-.6,2.04-.6c.59,0,1.34.08,2.26.24l.43.08-.13,1.31c-1.13-.13-1.92-.19-2.39-.19Z"/>
      <path class="cls-12" d="M195.73,322.79v-8.16h1.66v8.16h-1.66Z"/>
      <path class="cls-12" d="M199.16,322.79v-8.16h2.8l1.97,6.72h.12v-6.72h1.66v8.16h-2.72l-2.04-6.72h-.12v6.72h-1.66Z"/>
      <path class="cls-12" d="M207.48,322.79v-8.16h1.66v8.16h-1.66Z"/>
    </g>
    <g>
      <g>
        <path class="cls-11" d="M45.52,410.68v2.74h-1.66v-8.16h3.17c1.92,0,2.88.9,2.88,2.69,0,1.06-.4,1.85-1.2,2.35l1.16,3.12h-1.81l-.95-2.74h-1.6ZM47.93,408.9c.19-.24.29-.56.29-.95s-.1-.7-.31-.94c-.2-.23-.5-.35-.88-.35h-1.51v2.59h1.54c.39,0,.68-.12.88-.36Z"/>
        <path class="cls-11" d="M51.3,413.42v-8.16h1.66v8.16h-1.66Z"/>
        <path class="cls-11" d="M59.15,405.25h1.74l-1.9,8.16h-3.06l-1.9-8.16h1.74l1.42,6.72h.54l1.42-6.72Z"/>
        <path class="cls-11" d="M60.96,413.42l1.84-8.16h3.14l1.84,8.16h-1.66l-.32-1.48h-2.86l-.32,1.48h-1.66ZM64.08,406.62l-.83,3.88h2.23l-.83-3.88h-.58Z"/>
        <path class="cls-11" d="M68.47,406.69v-1.44h5.4v1.44l-3.41,5.06v.22h3.41v1.44h-5.4v-1.43l3.41-5.08v-.22h-3.41Z"/>
        <path class="cls-11" d="M74.86,406.69v-1.44h5.4v1.44l-3.41,5.06v.22h3.41v1.44h-5.4v-1.43l3.41-5.08v-.22h-3.41Z"/>
        <path class="cls-11" d="M80.95,413.42l1.84-8.16h3.14l1.84,8.16h-1.66l-.32-1.48h-2.86l-.32,1.48h-1.66ZM84.07,406.62l-.83,3.88h2.23l-.83-3.88h-.58Z"/>
      </g>
      <g>
        <path class="cls-12" d="M45.52,410.68v2.74h-1.66v-8.16h3.17c1.92,0,2.88.9,2.88,2.69,0,1.06-.4,1.85-1.2,2.35l1.16,3.12h-1.81l-.95-2.74h-1.6ZM47.93,408.9c.19-.24.29-.56.29-.95s-.1-.7-.31-.94c-.2-.23-.5-.35-.88-.35h-1.51v2.59h1.54c.39,0,.68-.12.88-.36Z"/>
        <path class="cls-12" d="M51.3,413.42v-8.16h1.66v8.16h-1.66Z"/>
        <path class="cls-12" d="M59.15,405.25h1.74l-1.9,8.16h-3.06l-1.9-8.16h1.74l1.42,6.72h.54l1.42-6.72Z"/>
        <path class="cls-12" d="M60.96,413.42l1.84-8.16h3.14l1.84,8.16h-1.66l-.32-1.48h-2.86l-.32,1.48h-1.66ZM64.08,406.62l-.83,3.88h2.23l-.83-3.88h-.58Z"/>
        <path class="cls-12" d="M68.47,406.69v-1.44h5.4v1.44l-3.41,5.06v.22h3.41v1.44h-5.4v-1.43l3.41-5.08v-.22h-3.41Z"/>
        <path class="cls-12" d="M74.86,406.69v-1.44h5.4v1.44l-3.41,5.06v.22h3.41v1.44h-5.4v-1.43l3.41-5.08v-.22h-3.41Z"/>
        <path class="cls-12" d="M80.95,413.42l1.84-8.16h3.14l1.84,8.16h-1.66l-.32-1.48h-2.86l-.32,1.48h-1.66ZM84.07,406.62l-.83,3.88h2.23l-.83-3.88h-.58Z"/>
      </g>
    </g>
  </g>
</svg>