<?xml version="1.0" encoding="UTF-8"?>
<svg xmlns="http://www.w3.org/2000/svg" viewBox="0 0 630 800">
  <defs>
    <style>
      .cls-1 {
        stroke-width: 17px;
      }

      .cls-1, .cls-2, .cls-3, .cls-4, .cls-5 {
        fill: none;
      }

      .cls-1, .cls-4 {
        stroke: #fff;
      }

      .cls-2 {
        stroke-width: 13px;
      }

      .cls-2, .cls-5 {
        stroke: #000;
      }

      .cls-3 {
        stroke: #1d1d1b;
        stroke-miterlimit: 10;
      }

      .cls-4 {
        stroke-width: 1.8px;
      }

      .cls-6 {
        fill-rule: evenodd;
      }

      .cls-6, .cls-7, .cls-8 {
        stroke-width: 0px;
      }

      .cls-6, .cls-8 {
        fill: #7d7d7d;
      }

      .cls-5 {
        stroke-width: 15.3px;
      }


     #GA path, #GA rect{
        mask: url(#mask-stripe)
      }

    </style>


   <pattern id="pattern-stripe" 
            width="4" height="4" 
            patternUnits="userSpaceOnUse"
            patternTransform="rotate(45)">
            <rect width="1.5" height="4" transform="translate(0,0)" fill="white"></rect>
    </pattern>
    <mask id="mask-stripe">
            <rect x="0" y="0" width="100%" height="100%" fill="url(#pattern-stripe)" />
    </mask>  
    

  </defs>
  <g id="GA">
    <path idGrandstand="9565" class="cls-6" d="m402.96,451.44c-8.3-15.68-24.6,9.84-24.6,9.84l40.59,24.6s-7.69-18.76-15.99-34.44Zm-76.66,16.67l13.84-23.37c-13.22,6.76-44.59,7.38-44.59,7.38l30.75,15.99Zm-193.19-178.31l9.55,8.77c11.31-7.21,14.43-24.18,14.43-24.18-3.31-1.56-17.35-4.09-17.35-4.09l-6.63,19.5ZM25.11,212.73l20.73,9.25,3.94-10.28s-14.22-6.85-24.67,1.03Zm65.62,25.48c8.27,2.76,26.8,8.37,26.8,8.37l2.12-9.88-25.26-8.02-3.66,9.53Z"/>
  </g>
  <g id="track">
    <g id="Track">
      <g>
        <path id="Track_OL" data-name="Track OL" class="cls-1" d="m496.95,411.82c22.05,10.1,31.78,28.4,43.05,30.83,9.51,2.06,25.64-9.35,37.8-10.19,11.89-.83,20.13,11.99,13.69,20.87-8.48,11.69-21.19,15.93-21.19,15.93,0,0-43.05,18.09-53.31,21.4-10.42,3.36-15.44,4.24-21.4,1.22-6.22-3.15-7.56-4.9-15.71-6.62-10.83-2.29-33.81,14.37-60.5,6.21-26.7-8.17-49.3-29.68-49.3-29.68,0,0-8.43-6.73-13.36-1.41-3.86,4.16-3.39,14.76-9.77,20.3-6.12,5.31-13.1,3.64-19.76-.4-6.66-4.05-55.99-28.38-82.61-49.92-26.61-21.54-49.4-40.55-50.55-44.39-1.6-5.36,1.76-21.53-4.14-28.99-5.56-7.03-79.05-74.63-79.05-74.63,0,0-3.57-3.55-7.32-5.61-5.86-3.22-57.11-23.63-57.11-23.63,0,0-11.31-3.48-7.98-12.37,3.9-10.4,16.22-4.37,16.22-4.37,0,0,35.1,11.87,43.32,15.26,7.82,3.22,68.62,13.75,93.13,23.36,19.53,7.66,57.59,19.54,85.41,28.99,5.22,1.77,116.93,49.66,116.93,49.66,0,0,6.08,1.96,6.05,7.31-.02,3.12-1.23,6.38,4.1,9.08,5.33,2.7,84.17,37.59,93.36,41.8Z"/>
        <path id="Track-2" data-name="Track" class="cls-2" d="m496.95,411.82c22.05,10.1,31.78,28.4,43.05,30.83,9.51,2.06,25.64-9.35,37.8-10.19,11.89-.83,20.13,11.99,13.69,20.87-8.48,11.69-21.19,15.93-21.19,15.93,0,0-43.05,18.09-53.31,21.4-10.42,3.36-15.44,4.24-21.4,1.22-6.22-3.15-7.56-4.9-15.71-6.62-10.83-2.29-33.81,14.37-60.5,6.21-26.7-8.17-49.3-29.68-49.3-29.68,0,0-8.43-6.73-13.36-1.41-3.86,4.16-3.39,14.76-9.77,20.3-6.12,5.31-13.1,3.64-19.76-.4-6.66-4.05-55.99-28.38-82.61-49.92-26.61-21.54-49.4-40.55-50.55-44.39-1.6-5.36,1.76-21.53-4.14-28.99-5.56-7.03-79.05-74.63-79.05-74.63,0,0-3.57-3.55-7.32-5.61-5.86-3.22-57.11-23.63-57.11-23.63,0,0-11.31-3.48-7.98-12.37,3.9-10.4,16.22-4.37,16.22-4.37,0,0,28.97,9.94,37.19,13.32,7.82,3.22,74.75,15.68,99.27,25.3,19.53,7.66,57.59,19.54,85.41,28.99,5.22,1.77,116.93,49.66,116.93,49.66,0,0,6.08,1.96,6.05,7.31-.02,3.12-1.23,6.38,4.1,9.08,5.33,2.7,84.17,37.59,93.36,41.8Z"/>
      </g>
      <g>
        <path id="Track_OL-2" data-name="Track OL" class="cls-5" d="m496.95,411.82c22.05,10.1,31.78,28.4,43.05,30.83,9.51,2.06,25.64-9.35,37.8-10.19,11.89-.83,20.13,11.99,13.69,20.87-8.48,11.69-21.19,15.93-21.19,15.93,0,0-43.05,18.09-53.31,21.4-10.42,3.36-15.44,4.24-21.4,1.22-6.22-3.15-7.56-4.9-15.71-6.62-10.83-2.29-33.81,14.37-60.5,6.21-26.7-8.17-49.3-29.68-49.3-29.68,0,0-8.43-6.73-13.36-1.41-3.86,4.16-3.39,14.76-9.77,20.3-6.12,5.31-13.1,3.64-19.76-.4-6.66-4.05-55.99-28.38-82.61-49.92-26.61-21.54-49.4-40.55-50.55-44.39-1.6-5.36,1.76-21.53-4.14-28.99-5.56-7.03-79.05-74.63-79.05-74.63,0,0-3.57-3.55-7.32-5.61-5.86-3.22-57.11-23.63-57.11-23.63,0,0-11.31-3.48-7.98-12.37,3.9-10.4,16.22-4.37,16.22-4.37,0,0,35.1,11.87,43.32,15.26,7.82,3.22,68.62,13.75,93.13,23.36,19.53,7.66,57.59,19.54,85.41,28.99,5.22,1.77,116.93,49.66,116.93,49.66,0,0,6.08,1.96,6.05,7.31-.02,3.12-1.23,6.38,4.1,9.08,5.33,2.7,84.17,37.59,93.36,41.8Z"/>
        <path id="Track-3" data-name="Track" class="cls-5" d="m496.95,411.82c22.05,10.1,31.78,28.4,43.05,30.83,9.51,2.06,25.64-9.35,37.8-10.19,11.89-.83,20.13,11.99,13.69,20.87-8.48,11.69-21.19,15.93-21.19,15.93,0,0-43.05,18.09-53.31,21.4-10.42,3.36-15.44,4.24-21.4,1.22-6.22-3.15-7.56-4.9-15.71-6.62-10.83-2.29-33.81,14.37-60.5,6.21-26.7-8.17-49.3-29.68-49.3-29.68,0,0-8.43-6.73-13.36-1.41-3.86,4.16-3.39,14.76-9.77,20.3-6.12,5.31-13.1,3.64-19.76-.4-6.66-4.05-55.99-28.38-82.61-49.92-26.61-21.54-49.4-40.55-50.55-44.39-1.6-5.36,1.76-21.53-4.14-28.99-5.56-7.03-79.05-74.63-79.05-74.63,0,0-3.57-3.55-7.32-5.61-5.86-3.22-57.11-23.63-57.11-23.63,0,0-11.31-3.48-7.98-12.37,3.9-10.4,16.22-4.37,16.22-4.37,0,0,28.97,9.94,37.19,13.32,7.82,3.22,74.75,15.68,99.27,25.3,19.53,7.66,57.59,19.54,85.41,28.99,5.22,1.77,116.93,49.66,116.93,49.66,0,0,6.08,1.96,6.05,7.31-.02,3.12-1.23,6.38,4.1,9.08,5.33,2.7,84.17,37.59,93.36,41.8Z"/>
      </g>
      <g>
        <path id="Track_OL-3" data-name="Track OL" class="cls-4" d="m496.95,411.82c22.05,10.1,31.78,28.4,43.05,30.83,9.51,2.06,25.64-9.35,37.8-10.19,11.89-.83,20.13,11.99,13.69,20.87-8.48,11.69-21.19,15.93-21.19,15.93,0,0-43.05,18.09-53.31,21.4-10.42,3.36-15.44,4.24-21.4,1.22-6.22-3.15-7.56-4.9-15.71-6.62-10.83-2.29-33.81,14.37-60.5,6.21-26.7-8.17-49.3-29.68-49.3-29.68,0,0-8.43-6.73-13.36-1.41-3.86,4.16-3.39,14.76-9.77,20.3-6.12,5.31-13.1,3.64-19.76-.4-6.66-4.05-55.99-28.38-82.61-49.92-26.61-21.54-49.4-40.55-50.55-44.39-1.6-5.36,1.76-21.53-4.14-28.99-5.56-7.03-79.05-74.63-79.05-74.63,0,0-3.57-3.55-7.32-5.61-5.86-3.22-57.11-23.63-57.11-23.63,0,0-11.31-3.48-7.98-12.37,3.9-10.4,16.22-4.37,16.22-4.37,0,0,35.1,11.87,43.32,15.26,7.82,3.22,68.62,13.75,93.13,23.36,19.53,7.66,57.59,19.54,85.41,28.99,5.22,1.77,116.93,49.66,116.93,49.66,0,0,6.08,1.96,6.05,7.31-.02,3.12-1.23,6.38,4.1,9.08,5.33,2.7,84.17,37.59,93.36,41.8Z"/>
        <path id="Track-4" data-name="Track" class="cls-4" d="m496.95,411.82c22.05,10.1,31.78,28.4,43.05,30.83,9.51,2.06,25.64-9.35,37.8-10.19,11.89-.83,20.13,11.99,13.69,20.87-8.48,11.69-21.19,15.93-21.19,15.93,0,0-43.05,18.09-53.31,21.4-10.42,3.36-15.44,4.24-21.4,1.22-6.22-3.15-7.56-4.9-15.71-6.62-10.83-2.29-33.81,14.37-60.5,6.21-26.7-8.17-49.3-29.68-49.3-29.68,0,0-8.43-6.73-13.36-1.41-3.86,4.16-3.39,14.76-9.77,20.3-6.12,5.31-13.1,3.64-19.76-.4-6.66-4.05-55.99-28.38-82.61-49.92-26.61-21.54-49.4-40.55-50.55-44.39-1.6-5.36,1.76-21.53-4.14-28.99-5.56-7.03-79.05-74.63-79.05-74.63,0,0-3.57-3.55-7.32-5.61-5.86-3.22-57.11-23.63-57.11-23.63,0,0-11.31-3.48-7.98-12.37,3.9-10.4,16.22-4.37,16.22-4.37,0,0,28.97,9.94,37.19,13.32,7.82,3.22,74.75,15.68,99.27,25.3,19.53,7.66,57.59,19.54,85.41,28.99,5.22,1.77,116.93,49.66,116.93,49.66,0,0,6.08,1.96,6.05,7.31-.02,3.12-1.23,6.38,4.1,9.08,5.33,2.7,84.17,37.59,93.36,41.8Z"/>
      </g>
    </g>
  </g>
  <g id="arrow">
    <g>
      <path class="cls-7" d="m521.22,413.58l4.58-1.6c.21-.07.36-.2.46-.4s.11-.41.03-.62l-1.46-4.66,1.48-.47,1.44,4.66c.21.61.16,1.21-.12,1.79-.29.58-.74.97-1.34,1.16l-4.56,1.61-.5-1.46Z"/>
      <path class="cls-7" d="m511.88,408.94l4.58-1.6c.21-.07.36-.2.46-.4s.11-.41.03-.62l-1.46-4.66,1.48-.47,1.44,4.66c.21.61.16,1.21-.12,1.79s-.74.97-1.34,1.16l-4.56,1.61-.5-1.46Z"/>
      <path class="cls-7" d="m516.55,411.26l4.58-1.6c.21-.07.36-.2.46-.4s.11-.41.03-.62l-1.46-4.66,1.48-.47,1.44,4.66c.21.61.16,1.21-.12,1.79s-.74.97-1.34,1.16l-4.56,1.61-.5-1.46Z"/>
    </g>
  </g>
  <g id="start">
    <g>
      <rect class="cls-7" x="494.72" y="394.76" width="3.47" height="3.44" transform="translate(-79.57 664.55) rotate(-63.57)"/>
      <rect class="cls-7" x="496.25" y="399.4" width="3.47" height="3.44" transform="translate(-82.87 668.5) rotate(-63.57)"/>
      <rect class="cls-7" x="499.35" y="393.18" width="3.47" height="3.44" transform="translate(-75.58 667.82) rotate(-63.57)"/>
      <rect class="cls-7" x="490.1" y="396.34" width="3.47" height="3.44" transform="translate(-83.55 661.3) rotate(-63.57)"/>
      <rect class="cls-7" x="493.2" y="390.12" width="3.47" height="3.44" transform="translate(-76.26 660.61) rotate(-63.57)"/>
      <rect class="cls-7" x="500.88" y="397.82" width="3.47" height="3.44" transform="translate(-78.89 671.77) rotate(-63.57)"/>
      <rect class="cls-7" x="502.42" y="402.47" width="3.47" height="3.44" transform="translate(-82.2 675.72) rotate(-63.57)"/>
      <rect class="cls-7" x="505.51" y="396.24" width="3.47" height="3.44" transform="translate(-74.91 675.04) rotate(-63.57)"/>
    </g>
  </g>
  <g id="hospitality_products_misc" data-name="hospitality products / misc">
    <g id="hospitality-names">
      <g>
        <path class="cls-8" d="m552.09,399.19v-4.76h3.08v.84h-2.11v1.11h1.69v.83h-1.69v1.14h2.11v.84h-3.08Z"/>
        <path class="cls-8" d="m555.93,399.19v-4.9h.94v4.9h-.94Z"/>
        <path class="cls-8" d="m557.78,395.24v-.95h.94v.95h-.94Zm0,3.95v-3.5h.94v3.5h-.94Z"/>
        <path class="cls-8" d="m561.52,396.49h-.86v1.44c0,.14,0,.24.01.3,0,.06.03.11.08.15.04.04.11.06.21.06h.53s.04.73.04.73c-.31.07-.55.11-.71.11-.42,0-.71-.09-.86-.28-.15-.19-.23-.54-.23-1.05v-1.46h-.41v-.8h.41v-.97h.94v.97h.86v.8Z"/>
        <path class="cls-8" d="m563.07,398.31c.11.1.27.14.47.14.43,0,.82-.01,1.16-.04l.2-.02v.69c-.52.13-1.01.2-1.44.2-.53,0-.91-.14-1.15-.42-.24-.28-.36-.74-.36-1.37,0-1.25.52-1.88,1.55-1.88s1.53.53,1.53,1.58l-.07.65h-2.06c0,.21.06.37.17.46Zm1.03-1.18c0-.28-.04-.48-.13-.58-.09-.11-.24-.17-.47-.17s-.38.06-.47.17c-.09.11-.14.31-.14.58h1.21Z"/>
        <path class="cls-8" d="m543.03,404v1.6h-.97v-4.76h1.85c1.12,0,1.68.52,1.68,1.57,0,.62-.23,1.08-.7,1.37l.68,1.82h-1.06l-.55-1.6h-.93Zm1.41-1.04c.11-.14.17-.32.17-.55s-.06-.41-.18-.55c-.12-.13-.29-.2-.51-.2h-.88v1.51h.9c.23,0,.4-.07.51-.21Z"/>
        <path class="cls-8" d="m547.21,404.71c.11.1.27.14.47.14.43,0,.82-.01,1.16-.04l.2-.02v.69c-.52.13-1.01.2-1.44.2-.53,0-.91-.14-1.15-.42-.24-.28-.36-.74-.36-1.37,0-1.25.52-1.88,1.55-1.88s1.53.53,1.53,1.58l-.07.65h-2.06c0,.21.06.37.17.46Zm1.03-1.18c0-.28-.04-.47-.13-.58-.09-.11-.24-.17-.47-.17s-.38.06-.47.17c-.09.11-.14.31-.14.58h1.21Z"/>
        <path class="cls-8" d="m552.35,402.97c-.58-.07-.98-.11-1.21-.11s-.38.02-.45.06c-.07.04-.1.11-.1.2s.05.15.14.19c.09.03.32.09.7.15.38.07.64.18.8.33.16.15.24.4.24.75,0,.76-.47,1.13-1.41,1.13-.31,0-.68-.04-1.12-.13l-.22-.04.03-.78c.58.08.98.11,1.21.11s.38-.02.46-.07c.08-.04.12-.11.12-.2s-.04-.15-.13-.2c-.09-.04-.31-.09-.67-.15-.36-.06-.63-.16-.81-.31-.18-.14-.27-.4-.27-.77s.13-.65.38-.84c.25-.19.58-.28.97-.28.28,0,.65.04,1.13.13l.23.04v.78Z"/>
        <path class="cls-8" d="m555.08,402.89h-.86v1.44c0,.14,0,.24.01.3,0,.06.03.11.08.15.04.04.11.06.21.06h.53s.04.73.04.73c-.31.07-.55.11-.71.11-.42,0-.71-.09-.86-.28-.15-.19-.23-.54-.23-1.05v-1.46h-.41v-.8h.41v-.97h.94v.97h.86v.8Z"/>
        <path class="cls-8" d="m558.37,403.18v1.46c0,.11.03.19.06.23.03.04.09.08.17.09l-.03.71c-.24,0-.43-.02-.57-.05-.14-.03-.29-.1-.43-.2-.34.16-.68.25-1.03.25-.72,0-1.08-.38-1.08-1.15,0-.37.1-.64.3-.79.2-.16.51-.25.92-.28l.75-.06v-.22c0-.14-.03-.24-.1-.3s-.17-.08-.32-.08l-1.32.06-.03-.65c.5-.14.97-.2,1.42-.2s.77.09.97.28.3.49.3.9Zm-1.58.92c-.26.02-.39.16-.39.42s.11.39.34.39c.18,0,.37-.03.58-.08l.1-.03v-.75l-.64.06Z"/>
        <path class="cls-8" d="m561.33,402.09h.94v3.5h-.93v-.2c-.34.19-.63.28-.88.28-.49,0-.81-.13-.98-.4s-.25-.72-.25-1.35v-1.83h.94v1.85c0,.35.03.58.08.71s.19.19.41.19.4-.03.58-.1l.09-.03v-2.62Z"/>
        <path class="cls-8" d="m563.13,405.59v-3.5h.93v.37c.39-.23.76-.38,1.12-.46v.95c-.38.08-.7.16-.97.25l-.14.05v2.34h-.94Z"/>
        <path class="cls-8" d="m568.42,403.18v1.46c0,.11.03.19.06.23.03.04.09.08.17.09l-.03.71c-.24,0-.43-.02-.57-.05-.14-.03-.29-.1-.43-.2-.34.16-.68.25-1.03.25-.72,0-1.08-.38-1.08-1.15,0-.37.1-.64.3-.79.2-.16.51-.25.92-.28l.75-.06v-.22c0-.14-.03-.24-.1-.3s-.17-.08-.32-.08l-1.32.06-.03-.65c.5-.14.97-.2,1.42-.2s.77.09.97.28.3.49.3.9Zm-1.58.92c-.26.02-.39.16-.39.42s.11.39.34.39c.18,0,.37-.03.58-.08l.1-.03v-.75l-.64.06Z"/>
        <path class="cls-8" d="m570.25,405.59h-.94v-3.5h.93v.2c.32-.19.61-.28.88-.28.47,0,.79.14.97.41.18.28.27.7.27,1.27v1.9h-.94v-1.87c0-.3-.04-.52-.11-.66-.07-.14-.21-.21-.42-.21-.19,0-.38.03-.55.1l-.08.03v2.62Z"/>
        <path class="cls-8" d="m575.12,402.89h-.86v1.44c0,.14,0,.24.01.3,0,.06.03.11.08.15.04.04.11.06.21.06h.53s.04.73.04.73c-.31.07-.55.11-.71.11-.42,0-.71-.09-.86-.28-.15-.19-.23-.54-.23-1.05v-1.46h-.41v-.8h.41v-.97h.94v.97h.86v.8Z"/>
      </g>
      <g>
        <path class="cls-8" d="m490.25,455.27c-.51,0-.76.17-.76.5,0,.15.06.26.19.34.13.08.42.19.89.34.46.15.79.32.98.51.19.19.28.48.28.87,0,.5-.15.88-.46,1.13-.3.26-.7.38-1.19.38-.36,0-.81-.06-1.34-.17l-.25-.05.1-.75c.62.08,1.1.13,1.43.13.5,0,.74-.21.74-.62,0-.15-.06-.27-.17-.35-.12-.08-.34-.18-.68-.27-.54-.15-.92-.34-1.14-.55-.22-.21-.33-.51-.33-.88,0-.48.14-.83.43-1.06.29-.23.69-.35,1.19-.35.35,0,.78.05,1.32.14l.25.05-.08.76c-.66-.08-1.12-.11-1.39-.11Z"/>
        <path class="cls-8" d="m493.46,458.38c.11.1.27.14.47.14.43,0,.82-.01,1.16-.04l.2-.02v.69c-.52.13-1.01.2-1.44.2-.53,0-.91-.14-1.15-.42-.24-.28-.36-.74-.36-1.37,0-1.25.52-1.88,1.55-1.88s1.53.53,1.53,1.58l-.07.65h-2.06c0,.21.06.37.17.46Zm1.03-1.18c0-.28-.04-.47-.13-.58-.09-.11-.24-.17-.47-.17s-.38.06-.47.17c-.09.11-.14.31-.14.58h1.21Z"/>
        <path class="cls-8" d="m497.02,459.27h-.94v-3.5h.93v.2c.32-.19.61-.28.88-.28.47,0,.79.14.97.41.18.28.27.7.27,1.27v1.9h-.94v-1.87c0-.3-.04-.52-.11-.66-.07-.14-.21-.21-.42-.21-.19,0-.38.03-.55.1l-.08.03v2.62Z"/>
        <path class="cls-8" d="m500.89,459.27h-.94v-3.5h.93v.2c.32-.19.61-.28.88-.28.47,0,.79.14.97.41.18.28.27.7.27,1.27v1.9h-.94v-1.87c0-.3-.04-.52-.11-.66-.07-.14-.21-.21-.42-.21-.19,0-.38.03-.55.1l-.08.03v2.62Z"/>
        <path class="cls-8" d="m506.51,456.86v1.46c0,.11.03.19.06.23.03.04.09.08.17.09l-.03.71c-.24,0-.43-.02-.57-.05-.14-.03-.29-.1-.43-.2-.34.16-.68.25-1.03.25-.72,0-1.08-.38-1.08-1.15,0-.37.1-.64.3-.79.2-.16.51-.25.92-.28l.75-.06v-.22c0-.14-.03-.24-.1-.3s-.17-.08-.32-.08l-1.32.06-.03-.65c.5-.14.97-.2,1.42-.2s.77.09.97.28.3.49.3.9Zm-1.58.92c-.26.02-.39.16-.39.42s.11.39.34.39c.18,0,.37-.03.58-.08l.1-.03v-.75l-.64.06Z"/>
        <path class="cls-8" d="m512.04,459.19c-.5.11-.94.16-1.34.16s-.71-.05-.95-.15c-.24-.1-.42-.25-.56-.47-.13-.21-.23-.47-.28-.76-.05-.29-.08-.65-.08-1.09,0-.92.13-1.56.39-1.92.26-.36.74-.54,1.43-.54.4,0,.87.06,1.39.19l-.03.77c-.46-.07-.85-.11-1.15-.11s-.52.04-.65.12c-.13.08-.23.24-.29.46-.06.23-.09.62-.09,1.17s.06.93.19,1.14c.13.21.38.32.77.32s.79-.03,1.23-.1l.02.79Z"/>
        <path class="cls-8" d="m512.79,459.27v-4.9h.94v4.9h-.94Z"/>
        <path class="cls-8" d="m516.7,455.77h.94v3.5h-.93v-.2c-.34.19-.63.28-.88.28-.49,0-.81-.13-.98-.4s-.25-.72-.25-1.35v-1.83h.94v1.85c0,.35.03.58.08.71s.19.19.41.19.4-.03.58-.1l.09-.03v-2.62Z"/>
        <path class="cls-8" d="m520.2,455.69c.49,0,.85.13,1.07.4.23.27.34.75.34,1.44s-.13,1.17-.39,1.43c-.26.26-.71.4-1.35.4-.2,0-.57-.02-1.1-.07l-.27-.03v-4.89h.94v1.51c.3-.13.55-.19.76-.19Zm-.33,2.83c.31,0,.52-.08.63-.23s.16-.42.16-.82c0-.63-.2-.95-.59-.95-.19,0-.36.02-.53.07l-.1.02v1.87c.21.02.36.03.43.03Z"/>
      </g>
      <g>
        <path class="cls-8" d="m463.66,438.43h-.78v1.39h-.97v-4.76h1.75c1.13,0,1.69.55,1.69,1.65,0,.56-.14.98-.43,1.28-.29.3-.71.44-1.26.44Zm-.78-.83h.78c.48,0,.72-.3.72-.9,0-.29-.06-.5-.18-.63-.12-.13-.3-.19-.55-.19h-.78v1.72Z"/>
        <path class="cls-8" d="m466.14,436.71c.25-.32.66-.48,1.24-.48s.99.16,1.24.48c.25.32.37.77.37,1.35,0,1.23-.54,1.84-1.61,1.84s-1.61-.61-1.61-1.84c0-.58.12-1.03.37-1.35Zm.72,2.14c.1.17.27.25.51.25s.42-.08.51-.25c.09-.17.14-.43.14-.79s-.05-.62-.14-.78c-.1-.16-.27-.25-.51-.25s-.42.08-.51.25-.14.42-.14.78.05.62.14.79Z"/>
        <path class="cls-8" d="m472.65,434.91v4.9h-.93v-.15c-.33.15-.61.23-.85.23-.51,0-.86-.15-1.06-.44-.2-.29-.3-.76-.3-1.4s.12-1.1.36-1.39c.24-.29.6-.44,1.09-.44.15,0,.36.02.62.07l.13.03v-1.41h.94Zm-1.04,4.06l.1-.02v-1.84c-.26-.05-.49-.07-.69-.07-.38,0-.57.34-.57,1.01,0,.36.04.62.13.78.08.15.22.23.42.23s.4-.03.61-.08Z"/>
        <path class="cls-8" d="m473.51,435.86v-.95h.94v.95h-.94Zm0,3.95v-3.5h.94v3.5h-.94Z"/>
        <path class="cls-8" d="m477.39,436.31h.94v3.5h-.93v-.2c-.34.19-.63.28-.88.28-.49,0-.81-.13-.98-.4s-.25-.72-.25-1.35v-1.83h.94v1.85c0,.35.03.58.08.71s.19.19.41.19.4-.03.58-.1l.09-.03v-2.62Z"/>
        <path class="cls-8" d="m480.13,439.81h-.94v-3.5h.93v.2c.32-.19.6-.28.83-.28.38,0,.67.11.88.33.43-.22.82-.33,1.18-.33.46,0,.78.13.96.4s.27.7.27,1.28v1.9h-.94v-1.87c0-.3-.03-.52-.1-.66-.07-.14-.2-.21-.39-.21-.15,0-.33.03-.55.1l-.11.04c.02.35.03.62.03.8v1.81h-.94v-1.8c0-.35-.03-.59-.09-.73-.06-.14-.19-.21-.4-.21-.18,0-.36.03-.54.1l-.08.03v2.62Z"/>
        <path class="cls-8" d="m489.71,439.73c-.5.11-.94.16-1.34.16s-.71-.05-.95-.15c-.24-.1-.42-.25-.56-.47-.13-.21-.23-.47-.28-.76-.05-.29-.08-.65-.08-1.09,0-.92.13-1.56.39-1.92.26-.36.74-.54,1.43-.54.4,0,.87.06,1.39.19l-.03.77c-.46-.07-.85-.11-1.15-.11s-.52.04-.65.12c-.13.08-.23.24-.29.46-.06.23-.09.62-.09,1.17s.06.93.19,1.14c.13.21.38.32.77.32s.79-.03,1.23-.1l.02.79Z"/>
        <path class="cls-8" d="m490.45,439.81v-4.9h.94v4.9h-.94Z"/>
        <path class="cls-8" d="m494.36,436.31h.94v3.5h-.93v-.2c-.34.19-.63.28-.88.28-.49,0-.81-.13-.98-.4s-.25-.72-.25-1.35v-1.83h.94v1.85c0,.35.03.58.08.71s.19.19.41.19.4-.03.58-.1l.09-.03v-2.62Z"/>
        <path class="cls-8" d="m497.86,436.23c.49,0,.85.13,1.07.4.23.27.34.75.34,1.44s-.13,1.17-.39,1.43c-.26.26-.71.4-1.35.4-.2,0-.57-.02-1.1-.07l-.27-.03v-4.89h.94v1.51c.3-.13.55-.19.76-.19Zm-.33,2.83c.31,0,.52-.08.63-.23s.16-.42.16-.82c0-.63-.2-.95-.59-.95-.19,0-.36.02-.53.07l-.1.02v1.87c.21.02.36.03.43.03Z"/>
      </g>
      <g>
        <path class="cls-8" d="m300.3,440.27v-.85h3.5v.85h-1.26v3.91h-.97v-3.91h-1.27Z"/>
        <path class="cls-8" d="m304.04,441.07c.25-.32.66-.48,1.24-.48s.99.16,1.24.48c.25.32.37.77.37,1.35,0,1.23-.54,1.84-1.61,1.84s-1.61-.61-1.61-1.84c0-.58.12-1.03.37-1.35Zm.72,2.14c.1.17.27.25.51.25s.42-.08.51-.25c.09-.17.14-.43.14-.79s-.05-.62-.14-.78c-.1-.16-.27-.25-.51-.25s-.42.08-.51.25-.14.42-.14.78.05.62.14.79Z"/>
        <path class="cls-8" d="m309.63,440.67h.94v3.5h-.93v-.2c-.34.19-.63.28-.88.28-.49,0-.81-.13-.98-.4s-.25-.72-.25-1.35v-1.83h.94v1.85c0,.35.03.58.08.71s.19.19.41.19.4-.03.58-.1l.09-.03v-2.62Z"/>
        <path class="cls-8" d="m312.38,444.17h-.94v-3.5h.93v.2c.32-.19.61-.28.88-.28.47,0,.79.14.97.41.18.28.27.7.27,1.27v1.9h-.94v-1.87c0-.3-.04-.52-.11-.66-.07-.14-.21-.21-.42-.21-.19,0-.38.03-.55.1l-.08.03v2.62Z"/>
        <path class="cls-8" d="m318.29,439.27v4.9h-.93v-.15c-.33.15-.61.23-.85.23-.51,0-.86-.15-1.06-.44-.2-.29-.3-.76-.3-1.4s.12-1.1.36-1.39c.24-.29.6-.44,1.09-.44.15,0,.36.02.62.07l.13.03v-1.41h.94Zm-1.04,4.06l.1-.02v-1.84c-.26-.05-.49-.07-.69-.07-.38,0-.57.34-.57,1.01,0,.36.04.62.13.78.08.15.22.23.42.23s.4-.03.61-.08Z"/>
        <path class="cls-8" d="m319.15,444.17v-3.5h.93v.37c.39-.23.76-.38,1.12-.46v.95c-.38.08-.7.16-.97.25l-.14.05v2.34h-.94Z"/>
        <path class="cls-8" d="m324.44,441.76v1.46c0,.11.03.19.06.23.03.04.09.08.17.09l-.03.71c-.24,0-.43-.02-.57-.05-.14-.03-.29-.1-.43-.2-.34.16-.68.25-1.03.25-.72,0-1.08-.38-1.08-1.15,0-.37.1-.64.3-.79.2-.16.51-.25.92-.28l.75-.06v-.22c0-.14-.03-.24-.1-.3s-.17-.08-.32-.08l-1.32.06-.03-.65c.5-.14.97-.2,1.42-.2s.77.09.97.28.3.49.3.9Zm-1.58.92c-.26.02-.39.16-.39.42s.11.39.34.39c.18,0,.37-.03.58-.08l.1-.03v-.75l-.64.06Z"/>
      </g>
      <g>
        <path class="cls-8" d="m603.35,400.72h-.78v1.39h-.97v-4.76h1.75c1.13,0,1.69.55,1.69,1.65,0,.56-.14.98-.43,1.28-.29.3-.71.44-1.26.44Zm-.78-.83h.78c.48,0,.72-.3.72-.9,0-.29-.06-.5-.18-.63-.12-.13-.3-.19-.55-.19h-.78v1.72Z"/>
        <path class="cls-8" d="m605.64,402.11v-3.5h.93v.37c.39-.23.76-.38,1.12-.46v.95c-.38.08-.7.16-.97.25l-.14.05v2.34h-.94Z"/>
        <path class="cls-8" d="m608.24,398.16v-.95h.94v.95h-.94Zm0,3.95v-3.5h.94v3.5h-.94Z"/>
        <path class="cls-8" d="m609.72,398.61h.98l.56,2.7h.2l.59-2.7h.95l-.84,3.5h-1.6l-.84-3.5Z"/>
        <path class="cls-8" d="m613.54,398.16v-.95h.94v.95h-.94Zm0,3.95v-3.5h.94v3.5h-.94Z"/>
        <path class="cls-8" d="m615.38,402.11v-4.9h.94v4.9h-.94Z"/>
        <path class="cls-8" d="m618.17,401.22c.11.1.27.14.47.14.43,0,.82-.01,1.16-.04l.2-.02v.69c-.52.13-1.01.2-1.44.2-.53,0-.91-.14-1.15-.42-.24-.28-.36-.74-.36-1.37,0-1.25.52-1.88,1.55-1.88s1.53.53,1.53,1.58l-.07.65h-2.06c0,.21.06.37.17.46Zm-.33-4.39l1.76.71-.21.61-1.83-.52.28-.81Zm1.36,3.21c0-.28-.04-.47-.13-.58-.09-.11-.24-.17-.47-.17s-.38.06-.47.17c-.09.11-.14.31-.14.58h1.21Z"/>
        <path class="cls-8" d="m623.97,402.55c0,.4-.15.69-.46.89-.31.19-.72.29-1.25.29s-.93-.07-1.21-.21c-.28-.14-.42-.39-.42-.76,0-.29.17-.57.5-.83-.17-.12-.26-.29-.26-.53,0-.09.07-.25.21-.46l.06-.1c-.32-.23-.48-.57-.48-1.01s.13-.77.4-.97c.27-.2.62-.3,1.07-.3.2,0,.4.02.59.07l.11.02,1.13-.04v.75l-.53-.04c.1.16.15.32.15.48,0,.47-.12.79-.36.97-.24.18-.61.27-1.12.27-.11,0-.2,0-.29-.03-.05.12-.07.22-.07.3s.04.13.12.16c.08.03.27.04.56.05.59,0,.99.08,1.2.23.21.15.32.43.32.83Zm-2.42.1c0,.2.25.3.74.3s.74-.12.74-.35c0-.13-.04-.21-.13-.24-.08-.03-.26-.05-.53-.06l-.63-.05c-.13.13-.19.26-.19.4Zm.06-2.87c0,.34.18.51.54.51s.54-.17.54-.51-.18-.51-.54-.51-.54.17-.54.51Z"/>
        <path class="cls-8" d="m625.48,401.22c.11.1.27.14.47.14.43,0,.82-.01,1.16-.04l.2-.02v.69c-.52.13-1.01.2-1.44.2-.53,0-.91-.14-1.15-.42-.24-.28-.36-.74-.36-1.37,0-1.25.52-1.88,1.55-1.88s1.53.53,1.53,1.58l-.07.65h-2.06c0,.21.06.37.17.46Zm1.03-1.18c0-.28-.04-.47-.13-.58-.09-.11-.24-.17-.47-.17s-.38.06-.47.17c-.09.11-.14.31-.14.58h1.21Z"/>
      </g>
    </g>
  </g>
  <g id="grandstands">
    <g id="gilles_villeneuve" data-name="gilles villeneuve">
      <g id="_1" data-name="1">
        <rect idGrandstand="9435" class="cls-8" x="467.59" y="400.34" width="10" height="30.77" transform="translate(-100.08 676.92) rotate(-65.85)"/>
      </g>
      <g id="_16" data-name="16">
        <rect idGrandstand="17827" class="cls-8" x="427.17" y="382.45" width="10" height="30.77" transform="translate(-107.64 629.47) rotate(-65.85)"/>
      </g>
      <g id="family">
        <rect idGrandstand="9555" class="cls-8" x="327.65" y="453.14" width="26.79" height="10" transform="translate(-222.32 552.1) rotate(-62.8)"/>
      </g>
      <g id="_32" data-name="32">
        <polygon idGrandstand="17837" class="cls-8" points="361.67 435.91 357.06 444.78 375.38 454.13 379.99 445.26 361.67 435.91"/>
      </g>
      <g id="Elite_Restaurant" data-name="Elite Restaurant">
        <path idGrandstand="13067" class="cls-8" d="m558.93,416.75c2.47,0,4.48-2.01,4.48-4.48s-2.01-4.48-4.48-4.48-4.48,2.01-4.48,4.48,2.01,4.48,4.48,4.48Z"/>
      </g>
      <g id="Senna_Club" data-name="Senna Club">
        <path idGrandstand="13077" class="cls-8" d="m528.57,461.32c2.47,0,4.48-2.01,4.48-4.48s-2.01-4.48-4.48-4.48-4.48,2.01-4.48,4.48,2.01,4.48,4.48,4.48Z"/>
      </g>
      <g id="Podium_Club" data-name="Podium Club">
        <path idGrandstand="13087" class="cls-8" d="m506.29,440.32c2.47,0,4.48-2.01,4.48-4.48s-2.01-4.48-4.48-4.48-4.48,2.01-4.48,4.48,2.01,4.48,4.48,4.48Z"/>
      </g>
      <g id="La_Toundra" data-name="La Toundra">
        <path idGrandstand="13117" class="cls-8" d="m331.65,445.69c2.47,0,4.48-2.01,4.48-4.48s-2.01-4.48-4.48-4.48-4.48,2.01-4.48,4.48,2.01,4.48,4.48,4.48Z"/>
      </g>
      <g id="Privilege">
        <path idGrandstand="13107" class="cls-8" d="m614.46,412.3c2.47,0,4.48-2.01,4.48-4.48s-2.01-4.48-4.48-4.48-4.48,2.01-4.48,4.48,2.01,4.48,4.48,4.48Z"/>
      </g>
      <g id="_31" data-name="31">
        <rect idGrandstand="9525" class="cls-8" x="171.84" y="362.88" width="10" height="23.78" transform="translate(-8.15 3.95) rotate(-1.25)"/>
      </g>
      <g id="_15" data-name="15">
        <rect idGrandstand="9485" class="cls-8" x="10.78" y="227.92" width="24.52" height="10" transform="translate(-198.5 157.42) rotate(-65.53)"/>
      </g>
      <g id="_21" data-name="21">
        <rect idGrandstand="9495" class="cls-8" x="49.25" y="256.67" width="10" height="31.9" transform="translate(-218.34 218.19) rotate(-67.45)"/>
      </g>
      <g id="Stroll">
        <rect idGrandstand="9505" class="cls-8" x="64.92" y="202.98" width="10" height="44.53" transform="translate(-165.61 213) rotate(-69.78)"/>
      </g>
      <g id="_46" data-name="46">
        <rect idGrandstand="9535" class="cls-8" x="143.76" y="229.49" width="10" height="37.11" transform="translate(-127.91 332.38) rotate(-76)"/>
      </g>
      <g id="_34" data-name="34">
        <rect idGrandstand="9515" class="cls-8" x="123.46" y="266.17" width="10" height="13.98" transform="translate(-172.73 293.26) rotate(-68.63)"/>
      </g>
      <g id="Main">
        <rect idGrandstand="9435-2" data-name="idGrandstand9435" class="cls-8" x="461.54" y="326.92" width="10" height="84.49" transform="translate(-50.15 664.07) rotate(-68.07)"/>
      </g>
      <g id="Platine_Chalet" data-name="Platine Chalet">
        <rect idGrandstand="18437" class="cls-8" x="516.31" y="465.67" width="6" height="14.52" transform="translate(-125.42 194.24) rotate(-18.95)"/>
      </g>
      <g id="_47" data-name="47">
        <rect idGrandstand="9545" class="cls-8" x="159.16" y="276.24" width="10" height="13.98" transform="translate(-149.23 377.86) rotate(-76.7)"/>
      </g>
      <g id="_11-1_3" data-name="11-1_3">
        <rect idGrandstand="9445" class="cls-8" x="592.78" y="458.95" width="17.52" height="10" transform="translate(-155.05 532.27) rotate(-42.8)"/>
      </g>
      <g id="_11-8_4" data-name="11-8_4">
        <rect idGrandstand="9455" class="cls-8" x="578.67" y="472.03" width="17.52" height="10" transform="translate(-167.7 526.16) rotate(-42.8)"/>
      </g>
      <g id="_12-1_4" data-name="12-1_4">
        <rect idGrandstand="9465" class="cls-8" x="593.86" y="414.25" width="10" height="17.52" transform="translate(-128.13 327.88) rotate(-27.78)"/>
      </g>
      <g id="_12-5_7" data-name="12-5_7">
        <rect idGrandstand="9475" class="cls-8" x="602.84" y="431.27" width="10" height="17.52" transform="translate(-135.03 333.99) rotate(-27.78)"/>
      </g>
    </g>
  </g>
  <g id="gs_names" data-name="gs names">
    <g id="grandstand_name" data-name="grandstand name">
      <g>
        <path class="cls-8" d="m470.92,422.53v6.93h-1.45v-5.29l-1.5.97-.66-1.08,2.29-1.52h1.32Z"/>
        <g>
          <path class="cls-8" d="m416.89,401.88v6.93h-1.45v-5.29l-1.5.97-.66-1.08,2.29-1.52h1.32Z"/>
          <path class="cls-8" d="m423.59,403.17c-.71-.1-1.33-.16-1.86-.16-.99,0-1.49.54-1.49,1.62l.22-.06c.46-.13.83-.2,1.1-.2.79,0,1.39.18,1.79.55.4.36.6.93.6,1.7s-.22,1.35-.67,1.74c-.45.39-1.1.59-1.95.59s-1.49-.31-1.93-.93c-.43-.62-.65-1.53-.65-2.73s.25-2.09.75-2.66,1.21-.86,2.14-.86c.55,0,1.13.08,1.75.23l.33.07-.13,1.11Zm-2.15,2.46c-.33,0-.67.06-1.03.18l-.18.05c0,1.21.39,1.82,1.18,1.82.34,0,.59-.09.78-.28.18-.19.27-.45.27-.78,0-.66-.34-.99-1.02-.99Z"/>
        </g>
        <g>
          <path class="cls-8" d="m621.95,419.38v7.92h-1.66v-6.05l-1.72,1.1-.76-1.24,2.62-1.74h1.51Z"/>
          <path class="cls-8" d="m628.85,427.3h-5.14v-1.4l1.69-1.72c.6-.62,1.02-1.09,1.25-1.42.24-.33.35-.68.35-1.05s-.1-.63-.29-.79c-.2-.15-.47-.23-.83-.23-.54,0-1.12.05-1.75.14l-.29.04-.08-1.28c.78-.24,1.6-.36,2.44-.36,1.68,0,2.52.76,2.52,2.27,0,.59-.13,1.1-.38,1.54-.26.43-.72.96-1.39,1.57l-1.38,1.25h3.29v1.44Z"/>
        </g>
        <g>
          <path class="cls-8" d="m610.75,480.73v7.92h-1.66v-6.05l-1.72,1.1-.76-1.24,2.62-1.74h1.51Z"/>
          <path class="cls-8" d="m616.75,480.73v7.92h-1.66v-6.05l-1.72,1.1-.76-1.24,2.62-1.74h1.51Z"/>
        </g>
        <g>
          <path class="cls-8" d="m157.29,371.78c.64-.25,1.36-.38,2.16-.38s1.37.15,1.74.46c.36.3.55.79.55,1.46s-.27,1.19-.81,1.54c.34.18.58.37.72.57s.22.51.22.93c0,.75-.19,1.31-.56,1.67-.38.36-.98.55-1.8.55-.61,0-1.25-.09-1.92-.27l-.34-.08.07-1.1c.78.13,1.44.2,1.97.2.72,0,1.08-.31,1.08-.92,0-.26-.09-.47-.28-.62-.19-.15-.43-.23-.73-.23h-1.4v-1.2h1.4c.23,0,.44-.1.61-.29s.27-.41.27-.65c0-.5-.35-.75-1.04-.75-.48,0-1,.05-1.54.15l-.27.04-.09-1.07Z"/>
          <path class="cls-8" d="m166.91,371.53v6.93h-1.45v-5.29l-1.5.97-.66-1.08,2.29-1.52h1.32Z"/>
        </g>
        <g>
          <path class="cls-8" d="m313.22,425.11v-7.14h4.56v1.26h-3.11v2.1h2.54v1.26h-2.54v2.52h-1.45Z"/>
          <path class="cls-8" d="m317.97,425.11l1.61-7.14h2.75l1.61,7.14h-1.45l-.28-1.29h-2.5l-.28,1.29h-1.45Zm2.73-5.94l-.72,3.39h1.95l-.72-3.39h-.5Z"/>
          <path class="cls-8" d="m324.89,425.11v-7.14h2.47l1.26,5.21,1.26-5.21h2.47v7.14h-1.45v-5.52h-.16l-1.4,5.21h-1.45l-1.4-5.21h-.16v5.52h-1.45Z"/>
          <path class="cls-8" d="m333.9,425.11v-7.14h1.45v7.14h-1.45Z"/>
          <path class="cls-8" d="m340.97,425.11h-4.06v-7.14h1.45v5.86h2.62v1.28Z"/>
          <path class="cls-8" d="m343.84,425.11h-1.45v-2.89l-2.21-4.25h1.61l1.31,2.84,1.31-2.84h1.61l-2.18,4.25v2.89Z"/>
          <path class="cls-8" d="m285.51,433.32v-1.26h2.08v3.71c-1,.16-1.81.24-2.44.24-1.11,0-1.88-.3-2.29-.89-.42-.59-.62-1.54-.62-2.83s.22-2.23.65-2.8c.43-.57,1.17-.86,2.22-.86.65,0,1.35.07,2.11.22l.38.07-.04,1.12c-.84-.09-1.53-.14-2.06-.14s-.91.06-1.13.19c-.22.13-.38.36-.48.7-.1.34-.15.92-.15,1.74s.1,1.4.3,1.73c.2.33.62.49,1.26.49l.87-.04v-1.39h-.65Z"/>
          <path class="cls-8" d="m290.4,433.49v2.39h-1.45v-7.14h2.77c1.68,0,2.52.78,2.52,2.35,0,.93-.35,1.62-1.05,2.06l1.02,2.73h-1.58l-.83-2.39h-1.4Zm2.11-1.55c.17-.21.25-.49.25-.83s-.09-.62-.27-.82c-.18-.2-.44-.3-.77-.3h-1.32v2.27h1.34c.34,0,.6-.11.77-.32Z"/>
          <path class="cls-8" d="m294.78,435.88l1.61-7.14h2.75l1.61,7.14h-1.45l-.28-1.29h-2.5l-.28,1.29h-1.45Zm2.73-5.94l-.72,3.39h1.95l-.72-3.39h-.5Z"/>
          <path class="cls-8" d="m301.7,435.88v-7.14h2.45l1.72,5.88h.11v-5.88h1.45v7.14h-2.38l-1.79-5.88h-.11v5.88h-1.45Z"/>
          <path class="cls-8" d="m311.38,435.88h-2.4v-7.14h2.4c.62,0,1.12.06,1.52.19.4.13.71.34.93.64.22.3.37.65.46,1.05s.13.93.13,1.57-.04,1.18-.12,1.6-.22.8-.44,1.13c-.21.33-.52.57-.93.72s-.92.23-1.55.23Zm1.52-2.83c.01-.22.02-.53.02-.93s-.01-.71-.04-.95c-.03-.24-.09-.46-.2-.65-.1-.2-.26-.33-.47-.4-.21-.07-.49-.11-.83-.11h-.96v4.62h.96c.52,0,.91-.13,1.14-.4.2-.22.33-.61.38-1.18Z"/>
          <path class="cls-8" d="m317.87,429.88c-.76,0-1.14.25-1.14.76,0,.22.09.4.28.51.19.12.63.29,1.33.51.7.22,1.18.48,1.46.76.28.28.42.72.42,1.31,0,.75-.23,1.32-.68,1.7s-1.05.58-1.78.58c-.55,0-1.21-.08-2.01-.25l-.38-.07.15-1.12c.94.13,1.66.19,2.15.19.74,0,1.11-.31,1.11-.92,0-.22-.09-.4-.26-.53-.17-.13-.51-.26-1.02-.41-.81-.23-1.38-.51-1.72-.82-.33-.32-.5-.76-.5-1.33,0-.71.22-1.25.65-1.6.43-.35,1.03-.52,1.79-.52.52,0,1.18.07,1.97.21l.38.07-.12,1.14c-.99-.11-1.68-.17-2.09-.17Z"/>
          <path class="cls-8" d="m320.75,430.02v-1.28h5.25v1.28h-1.89v5.86h-1.45v-5.86h-1.91Z"/>
          <path class="cls-8" d="m325.92,435.88l1.61-7.14h2.75l1.61,7.14h-1.45l-.28-1.29h-2.5l-.28,1.29h-1.45Zm2.73-5.94l-.72,3.39h1.95l-.72-3.39h-.5Z"/>
          <path class="cls-8" d="m332.84,435.88v-7.14h2.45l1.72,5.88h.11v-5.88h1.45v7.14h-2.38l-1.79-5.88h-.11v5.88h-1.45Z"/>
          <path class="cls-8" d="m342.52,435.88h-2.4v-7.14h2.4c.62,0,1.12.06,1.52.19.4.13.71.34.93.64.22.3.37.65.46,1.05s.13.93.13,1.57-.04,1.18-.12,1.6-.22.8-.44,1.13c-.21.33-.52.57-.93.72s-.92.23-1.55.23Zm1.52-2.83c.01-.22.02-.53.02-.93s-.01-.71-.04-.95c-.03-.24-.09-.46-.2-.65-.1-.2-.26-.33-.47-.4-.21-.07-.49-.11-.83-.11h-.96v4.62h.96c.52,0,.91-.13,1.14-.4.2-.22.33-.61.38-1.18Z"/>
        </g>
        <g>
          <path class="cls-8" d="m369.75,429.82c.64-.25,1.36-.38,2.16-.38s1.37.15,1.74.46c.36.3.55.79.55,1.46s-.27,1.19-.81,1.54c.34.18.58.37.72.57.14.2.22.51.22.93,0,.75-.19,1.31-.56,1.67-.38.36-.98.55-1.8.55-.61,0-1.25-.09-1.92-.27l-.34-.08.07-1.1c.78.13,1.44.2,1.97.2.72,0,1.08-.31,1.08-.92,0-.26-.09-.47-.28-.62-.19-.15-.43-.23-.73-.23h-1.4v-1.2h1.4c.23,0,.44-.1.61-.29s.27-.41.27-.65c0-.5-.35-.75-1.04-.75-.48,0-1,.05-1.54.15l-.27.04-.09-1.07Z"/>
          <path class="cls-8" d="m380.16,436.5h-4.49v-1.23l1.48-1.5c.53-.54.89-.95,1.1-1.24.21-.29.31-.59.31-.92s-.09-.55-.26-.69c-.17-.13-.41-.2-.73-.2-.47,0-.98.04-1.53.13l-.25.03-.07-1.12c.69-.21,1.4-.31,2.13-.31,1.47,0,2.2.66,2.2,1.98,0,.52-.11.97-.34,1.34-.22.38-.63.84-1.22,1.38l-1.21,1.09h2.88v1.26Z"/>
        </g>
        <g>
          <path class="cls-8" d="m9.01,223.38v6.93h-1.45v-5.29l-1.5.97-.66-1.08,2.29-1.52h1.32Z"/>
          <path class="cls-8" d="m15.64,223.38v1.26h-3.1l-.18,1.5c.43-.17.85-.25,1.24-.25,1.5,0,2.25.7,2.25,2.09,0,.78-.21,1.39-.62,1.82-.41.43-1,.64-1.75.64-.32,0-.69-.03-1.1-.09-.41-.06-.74-.13-.98-.2l-.38-.09.16-1.07c.85.13,1.55.2,2.12.2.34,0,.61-.09.79-.27.18-.18.27-.44.27-.78s-.08-.59-.23-.74c-.15-.15-.37-.23-.65-.23-.47,0-.88.05-1.24.14l-.16.04-.86-.2.19-3.75h4.23Z"/>
        </g>
        <g>
          <path class="cls-8" d="m72.3,215.46h-4.06v-7.14h1.45v5.86h2.62v1.28Z"/>
          <path class="cls-8" d="m72.59,215.46l1.61-7.14h2.75l1.61,7.14h-1.45l-.28-1.29h-2.5l-.28,1.29h-1.45Zm2.73-5.94l-.72,3.39h1.95l-.72-3.39h-.5Z"/>
          <path class="cls-8" d="m79.51,215.46v-7.14h2.45l1.72,5.88h.11v-5.88h1.45v7.14h-2.38l-1.79-5.88h-.11v5.88h-1.45Z"/>
          <path class="cls-8" d="m91.31,215.34c-.74.16-1.41.24-2.01.24s-1.07-.07-1.43-.22c-.36-.15-.64-.38-.84-.7-.2-.32-.34-.7-.42-1.13-.08-.43-.12-.98-.12-1.64,0-1.38.19-2.34.58-2.88s1.1-.81,2.15-.81c.6,0,1.3.09,2.09.28l-.04,1.15c-.69-.1-1.27-.16-1.73-.16s-.79.06-.98.18c-.2.12-.34.36-.44.7-.09.34-.14.93-.14,1.75s.1,1.4.29,1.72c.19.32.58.48,1.16.48s1.19-.05,1.84-.15l.03,1.19Z"/>
          <path class="cls-8" d="m92.49,215.46v-7.14h4.62v1.26h-3.17v1.67h2.54v1.24h-2.54v1.71h3.17v1.26h-4.62Z"/>
          <path class="cls-8" d="m102.81,209.45c-.76,0-1.14.25-1.14.76,0,.22.09.4.28.51.19.12.63.29,1.33.51.7.22,1.18.48,1.46.76.28.28.42.72.42,1.31,0,.75-.23,1.32-.68,1.7-.46.39-1.05.58-1.78.58-.55,0-1.21-.08-2.01-.25l-.38-.07.15-1.12c.94.13,1.66.19,2.15.19.74,0,1.11-.31,1.11-.92,0-.22-.09-.4-.26-.52-.17-.13-.51-.26-1.02-.41-.81-.23-1.38-.51-1.72-.82-.33-.32-.5-.76-.5-1.33,0-.71.22-1.25.65-1.6.43-.35,1.03-.52,1.79-.52.52,0,1.18.07,1.97.21l.38.07-.12,1.14c-.99-.11-1.68-.17-2.09-.17Z"/>
          <path class="cls-8" d="m105.68,209.6v-1.28h5.25v1.28h-1.89v5.86h-1.45v-5.86h-1.91Z"/>
          <path class="cls-8" d="m113.3,213.07v2.39h-1.45v-7.14h2.77c1.68,0,2.52.78,2.52,2.35,0,.93-.35,1.62-1.05,2.06l1.02,2.73h-1.58l-.83-2.39h-1.4Zm2.11-1.55c.17-.21.25-.49.25-.83s-.09-.62-.27-.82c-.18-.2-.44-.3-.77-.3h-1.32v2.27h1.34c.34,0,.6-.1.77-.32Z"/>
          <path class="cls-8" d="m123.3,214.7c-.44.59-1.21.89-2.29.89s-1.85-.3-2.29-.89c-.44-.59-.67-1.52-.67-2.78s.22-2.2.67-2.81,1.21-.92,2.29-.92,1.85.31,2.29.92c.45.61.67,1.55.67,2.81s-.22,2.19-.67,2.78Zm-3.45-.92c.21.37.59.55,1.16.55s.95-.18,1.16-.55c.21-.37.31-.98.31-1.85s-.1-1.49-.31-1.88-.59-.59-1.16-.59-.95.2-1.16.59-.31,1.02-.31,1.88.1,1.48.31,1.85Z"/>
          <path class="cls-8" d="m129.27,215.46h-4.06v-7.14h1.45v5.86h2.62v1.28Z"/>
          <path class="cls-8" d="m134.22,215.46h-4.06v-7.14h1.45v5.86h2.62v1.28Z"/>
        </g>
        <g>
          <path class="cls-8" d="m48.24,288.35h-4.49v-1.23l1.48-1.5c.53-.54.89-.95,1.1-1.24.21-.29.31-.59.31-.92s-.09-.55-.26-.69c-.17-.13-.41-.2-.73-.2-.47,0-.98.04-1.53.13l-.25.03-.07-1.12c.69-.21,1.4-.31,2.13-.31,1.47,0,2.2.66,2.2,1.98,0,.52-.11.97-.34,1.34-.22.38-.63.84-1.22,1.38l-1.21,1.09h2.88v1.26Z"/>
          <path class="cls-8" d="m53.33,281.42v6.93h-1.45v-5.29l-1.5.97-.66-1.08,2.29-1.52h1.32Z"/>
        </g>
        <g>
          <path class="cls-8" d="m147.41,240.31v-1.14h-2.94v-1.1l1.71-4.68h1.6l-1.86,4.53h1.49v-1.94h1.45v1.94h.66v1.26h-.66v1.14h-1.45Z"/>
          <path class="cls-8" d="m155.14,234.67c-.71-.1-1.33-.16-1.86-.16-.99,0-1.49.54-1.49,1.62l.22-.06c.46-.13.83-.2,1.1-.2.79,0,1.39.18,1.79.55.4.36.6.93.6,1.7s-.22,1.35-.67,1.74c-.45.39-1.1.59-1.95.59s-1.49-.31-1.93-.93c-.43-.62-.65-1.53-.65-2.74s.25-2.09.75-2.66,1.21-.86,2.14-.86c.55,0,1.13.08,1.75.23l.33.07-.13,1.11Zm-2.15,2.46c-.33,0-.67.06-1.03.18l-.18.05c0,1.21.39,1.82,1.18,1.82.34,0,.59-.09.78-.28.18-.19.27-.45.27-.78,0-.66-.34-.99-1.02-.99Z"/>
        </g>
        <g>
          <path class="cls-8" d="m110.39,266.03c.64-.25,1.36-.38,2.16-.38s1.37.15,1.74.46c.36.3.55.79.55,1.46s-.27,1.19-.81,1.54c.34.18.58.37.72.57s.22.51.22.93c0,.75-.19,1.31-.56,1.67-.38.36-.98.55-1.8.55-.61,0-1.25-.09-1.92-.27l-.34-.08.07-1.1c.78.13,1.44.2,1.97.2.72,0,1.08-.31,1.08-.92,0-.26-.09-.47-.28-.62-.19-.15-.43-.23-.73-.23h-1.4v-1.2h1.4c.23,0,.44-.1.61-.29s.27-.41.27-.65c0-.5-.35-.75-1.04-.75-.48,0-1,.05-1.54.15l-.27.04-.09-1.07Z"/>
          <path class="cls-8" d="m118.56,272.71v-1.14h-2.94v-1.1l1.71-4.68h1.6l-1.86,4.53h1.49v-1.94h1.45v1.94h.66v1.26h-.66v1.14h-1.45Z"/>
        </g>
        <g>
          <path class="cls-8" d="m174.79,291.77v-1.14h-2.94v-1.1l1.71-4.68h1.6l-1.86,4.53h1.49v-1.94h1.45v1.94h.66v1.26h-.66v1.14h-1.45Z"/>
          <path class="cls-8" d="m178.03,286.13v-1.29h4.43v1.64l-2.47,5.42-1.34-.38,2.36-5.05v-.34h-2.98Z"/>
        </g>
        <g>
          <path class="cls-8" d="m459.73,359.36v-7.14h2.47l1.26,5.21,1.26-5.21h2.47v7.14h-1.45v-5.52h-.16l-1.4,5.21h-1.45l-1.4-5.21h-.16v5.52h-1.45Z"/>
          <path class="cls-8" d="m468.14,359.36l1.61-7.14h2.75l1.61,7.14h-1.45l-.28-1.29h-2.5l-.28,1.29h-1.45Zm2.73-5.94l-.72,3.39h1.95l-.72-3.39h-.5Z"/>
          <path class="cls-8" d="m475.06,359.36v-7.14h1.45v7.14h-1.45Z"/>
          <path class="cls-8" d="m478.07,359.36v-7.14h2.45l1.72,5.88h.11v-5.88h1.45v7.14h-2.38l-1.79-5.88h-.11v5.88h-1.45Z"/>
          <path class="cls-8" d="m489.85,353.36c-.76,0-1.14.25-1.14.76,0,.22.09.4.28.51.19.12.63.29,1.33.51.7.22,1.18.48,1.46.76.28.28.42.72.42,1.31,0,.75-.23,1.32-.68,1.7-.46.39-1.05.58-1.78.58-.55,0-1.21-.08-2.01-.25l-.38-.07.15-1.12c.94.13,1.66.19,2.15.19.74,0,1.11-.31,1.11-.92,0-.22-.09-.4-.26-.52-.17-.13-.51-.26-1.02-.41-.81-.23-1.38-.51-1.72-.82-.33-.32-.5-.76-.5-1.33,0-.71.22-1.25.65-1.6.43-.35,1.03-.52,1.79-.52.52,0,1.18.07,1.97.21l.38.07-.12,1.14c-.99-.11-1.68-.17-2.09-.17Z"/>
          <path class="cls-8" d="m492.72,353.5v-1.28h5.25v1.28h-1.89v5.86h-1.45v-5.86h-1.91Z"/>
          <path class="cls-8" d="m500.33,356.97v2.39h-1.45v-7.14h2.77c1.68,0,2.52.78,2.52,2.35,0,.93-.35,1.62-1.05,2.06l1.02,2.73h-1.58l-.83-2.39h-1.4Zm2.11-1.55c.17-.21.25-.49.25-.83s-.09-.62-.27-.82c-.18-.2-.44-.3-.77-.3h-1.32v2.27h1.34c.34,0,.6-.1.77-.32Z"/>
          <path class="cls-8" d="m504.71,359.36l1.61-7.14h2.75l1.61,7.14h-1.45l-.28-1.29h-2.5l-.28,1.29h-1.45Zm2.73-5.94l-.72,3.39h1.95l-.72-3.39h-.5Z"/>
          <path class="cls-8" d="m511.63,359.36v-7.14h1.45v7.14h-1.45Z"/>
          <path class="cls-8" d="m517.61,356.8v-1.26h2.08v3.71c-1,.16-1.81.24-2.44.24-1.11,0-1.88-.3-2.29-.89-.42-.59-.62-1.54-.62-2.83s.22-2.23.65-2.8c.43-.57,1.17-.86,2.22-.86.65,0,1.35.07,2.11.22l.38.07-.04,1.12c-.84-.09-1.53-.14-2.06-.14s-.91.06-1.13.19c-.22.13-.38.36-.48.7-.1.34-.15.92-.15,1.74s.1,1.4.3,1.73.62.49,1.26.49l.87-.04v-1.39h-.65Z"/>
          <path class="cls-8" d="m525.16,359.36v-2.96h-2.66v2.96h-1.45v-7.14h1.45v2.92h2.66v-2.92h1.45v7.14h-1.45Z"/>
          <path class="cls-8" d="m527.52,353.5v-1.28h5.25v1.28h-1.89v5.86h-1.45v-5.86h-1.91Z"/>
        </g>
        <g>
          <path class="cls-8" d="m478.29,473.49h-1.18v2.08h-1.45v-7.14h2.62c1.69,0,2.54.83,2.54,2.48,0,.83-.22,1.47-.65,1.92-.43.45-1.06.67-1.89.67Zm-1.18-1.24h1.17c.72,0,1.08-.45,1.08-1.34,0-.44-.09-.76-.26-.95-.18-.19-.45-.29-.82-.29h-1.17v2.58Z"/>
          <path class="cls-8" d="m485.91,475.57h-4.06v-7.14h1.45v5.86h2.62v1.28Z"/>
          <path class="cls-8" d="m486.21,475.57l1.61-7.14h2.75l1.61,7.14h-1.45l-.28-1.29h-2.5l-.28,1.29h-1.45Zm2.73-5.94l-.72,3.39h1.95l-.72-3.39h-.5Z"/>
          <path class="cls-8" d="m492.1,469.71v-1.28h5.25v1.28h-1.89v5.86h-1.45v-5.86h-1.91Z"/>
          <path class="cls-8" d="m498.26,475.57v-7.14h1.45v7.14h-1.45Z"/>
          <path class="cls-8" d="m501.26,475.57v-7.14h2.45l1.72,5.88h.11v-5.88h1.45v7.14h-2.38l-1.79-5.88h-.11v5.88h-1.45Z"/>
          <path class="cls-8" d="m508.54,475.57v-7.14h4.62v1.26h-3.17v1.67h2.54v1.24h-2.54v1.71h3.17v1.26h-4.62Z"/>
        </g>
      </g>
    </g>
    <g>
      <path class="cls-8" d="m609.26,416.8l-4.7,2.41-.41-.79,3.8-1.95-1.28-.74.4-.67,1.8,1.01.37.73Z"/>
      <path class="cls-8" d="m606.7,419.52l.7-.36,1.09,2.13-.7.36-1.09-2.13Z"/>
      <path class="cls-8" d="m607.46,424.85l.84-.43-1.09-2.11.6-.31,3.89-.43.45.88-3.84.32.67,1.31,1.38-.71.41.8-1.38.71.26.51-.69.35-.26-.51-.84.43-.41-.8Z"/>
    </g>
    <g>
      <path class="cls-8" d="m594.6,487.74l-.66-.68-1.71,1.65-.47-.49-1.54-3.6.71-.68,1.41,3.58,1.06-1.02-1.08-1.12.64-.62,1.08,1.12.42-.4.54.56-.41.4.66.68-.64.62Z"/>
      <path class="cls-8" d="m594.66,485.23l-.55-.57,1.72-1.66.55.57-1.72,1.66Z"/>
      <path class="cls-8" d="m594.74,480.65c.07-.41.32-.82.75-1.23.42-.41.84-.65,1.26-.71.42-.07.79.06,1.1.39.22.23.35.44.4.62.04.19.03.44-.05.75.32-.06.59-.07.8-.03.22.05.44.19.67.42.37.38.51.79.41,1.22-.1.43-.37.85-.8,1.27-.95.92-1.76,1.03-2.42.35-.25-.26-.4-.5-.44-.72s-.04-.49.03-.81c-.29.06-.54.05-.74,0s-.4-.19-.61-.41c-.31-.32-.43-.69-.35-1.1Zm2.51-.8c-.34-.35-.74-.31-1.2.14-.46.44-.52.84-.18,1.2.22.23.53.28.93.16l.55-.53c.15-.41.12-.73-.1-.96Zm.15,3.05c.38.4.82.35,1.32-.13.5-.48.56-.93.17-1.33-.26-.27-.59-.29-1.01-.08l-.55.53c-.21.4-.19.74.07,1.01Z"/>
    </g>
    <g>
      <path class="cls-8" d="m604.32,471.56l3.67,3.8-.64.62-2.97-3.07-.34,1.44-.76-.19.44-2.02.59-.57Z"/>
      <path class="cls-8" d="m607.66,473.23l-.55-.57,1.72-1.66.55.57-1.72,1.66Z"/>
      <path class="cls-8" d="m607.44,468.78c.24-.47.57-.91,1-1.32.43-.41.81-.63,1.17-.65s.7.14,1.04.49c.15.15.25.32.31.5.06.18.08.33.08.44s-.03.25-.06.4c.29-.1.54-.14.74-.11.2.03.42.17.67.42.39.4.58.8.56,1.19-.01.39-.24.8-.68,1.22-.17.17-.38.34-.61.51-.24.17-.43.3-.58.39l-.22.12-.44-.53c.5-.33.9-.65,1.23-.96.46-.45.49-.87.1-1.28-.18-.18-.37-.27-.58-.25-.21.02-.42.12-.62.31l-.77.74-.52-.54.76-.74c.14-.14.22-.32.23-.56,0-.23-.07-.43-.23-.6s-.33-.24-.52-.22c-.18.02-.37.12-.55.3-.3.29-.59.62-.86.99l-.12.17-.52-.43Z"/>
    </g>
    <g>
      <path class="cls-8" d="m617.54,433.36l-.7.36-1.12-2.18-1.3.52c.31.25.55.53.71.84.52,1.01.31,1.75-.63,2.23-.53.27-1.01.35-1.44.21-.43-.13-.77-.45-1.03-.96-.11-.21-.21-.47-.31-.76-.1-.29-.17-.53-.22-.71l-.06-.27.64-.22c.19.61.39,1.11.6,1.51.14.28.33.45.56.52.23.07.48.04.76-.11.28-.14.45-.31.5-.51.06-.2.03-.4-.08-.62-.2-.38-.41-.67-.62-.87l-.12-.1-.15-.55,2.56-1.16,1.45,2.81Z"/>
      <path class="cls-8" d="m614.7,435.52l.7-.36,1.09,2.13-.7.36-1.09-2.13Z"/>
      <path class="cls-8" d="m618.48,436.93l.71-.37,1.52,2.96-.94.48-4.72.24-.17-.85,4.49-.2.21-.11-1.11-2.16Z"/>
    </g>
  </g>

</svg>