<?xml version="1.0" encoding="UTF-8"?>
<svg xmlns="http://www.w3.org/2000/svg" xmlns:xlink="http://www.w3.org/1999/xlink" viewBox="0 0 630 800">
  <defs>
    <style>
      .cls-1 {
        mask: url(#mask);
      }

      .cls-2 {
        stroke-width: 17px;
      }

      .cls-2, .cls-3, .cls-4 {
        stroke: #fff;
      }

      .cls-2, .cls-5, .cls-6, .cls-4, .cls-7 {
        fill: none;
      }

      .cls-8 {
        filter: url(#luminosity-noclip);
      }

      .cls-3 {
        fill: #333;
        stroke-miterlimit: 10;
      }

      .cls-5 {
        stroke-width: 13px;
      }

      .cls-5, .cls-7 {
        stroke: #000;
      }

      .cls-6 {
        stroke: #1a171b;
        stroke-width: .3px;
      }

      .cls-9 {
        opacity: .4;
      }

      .cls-4 {
        stroke-width: 1.8px;
      }

      .cls-10 {
        fill-rule: evenodd;
      }

      .cls-10, .cls-11, .cls-12, .cls-13 {
        stroke-width: 0px;
      }

      .cls-10, .cls-12 {
        fill: #7d7d7d;
      }

      .cls-7 {
        stroke-width: 15.3px;
      }

      .cls-13 {
        fill: #fff;
      }
     #GA path, #GA rect{
        mask: url(#mask-stripe)
      }

    </style>

   <pattern id="pattern-stripe" 
            width="4" height="4" 
            patternUnits="userSpaceOnUse"
            patternTransform="rotate(45)">
            <rect width="1.5" height="4" transform="translate(0,0)" fill="white"></rect>
    </pattern>
    <mask id="mask-stripe">
          <rect x="0" y="0" width="1000" height="1000" fill="url(#pattern-stripe)" />
    </mask>  

    <filter id="luminosity-noclip" x="150.38" y="284.98" width="54.12" height="51.84" color-interpolation-filters="sRGB" filterUnits="userSpaceOnUse">
      <feFlood flood-color="#fff" result="bg"/>
      <feBlend in="SourceGraphic" in2="bg"/>
    </filter>
    <mask id="mask" x="150.38" y="284.98" width="54.12" height="51.84" maskUnits="userSpaceOnUse">
      <g class="cls-8">
        <g>
          <rect class="cls-3" x="152.72" y="299.09" width="49.45" height="23.62" transform="translate(-161.3 195.14) rotate(-41.42)"/>
          <g id="Yacht">
            <path class="cls-13" d="M174.92,310.21l-4.83-5.46c-.23-.26-.2-.66.07-.9l2.99-2.64c.27-.24.67-.22.9.04l4.83,5.46c.94,1.06,7.02,9.73,5.93,10.7h0c-1.09.97-8.95-6.14-9.89-7.2Z"/>
          </g>
        </g>
      </g>
    </mask>
  </defs>
  <g id="GA">
    <g idGrandstand="7945">
      <path class="cls-10" d="M13.88,463.75s21.6,33.1,58.32,52.52c0,0-7.2,15.11-7.2,22.3s5.04,27.34-3.6,30.94c-8.64,3.6-64.8,1.44-78.48-69.79,0,0-6.48-23.74,1.44-25.9s29.52-10.07,29.52-10.07Z"/>
    </g>
  </g>
  <g id="track">
    <g id="Track">
      <g>
        <path id="Track_OL" data-name="Track OL" class="cls-2" d="M566.38,371.52c13.73-9.08,24.98-16.73,27.26-18.41.18-.12,2.44-1.63,2.44-1.63,1.27-.8,2.69-1.71,3.81-2.66,1.3-1.1,2.09-2.69,2.19-4.39,0-.12.01-.23.01-.35,0-1.58-.6-3.1-1.69-4.26-1.16-1.23-2.67-2.21-5.57-3.89-.05-.03-4.49-2.75-4.72-2.89-.21-.14-1.85-1.25-1.85-1.25-4.37-2.99-7.84-5.36-11.96-5.33-1.76.01-14.92,19.06-16.48,21.35-.04.06-8.91,8.82-13.54,6.81-3.42-1.48-4.94-3.8-4.94-7.52,0-1.41.22-3.02.67-4.77l.04-.15c.52-2.07,4.72-9.92,10.14-19.97.02-.03,4.51-8.48,4.51-8.48.03-.05.05-.1.08-.15.85-1.71,2.92-3.8,5.54-6.45,8.77-8.88,10.44-12.48,10.94-15.06.32-1.64-.04-3.33-.98-4.7-.94-1.37-2.4-2.31-4.04-2.6-2.01-.36-4.6-.34-6.92.05-.77.1-88.59,14.33-97.47,17.69-.07.03-.13.05-.2.08-11.48,4.8-12.17,26.12-12.17,26.12,0-.04,0-.32.01-.36l-.09,1.48c-.98,17.15-1.47,25.76-13.64,37.07-18.56,17.27-43.29,1-60.27-12.73-.03-.02-2.37-1.89-2.37-1.89-8.08-6.24-15.76-11.48-27.24-17.04-6.05-2.93-29.29-13.15-29.52-13.25,0,0-.07-.03-.1-.04-.77-.48-115.64-72.69-115.64-72.69-1.98-1.25-3.4-3.23-4.9-5.32-2.11-2.95-4.29-6-8.38-7.71-5.02-2.1-8.2,1-12.23,4.93.03-.03.07-.07.1-.1,0,0-3.2,2.99-3.74,3.49-.07.06-4.67,4-4.67,4-13.8,11.79-46.12,39.4-61.58,54.91-17.51,17.56-43.89,55.02-52.27,74.23-4.62,10.59-5.88,19.96-6.99,28.23-.98,7.26-1.82,13.52-4.73,18.76-2.42,4.37-5.03,6.41-7.13,8.04,0,0-2.3,2-2.3,2-1.13.98-1.18,1.12-1.39,2.6l-.29,1.99c-.04.26-.06.5-.06.72,0,.77.22,1.37.6,2.21,2.84,6.28,17.35,16.13,22.7,19.39l.07.04c.47.36,13.68,10.34,13.8,10.44.1.08.45.36.45.36,3.28,2.62,13.28,10.62,19.65,3.97,4.3-4.49,1.5-11.48-3.27-21.63-2.26-4.82-4.4-9.37-4.76-13.16-1.24-13.18-2.07-24.29-.69-37.28,2.82-26.35,9.56-32.3,12.32-33.64,4.07-1.97,7.61-.14,11.48,2.27,2.64,1.64,6.14,1.16,8.13-1.22l25.82-30.98c.05-.06.09-.11.14-.17,2.21-2.87,3.04-4.94,3.29-5.69.17-.52.25-.78.28-1.32l.09-1.53c0-2.32-.52-4.27-1.08-6.34-.52-1.94-1.06-3.94-1.06-6.18,0-1.48.24-2.91.74-4.37,1.9-5.58,28.39-28.08,41.37-36.72,4.1-2.73,11.49-3.12,16.14-.85,8.41,4.11,67.7,50.02,76.99,57.38,2.27,1.83,3.27,7.12,4.23,12.23,0,0,1.11,5.23,1.11,5.23.29,1.38.96,2.26,2.04,3.15,2.67,2.2,8.86,5.31,12.5,6.29,1.93.52,3.98.08,5.53-1.17,1.88-1.53,4.19-4.3,6.2-6.78-.01.01,1.38-1.68,1.38-1.68,3.43-4.13,18.23,3.94,18.23,3.94,16.18,11.47,27.88,19.75,72.1,42.21M173.37,244.62s-.21.2-.21.2c.04-.04.13-.12.21-.2Z"/>
        <path id="Track-2" data-name="Track" class="cls-5" d="M569.51,369.45c12.28-8.15,22.03-14.79,24.13-16.34.18-.12,2.44-1.63,2.44-1.63,1.27-.8,2.69-1.71,3.81-2.66,1.3-1.1,2.09-2.69,2.19-4.39,0-.12.01-.23.01-.35,0-1.58-.6-3.1-1.69-4.26-1.16-1.23-2.67-2.21-5.57-3.89-.05-.03-4.49-2.75-4.72-2.89-.21-.14-1.85-1.25-1.85-1.25-4.37-2.99-7.84-5.36-11.96-5.33-1.76.01-14.92,19.06-16.48,21.35-.04.06-8.91,8.82-13.54,6.81-3.42-1.48-4.94-3.8-4.94-7.52,0-1.41.22-3.02.67-4.77l.04-.15c.52-2.07,4.72-9.92,10.14-19.97.02-.03,4.51-8.48,4.51-8.48.03-.05.05-.1.08-.15.85-1.71,2.92-3.8,5.54-6.45,8.77-8.88,10.44-12.48,10.94-15.06.32-1.64-.04-3.33-.98-4.7-.94-1.37-2.4-2.31-4.04-2.6-2.01-.36-4.6-.34-6.92.05-.77.1-88.59,14.33-97.47,17.69-.07.03-.13.05-.2.08-11.48,4.8-12.17,26.12-12.17,26.12,0-.04,0-.32.01-.36l-.09,1.48c-.98,17.15-1.47,25.76-13.64,37.07-18.56,17.27-43.29,1-60.27-12.73-.03-.02-2.37-1.89-2.37-1.89-8.08-6.24-15.76-11.48-27.24-17.04-6.05-2.93-29.29-13.15-29.52-13.25,0,0-.07-.03-.1-.04-.77-.48-115.64-72.69-115.64-72.69-1.98-1.25-3.4-3.23-4.9-5.32-2.11-2.95-4.29-6-8.38-7.71-5.02-2.1-8.2,1-12.23,4.93.03-.03.07-.07.1-.1,0,0-3.2,2.99-3.74,3.49-.07.06-4.67,4-4.67,4-13.8,11.79-46.12,39.4-61.58,54.91-17.51,17.56-43.89,55.02-52.27,74.23-4.62,10.59-5.88,19.96-6.99,28.23-.98,7.26-1.82,13.52-4.73,18.76-2.42,4.37-5.03,6.41-7.13,8.04,0,0-2.3,2-2.3,2-1.13.98-1.18,1.12-1.39,2.6l-.29,1.99c-.04.26-.06.5-.06.72,0,.77.22,1.37.6,2.21,2.84,6.28,17.35,16.13,22.7,19.39l.07.04c.47.36,13.68,10.34,13.8,10.44.1.08.45.36.45.36,3.28,2.62,13.28,10.62,19.65,3.97,4.3-4.49,1.5-11.48-3.27-21.63-2.26-4.82-4.4-9.37-4.76-13.16-1.24-13.18-2.07-24.29-.69-37.28,2.82-26.35,9.56-32.3,12.32-33.64,4.07-1.97,7.61-.14,11.48,2.27,2.64,1.64,6.14,1.16,8.13-1.22l25.82-30.98c.05-.06.09-.11.14-.17,2.21-2.87,3.04-4.94,3.29-5.69.17-.52.25-.78.28-1.32l.09-1.53c0-2.32-.52-4.27-1.08-6.34-.52-1.94-1.06-3.94-1.06-6.18,0-1.48.24-2.91.74-4.37,1.9-5.58,28.39-28.08,41.37-36.72,4.1-2.73,11.49-3.12,16.14-.85,8.41,4.11,67.7,50.02,76.99,57.38,2.27,1.83,3.27,7.12,4.23,12.23,0,0,1.11,5.23,1.11,5.23.29,1.38.96,2.26,2.04,3.15,2.67,2.2,8.86,5.31,12.5,6.29,1.93.52,3.98.08,5.53-1.17,1.88-1.53,4.19-4.3,6.2-6.78-.01.01,1.38-1.68,1.38-1.68,3.43-4.13,18.23,3.94,18.23,3.94,16.18,11.47,27.88,19.75,72.1,42.21M173.37,244.62s-.21.2-.21.2c.04-.04.13-.12.21-.2Z"/>
      </g>
      <g>
        <path id="Track_OL-2" data-name="Track OL" class="cls-7" d="M566.38,371.52c13.73-9.08,24.98-16.73,27.26-18.41.18-.12,2.44-1.63,2.44-1.63,1.27-.8,2.69-1.71,3.81-2.66,1.3-1.1,2.09-2.69,2.19-4.39,0-.12.01-.23.01-.35,0-1.58-.6-3.1-1.69-4.26-1.16-1.23-2.67-2.21-5.57-3.89-.05-.03-4.49-2.75-4.72-2.89-.21-.14-1.85-1.25-1.85-1.25-4.37-2.99-7.84-5.36-11.96-5.33-1.76.01-14.92,19.06-16.48,21.35-.04.06-8.91,8.82-13.54,6.81-3.42-1.48-4.94-3.8-4.94-7.52,0-1.41.22-3.02.67-4.77l.04-.15c.52-2.07,4.72-9.92,10.14-19.97.02-.03,4.51-8.48,4.51-8.48.03-.05.05-.1.08-.15.85-1.71,2.92-3.8,5.54-6.45,8.77-8.88,10.44-12.48,10.94-15.06.32-1.64-.04-3.33-.98-4.7-.94-1.37-2.4-2.31-4.04-2.6-2.01-.36-4.6-.34-6.92.05-.77.1-88.59,14.33-97.47,17.69-.07.03-.13.05-.2.08-11.48,4.8-12.17,26.12-12.17,26.12,0-.04,0-.32.01-.36l-.09,1.48c-.98,17.15-1.47,25.76-13.64,37.07-18.56,17.27-43.29,1-60.27-12.73-.03-.02-2.37-1.89-2.37-1.89-8.08-6.24-15.76-11.48-27.24-17.04-6.05-2.93-29.29-13.15-29.52-13.25,0,0-.07-.03-.1-.04-.77-.48-115.64-72.69-115.64-72.69-1.98-1.25-3.4-3.23-4.9-5.32-2.11-2.95-4.29-6-8.38-7.71-5.02-2.1-8.2,1-12.23,4.93.03-.03.07-.07.1-.1,0,0-3.2,2.99-3.74,3.49-.07.06-4.67,4-4.67,4-13.8,11.79-46.12,39.4-61.58,54.91-17.51,17.56-43.89,55.02-52.27,74.23-4.62,10.59-5.88,19.96-6.99,28.23-.98,7.26-1.82,13.52-4.73,18.76-2.42,4.37-5.03,6.41-7.13,8.04,0,0-2.3,2-2.3,2-1.13.98-1.18,1.12-1.39,2.6l-.29,1.99c-.04.26-.06.5-.06.72,0,.77.22,1.37.6,2.21,2.84,6.28,17.35,16.13,22.7,19.39l.07.04c.47.36,13.68,10.34,13.8,10.44.1.08.45.36.45.36,3.28,2.62,13.28,10.62,19.65,3.97,4.3-4.49,1.5-11.48-3.27-21.63-2.26-4.82-4.4-9.37-4.76-13.16-1.24-13.18-2.07-24.29-.69-37.28,2.82-26.35,9.56-32.3,12.32-33.64,4.07-1.97,7.61-.14,11.48,2.27,2.64,1.64,6.14,1.16,8.13-1.22l25.82-30.98c.05-.06.09-.11.14-.17,2.21-2.87,3.04-4.94,3.29-5.69.17-.52.25-.78.28-1.32l.09-1.53c0-2.32-.52-4.27-1.08-6.34-.52-1.94-1.06-3.94-1.06-6.18,0-1.48.24-2.91.74-4.37,1.9-5.58,28.39-28.08,41.37-36.72,4.1-2.73,11.49-3.12,16.14-.85,8.41,4.11,67.7,50.02,76.99,57.38,2.27,1.83,3.27,7.12,4.23,12.23,0,0,1.11,5.23,1.11,5.23.29,1.38.96,2.26,2.04,3.15,2.67,2.2,8.86,5.31,12.5,6.29,1.93.52,3.98.08,5.53-1.17,1.88-1.53,4.19-4.3,6.2-6.78-.01.01,1.38-1.68,1.38-1.68,3.43-4.13,18.23,3.94,18.23,3.94,16.18,11.47,27.88,19.75,72.1,42.21M173.37,244.62s-.21.2-.21.2c.04-.04.13-.12.21-.2Z"/>
        <path id="Track-3" data-name="Track" class="cls-7" d="M569.51,369.45c12.28-8.15,22.03-14.79,24.13-16.34.18-.12,2.44-1.63,2.44-1.63,1.27-.8,2.69-1.71,3.81-2.66,1.3-1.1,2.09-2.69,2.19-4.39,0-.12.01-.23.01-.35,0-1.58-.6-3.1-1.69-4.26-1.16-1.23-2.67-2.21-5.57-3.89-.05-.03-4.49-2.75-4.72-2.89-.21-.14-1.85-1.25-1.85-1.25-4.37-2.99-7.84-5.36-11.96-5.33-1.76.01-14.92,19.06-16.48,21.35-.04.06-8.91,8.82-13.54,6.81-3.42-1.48-4.94-3.8-4.94-7.52,0-1.41.22-3.02.67-4.77l.04-.15c.52-2.07,4.72-9.92,10.14-19.97.02-.03,4.51-8.48,4.51-8.48.03-.05.05-.1.08-.15.85-1.71,2.92-3.8,5.54-6.45,8.77-8.88,10.44-12.48,10.94-15.06.32-1.64-.04-3.33-.98-4.7-.94-1.37-2.4-2.31-4.04-2.6-2.01-.36-4.6-.34-6.92.05-.77.1-88.59,14.33-97.47,17.69-.07.03-.13.05-.2.08-11.48,4.8-12.17,26.12-12.17,26.12,0-.04,0-.32.01-.36l-.09,1.48c-.98,17.15-1.47,25.76-13.64,37.07-18.56,17.27-43.29,1-60.27-12.73-.03-.02-2.37-1.89-2.37-1.89-8.08-6.24-15.76-11.48-27.24-17.04-6.05-2.93-29.29-13.15-29.52-13.25,0,0-.07-.03-.1-.04-.77-.48-115.64-72.69-115.64-72.69-1.98-1.25-3.4-3.23-4.9-5.32-2.11-2.95-4.29-6-8.38-7.71-5.02-2.1-8.2,1-12.23,4.93.03-.03.07-.07.1-.1,0,0-3.2,2.99-3.74,3.49-.07.06-4.67,4-4.67,4-13.8,11.79-46.12,39.4-61.58,54.91-17.51,17.56-43.89,55.02-52.27,74.23-4.62,10.59-5.88,19.96-6.99,28.23-.98,7.26-1.82,13.52-4.73,18.76-2.42,4.37-5.03,6.41-7.13,8.04,0,0-2.3,2-2.3,2-1.13.98-1.18,1.12-1.39,2.6l-.29,1.99c-.04.26-.06.5-.06.72,0,.77.22,1.37.6,2.21,2.84,6.28,17.35,16.13,22.7,19.39l.07.04c.47.36,13.68,10.34,13.8,10.44.1.08.45.36.45.36,3.28,2.62,13.28,10.62,19.65,3.97,4.3-4.49,1.5-11.48-3.27-21.63-2.26-4.82-4.4-9.37-4.76-13.16-1.24-13.18-2.07-24.29-.69-37.28,2.82-26.35,9.56-32.3,12.32-33.64,4.07-1.97,7.61-.14,11.48,2.27,2.64,1.64,6.14,1.16,8.13-1.22l25.82-30.98c.05-.06.09-.11.14-.17,2.21-2.87,3.04-4.94,3.29-5.69.17-.52.25-.78.28-1.32l.09-1.53c0-2.32-.52-4.27-1.08-6.34-.52-1.94-1.06-3.94-1.06-6.18,0-1.48.24-2.91.74-4.37,1.9-5.58,28.39-28.08,41.37-36.72,4.1-2.73,11.49-3.12,16.14-.85,8.41,4.11,67.7,50.02,76.99,57.38,2.27,1.83,3.27,7.12,4.23,12.23,0,0,1.11,5.23,1.11,5.23.29,1.38.96,2.26,2.04,3.15,2.67,2.2,8.86,5.31,12.5,6.29,1.93.52,3.98.08,5.53-1.17,1.88-1.53,4.19-4.3,6.2-6.78-.01.01,1.38-1.68,1.38-1.68,3.43-4.13,18.23,3.94,18.23,3.94,16.18,11.47,27.88,19.75,72.1,42.21M173.37,244.62s-.21.2-.21.2c.04-.04.13-.12.21-.2Z"/>
      </g>
      <g>
        <path id="Track_OL-3" data-name="Track OL" class="cls-4" d="M566.38,371.52c13.73-9.08,24.98-16.73,27.26-18.41.18-.12,2.44-1.63,2.44-1.63,1.27-.8,2.69-1.71,3.81-2.66,1.3-1.1,2.09-2.69,2.19-4.39,0-.12.01-.23.01-.35,0-1.58-.6-3.1-1.69-4.26-1.16-1.23-2.67-2.21-5.57-3.89-.05-.03-4.49-2.75-4.72-2.89-.21-.14-1.85-1.25-1.85-1.25-4.37-2.99-7.84-5.36-11.96-5.33-1.76.01-14.92,19.06-16.48,21.35-.04.06-8.91,8.82-13.54,6.81-3.42-1.48-4.94-3.8-4.94-7.52,0-1.41.22-3.02.67-4.77l.04-.15c.52-2.07,4.72-9.92,10.14-19.97.02-.03,4.51-8.48,4.51-8.48.03-.05.05-.1.08-.15.85-1.71,2.92-3.8,5.54-6.45,8.77-8.88,10.44-12.48,10.94-15.06.32-1.64-.04-3.33-.98-4.7-.94-1.37-2.4-2.31-4.04-2.6-2.01-.36-4.6-.34-6.92.05-.77.1-88.59,14.33-97.47,17.69-.07.03-.13.05-.2.08-11.48,4.8-12.17,26.12-12.17,26.12,0-.04,0-.32.01-.36l-.09,1.48c-.98,17.15-1.47,25.76-13.64,37.07-18.56,17.27-43.29,1-60.27-12.73-.03-.02-2.37-1.89-2.37-1.89-8.08-6.24-15.76-11.48-27.24-17.04-6.05-2.93-29.29-13.15-29.52-13.25,0,0-.07-.03-.1-.04-.77-.48-115.64-72.69-115.64-72.69-1.98-1.25-3.4-3.23-4.9-5.32-2.11-2.95-4.29-6-8.38-7.71-5.02-2.1-8.2,1-12.23,4.93.03-.03.07-.07.1-.1,0,0-3.2,2.99-3.74,3.49-.07.06-4.67,4-4.67,4-13.8,11.79-46.12,39.4-61.58,54.91-17.51,17.56-43.89,55.02-52.27,74.23-4.62,10.59-5.88,19.96-6.99,28.23-.98,7.26-1.82,13.52-4.73,18.76-2.42,4.37-5.03,6.41-7.13,8.04,0,0-2.3,2-2.3,2-1.13.98-1.18,1.12-1.39,2.6l-.29,1.99c-.04.26-.06.5-.06.72,0,.77.22,1.37.6,2.21,2.84,6.28,17.35,16.13,22.7,19.39l.07.04c.47.36,13.68,10.34,13.8,10.44.1.08.45.36.45.36,3.28,2.62,13.28,10.62,19.65,3.97,4.3-4.49,1.5-11.48-3.27-21.63-2.26-4.82-4.4-9.37-4.76-13.16-1.24-13.18-2.07-24.29-.69-37.28,2.82-26.35,9.56-32.3,12.32-33.64,4.07-1.97,7.61-.14,11.48,2.27,2.64,1.64,6.14,1.16,8.13-1.22l25.82-30.98c.05-.06.09-.11.14-.17,2.21-2.87,3.04-4.94,3.29-5.69.17-.52.25-.78.28-1.32l.09-1.53c0-2.32-.52-4.27-1.08-6.34-.52-1.94-1.06-3.94-1.06-6.18,0-1.48.24-2.91.74-4.37,1.9-5.58,28.39-28.08,41.37-36.72,4.1-2.73,11.49-3.12,16.14-.85,8.41,4.11,67.7,50.02,76.99,57.38,2.27,1.83,3.27,7.12,4.23,12.23,0,0,1.11,5.23,1.11,5.23.29,1.38.96,2.26,2.04,3.15,2.67,2.2,8.86,5.31,12.5,6.29,1.93.52,3.98.08,5.53-1.17,1.88-1.53,4.19-4.3,6.2-6.78-.01.01,1.38-1.68,1.38-1.68,3.43-4.13,18.23,3.94,18.23,3.94,16.18,11.47,27.88,19.75,72.1,42.21M173.37,244.62s-.21.2-.21.2c.04-.04.13-.12.21-.2Z"/>
        <path id="Track-4" data-name="Track" class="cls-4" d="M569.51,369.45c12.28-8.15,22.03-14.79,24.13-16.34.18-.12,2.44-1.63,2.44-1.63,1.27-.8,2.69-1.71,3.81-2.66,1.3-1.1,2.09-2.69,2.19-4.39,0-.12.01-.23.01-.35,0-1.58-.6-3.1-1.69-4.26-1.16-1.23-2.67-2.21-5.57-3.89-.05-.03-4.49-2.75-4.72-2.89-.21-.14-1.85-1.25-1.85-1.25-4.37-2.99-7.84-5.36-11.96-5.33-1.76.01-14.92,19.06-16.48,21.35-.04.06-8.91,8.82-13.54,6.81-3.42-1.48-4.94-3.8-4.94-7.52,0-1.41.22-3.02.67-4.77l.04-.15c.52-2.07,4.72-9.92,10.14-19.97.02-.03,4.51-8.48,4.51-8.48.03-.05.05-.1.08-.15.85-1.71,2.92-3.8,5.54-6.45,8.77-8.88,10.44-12.48,10.94-15.06.32-1.64-.04-3.33-.98-4.7-.94-1.37-2.4-2.31-4.04-2.6-2.01-.36-4.6-.34-6.92.05-.77.1-88.59,14.33-97.47,17.69-.07.03-.13.05-.2.08-11.48,4.8-12.17,26.12-12.17,26.12,0-.04,0-.32.01-.36l-.09,1.48c-.98,17.15-1.47,25.76-13.64,37.07-18.56,17.27-43.29,1-60.27-12.73-.03-.02-2.37-1.89-2.37-1.89-8.08-6.24-15.76-11.48-27.24-17.04-6.05-2.93-29.29-13.15-29.52-13.25,0,0-.07-.03-.1-.04-.77-.48-115.64-72.69-115.64-72.69-1.98-1.25-3.4-3.23-4.9-5.32-2.11-2.95-4.29-6-8.38-7.71-5.02-2.1-8.2,1-12.23,4.93.03-.03.07-.07.1-.1,0,0-3.2,2.99-3.74,3.49-.07.06-4.67,4-4.67,4-13.8,11.79-46.12,39.4-61.58,54.91-17.51,17.56-43.89,55.02-52.27,74.23-4.62,10.59-5.88,19.96-6.99,28.23-.98,7.26-1.82,13.52-4.73,18.76-2.42,4.37-5.03,6.41-7.13,8.04,0,0-2.3,2-2.3,2-1.13.98-1.18,1.12-1.39,2.6l-.29,1.99c-.04.26-.06.5-.06.72,0,.77.22,1.37.6,2.21,2.84,6.28,17.35,16.13,22.7,19.39l.07.04c.47.36,13.68,10.34,13.8,10.44.1.08.45.36.45.36,3.28,2.62,13.28,10.62,19.65,3.97,4.3-4.49,1.5-11.48-3.27-21.63-2.26-4.82-4.4-9.37-4.76-13.16-1.24-13.18-2.07-24.29-.69-37.28,2.82-26.35,9.56-32.3,12.32-33.64,4.07-1.97,7.61-.14,11.48,2.27,2.64,1.64,6.14,1.16,8.13-1.22l25.82-30.98c.05-.06.09-.11.14-.17,2.21-2.87,3.04-4.94,3.29-5.69.17-.52.25-.78.28-1.32l.09-1.53c0-2.32-.52-4.27-1.08-6.34-.52-1.94-1.06-3.94-1.06-6.18,0-1.48.24-2.91.74-4.37,1.9-5.58,28.39-28.08,41.37-36.72,4.1-2.73,11.49-3.12,16.14-.85,8.41,4.11,67.7,50.02,76.99,57.38,2.27,1.83,3.27,7.12,4.23,12.23,0,0,1.11,5.23,1.11,5.23.29,1.38.96,2.26,2.04,3.15,2.67,2.2,8.86,5.31,12.5,6.29,1.93.52,3.98.08,5.53-1.17,1.88-1.53,4.19-4.3,6.2-6.78-.01.01,1.38-1.68,1.38-1.68,3.43-4.13,18.23,3.94,18.23,3.94,16.18,11.47,27.88,19.75,72.1,42.21M173.37,244.62s-.21.2-.21.2c.04-.04.13-.12.21-.2Z"/>
      </g>
    </g>
    <g class="cls-9">
      <path class="cls-7" d="M398.59,398.41c49.17,24.97,102.25,12.28,109.97,8.9,8.59-3.75,36.26-21.54,57.82-35.8"/>
      <path class="cls-4" d="M398.59,398.41c49.17,24.97,102.25,12.28,109.97,8.9,8.59-3.75,36.26-21.54,57.82-35.8"/>
    </g>
  </g>
  <g id="arrow">
    <g>
      <path class="cls-11" d="M113.53,283.5l-.02-4.85c0-.22-.07-.41-.23-.57s-.35-.23-.58-.23l-4.89-.15.04-1.55,4.87.16c.64,0,1.19.24,1.65.7s.67,1.01.66,1.65l.03,4.84h-1.54Z"/>
      <path class="cls-11" d="M106.09,290.81l-.02-4.85c0-.22-.07-.41-.23-.57s-.35-.23-.58-.23l-4.89-.15.04-1.55,4.87.16c.64,0,1.19.24,1.65.7s.67,1.01.66,1.65l.03,4.84h-1.54Z"/>
      <path class="cls-11" d="M109.81,287.15l-.02-4.85c0-.22-.07-.41-.23-.57s-.35-.23-.58-.23l-4.89-.15.04-1.55,4.87.16c.64,0,1.19.24,1.65.7s.67,1.01.66,1.65l.03,4.84h-1.54Z"/>
    </g>
  </g>
  <g id="start">
    <g>
      <rect class="cls-11" x="91.18" y="295.92" width="3.44" height="3.47" transform="translate(-181.96 150.41) rotate(-44.49)"/>
      <rect class="cls-11" x="96.07" y="295.98" width="3.44" height="3.47" transform="translate(-180.6 153.86) rotate(-44.49)"/>
      <rect class="cls-11" x="91.2" y="291.02" width="3.44" height="3.47" transform="translate(-178.52 149.02) rotate(-44.49)"/>
      <rect class="cls-11" x="91.17" y="300.8" width="3.44" height="3.47" transform="translate(-185.38 151.8) rotate(-44.49)"/>
      <rect class="cls-11" x="86.3" y="295.84" width="3.44" height="3.47" transform="translate(-183.3 146.97) rotate(-44.49)"/>
      <rect class="cls-11" x="96.09" y="291.09" width="3.44" height="3.47" transform="translate(-177.17 152.47) rotate(-44.49)"/>
      <rect class="cls-11" x="100.98" y="291.16" width="3.44" height="3.47" transform="translate(-175.81 155.91) rotate(-44.49)"/>
      <rect class="cls-11" x="96.11" y="286.2" width="3.44" height="3.47" transform="translate(-173.73 151.08) rotate(-44.49)"/>
    </g>
  </g>
  <g id="hospitality_products_misc" data-name="hospitality products / misc">
    <g id="hospitality-names">
      <g>
        <path class="cls-12" d="M246.76,247.61c-.51,0-.76.15-.76.46,0,.14.06.24.19.31s.42.18.89.31c.46.14.79.29.98.46.19.17.28.44.28.79,0,.45-.15.8-.46,1.03-.3.23-.7.35-1.19.35-.36,0-.81-.05-1.34-.15l-.25-.04.1-.68c.62.08,1.1.11,1.43.11.5,0,.74-.19.74-.56,0-.14-.06-.24-.17-.32-.12-.08-.34-.16-.68-.25-.54-.14-.92-.31-1.14-.5-.22-.19-.33-.46-.33-.81,0-.43.14-.76.43-.97.29-.21.69-.32,1.19-.32.35,0,.78.04,1.32.13l.25.04-.08.69c-.66-.07-1.12-.1-1.39-.1Z"/>
        <path class="cls-12" d="M249.1,251.25v-4.33h.97v4.33h-.97Z"/>
        <path class="cls-12" d="M253.81,251.25h-2.71v-4.33h.97v3.55h1.74v.78Z"/>
        <path class="cls-12" d="M256.6,246.92h1.02l-1.11,4.33h-1.79l-1.11-4.33h1.01l.83,3.57h.31l.83-3.57Z"/>
        <path class="cls-12" d="M258.24,251.25v-4.33h3.08v.76h-2.11v1.01h1.69v.75h-1.69v1.04h2.11v.76h-3.08Z"/>
        <path class="cls-12" d="M263.09,249.8v1.45h-.97v-4.33h1.85c1.12,0,1.68.48,1.68,1.43,0,.56-.23.98-.7,1.25l.68,1.66h-1.06l-.55-1.45h-.93ZM264.49,248.86c.11-.13.17-.29.17-.5s-.06-.37-.18-.5c-.12-.12-.29-.19-.51-.19h-.88v1.38h.9c.23,0,.4-.06.51-.19Z"/>
        <path class="cls-12" d="M244.87,255.34v-.78h3.5v.78h-1.26v3.55h-.97v-3.55h-1.27Z"/>
        <path class="cls-12" d="M248.97,258.89v-4.33h3.08v.76h-2.11v1.01h1.69v.75h-1.69v1.04h2.11v.76h-3.08Z"/>
        <path class="cls-12" d="M253.82,257.44v1.45h-.97v-4.33h1.85c1.12,0,1.68.48,1.68,1.43,0,.56-.23.98-.7,1.25l.68,1.66h-1.06l-.55-1.45h-.93ZM255.22,256.5c.11-.13.17-.29.17-.5s-.06-.37-.18-.5c-.12-.12-.29-.19-.51-.19h-.88v1.38h.9c.23,0,.4-.06.51-.19Z"/>
        <path class="cls-12" d="M258.16,257.44v1.45h-.97v-4.33h1.85c1.12,0,1.68.48,1.68,1.43,0,.56-.23.98-.7,1.25l.68,1.66h-1.06l-.55-1.45h-.93ZM259.56,256.5c.11-.13.17-.29.17-.5s-.06-.37-.18-.5c-.12-.12-.29-.19-.51-.19h-.88v1.38h.9c.23,0,.4-.06.51-.19Z"/>
        <path class="cls-12" d="M261.08,258.89l1.07-4.33h1.83l1.07,4.33h-.97l-.19-.78h-1.67l-.19.78h-.97ZM262.9,255.29l-.48,2.06h1.3l-.48-2.06h-.34Z"/>
        <path class="cls-12" d="M268.64,258.82c-.5.1-.94.15-1.34.15s-.71-.04-.95-.13c-.24-.09-.42-.23-.56-.43-.13-.2-.23-.42-.28-.69-.05-.26-.08-.59-.08-.99,0-.84.13-1.42.39-1.75s.74-.49,1.43-.49c.4,0,.87.06,1.39.17l-.03.7c-.46-.06-.85-.1-1.15-.1s-.52.04-.65.11-.23.22-.29.42c-.06.21-.09.56-.09,1.06s.06.85.19,1.04c.13.19.38.29.77.29s.79-.03,1.23-.09l.02.72Z"/>
        <path class="cls-12" d="M269.43,258.89v-4.33h3.08v.76h-2.11v1.01h1.69v.75h-1.69v1.04h2.11v.76h-3.08Z"/>
      </g>
      <g>
        <path class="cls-12" d="M191.66,329.14h-.97v-1.75l-1.47-2.58h1.07l.88,1.73.88-1.73h1.07l-1.46,2.58v1.75Z"/>
        <path class="cls-12" d="M192.87,329.14l1.07-4.33h1.83l1.07,4.33h-.97l-.19-.78h-1.67l-.19.78h-.97ZM194.69,325.53l-.48,2.06h1.3l-.48-2.06h-.34Z"/>
        <path class="cls-12" d="M200.44,329.07c-.5.1-.94.15-1.34.15s-.71-.04-.95-.13c-.24-.09-.42-.23-.56-.43-.13-.2-.23-.42-.28-.69-.05-.26-.08-.59-.08-.99,0-.84.13-1.42.39-1.75s.74-.49,1.43-.49c.4,0,.87.06,1.39.17l-.03.7c-.46-.06-.85-.1-1.15-.1s-.52.04-.65.11-.23.22-.29.42c-.06.21-.09.56-.09,1.06s.06.85.19,1.04c.13.19.38.29.77.29s.79-.03,1.23-.09l.02.72Z"/>
        <path class="cls-12" d="M203.96,329.14v-1.8h-1.77v1.8h-.97v-4.33h.97v1.77h1.77v-1.77h.97v4.33h-.97Z"/>
        <path class="cls-12" d="M205.53,325.58v-.78h3.5v.78h-1.26v3.55h-.97v-3.55h-1.27Z"/>
      </g>
      <g>
        <path class="cls-12" d="M157.34,211.24h1.87c.5,0,.87.1,1.11.3s.37.52.37.96c0,.27-.04.48-.12.63-.08.16-.21.3-.41.42.21.09.37.22.47.39s.15.4.15.7c0,.46-.14.81-.41,1.03s-.65.34-1.14.34h-1.9v-4.76ZM159.16,212.07h-.85v1.13h.86c.36,0,.55-.19.55-.57s-.18-.57-.55-.57ZM159.19,214.01h-.88v1.16h.88c.21,0,.37-.04.46-.13.1-.08.15-.24.15-.46,0-.38-.21-.57-.62-.57Z"/>
        <path class="cls-12" d="M162.57,214.41v1.6h-.97v-4.76h1.85c1.12,0,1.68.52,1.68,1.57,0,.62-.23,1.08-.7,1.37l.68,1.82h-1.06l-.55-1.6h-.93ZM163.98,213.37c.11-.14.17-.32.17-.55s-.06-.41-.18-.55c-.12-.14-.29-.2-.51-.2h-.88v1.51h.9c.23,0,.4-.07.51-.21Z"/>
        <path class="cls-12" d="M169.24,215.5c-.3.39-.81.59-1.53.59s-1.23-.2-1.53-.59c-.3-.39-.45-1.01-.45-1.85s.15-1.46.45-1.87c.3-.41.81-.61,1.53-.61s1.23.2,1.53.61c.3.41.44,1.03.44,1.87s-.15,1.46-.44,1.85ZM166.93,214.88c.14.25.4.37.77.37s.64-.12.77-.37.21-.66.21-1.23-.07-1-.21-1.26c-.14-.26-.4-.39-.77-.39s-.63.13-.77.39c-.14.26-.21.68-.21,1.26s.07.99.21,1.23Z"/>
        <path class="cls-12" d="M170.51,216v-4.76h1.63l1.15,3.92h.07v-3.92h.97v4.76h-1.59l-1.19-3.92h-.07v3.92h-.97Z"/>
        <path class="cls-12" d="M175.13,212.08v-.84h3.15v.84l-1.99,2.95v.13h1.99v.84h-3.15v-.83l1.99-2.96v-.13h-1.99Z"/>
        <path class="cls-12" d="M179.08,216v-4.76h3.08v.84h-2.11v1.11h1.69v.83h-1.69v1.14h2.11v.84h-3.08Z"/>
        <path class="cls-12" d="M154.52,218.5v-.85h3.5v.85h-1.26v3.91h-.97v-3.91h-1.27Z"/>
        <path class="cls-12" d="M158.63,222.4v-4.76h3.08v.84h-2.11v1.11h1.69v.83h-1.69v1.14h2.11v.84h-3.08Z"/>
        <path class="cls-12" d="M163.47,220.81v1.6h-.97v-4.76h1.85c1.12,0,1.68.52,1.68,1.57,0,.62-.23,1.08-.7,1.37l.68,1.82h-1.06l-.55-1.6h-.93ZM164.88,219.77c.11-.14.17-.32.17-.55s-.06-.41-.18-.55c-.12-.14-.29-.2-.51-.2h-.88v1.51h.9c.23,0,.4-.07.51-.21Z"/>
        <path class="cls-12" d="M167.81,220.81v1.6h-.97v-4.76h1.85c1.12,0,1.68.52,1.68,1.57,0,.62-.23,1.08-.7,1.37l.68,1.82h-1.06l-.55-1.6h-.93ZM169.22,219.77c.11-.14.17-.32.17-.55s-.06-.41-.18-.55c-.12-.14-.29-.2-.51-.2h-.88v1.51h.9c.23,0,.4-.07.51-.21Z"/>
        <path class="cls-12" d="M170.73,222.4l1.07-4.76h1.83l1.07,4.76h-.97l-.19-.86h-1.67l-.19.86h-.97ZM172.55,218.44l-.48,2.26h1.3l-.48-2.26h-.34Z"/>
        <path class="cls-12" d="M178.3,222.33c-.5.11-.94.16-1.34.16s-.71-.05-.95-.15-.42-.25-.56-.47c-.13-.21-.23-.47-.28-.76-.05-.29-.08-.65-.08-1.09,0-.92.13-1.56.39-1.92.26-.36.74-.54,1.43-.54.4,0,.87.06,1.39.19l-.03.77c-.46-.07-.85-.11-1.15-.11s-.52.04-.65.12c-.13.08-.23.24-.29.47-.06.23-.09.62-.09,1.17s.06.93.19,1.14c.13.21.38.32.77.32s.79-.03,1.23-.1l.02.79Z"/>
        <path class="cls-12" d="M179.08,222.4v-4.76h3.08v.84h-2.11v1.11h1.69v.83h-1.69v1.14h2.11v.84h-3.08Z"/>
      </g>
      <g>
        <path class="cls-12" d="M179.98,197.47h-.78v1.39h-.97v-4.76h1.75c1.13,0,1.69.55,1.69,1.65,0,.56-.14.98-.43,1.28s-.71.44-1.26.44ZM179.2,196.65h.78c.48,0,.72-.3.72-.9,0-.29-.06-.51-.18-.63-.12-.13-.3-.19-.55-.19h-.78v1.72Z"/>
        <path class="cls-12" d="M181.82,198.86l1.07-4.76h1.83l1.07,4.76h-.97l-.19-.86h-1.67l-.19.86h-.97ZM183.64,194.9l-.48,2.26h1.3l-.48-2.26h-.34Z"/>
        <path class="cls-12" d="M186.43,198.86v-4.76h1.63l1.15,3.92h.07v-3.92h.97v4.76h-1.59l-1.19-3.92h-.07v3.92h-.97Z"/>
        <path class="cls-12" d="M194.58,198.35c-.3.39-.81.59-1.53.59s-1.23-.2-1.53-.59c-.3-.39-.45-1.01-.45-1.85s.15-1.46.45-1.87c.3-.41.81-.61,1.53-.61s1.23.2,1.53.61c.3.41.44,1.03.44,1.87s-.15,1.46-.44,1.85ZM192.27,197.74c.14.25.4.37.77.37s.64-.12.77-.37.21-.66.21-1.23-.07-1-.21-1.26c-.14-.26-.4-.39-.77-.39s-.63.13-.77.39c-.14.26-.21.68-.21,1.26s.07.99.21,1.23Z"/>
        <path class="cls-12" d="M196.81,197.26v1.6h-.97v-4.76h1.85c1.12,0,1.68.52,1.68,1.57,0,.62-.23,1.08-.7,1.37l.68,1.82h-1.06l-.55-1.6h-.93ZM198.22,196.23c.11-.14.17-.32.17-.55s-.06-.41-.18-.55c-.12-.14-.29-.2-.51-.2h-.88v1.51h.9c.23,0,.4-.07.51-.21Z"/>
        <path class="cls-12" d="M199.73,198.86l1.07-4.76h1.83l1.07,4.76h-.97l-.19-.86h-1.67l-.19.86h-.97ZM201.55,194.9l-.48,2.26h1.3l-.48-2.26h-.34Z"/>
        <path class="cls-12" d="M204.34,198.86v-4.76h1.65l.84,3.47.84-3.47h1.65v4.76h-.97v-3.68h-.11l-.93,3.47h-.97l-.93-3.47h-.1v3.68h-.97Z"/>
        <path class="cls-12" d="M210.35,198.86v-4.76h.97v4.76h-.97Z"/>
        <path class="cls-12" d="M215.37,198.78c-.5.11-.94.16-1.34.16s-.71-.05-.95-.15-.42-.25-.56-.47c-.13-.21-.23-.47-.28-.76-.05-.29-.08-.65-.08-1.09,0-.92.13-1.56.39-1.92.26-.36.74-.54,1.43-.54.4,0,.87.06,1.39.19l-.03.77c-.46-.07-.85-.11-1.15-.11s-.52.04-.65.12c-.13.08-.23.24-.29.47-.06.23-.09.62-.09,1.17s.06.93.19,1.14c.13.21.38.32.77.32s.79-.03,1.23-.1l.02.79Z"/>
        <path class="cls-12" d="M180.18,205.26v-4.76h3.04v.84h-2.07v1.4h1.69v.84h-1.69v1.68h-.97Z"/>
        <path class="cls-12" d="M183.35,205.26l1.07-4.76h1.83l1.07,4.76h-.97l-.19-.86h-1.67l-.19.86h-.97ZM185.17,201.3l-.48,2.26h1.3l-.48-2.26h-.34Z"/>
        <path class="cls-12" d="M187.96,205.26v-4.76h1.63l1.15,3.92h.07v-3.92h.97v4.76h-1.59l-1.19-3.92h-.07v3.92h-.97Z"/>
        <path class="cls-12" d="M192.71,202.18l-.03-1.68h.9l-.05,1.68h-.83Z"/>
        <path class="cls-12" d="M195.95,201.25c-.51,0-.76.17-.76.5,0,.15.06.26.19.34.13.08.42.19.89.34.46.15.79.32.98.51.19.19.28.48.28.87,0,.5-.15.88-.46,1.13-.3.26-.7.38-1.19.38-.36,0-.81-.06-1.34-.17l-.25-.05.1-.75c.62.08,1.1.13,1.43.13.5,0,.74-.21.74-.62,0-.15-.06-.27-.17-.35-.12-.08-.34-.17-.68-.27-.54-.15-.92-.34-1.14-.55s-.33-.51-.33-.89c0-.48.14-.83.43-1.06.29-.23.69-.35,1.19-.35.35,0,.78.05,1.32.14l.25.05-.08.76c-.66-.07-1.12-.11-1.39-.11Z"/>
        <path class="cls-12" d="M202.85,205.18c-.5.11-.94.16-1.34.16s-.71-.05-.95-.15-.42-.25-.56-.47c-.13-.21-.23-.47-.28-.76-.05-.29-.08-.65-.08-1.09,0-.92.13-1.56.39-1.92.26-.36.74-.54,1.43-.54.4,0,.87.06,1.39.19l-.03.77c-.46-.07-.85-.11-1.15-.11s-.52.04-.65.12c-.13.08-.23.24-.29.47-.06.23-.09.62-.09,1.17s.06.93.19,1.14c.13.21.38.32.77.32s.79-.03,1.23-.1l.02.79Z"/>
        <path class="cls-12" d="M206.34,205.26h-2.71v-4.76h.97v3.91h1.74v.85Z"/>
        <path class="cls-12" d="M207.83,203.67c0,.56.28.83.85.83s.85-.28.85-.83v-3.17h.97v3.15c0,.58-.15,1.01-.45,1.28s-.75.41-1.36.41-1.06-.14-1.36-.41-.45-.7-.45-1.28v-3.15h.97v3.17Z"/>
        <path class="cls-12" d="M211.48,200.5h1.87c.5,0,.87.1,1.11.3s.37.52.37.96c0,.27-.04.48-.12.63-.08.16-.21.3-.41.42.21.09.37.22.47.39s.15.4.15.7c0,.46-.14.81-.41,1.03s-.65.34-1.14.34h-1.9v-4.76ZM213.3,201.32h-.85v1.13h.86c.36,0,.55-.19.55-.57s-.18-.57-.55-.57ZM213.33,203.27h-.88v1.16h.88c.21,0,.37-.04.46-.13.1-.08.15-.24.15-.46,0-.38-.21-.57-.62-.57Z"/>
      </g>
      <g>
        <path class="cls-12" d="M58.45,272.96v-4.76h3.08v.84h-2.11v1.11h1.69v.83h-1.69v1.14h2.11v.84h-3.08Z"/>
        <path class="cls-12" d="M65.04,272.96h-2.71v-4.76h.97v3.91h1.74v.85Z"/>
        <path class="cls-12" d="M65.63,272.96v-4.76h.97v4.76h-.97Z"/>
        <path class="cls-12" d="M67.21,269.05v-.85h3.5v.85h-1.26v3.91h-.97v-3.91h-1.27Z"/>
        <path class="cls-12" d="M71.32,272.96v-4.76h3.08v.84h-2.11v1.11h1.69v.83h-1.69v1.14h2.11v.84h-3.08Z"/>
        <path class="cls-12" d="M52.39,275.45v-.85h3.5v.85h-1.26v3.91h-.97v-3.91h-1.27Z"/>
        <path class="cls-12" d="M56.5,279.36v-4.76h3.08v.84h-2.11v1.11h1.69v.83h-1.69v1.14h2.11v.84h-3.08Z"/>
        <path class="cls-12" d="M61.34,277.76v1.6h-.97v-4.76h1.85c1.12,0,1.68.52,1.68,1.57,0,.62-.23,1.08-.7,1.37l.68,1.82h-1.06l-.55-1.6h-.93ZM62.75,276.73c.11-.14.17-.32.17-.55s-.06-.41-.18-.55c-.12-.14-.29-.2-.51-.2h-.88v1.51h.9c.23,0,.4-.07.51-.21Z"/>
        <path class="cls-12" d="M65.68,277.76v1.6h-.97v-4.76h1.85c1.12,0,1.68.52,1.68,1.57,0,.62-.23,1.08-.7,1.37l.68,1.82h-1.06l-.55-1.6h-.93ZM67.09,276.73c.11-.14.17-.32.17-.55s-.06-.41-.18-.55c-.12-.14-.29-.2-.51-.2h-.88v1.51h.9c.23,0,.4-.07.51-.21Z"/>
        <path class="cls-12" d="M68.6,279.36l1.07-4.76h1.83l1.07,4.76h-.97l-.19-.86h-1.67l-.19.86h-.97ZM70.42,275.4l-.48,2.26h1.3l-.48-2.26h-.34Z"/>
        <path class="cls-12" d="M76.17,279.28c-.5.11-.94.16-1.34.16s-.71-.05-.95-.15-.42-.25-.56-.47c-.13-.21-.23-.47-.28-.76-.05-.29-.08-.65-.08-1.09,0-.92.13-1.56.39-1.92.26-.36.74-.54,1.43-.54.4,0,.87.06,1.39.19l-.03.77c-.46-.07-.85-.11-1.15-.11s-.52.04-.65.12c-.13.08-.23.24-.29.47-.06.23-.09.62-.09,1.17s.06.93.19,1.14c.13.21.38.32.77.32s.79-.03,1.23-.1l.02.79Z"/>
        <path class="cls-12" d="M76.95,279.36v-4.76h3.08v.84h-2.11v1.11h1.69v.83h-1.69v1.14h2.11v.84h-3.08Z"/>
      </g>
      <g>
        <path class="cls-12" d="M105.72,518.32h-.78v1.39h-.97v-4.76h1.75c1.13,0,1.69.55,1.69,1.65,0,.56-.14.98-.43,1.28-.29.3-.71.44-1.26.44ZM104.94,517.49h.78c.48,0,.72-.3.72-.9,0-.29-.06-.5-.18-.63-.12-.13-.3-.19-.55-.19h-.78v1.72Z"/>
        <path class="cls-12" d="M107.57,519.7l1.07-4.76h1.83l1.07,4.76h-.97l-.19-.86h-1.67l-.19.86h-.97ZM109.39,515.74l-.48,2.26h1.3l-.48-2.26h-.34Z"/>
        <path class="cls-12" d="M113.78,519.7h-1.6v-4.76h1.6c.41,0,.75.04,1.01.13.27.09.47.23.62.43.15.2.25.43.3.7.06.27.08.62.08,1.05s-.03.79-.08,1.07c-.05.28-.15.53-.29.76s-.35.38-.62.48c-.27.1-.62.15-1.04.15ZM114.8,517.81c0-.15.01-.36.01-.62s0-.47-.03-.63c-.02-.16-.06-.3-.13-.43-.07-.13-.17-.22-.31-.27s-.32-.07-.56-.07h-.64v3.08h.64c.35,0,.6-.09.76-.27.14-.14.22-.41.25-.78Z"/>
        <path class="cls-12" d="M118.25,519.7h-1.6v-4.76h1.6c.41,0,.75.04,1.01.13.27.09.47.23.62.43.15.2.25.43.3.7.06.27.08.62.08,1.05s-.03.79-.08,1.07c-.05.28-.15.53-.29.76s-.35.38-.62.48c-.27.1-.62.15-1.04.15ZM119.26,517.81c0-.15.01-.36.01-.62s0-.47-.03-.63c-.02-.16-.06-.3-.13-.43-.07-.13-.17-.22-.31-.27s-.32-.07-.56-.07h-.64v3.08h.64c.35,0,.6-.09.76-.27.14-.14.22-.41.25-.78Z"/>
        <path class="cls-12" d="M124.4,519.2c-.3.39-.81.59-1.53.59s-1.23-.2-1.53-.59c-.3-.39-.45-1.01-.45-1.85s.15-1.46.45-1.87c.3-.41.81-.61,1.53-.61s1.23.21,1.53.61c.3.41.44,1.03.44,1.87s-.15,1.46-.44,1.85ZM122.1,518.58c.14.25.4.37.77.37s.64-.12.77-.37.21-.66.21-1.23-.07-1-.21-1.26c-.14-.26-.4-.39-.77-.39s-.63.13-.77.39c-.14.26-.21.68-.21,1.26s.07.99.21,1.23Z"/>
        <path class="cls-12" d="M128.69,519.63c-.5.11-.94.16-1.34.16s-.71-.05-.95-.15c-.24-.1-.42-.25-.56-.47-.13-.21-.23-.47-.28-.76-.05-.29-.08-.65-.08-1.09,0-.92.13-1.56.39-1.92s.74-.54,1.43-.54c.4,0,.87.06,1.39.19l-.03.77c-.46-.07-.85-.11-1.15-.11s-.52.04-.65.12c-.13.08-.23.24-.29.47-.06.23-.09.62-.09,1.17s.06.93.19,1.14c.13.21.38.32.77.32s.79-.03,1.23-.1l.02.79Z"/>
        <path class="cls-12" d="M130.44,519.7h-.97v-4.76h.97v2.09l.64-.07.78-2.02h1.1l-1.04,2.39,1.06,2.37h-1.11l-.8-1.9-.64.07v1.83Z"/>
        <path class="cls-12" d="M138.18,519.63c-.5.11-.94.16-1.34.16s-.71-.05-.95-.15c-.24-.1-.42-.25-.56-.47-.13-.21-.23-.47-.28-.76-.05-.29-.08-.65-.08-1.09,0-.92.13-1.56.39-1.92s.74-.54,1.43-.54c.4,0,.87.06,1.39.19l-.03.77c-.46-.07-.85-.11-1.15-.11s-.52.04-.65.12c-.13.08-.23.24-.29.47-.06.23-.09.62-.09,1.17s.06.93.19,1.14c.13.21.38.32.77.32s.79-.03,1.23-.1l.02.79Z"/>
        <path class="cls-12" d="M141.68,519.7h-2.71v-4.76h.97v3.91h1.74v.85Z"/>
        <path class="cls-12" d="M143.16,518.11c0,.55.28.83.85.83s.85-.28.85-.83v-3.17h.97v3.15c0,.58-.15,1.01-.45,1.28-.3.27-.75.41-1.36.41s-1.06-.14-1.36-.41c-.3-.27-.45-.7-.45-1.28v-3.15h.97v3.17Z"/>
        <path class="cls-12" d="M146.81,514.94h1.87c.5,0,.87.1,1.11.3s.37.52.37.96c0,.27-.04.48-.12.63-.08.16-.21.3-.41.42.21.09.37.22.47.38s.15.4.15.7c0,.46-.14.8-.41,1.03-.27.22-.65.34-1.14.34h-1.9v-4.76ZM148.63,515.77h-.85v1.13h.86c.36,0,.55-.19.55-.57s-.18-.57-.55-.57ZM148.66,517.71h-.88v1.16h.88c.21,0,.37-.04.46-.13.1-.08.15-.24.15-.46,0-.38-.21-.57-.62-.57Z"/>
        <path class="cls-12" d="M151.12,515.75v-.55h1.4v.55h-.29v1.63h-.62v-1.63h-.5ZM152.69,517.39v-2.19h.72l.29,1.11.32-1.11h.71v2.19h-.57v-1.22l-.24,1.07h-.39l-.27-1.07v1.22h-.57Z"/>
      </g>
      <g>
        <path class="cls-12" d="M86.27,244.46h-.78v1.39h-.97v-4.76h1.75c1.13,0,1.69.55,1.69,1.65,0,.56-.14.98-.43,1.28s-.71.44-1.26.44ZM85.49,243.63h.78c.48,0,.72-.3.72-.9,0-.29-.06-.51-.18-.63-.12-.13-.3-.19-.55-.19h-.78v1.72Z"/>
        <path class="cls-12" d="M91.36,245.85h-2.71v-4.76h.97v3.91h1.74v.85Z"/>
        <path class="cls-12" d="M91.55,245.85l1.07-4.76h1.83l1.07,4.76h-.97l-.19-.86h-1.67l-.19.86h-.97ZM93.37,241.88l-.48,2.26h1.3l-.48-2.26h-.34Z"/>
        <path class="cls-12" d="M95.48,241.94v-.85h3.5v.85h-1.26v3.91h-.97v-3.91h-1.27Z"/>
        <path class="cls-12" d="M99.59,245.85v-4.76h.97v4.76h-.97Z"/>
        <path class="cls-12" d="M101.59,245.85v-4.76h1.63l1.15,3.92h.07v-3.92h.97v4.76h-1.59l-1.19-3.92h-.07v3.92h-.97Z"/>
        <path class="cls-12" d="M106.44,245.85v-4.76h.97v4.76h-.97Z"/>
        <path class="cls-12" d="M109.37,244.26c0,.56.28.83.85.83s.85-.28.85-.83v-3.17h.97v3.15c0,.58-.15,1.01-.45,1.28s-.75.41-1.36.41-1.06-.14-1.36-.41-.45-.7-.45-1.28v-3.15h.97v3.17Z"/>
        <path class="cls-12" d="M113.02,245.85v-4.76h1.65l.84,3.47.84-3.47h1.65v4.76h-.97v-3.68h-.11l-.93,3.47h-.97l-.93-3.47h-.1v3.68h-.97Z"/>
        <path class="cls-12" d="M90.59,248.34v-.85h3.5v.85h-1.26v3.91h-.97v-3.91h-1.27Z"/>
        <path class="cls-12" d="M94.69,252.25v-4.76h3.08v.84h-2.11v1.11h1.69v.83h-1.69v1.14h2.11v.84h-3.08Z"/>
        <path class="cls-12" d="M99.54,250.65v1.6h-.97v-4.76h1.85c1.12,0,1.68.52,1.68,1.57,0,.62-.23,1.08-.7,1.37l.68,1.82h-1.06l-.55-1.6h-.93ZM100.95,249.61c.11-.14.17-.32.17-.55s-.06-.41-.18-.55c-.12-.14-.29-.2-.51-.2h-.88v1.51h.9c.23,0,.4-.07.51-.21Z"/>
        <path class="cls-12" d="M103.88,250.65v1.6h-.97v-4.76h1.85c1.12,0,1.68.52,1.68,1.57,0,.62-.23,1.08-.7,1.37l.68,1.82h-1.06l-.55-1.6h-.93ZM105.29,249.61c.11-.14.17-.32.17-.55s-.06-.41-.18-.55c-.12-.14-.29-.2-.51-.2h-.88v1.51h.9c.23,0,.4-.07.51-.21Z"/>
        <path class="cls-12" d="M106.8,252.25l1.07-4.76h1.83l1.07,4.76h-.97l-.19-.86h-1.67l-.19.86h-.97ZM108.62,248.28l-.48,2.26h1.3l-.48-2.26h-.34Z"/>
        <path class="cls-12" d="M114.37,252.17c-.5.11-.94.16-1.34.16s-.71-.05-.95-.15-.42-.25-.56-.47c-.13-.21-.23-.47-.28-.76-.05-.29-.08-.65-.08-1.09,0-.92.13-1.56.39-1.92.26-.36.74-.54,1.43-.54.4,0,.87.06,1.39.19l-.03.77c-.46-.07-.85-.11-1.15-.11s-.52.04-.65.12c-.13.08-.23.24-.29.47-.06.23-.09.62-.09,1.17s.06.93.19,1.14c.13.21.38.32.77.32s.79-.03,1.23-.1l.02.79Z"/>
        <path class="cls-12" d="M115.15,252.25v-4.76h3.08v.84h-2.11v1.11h1.69v.83h-1.69v1.14h2.11v.84h-3.08Z"/>
      </g>
      <g>
        <path class="cls-12" d="M94.65,220.22v-.85h3.5v.85h-1.26v3.91h-.97v-3.91h-1.27Z"/>
        <path class="cls-12" d="M99.72,222.53v1.6h-.97v-4.76h1.85c1.12,0,1.68.52,1.68,1.57,0,.62-.23,1.08-.7,1.37l.68,1.82h-1.06l-.55-1.6h-.93ZM101.13,221.5c.11-.14.17-.32.17-.55s-.06-.41-.18-.55c-.12-.14-.29-.2-.51-.2h-.88v1.51h.9c.23,0,.4-.07.51-.21Z"/>
        <path class="cls-12" d="M102.64,224.13l1.07-4.76h1.83l1.07,4.76h-.97l-.19-.86h-1.67l-.19.86h-.97ZM104.46,220.17l-.48,2.26h1.3l-.48-2.26h-.34Z"/>
        <path class="cls-12" d="M110.21,224.05c-.5.11-.94.16-1.34.16s-.71-.05-.95-.15-.42-.25-.56-.47c-.13-.21-.23-.47-.28-.76-.05-.29-.08-.65-.08-1.09,0-.92.13-1.56.39-1.92.26-.36.74-.54,1.43-.54.4,0,.87.06,1.39.19l-.03.77c-.46-.07-.85-.11-1.15-.11s-.52.04-.65.12c-.13.08-.23.24-.29.47-.06.23-.09.62-.09,1.17s.06.93.19,1.14c.13.21.38.32.77.32s.79-.03,1.23-.1l.02.79Z"/>
        <path class="cls-12" d="M111.96,224.13h-.97v-4.76h.97v2.09l.64-.07.78-2.02h1.1l-1.04,2.39,1.06,2.37h-1.11l-.8-1.9-.64.07v1.83Z"/>
        <path class="cls-12" d="M116.6,220.12c-.51,0-.76.17-.76.5,0,.15.06.26.19.34.13.08.42.19.89.34.46.15.79.32.98.51.19.19.28.48.28.87,0,.5-.15.88-.46,1.13-.3.26-.7.38-1.19.38-.36,0-.81-.06-1.34-.17l-.25-.05.1-.75c.62.08,1.1.13,1.43.13.5,0,.74-.21.74-.62,0-.15-.06-.27-.17-.35-.12-.08-.34-.17-.68-.27-.54-.15-.92-.34-1.14-.55s-.33-.51-.33-.89c0-.48.14-.83.43-1.06.29-.23.69-.35,1.19-.35.35,0,.78.05,1.32.14l.25.05-.08.76c-.66-.07-1.12-.11-1.39-.11Z"/>
        <path class="cls-12" d="M118.95,224.13v-4.76h.97v4.76h-.97Z"/>
        <path class="cls-12" d="M122.55,224.13h-1.6v-4.76h1.6c.41,0,.75.04,1.01.13.27.09.47.23.62.43.15.2.25.43.3.7.06.27.08.62.08,1.05s-.03.79-.08,1.07c-.05.28-.15.53-.29.76s-.35.38-.62.48c-.27.1-.62.15-1.04.15ZM123.57,222.24c0-.15.01-.36.01-.62s0-.48-.03-.63-.06-.3-.13-.43c-.07-.13-.17-.22-.31-.27-.14-.05-.32-.07-.56-.07h-.64v3.08h.64c.35,0,.6-.09.76-.27.14-.14.22-.41.25-.78Z"/>
        <path class="cls-12" d="M125.42,224.13v-4.76h3.08v.84h-2.11v1.11h1.69v.83h-1.69v1.14h2.11v.84h-3.08Z"/>
        <path class="cls-12" d="M90.68,230.53v-4.76h3.08v.84h-2.11v1.11h1.69v.83h-1.69v1.14h2.11v.84h-3.08Z"/>
        <path class="cls-12" d="M95.18,225.77l.88,1.75.9-1.75h1l-1.37,2.43,1.37,2.33h-1.07l-.88-1.65-.9,1.65h-1l1.37-2.28-1.37-2.48h1.07Z"/>
        <path class="cls-12" d="M100.29,229.14h-.78v1.39h-.97v-4.76h1.75c1.13,0,1.69.55,1.69,1.65,0,.56-.14.98-.43,1.28s-.71.44-1.26.44ZM99.51,228.32h.78c.48,0,.72-.3.72-.9,0-.29-.06-.51-.18-.63-.12-.13-.3-.19-.55-.19h-.78v1.72Z"/>
        <path class="cls-12" d="M102.67,230.53v-4.76h3.08v.84h-2.11v1.11h1.69v.83h-1.69v1.14h2.11v.84h-3.08Z"/>
        <path class="cls-12" d="M107.51,228.93v1.6h-.97v-4.76h1.85c1.12,0,1.68.52,1.68,1.57,0,.62-.23,1.08-.7,1.37l.68,1.82h-1.06l-.55-1.6h-.93ZM108.92,227.9c.11-.14.17-.32.17-.55s-.06-.41-.18-.55c-.12-.14-.29-.2-.51-.2h-.88v1.51h.9c.23,0,.4-.07.51-.21Z"/>
        <path class="cls-12" d="M110.88,230.53v-4.76h.97v4.76h-.97Z"/>
        <path class="cls-12" d="M112.89,230.53v-4.76h3.08v.84h-2.11v1.11h1.69v.83h-1.69v1.14h2.11v.84h-3.08Z"/>
        <path class="cls-12" d="M116.76,230.53v-4.76h1.63l1.15,3.92h.07v-3.92h.97v4.76h-1.59l-1.19-3.92h-.07v3.92h-.97Z"/>
        <path class="cls-12" d="M124.63,230.45c-.5.11-.94.16-1.34.16s-.71-.05-.95-.15-.42-.25-.56-.47c-.13-.21-.23-.47-.28-.76-.05-.29-.08-.65-.08-1.09,0-.92.13-1.56.39-1.92.26-.36.74-.54,1.43-.54.4,0,.87.06,1.39.19l-.03.77c-.46-.07-.85-.11-1.15-.11s-.52.04-.65.12c-.13.08-.23.24-.29.47-.06.23-.09.62-.09,1.17s.06.93.19,1.14c.13.21.38.32.77.32s.79-.03,1.23-.1l.02.79Z"/>
        <path class="cls-12" d="M125.42,230.53v-4.76h3.08v.84h-2.11v1.11h1.69v.83h-1.69v1.14h2.11v.84h-3.08Z"/>
        <path class="cls-12" d="M88.42,235.22v-.84h1.39v2.47c-.67.11-1.21.16-1.62.16-.74,0-1.25-.2-1.53-.6-.28-.4-.42-1.03-.42-1.89s.14-1.49.43-1.87.78-.57,1.48-.57c.43,0,.9.05,1.41.15l.25.05-.03.75c-.56-.06-1.02-.09-1.38-.09s-.61.04-.75.13c-.14.08-.25.24-.32.47-.07.23-.1.61-.1,1.16s.07.93.2,1.15c.14.22.42.33.84.33l.58-.03v-.92h-.43Z"/>
        <path class="cls-12" d="M91.69,235.33v1.6h-.97v-4.76h1.85c1.12,0,1.68.52,1.68,1.57,0,.62-.23,1.08-.7,1.37l.68,1.82h-1.06l-.55-1.6h-.93ZM93.09,234.3c.11-.14.17-.32.17-.55s-.06-.41-.18-.55c-.12-.14-.29-.2-.51-.2h-.88v1.51h.9c.23,0,.4-.07.51-.21Z"/>
        <path class="cls-12" d="M94.6,236.93l1.07-4.76h1.83l1.07,4.76h-.97l-.19-.86h-1.67l-.19.86h-.97ZM96.42,232.97l-.48,2.26h1.3l-.48-2.26h-.34Z"/>
        <path class="cls-12" d="M99.22,236.93v-4.76h1.63l1.15,3.92h.07v-3.92h.97v4.76h-1.59l-1.19-3.92h-.07v3.92h-.97Z"/>
        <path class="cls-12" d="M105.67,236.93h-1.6v-4.76h1.6c.41,0,.75.04,1.01.13.27.09.47.23.62.43.15.2.25.43.3.7.06.27.08.62.08,1.05s-.03.79-.08,1.07c-.05.28-.15.53-.29.76s-.35.38-.62.48c-.27.1-.62.15-1.04.15ZM106.69,235.04c0-.15.01-.36.01-.62s0-.48-.03-.63-.06-.3-.13-.43c-.07-.13-.17-.22-.31-.27-.14-.05-.32-.07-.56-.07h-.64v3.08h.64c.35,0,.6-.09.76-.27.14-.14.22-.41.25-.78Z"/>
        <path class="cls-12" d="M110,232.92c-.51,0-.76.17-.76.5,0,.15.06.26.19.34.13.08.42.19.89.34.46.15.79.32.98.51.19.19.28.48.28.87,0,.5-.15.88-.46,1.13-.3.26-.7.38-1.19.38-.36,0-.81-.06-1.34-.17l-.25-.05.1-.75c.62.08,1.1.13,1.43.13.5,0,.74-.21.74-.62,0-.15-.06-.27-.17-.35-.12-.08-.34-.17-.68-.27-.54-.15-.92-.34-1.14-.55s-.33-.51-.33-.89c0-.48.14-.83.43-1.06.29-.23.69-.35,1.19-.35.35,0,.78.05,1.32.14l.25.05-.08.76c-.66-.07-1.12-.11-1.39-.11Z"/>
        <path class="cls-12" d="M111.91,233.02v-.85h3.5v.85h-1.26v3.91h-.97v-3.91h-1.27Z"/>
        <path class="cls-12" d="M115.37,236.93l1.07-4.76h1.83l1.07,4.76h-.97l-.19-.86h-1.67l-.19.86h-.97ZM117.19,232.97l-.48,2.26h1.3l-.48-2.26h-.34Z"/>
        <path class="cls-12" d="M119.98,236.93v-4.76h1.63l1.15,3.92h.07v-3.92h.97v4.76h-1.59l-1.19-3.92h-.07v3.92h-.97Z"/>
        <path class="cls-12" d="M126.43,236.93h-1.6v-4.76h1.6c.41,0,.75.04,1.01.13.27.09.47.23.62.43.15.2.25.43.3.7.06.27.08.62.08,1.05s-.03.79-.08,1.07c-.05.28-.15.53-.29.76s-.35.38-.62.48c-.27.1-.62.15-1.04.15ZM127.45,235.04c0-.15.01-.36.01-.62s0-.48-.03-.63-.06-.3-.13-.43c-.07-.13-.17-.22-.31-.27-.14-.05-.32-.07-.56-.07h-.64v3.08h.64c.35,0,.6-.09.76-.27.14-.14.22-.41.25-.78Z"/>
      </g>
      <g>
        <path class="cls-12" d="M25.62,214.63v-.84h1.39v2.47c-.67.11-1.21.16-1.62.16-.74,0-1.25-.2-1.53-.6-.28-.4-.42-1.03-.42-1.89s.14-1.49.43-1.87.78-.57,1.48-.57c.43,0,.9.05,1.41.15l.25.05-.03.75c-.56-.06-1.02-.09-1.38-.09s-.61.04-.75.13c-.14.08-.25.24-.32.47-.07.23-.1.61-.1,1.16s.07.93.2,1.15c.14.22.42.33.84.33l.58-.03v-.92h-.43Z"/>
        <path class="cls-12" d="M31.21,215.83c-.3.39-.81.59-1.53.59s-1.23-.2-1.53-.59c-.3-.39-.45-1.01-.45-1.85s.15-1.46.45-1.87c.3-.41.81-.61,1.53-.61s1.23.2,1.53.61c.3.41.44,1.03.44,1.87s-.15,1.46-.44,1.85ZM28.91,215.22c.14.25.4.37.77.37s.64-.12.77-.37.21-.66.21-1.23-.07-1-.21-1.26c-.14-.26-.4-.39-.77-.39s-.63.13-.77.39c-.14.26-.21.68-.21,1.26s.07.99.21,1.23Z"/>
        <path class="cls-12" d="M35.19,216.34h-2.71v-4.76h.97v3.91h1.74v.85Z"/>
        <path class="cls-12" d="M37.39,216.34h-1.6v-4.76h1.6c.41,0,.75.04,1.01.13.27.09.47.23.62.43.15.2.25.43.3.7.06.27.08.62.08,1.05s-.03.79-.08,1.07c-.05.28-.15.53-.29.76s-.35.38-.62.48c-.27.1-.62.15-1.04.15ZM38.4,214.45c0-.15.01-.36.01-.62s0-.48-.03-.63-.06-.3-.13-.43c-.07-.13-.17-.22-.31-.27-.14-.05-.32-.07-.56-.07h-.64v3.08h.64c.35,0,.6-.09.76-.27.14-.14.22-.41.25-.78Z"/>
        <path class="cls-12" d="M11.81,218.83v-.85h3.5v.85h-1.26v3.91h-.97v-3.91h-1.27Z"/>
        <path class="cls-12" d="M15.92,222.74v-4.76h3.08v.84h-2.11v1.11h1.69v.83h-1.69v1.14h2.11v.84h-3.08Z"/>
        <path class="cls-12" d="M20.76,221.14v1.6h-.97v-4.76h1.85c1.12,0,1.68.52,1.68,1.57,0,.62-.23,1.08-.7,1.37l.68,1.82h-1.06l-.55-1.6h-.93ZM22.17,220.11c.11-.14.17-.32.17-.55s-.06-.41-.18-.55c-.12-.14-.29-.2-.51-.2h-.88v1.51h.9c.23,0,.4-.07.51-.21Z"/>
        <path class="cls-12" d="M25.1,221.14v1.6h-.97v-4.76h1.85c1.12,0,1.68.52,1.68,1.57,0,.62-.23,1.08-.7,1.37l.68,1.82h-1.06l-.55-1.6h-.93ZM26.51,220.11c.11-.14.17-.32.17-.55s-.06-.41-.18-.55c-.12-.14-.29-.2-.51-.2h-.88v1.51h.9c.23,0,.4-.07.51-.21Z"/>
        <path class="cls-12" d="M28.02,222.74l1.07-4.76h1.83l1.07,4.76h-.97l-.19-.86h-1.67l-.19.86h-.97ZM29.84,218.78l-.48,2.26h1.3l-.48-2.26h-.34Z"/>
        <path class="cls-12" d="M35.59,222.66c-.5.11-.94.16-1.34.16s-.71-.05-.95-.15-.42-.25-.56-.47c-.13-.21-.23-.47-.28-.76-.05-.29-.08-.65-.08-1.09,0-.92.13-1.56.39-1.92.26-.36.74-.54,1.43-.54.4,0,.87.06,1.39.19l-.03.77c-.46-.07-.85-.11-1.15-.11s-.52.04-.65.12c-.13.08-.23.24-.29.47-.06.23-.09.62-.09,1.17s.06.93.19,1.14c.13.21.38.32.77.32s.79-.03,1.23-.1l.02.79Z"/>
        <path class="cls-12" d="M36.37,222.74v-4.76h3.08v.84h-2.11v1.11h1.69v.83h-1.69v1.14h2.11v.84h-3.08Z"/>
      </g>
      <g>
        <path class="cls-12" d="M93.58,333.47h1.87c.49,0,.87.1,1.11.3.25.2.37.52.37.96,0,.27-.04.48-.12.63-.08.16-.21.3-.41.42.21.09.37.22.46.39.1.17.15.4.15.7,0,.46-.13.81-.41,1.03-.27.22-.65.34-1.14.34h-1.9v-4.76ZM95.4,334.29h-.85v1.13h.86c.37,0,.55-.19.55-.57s-.18-.57-.55-.57ZM95.42,336.24h-.88v1.16h.88c.21,0,.37-.04.46-.13.1-.08.15-.24.15-.46,0-.38-.21-.57-.62-.57Z"/>
        <path class="cls-12" d="M97.84,338.23v-4.76h3.08v.84h-2.11v1.11h1.69v.83h-1.69v1.14h2.11v.84h-3.08Z"/>
        <path class="cls-12" d="M104.42,338.23h-2.71v-4.76h.97v3.91h1.74v.85Z"/>
        <path class="cls-12" d="M107.21,333.47h1.02l-1.11,4.76h-1.79l-1.11-4.76h1.01l.83,3.92h.31l.83-3.92Z"/>
        <path class="cls-12" d="M108.86,338.23v-4.76h3.08v.84h-2.11v1.11h1.69v.83h-1.69v1.14h2.11v.84h-3.08ZM109.42,332.36l1.76-.74.29.84-1.82.55-.23-.65Z"/>
        <path class="cls-12" d="M114.34,338.23h-1.6v-4.76h1.6c.41,0,.75.04,1.01.13.27.09.47.23.62.43.15.2.25.43.3.7.06.27.08.62.08,1.05s-.03.79-.08,1.07c-.05.28-.15.53-.29.76s-.35.38-.62.48c-.27.1-.62.15-1.04.15ZM115.35,336.34c0-.15.02-.36.02-.62s0-.48-.03-.63c-.02-.16-.06-.3-.13-.43-.07-.13-.17-.22-.31-.27-.14-.05-.32-.07-.56-.07h-.64v3.08h.64c.35,0,.6-.09.76-.27.14-.14.22-.41.25-.78Z"/>
        <path class="cls-12" d="M117.2,338.23v-4.76h3.08v.84h-2.11v1.11h1.69v.83h-1.69v1.14h2.11v.84h-3.08ZM117.94,331.61l1.76.74-.23.65-1.82-.55.29-.84Z"/>
        <path class="cls-12" d="M122.04,336.63v1.6h-.97v-4.76h1.85c1.12,0,1.68.52,1.68,1.57,0,.62-.23,1.08-.7,1.37l.68,1.82h-1.06l-.55-1.6h-.93ZM123.45,335.6c.11-.14.17-.32.17-.55s-.06-.41-.18-.55-.29-.2-.51-.2h-.88v1.51h.9c.23,0,.4-.07.51-.21Z"/>
        <path class="cls-12" d="M125.42,338.23v-4.76h3.08v.84h-2.11v1.11h1.69v.83h-1.69v1.14h2.11v.84h-3.08Z"/>
      </g>
      <g>
        <path class="cls-12" d="M44.02,244.54h-.78v1.39h-.97v-4.76h1.75c1.13,0,1.69.55,1.69,1.65,0,.56-.14.98-.43,1.28s-.71.44-1.26.44ZM43.23,243.72h.78c.48,0,.72-.3.72-.9,0-.29-.06-.51-.18-.63-.12-.13-.3-.19-.55-.19h-.78v1.72Z"/>
        <path class="cls-12" d="M49.1,245.93h-2.71v-4.76h.97v3.91h1.74v.85Z"/>
        <path class="cls-12" d="M49.29,245.93l1.07-4.76h1.83l1.07,4.76h-.97l-.19-.86h-1.67l-.19.86h-.97ZM51.12,241.97l-.48,2.26h1.3l-.48-2.26h-.34Z"/>
        <path class="cls-12" d="M53.22,242.02v-.85h3.5v.85h-1.26v3.91h-.97v-3.91h-1.27Z"/>
        <path class="cls-12" d="M57.33,245.93v-4.76h.97v4.76h-.97Z"/>
        <path class="cls-12" d="M59.33,245.93v-4.76h1.63l1.15,3.92h.07v-3.92h.97v4.76h-1.59l-1.19-3.92h-.07v3.92h-.97Z"/>
        <path class="cls-12" d="M64.18,245.93v-4.76h.97v4.76h-.97Z"/>
        <path class="cls-12" d="M67.11,244.34c0,.56.28.83.85.83s.85-.28.85-.83v-3.17h.97v3.15c0,.58-.15,1.01-.45,1.28s-.75.41-1.36.41-1.06-.14-1.36-.41-.45-.7-.45-1.28v-3.15h.97v3.17Z"/>
        <path class="cls-12" d="M70.76,245.93v-4.76h1.65l.84,3.47.84-3.47h1.65v4.76h-.97v-3.68h-.11l-.93,3.47h-.97l-.93-3.47h-.1v3.68h-.97Z"/>
        <path class="cls-12" d="M48.33,248.42v-.85h3.5v.85h-1.26v3.91h-.97v-3.91h-1.27Z"/>
        <path class="cls-12" d="M52.44,252.33v-4.76h3.08v.84h-2.11v1.11h1.69v.83h-1.69v1.14h2.11v.84h-3.08Z"/>
        <path class="cls-12" d="M57.28,250.73v1.6h-.97v-4.76h1.85c1.12,0,1.68.52,1.68,1.57,0,.62-.23,1.08-.7,1.37l.68,1.82h-1.06l-.55-1.6h-.93ZM58.69,249.7c.11-.14.17-.32.17-.55s-.06-.41-.18-.55c-.12-.14-.29-.2-.51-.2h-.88v1.51h.9c.23,0,.4-.07.51-.21Z"/>
        <path class="cls-12" d="M61.62,250.73v1.6h-.97v-4.76h1.85c1.12,0,1.68.52,1.68,1.57,0,.62-.23,1.08-.7,1.37l.68,1.82h-1.06l-.55-1.6h-.93ZM63.03,249.7c.11-.14.17-.32.17-.55s-.06-.41-.18-.55c-.12-.14-.29-.2-.51-.2h-.88v1.51h.9c.23,0,.4-.07.51-.21Z"/>
        <path class="cls-12" d="M64.54,252.33l1.07-4.76h1.83l1.07,4.76h-.97l-.19-.86h-1.67l-.19.86h-.97ZM66.36,248.37l-.48,2.26h1.3l-.48-2.26h-.34Z"/>
        <path class="cls-12" d="M72.11,252.25c-.5.11-.94.16-1.34.16s-.71-.05-.95-.15-.42-.25-.56-.47c-.13-.21-.23-.47-.28-.76-.05-.29-.08-.65-.08-1.09,0-.92.13-1.56.39-1.92.26-.36.74-.54,1.43-.54.4,0,.87.06,1.39.19l-.03.77c-.46-.07-.85-.11-1.15-.11s-.52.04-.65.12c-.13.08-.23.24-.29.47-.06.23-.09.62-.09,1.17s.06.93.19,1.14c.13.21.38.32.77.32s.79-.03,1.23-.1l.02.79Z"/>
        <path class="cls-12" d="M72.89,252.33v-4.76h3.08v.84h-2.11v1.11h1.69v.83h-1.69v1.14h2.11v.84h-3.08Z"/>
        <path class="cls-12" d="M42.67,256.59v.06c0,.72-.11,1.25-.34,1.58s-.56.5-1.01.5c-.33,0-.6-.08-.81-.25-.05-.04-.09-.08-.12-.14-.37.26-.72.39-1.04.39-.44,0-.77-.14-.98-.41s-.33-.71-.33-1.32.1-1.06.3-1.34c.2-.28.55-.43,1.03-.43.16,0,.34.04.53.13l.11.05v-.09h.94v1.25c0,.64.01,1.01.04,1.11.03.09.05.16.08.2.03.04.06.06.09.07.03,0,.08.01.13.01.15,0,.26-.09.33-.27.07-.18.1-.52.1-1.02v-.06c0-.75-.17-1.29-.51-1.63s-.89-.51-1.64-.51-1.32.21-1.72.64c-.4.43-.59,1.05-.59,1.87s.18,1.42.53,1.81c.35.39.95.58,1.79.58l1-.06.03.82c-.42.05-.76.07-1.04.07-.54,0-1-.05-1.39-.16-.39-.11-.73-.28-1.01-.53-.57-.5-.85-1.37-.85-2.6,0-1.08.29-1.89.88-2.45.58-.55,1.38-.83,2.39-.83s1.78.25,2.3.76.78,1.24.78,2.21ZM39.43,257.9c.18,0,.39-.06.63-.17-.03-.17-.04-.42-.04-.74v-.86c-.2-.05-.34-.07-.43-.07-.24,0-.4.07-.48.2-.08.14-.12.37-.12.71,0,.62.14.93.43.93Z"/>
        <path class="cls-12" d="M47.66,258.73v-1.97h-1.77v1.97h-.97v-4.76h.97v1.95h1.77v-1.95h.97v4.76h-.97Z"/>
        <path class="cls-12" d="M49.67,258.73v-4.76h3.08v.84h-2.11v1.11h1.69v.83h-1.69v1.14h2.11v.84h-3.08Z"/>
        <path class="cls-12" d="M54.51,257.13v1.6h-.97v-4.76h1.85c1.12,0,1.68.52,1.68,1.57,0,.62-.23,1.08-.7,1.37l.68,1.82h-1.06l-.55-1.6h-.93ZM55.92,256.1c.11-.14.17-.32.17-.55s-.06-.41-.18-.55c-.12-.14-.29-.2-.51-.2h-.88v1.51h.9c.23,0,.4-.07.51-.21Z"/>
        <path class="cls-12" d="M57.43,258.73l1.07-4.76h1.83l1.07,4.76h-.97l-.19-.86h-1.67l-.19.86h-.97ZM59.25,254.77l-.48,2.26h1.3l-.48-2.26h-.34Z"/>
        <path class="cls-12" d="M65,258.65c-.5.11-.94.16-1.34.16s-.71-.05-.95-.15-.42-.25-.56-.47c-.13-.21-.23-.47-.28-.76-.05-.29-.08-.65-.08-1.09,0-.92.13-1.56.39-1.92.26-.36.74-.54,1.43-.54.4,0,.87.06,1.39.19l-.03.77c-.46-.07-.85-.11-1.15-.11s-.52.04-.65.12c-.13.08-.23.24-.29.47-.06.23-.09.62-.09,1.17s.06.93.19,1.14c.13.21.38.32.77.32s.79-.03,1.23-.1l.02.79Z"/>
        <path class="cls-12" d="M68.49,258.73h-2.71v-4.76h.97v3.91h1.74v.85Z"/>
        <path class="cls-12" d="M69.08,258.73v-4.76h3.08v.84h-2.11v1.11h1.69v.83h-1.69v1.14h2.11v.84h-3.08Z"/>
        <path class="cls-12" d="M74.43,254.73c-.51,0-.76.17-.76.5,0,.15.06.26.19.34.13.08.42.19.89.34.46.15.79.32.98.51.19.19.28.48.28.87,0,.5-.15.88-.46,1.13-.3.26-.7.38-1.19.38-.36,0-.81-.06-1.34-.17l-.25-.05.1-.75c.62.08,1.1.13,1.43.13.5,0,.74-.21.74-.62,0-.15-.06-.27-.17-.35-.12-.08-.34-.17-.68-.27-.54-.15-.92-.34-1.14-.55s-.33-.51-.33-.89c0-.48.14-.83.43-1.06.29-.23.69-.35,1.19-.35.35,0,.78.05,1.32.14l.25.05-.08.76c-.66-.07-1.12-.11-1.39-.11Z"/>
      </g>
    </g>
  </g>
  <g id="grandstands">
    <g id="Monaco">
      <g id="Platinium">
        <path idGrandstand="11927" class="cls-12" d="M129.3,245.85c0-2.47,2.01-4.48,4.48-4.48s4.48,2.01,4.48,4.48-2.01,4.48-4.48,4.48-4.48-2.01-4.48-4.48ZM111.43,268.96c2.47,0,4.48-2.01,4.48-4.48s-2.01-4.48-4.48-4.48-4.48,2.01-4.48,4.48,2.01,4.48,4.48,4.48Z"/>
      </g>
      <g id="Platinium_Heracles" data-name="Platinium@Heracles">
        <path idGrandstand="23288" class="cls-12" d="M92.53,261.51c0-2.35,1.91-4.26,4.26-4.26s4.26,1.91,4.26,4.26-1.91,4.26-4.26,4.26-4.26-1.91-4.26-4.26Z"/>
      </g>
      <g id="Silver">
        <path idGrandstand="11947" class="cls-12" d="M236.41,257.58c2.47,0,4.48-2.01,4.48-4.48s-2.01-4.48-4.48-4.48-4.48,2.01-4.48,4.48,2.01,4.48,4.48,4.48Z"/>
      </g>
      <g id="Elite">
        <path idGrandstand="11917" class="cls-12" d="M70.79,312.42c0,2.47-2.01,4.48-4.48,4.48s-4.48-2.01-4.48-4.48,2.01-4.48,4.48-4.48,4.48,2.01,4.48,4.48ZM122.99,250.44c-2.47,0-4.48,2.01-4.48,4.48s2.01,4.48,4.48,4.48,4.48-2.01,4.48-4.48-2.01-4.48-4.48-4.48Z"/>
      </g>
      <g id="Gold">
        <path idGrandstand="11937" class="cls-12" d="M54.2,335.05c0,2.47-2.01,4.48-4.48,4.48s-4.48-2.01-4.48-4.48,2.01-4.48,4.48-4.48,4.48,2.01,4.48,4.48ZM82.51,281.92c-2.47,0-4.48,2.01-4.48,4.48s2.01,4.48,4.48,4.48,4.48-2.01,4.48-4.48-2.01-4.48-4.48-4.48ZM153.87,231.54c-2.47,0-4.48,2.01-4.48,4.48s2.01,4.48,4.48,4.48,4.48-2.01,4.48-4.48-2.01-4.48-4.48-4.48ZM227.4,242.26c-2.47,0-4.48,2.01-4.48,4.48s2.01,4.48,4.48,4.48,4.48-2.01,4.48-4.48-2.01-4.48-4.48-4.48Z"/>
      </g>
      <g id="Bronze">
        <path idGrandstand="11957" class="cls-12" d="M188.25,220.87c2.47,0,4.48-2.01,4.48-4.48s-2.01-4.48-4.48-4.48-4.48,2.01-4.48,4.48,2.01,4.48,4.48,4.48Z"/>
      </g>
      <g id="Panoramic_Fans_Club" data-name="Panoramic Fans Club">
        <path idGrandstand="20517" class="cls-12" d="M197.51,220.87c2.47,0,4.48-2.01,4.48-4.48s-2.01-4.48-4.48-4.48-4.48,2.01-4.48,4.48,2.01,4.48,4.48,4.48Z"/>
      </g>
      <g id="Paddock_Club" data-name="Paddock Club">
        <polygon idGrandstand="11977" class="cls-12" points="129.49 510.18 110.67 497.95 117.59 486.92 136.41 499.15 129.49 510.18"/>
      </g>
      <g id="VIP_GS" data-name="VIP GS">
        <path idGrandstand="17587" class="cls-12" d="M149.39,242.37c-2.47,0-4.48,2.01-4.48,4.48s2.01,4.48,4.48,4.48,4.48-2.01,4.48-4.48-2.01-4.48-4.48-4.48Z"/>
      </g>
      <g id="L">
        <rect idGrandstand="7875" class="cls-12" x="98.01" y="349.34" width="17" height="11.7" transform="translate(-249.07 249.97) rotate(-56.82)"/>
      </g>
      <g id="V1">
        <rect idGrandstand="7935" class="cls-12" x="21.31" y="450.67" width="10" height="14.73" transform="translate(-344.85 188.36) rotate(-50.71)"/>
      </g>
      <g id="X2">
        <rect idGrandstand="7825" class="cls-12" x="32.65" y="375.63" width="10" height="9.33" transform="translate(-333.69 290.05) rotate(-70.69)"/>
      </g>
      <g id="X1">
        <rect idGrandstand="7815" class="cls-12" x="28.84" y="392.91" width="9.33" height="10"/>
      </g>
      <g id="B">
        <rect idGrandstand="7835" class="cls-12" x="453.48" y="279.54" width="10" height="12.29" transform="translate(-53 111.88) rotate(-13.16)"/>
      </g>
      <g id="C">
        <rect idGrandstand="7845" class="cls-12" x="609.24" y="330.73" width="10" height="9.33" transform="translate(-75.76 452.35) rotate(-38.26)"/>
      </g>
      <g id="A1">
        <rect idGrandstand="7805" class="cls-12" x="181.2" y="246.45" width="10" height="9.33" transform="translate(-121.69 196.94) rotate(-43.46)"/>
      </g>
      <g id="Z1">
        <rect idGrandstand="7865" class="cls-12" x="211.99" y="254.86" width="10" height="38.91" transform="translate(-131.47 304.41) rotate(-56.59)"/>
      </g>
      <g id="K">
        <rect idGrandstand="7855" class="cls-12" x="115.45" y="283.74" width="64.27" height="10" transform="translate(-154.81 171.66) rotate(-41.76)"/>
      </g>
      <g id="O">
        <rect idGrandstand="7905" class="cls-12" x="146.08" y="358.5" width="10" height="19.4" transform="translate(-228.31 247.97) rotate(-50.11)"/>
      </g>
      <g id="M">
        <rect idGrandstand="7885" class="cls-12" x="118.61" y="316.79" width="10" height="9.33" transform="translate(-133.91 92.77) rotate(-27.36)"/>
      </g>
      <g id="N">
        <rect idGrandstand="7895" class="cls-12" x="146.95" y="348.33" width="19.64" height="6" transform="translate(-215.51 254.3) rotate(-51.34)"/>
      </g>
      <g id="P">
        <rect idGrandstand="7915" class="cls-12" x="125.36" y="373.77" width="19.64" height="6" transform="translate(-243.48 246.98) rotate(-51.34)"/>
      </g>
      <g id="T">
        <rect idGrandstand="13147" class="cls-12" x="94.48" y="393.39" width="3.75" height="34.61"/>
        <polygon idGrandstand="17547" class="cls-12" points="98.48 393.39 98.48 428.01 101.21 428.01 101.23 393.39 98.48 393.39"/>
        <polygon idGrandstand="13157" class="cls-12" points="94.23 393.39 91.23 393.39 91.21 428 94.23 428 94.23 393.39"/>
      </g>
      <g id="Belvedere">
        <path idGrandstand="19287" class="cls-12" d="M118.69,343.86c0,2.47-2.01,4.48-4.48,4.48s-4.48-2.01-4.48-4.48,2.01-4.48,4.48-4.48,4.48,2.01,4.48,4.48Z"/>
      </g>
      <g class="cls-1">
        <rect idGrandstand="11967" class="cls-12" x="152.72" y="299.09" width="49.45" height="23.62" transform="translate(-161.3 195.14) rotate(-41.42)"/>
      </g>
    </g>
  </g>
  <g id="misc">
    <polyline class="cls-6" points="49.83 325.82 73.79 325.82 73.79 286.4 78.03 286.4"/>
    <polyline class="cls-6" points="92.79 426.72 92.79 432.48 92.79 438.45 105.67 438.45"/>
    <path class="cls-6" d="M96.79,426.72v5.76h8.88"/>
    <line class="cls-6" x1="105.67" y1="424.6" x2="99.91" y2="424.6"/>
    <polyline class="cls-6" points="31.94 209.4 31.94 185.66 227.56 185.66 227.56 243.13"/>
    <line class="cls-6" x1="65.75" y1="307.56" x2="65.56" y2="279.7"/>
    <line class="cls-6" x1="128.88" y1="245.43" x2="119.7" y2="245.43"/>
    <line class="cls-6" x1="111.77" y1="261.51" x2="111.77" y2="253.43"/>
    <polyline class="cls-6" points="93.1 261.47 85.01 261.47 85.01 253.43 77.34 253.43"/>
    <line class="cls-6" x1="197.51" y1="212.63" x2="197.51" y2="206.54"/>
    <polyline class="cls-6" points="31.94 225.36 31.94 325.82 49.72 325.82 49.72 330.57"/>
    <polyline class="cls-6" points="122.24 260 122.24 271.96 80.03 271.96"/>
    <polyline class="cls-6" points="42.21 216.38 134.44 216.38 149.62 231.55"/>
    <polyline class="cls-6" points="146.62 243.55 133.49 230.43 130.16 230.43"/>
  </g>
  <g id="gs_names" data-name="gs names">
    <path class="cls-12" d="M458.17,267.29h2.8c.74,0,1.3.15,1.67.45.37.3.56.78.56,1.44,0,.4-.06.72-.18.95-.12.23-.32.44-.61.62.32.13.55.33.7.58.15.25.23.6.23,1.05,0,.69-.2,1.21-.61,1.54s-.98.5-1.71.5h-2.84v-7.14ZM460.89,268.52h-1.28v1.7h1.29c.55,0,.82-.28.82-.85s-.28-.85-.83-.85ZM460.94,271.44h-1.32v1.74h1.32c.32,0,.55-.06.7-.19.15-.13.23-.36.23-.69,0-.57-.31-.86-.92-.86Z"/>
    <path class="cls-12" d="M622.85,325.32c-.74.16-1.41.24-2.01.24s-1.07-.07-1.43-.22c-.36-.15-.64-.38-.84-.7-.2-.32-.34-.7-.42-1.13-.08-.43-.12-.98-.12-1.64,0-1.38.19-2.34.58-2.88s1.1-.81,2.15-.81c.6,0,1.3.09,2.09.28l-.04,1.15c-.69-.1-1.27-.16-1.73-.16s-.79.06-.98.18c-.2.12-.34.36-.44.7-.09.34-.14.93-.14,1.75s.1,1.4.29,1.72c.19.32.58.48,1.16.48s1.19-.05,1.84-.15l.03,1.19Z"/>
    <g>
      <path class="cls-12" d="M238.46,288.6v-1.26h4.72v1.26l-2.98,4.43v.19h2.98v1.26h-4.72v-1.25l2.98-4.44v-.19h-2.98Z"/>
      <path class="cls-12" d="M248.01,287.55v6.93h-1.45v-5.29l-1.5.97-.66-1.08,2.29-1.52h1.32Z"/>
    </g>
    <g>
      <path class="cls-12" d="M181.91,266.14l1.61-7.14h2.75l1.61,7.14h-1.45l-.28-1.29h-2.5l-.28,1.29h-1.45ZM184.64,260.2l-.72,3.39h1.95l-.72-3.39h-.5Z"/>
      <path class="cls-12" d="M192.44,259.21v6.93h-1.45v-5.29l-1.5.97-.66-1.08,2.29-1.52h1.32Z"/>
    </g>
    <path class="cls-12" d="M173.66,267.74h-1.45v-7.14h1.45v3.14l.97-.1,1.18-3.03h1.65l-1.55,3.58,1.6,3.56h-1.67l-1.2-2.85-.97.1v2.74Z"/>
    <path class="cls-12" d="M99.54,351.33h-4.06v-7.14h1.45v5.86h2.62v1.28Z"/>
    <path class="cls-12" d="M166.85,351.33v-7.14h2.45l1.72,5.88h.11v-5.88h1.45v7.14h-2.38l-1.79-5.88h-.11v5.88h-1.45Z"/>
    <path class="cls-12" d="M165.2,381.07c-.44.59-1.21.89-2.29.89s-1.85-.3-2.29-.89c-.44-.59-.67-1.52-.67-2.78s.22-2.2.67-2.81,1.21-.92,2.29-.92,1.85.31,2.29.92c.45.61.67,1.55.67,2.81s-.22,2.19-.67,2.78ZM161.75,380.15c.21.37.59.55,1.16.55s.95-.18,1.16-.55c.21-.37.31-.98.31-1.85s-.1-1.49-.31-1.88-.59-.59-1.16-.59-.95.2-1.16.59-.31,1.02-.31,1.88.1,1.48.31,1.85Z"/>
    <path class="cls-12" d="M132.47,392.97h-1.18v2.08h-1.45v-7.14h2.62c1.69,0,2.54.83,2.54,2.48,0,.83-.22,1.47-.65,1.92-.43.44-1.06.67-1.89.67ZM131.29,391.73h1.17c.72,0,1.08-.45,1.08-1.34,0-.44-.09-.76-.26-.95-.18-.19-.45-.29-.82-.29h-1.17v2.58Z"/>
    <path class="cls-12" d="M105.95,412.82v-1.28h5.25v1.28h-1.89v5.86h-1.45v-5.86h-1.91Z"/>
    <g>
      <path class="cls-12" d="M108.73,426.76c-.7,0-1.17-.19-1.42-.58-.25-.39-.37-1.02-.37-1.91s.13-1.52.38-1.89.73-.56,1.42-.56c.42,0,.87.06,1.37.17l-.03.63c-.42-.07-.84-.11-1.26-.11s-.71.12-.85.37c-.15.25-.22.72-.22,1.41s.07,1.16.22,1.41c.14.25.43.37.85.37s.84-.04,1.27-.1l.02.64c-.48.1-.94.15-1.37.15Z"/>
      <path class="cls-12" d="M113.85,426.17c-.29.39-.79.59-1.52.59s-1.23-.2-1.52-.59c-.29-.39-.43-1.01-.43-1.86s.15-1.47.44-1.88c.29-.41.8-.62,1.52-.62s1.22.2,1.51.61c.29.41.43,1.04.43,1.89s-.14,1.47-.43,1.86ZM111.43,425.67c.16.28.46.41.91.41s.75-.14.91-.41.23-.72.23-1.36-.08-1.1-.24-1.39-.46-.43-.9-.43-.74.15-.9.43c-.16.29-.24.75-.24,1.38s.08,1.09.24,1.36Z"/>
      <path class="cls-12" d="M117.48,421.88h.81l-1.18,4.79h-1.53l-1.18-4.79h.81l.95,4.11h.35l.95-4.11Z"/>
      <path class="cls-12" d="M118.71,426.68v-4.79h3.02v.68h-2.25v1.36h1.83v.67h-1.83v1.4h2.25v.69h-3.02Z"/>
      <path class="cls-12" d="M123.08,424.97v1.71h-.78v-4.79h1.82c1.08,0,1.62.51,1.62,1.53,0,.68-.26,1.14-.78,1.39l.79,1.88h-.85l-.69-1.71h-1.13ZM124.95,423.42c0-.57-.28-.86-.83-.86h-1.04v1.74h1.06c.28,0,.49-.08.62-.24.13-.16.2-.38.2-.64Z"/>
      <path class="cls-12" d="M126.34,426.68v-4.79h3.02v.68h-2.25v1.36h1.83v.67h-1.83v1.4h2.25v.69h-3.02Z"/>
      <path class="cls-12" d="M131.59,426.68h-1.66v-4.79h1.66c.74,0,1.24.19,1.51.56.27.37.41.96.41,1.76,0,.41-.03.75-.08,1.03s-.15.54-.28.77c-.27.45-.78.68-1.55.68ZM132.71,424.2c0-.58-.07-1-.22-1.25-.15-.26-.44-.38-.9-.38h-.88v3.43h.88c.46,0,.77-.17.92-.51.08-.17.12-.36.15-.55.03-.2.04-.44.04-.73Z"/>
    </g>
    <g>
      <path class="cls-12" d="M107.87,432.15c0,.62.33.93.98.93s.98-.31.98-.93v-3.26h.78v3.25c0,.56-.15.98-.44,1.24-.3.26-.74.39-1.32.39s-1.03-.13-1.32-.39-.44-.67-.44-1.24v-3.25h.78v3.26Z"/>
      <path class="cls-12" d="M113.15,432.19h-.98v1.49h-.78v-4.79h1.76c1.09,0,1.63.54,1.63,1.61,0,.55-.14.97-.41,1.26-.27.29-.68.43-1.22.43ZM112.17,431.52h.97c.56,0,.84-.34.84-1.02,0-.33-.07-.57-.2-.71-.14-.15-.35-.22-.64-.22h-.97v1.96Z"/>
      <path class="cls-12" d="M117.01,432.19h-.98v1.49h-.78v-4.79h1.76c1.09,0,1.63.54,1.63,1.61,0,.55-.14.97-.41,1.26-.27.29-.68.43-1.22.43ZM116.03,431.52h.97c.56,0,.84-.34.84-1.02,0-.33-.07-.57-.2-.71-.14-.15-.35-.22-.64-.22h-.97v1.96Z"/>
      <path class="cls-12" d="M119.11,433.68v-4.79h3.02v.68h-2.25v1.36h1.83v.67h-1.83v1.4h2.25v.69h-3.02Z"/>
      <path class="cls-12" d="M123.48,431.97v1.71h-.78v-4.79h1.82c1.08,0,1.62.51,1.62,1.53,0,.68-.26,1.14-.78,1.39l.79,1.88h-.85l-.69-1.71h-1.13ZM125.34,430.42c0-.57-.28-.86-.83-.86h-1.04v1.74h1.06c.28,0,.49-.08.62-.24.13-.16.2-.38.2-.64Z"/>
    </g>
    <g>
      <path class="cls-12" d="M109.81,440.68h-2.69v-4.79h.78v4.1h1.91v.69Z"/>
      <path class="cls-12" d="M113.34,440.17c-.29.39-.79.59-1.52.59s-1.23-.2-1.52-.59c-.29-.39-.43-1.01-.43-1.86s.15-1.47.44-1.88c.29-.41.8-.62,1.52-.62s1.22.2,1.51.61c.29.41.43,1.04.43,1.89s-.14,1.47-.43,1.86ZM110.92,439.67c.16.28.46.41.91.41s.75-.14.91-.41.23-.72.23-1.36-.08-1.1-.24-1.39-.46-.43-.9-.43-.74.15-.9.43c-.16.29-.24.75-.24,1.38s.08,1.09.24,1.36Z"/>
      <path class="cls-12" d="M114.01,435.89h.82l.69,4.12h.15l.91-4.11h.91l.91,4.11h.15l.69-4.12h.82l-.95,4.79h-1.25l-.83-3.84-.82,3.84h-1.26l-.94-4.79Z"/>
      <path class="cls-12" d="M120.49,440.68v-4.79h3.02v.68h-2.25v1.36h1.83v.67h-1.83v1.4h2.25v.69h-3.02Z"/>
      <path class="cls-12" d="M124.86,438.97v1.71h-.78v-4.79h1.82c1.08,0,1.62.51,1.62,1.53,0,.68-.26,1.14-.78,1.39l.79,1.88h-.85l-.69-1.71h-1.13ZM126.73,437.42c0-.57-.28-.86-.83-.86h-1.04v1.74h1.06c.28,0,.49-.08.62-.24.13-.16.2-.38.2-.64Z"/>
    </g>
    <path class="cls-12" d="M39.13,464.91h1.52l-1.66,7.14h-2.68l-1.66-7.14h1.52l1.24,5.88h.47l1.24-5.88Z"/>
    <g>
      <path class="cls-12" d="M15.29,394.22l1.32,2.62,1.35-2.62h1.5l-2.06,3.64,2.06,3.5h-1.61l-1.32-2.47-1.35,2.47h-1.5l2.06-3.42-2.06-3.72h1.61Z"/>
      <path class="cls-12" d="M23.95,394.43v6.93h-1.45v-5.29l-1.5.97-.66-1.08,2.29-1.52h1.32Z"/>
    </g>
    <g>
      <path class="cls-12" d="M19.78,372.11l1.32,2.62,1.35-2.62h1.5l-2.06,3.64,2.06,3.5h-1.61l-1.32-2.47-1.35,2.47h-1.5l2.06-3.42-2.06-3.72h1.61Z"/>
      <path class="cls-12" d="M29.23,379.25h-4.49v-1.23l1.48-1.5c.53-.54.89-.95,1.1-1.24.21-.29.31-.59.31-.92s-.09-.55-.26-.69c-.17-.13-.41-.2-.73-.2-.47,0-.98.04-1.53.13l-.25.03-.07-1.12c.69-.21,1.4-.31,2.13-.31,1.47,0,2.2.66,2.2,1.98,0,.52-.11.97-.34,1.34-.22.38-.63.84-1.22,1.38l-1.21,1.09h2.88v1.26Z"/>
    </g>
    <path class="cls-12" d="M107.72,325.82v-7.14h2.47l1.26,5.21,1.26-5.21h2.47v7.14h-1.45v-5.52h-.16l-1.4,5.21h-1.45l-1.4-5.21h-.16v5.52h-1.45Z"/>
  </g>
</svg>