<?xml version="1.0" encoding="UTF-8"?>
<svg xmlns="http://www.w3.org/2000/svg" viewBox="0 0 630 800">
  <defs>
    <style>
      .cls-1 {
        stroke: #fff;
        stroke-width: 1.78px;
      }

      .cls-1, .cls-2, .cls-3 {
        fill: none;
      }

      .cls-2 {
        stroke: #000;
        stroke-width: 15.16px;
      }

      .cls-3 {
        stroke: #1a171b;
        stroke-width: .32px;
      }

      .cls-4, .cls-5 {
        stroke-width: 0px;
      }

      .cls-5 {
        fill: #7d7d7d;
      }
         #GA path, #GA rect{
        mask: url(#mask-stripe)
      }

    </style>


   <pattern id="pattern-stripe" 
            width="4" height="4" 
            patternUnits="userSpaceOnUse"
            patternTransform="rotate(45)">
            <rect width="1.5" height="4" transform="translate(0,0)" fill="white"></rect>
    </pattern>
    <mask id="mask-stripe">
            <rect x="0" y="0" width="100%" height="100%" fill="url(#pattern-stripe)" />
    </mask>  
</defs>   
  <g id="GA">
    <path idGrandstand="9865" class="cls-5" d="m132.05,238.82c2.31-.48,4.69-.55,7.03-.19,1.47.28,3.76,1.13,5.46,2.5,3.18,2.58,1.36,7.91-2.74,7.87-.05,0-.09,0-.14,0-.3,0-.61-.07-.9-.15-2.78-.72-5.74-.42-8.33.84-.12.06-.24.11-.36.15-.64.24-2.12.84-3.77.97-3.09.25-5.43-2.78-4.52-5.74.34-1.1.98-2.21,2.07-3.03,1.76-1.59,3.91-2.7,6.22-3.21m63.03,11.36c-2.86-1.51-4.37-.89-4.37-.89-2.8,1.64-2.9,4.44-1.16,6.69,1.75,2.25,12.07,9.76,15.54,11.88,3.47,2.12,14.27,8.32,17.06,9.63s2.85,1.04,3.88.97c2.39-.48,3-3.34,2.46-5.12-.37-2.18-5.59-5.59-7.17-6.69-1.57-1.1-15.02-9.9-17-11.26-1.98-1.37-7.91-4.44-9.28-5.25m79.02,62.78c-.13-.2-.28-.39-.45-.57-1.49-1.55-3.94-1.6-5.49-.11-1.43,1.14-3.41,4.17-5.59,6.96-2.17,2.67-3.71,5.8-4.51,9.15-.83,5.46,1.63,8.74,4.3,12.97,3.27,4.86,6.82,9.54,10.61,14,2.39,2.8,4.74,5.93,7.65,7.03,4.44,1.36,4.57-1.83,4.71-2.8.14-.62-1.44-4.57-2.05-6.01-.61-1.44-3.01-5.81-4.78-9.49-1.2-2.34-2.18-4.78-2.91-7.3-.52-1.71-1.16-7.72-1.5-9.84-.34-2.12.2-7.17.34-9.42.2-1.53.08-3.09-.34-4.57m85.46,80.71s-8.67,3.61-10.45,4.44c-1.44.54-2.78,1.33-3.95,2.32-.87.88-.81,1.91.97,2.46,1.85.88,7.98.61,13.11.14,5.65-.31,11.24-1.33,16.63-3.06,4.05-2.05,7.42-6.83,7.71-9.24.37-3.06-2.83-4.31-2.83-4.31-2.45-1.05-5.15-1.36-7.77-.89-2.37.45-3.96,2-6.5,4.48-2.53,2.48-6.04,3.19-6.92,3.68m-192.27,88.39s-.75,4.72,1.4,6.66c1.29,1.88,11.87,2.03,21.98,2.03s17.87-.87,26.22-1.28c5.63-.14,11.01-2.41,15.04-6.34,1.84-1.8,2.15-3.95-2.05-6.65-4.19-2.7-19.46-3.08-22.47-3.08-14.84.13-29.57,2.83-31.72,3.14s-4.52.63-5.91,1.51c-1.41.88-2.32,2.37-2.48,4.02"/>
  </g>
  <g id="track">
    <g>
      <path class="cls-2" d="m227.42,498.78c5.52-.11,10.89.62,15.22,3.59,6.38,4.38,9.38,10.38,12.02,15.67,1.65,3.31,3.21,6.43,5.37,8.61,4.69,4.72,16.36,5.42,25.79,4.5.09,0,.18-.02.27-.04l.38-.07c.16-.03.33-.05.49-.05l8.2-.1c85.46-1.56,186.94-3.48,191.72-3.77,6.95-.5,11.26-8.15,11.53-11.94,0-.1.03-.54.02-1.48-.11-5.82-1.65-22.34-2.06-26.44v-.09c-.04-.34-.06-.69-.06-1.04l-.12-6.13c-.03-1.45,1.35-2.6,2.92-2.43l6.64.7c1.7.18,3.79.65,6.4,1.44,12.98,3.94,39.59,11.31,39.84,11.38l.14.04c11.2,3.27,18.73.14,22.39-9.3l.22-.52,2.73-5.7c7.8-16.33,15.87-33.21,19.48-41.95,1.16-2.82,1.71-5.03,1.67-6.78-.06-3.16-1.95-4.46-5.94-6.5l-1.52-.79c-.26-.14-1.98-1.01-3.96-2.03-4.98-2.54-13.31-6.8-21.13-10.86l-.24-.13c-19.92-11.16-37.95-21.27-39.86-22.27-9.1-4.82-19.73-7.57-26.22-8.15-3.51-.24-32.35,1.55-53.4,2.85h-.13c-12.93.81-19.17,1.19-20.46,1.22h-.01s-.18,0-.18,0c-1.74,0-2.21,0-4.02,2.47l-1.24,1.67c-1.95,2.63-7,9.14-10.9,14.15l-.27.35c-4.98,7.54-10.68,12.35-23.6,13.03-9.63.51-37.2,2.55-45.42,3.16l-.46.03c-.14.01-.27.01-.41,0l-.46-.03c-15.78-1.09-28.75-6.27-40.8-16.31-10.65-8.87-19.79-20.63-31.36-35.51-1.14-1.47-2.3-2.96-3.49-4.49l-.34-.47c-6.95-10.45-12.71-20.16-17.8-28.73-13.07-22.01-22.51-37.91-41.67-51.4l-.3-.21c-1.98-1.4-3.41-2.4-4.29-3.04-22.88-16.73-29.49-17.57-45.22-17.51-19.87.07-33.39,11.56-38.29,16.49l-1.1,1.09c-5.03,4.81-15.57,8.63-28.18,10.21-3.5.44-6.86,3.49-8.38,7.61-13.32,43.22-28.06,92.68-28.95,99.16-.16,1.17-.23,2.12-.21,3,.08,3.98,2.08,7.17,7.92,12.63,2.55,2.38,10.28,10.22,17.11,17.13l.46.47c4.37,4.42,8.14,8.25,9.38,9.44,5.37,5.19,8.71,9.29,8.8,13.69.03,1.35-.24,2.73-.81,4.22l-.15.38c-.04.11-.1.22-.16.33l-3.91,6.73-.19.27c-1.27,1.8-2.08,3.09-2.94,4.46-1.31,2.08-2.78,4.41-6.17,9.02-1.37,1.87-2.14,3.77-2.12,5.22,0,.31.05.59.13.82.65,1.89,4.76,2.96,7.22,3.6l.19.05,3.25.92c14.36,4.43,34,10.49,54.57,13.79,20,3.2,44.75,3.08,61.63,2.73,3.08-.06,6.56-.4,9.93-.72h.13c1.41-.15,2.94-.32,4.3-.48,3.38-.39,6.94-.8,10.44-.86Zm-151.9-48.47h0Z"/>
      <path class="cls-1" d="m227.42,498.78c5.52-.11,10.89.62,15.22,3.59,6.38,4.38,9.38,10.38,12.02,15.67,1.65,3.31,3.21,6.43,5.37,8.61,4.69,4.72,16.36,5.42,25.79,4.5.09,0,.18-.02.27-.04l.38-.07c.16-.03.33-.05.49-.05l8.2-.1c85.46-1.56,186.94-3.48,191.72-3.77,6.95-.5,11.26-8.15,11.53-11.94,0-.1.03-.54.02-1.48-.11-5.82-1.65-22.34-2.06-26.44v-.09c-.04-.34-.06-.69-.06-1.04l-.12-6.13c-.03-1.45,1.35-2.6,2.92-2.43l6.64.7c1.7.18,3.79.65,6.4,1.44,12.98,3.94,39.59,11.31,39.84,11.38l.14.04c11.2,3.27,18.73.14,22.39-9.3l.22-.52,2.73-5.7c7.8-16.33,15.87-33.21,19.48-41.95,1.16-2.82,1.71-5.03,1.67-6.78-.06-3.16-1.95-4.46-5.94-6.5l-1.52-.79c-.26-.14-1.98-1.01-3.96-2.03-4.98-2.54-13.31-6.8-21.13-10.86l-.24-.13c-19.92-11.16-37.95-21.27-39.86-22.27-9.1-4.82-19.73-7.57-26.22-8.15-3.51-.24-32.35,1.55-53.4,2.85h-.13c-12.93.81-19.17,1.19-20.46,1.22h-.01s-.18,0-.18,0c-1.74,0-2.21,0-4.02,2.47l-1.24,1.67c-1.95,2.63-7,9.14-10.9,14.15l-.27.35c-4.98,7.54-10.68,12.35-23.6,13.03-9.63.51-37.2,2.55-45.42,3.16l-.46.03c-.14.01-.27.01-.41,0l-.46-.03c-15.78-1.09-28.75-6.27-40.8-16.31-10.65-8.87-19.79-20.63-31.36-35.51-1.14-1.47-2.3-2.96-3.49-4.49l-.34-.47c-6.95-10.45-12.71-20.16-17.8-28.73-13.07-22.01-22.51-37.91-41.67-51.4l-.3-.21c-1.98-1.4-3.41-2.4-4.29-3.04-22.88-16.73-29.49-17.57-45.22-17.51-19.87.07-33.39,11.56-38.29,16.49l-1.1,1.09c-5.03,4.81-15.57,8.63-28.18,10.21-3.5.44-6.86,3.49-8.38,7.61-13.32,43.22-28.06,92.68-28.95,99.16-.16,1.17-.23,2.12-.21,3,.08,3.98,2.08,7.17,7.92,12.63,2.55,2.38,10.28,10.22,17.11,17.13l.46.47c4.37,4.42,8.14,8.25,9.38,9.44,5.37,5.19,8.71,9.29,8.8,13.69.03,1.35-.24,2.73-.81,4.22l-.15.38c-.04.11-.1.22-.16.33l-3.91,6.73-.19.27c-1.27,1.8-2.08,3.09-2.94,4.46-1.31,2.08-2.78,4.41-6.17,9.02-1.37,1.87-2.14,3.77-2.12,5.22,0,.31.05.59.13.82.65,1.89,4.76,2.96,7.22,3.6l.19.05,3.25.92c14.36,4.43,34,10.49,54.57,13.79,20,3.2,44.75,3.08,61.63,2.73,3.08-.06,6.56-.4,9.93-.72h.13c1.41-.15,2.94-.32,4.3-.48,3.38-.39,6.94-.8,10.44-.86Zm-151.9-48.47h0Z"/>
    </g>
  </g>
  <g id="arrow">
    <g>
      <path class="cls-4" d="m335.97,509.58l-3.29,3.37c-.15.15-.23.33-.23.55s.08.4.24.55l3.29,3.43-1.08,1.05-3.27-3.43c-.44-.44-.66-.98-.66-1.61s.22-1.16.66-1.59l3.27-3.37,1.07,1.05Z"/>
      <path class="cls-4" d="m346.1,509.58l-3.29,3.37c-.15.15-.23.33-.23.55s.08.4.24.55l3.29,3.43-1.08,1.05-3.27-3.43c-.44-.44-.66-.98-.66-1.61s.22-1.16.66-1.59l3.27-3.37,1.07,1.05Z"/>
      <path class="cls-4" d="m341.04,509.58l-3.29,3.37c-.15.15-.23.33-.23.55s.08.4.24.55l3.29,3.43-1.08,1.05-3.27-3.43c-.44-.44-.66-.98-.66-1.61s.22-1.16.66-1.59l3.27-3.37,1.07,1.05Z"/>
    </g>
  </g>
  <g id="start">
    <g>
      <rect class="cls-4" x="363.23" y="511.1" width="3.34" height="3.37"/>
      <rect class="cls-4" x="359.89" y="507.72" width="3.34" height="3.37"/>
      <rect class="cls-4" x="359.89" y="514.47" width="3.34" height="3.37"/>
      <rect class="cls-4" x="366.56" y="507.72" width="3.34" height="3.37"/>
      <rect class="cls-4" x="366.56" y="514.47" width="3.34" height="3.37"/>
      <rect class="cls-4" x="356.54" y="511.1" width="3.34" height="3.37"/>
      <rect class="cls-4" x="353.2" y="507.72" width="3.34" height="3.37"/>
      <rect class="cls-4" x="353.2" y="514.47" width="3.34" height="3.37"/>
    </g>
  </g>
  <g id="hospitality_products_misc" data-name="hospitality products / misc">
    <g id="hospitality-names">
      <g>
        <path class="cls-5" d="m385.05,502.93v-3.76h2.64v.66h-1.8v1.11h1.47v.66h-1.47v1.33h-.84Z"/>
        <path class="cls-5" d="m390.38,499.28v3.65h-.84v-2.79l-.87.51-.38-.57,1.33-.8h.77Z"/>
        <path class="cls-5" d="m394.55,501.84h-.68v1.1h-.84v-3.76h1.52c.98,0,1.47.44,1.47,1.31,0,.44-.12.78-.37,1.01s-.62.35-1.1.35Zm-.68-.65h.68c.42,0,.63-.24.63-.71,0-.23-.05-.4-.15-.5-.1-.1-.26-.15-.47-.15h-.68v1.36Z"/>
        <path class="cls-5" d="m396.15,502.93l.93-3.76h1.59l.93,3.76h-.84l-.16-.68h-1.45l-.16.68h-.84Zm1.58-3.13l-.42,1.79h1.13l-.42-1.79h-.29Z"/>
        <path class="cls-5" d="m401.55,502.93h-1.39v-3.76h1.39c.36,0,.65.03.88.1.23.07.41.18.54.34.13.16.22.34.26.55.05.21.07.49.07.83s-.02.62-.07.84c-.04.22-.13.42-.25.6-.12.18-.3.3-.54.38-.24.08-.54.12-.9.12Zm.88-1.49c0-.12.01-.28.01-.49s0-.38-.02-.5c-.02-.12-.05-.24-.12-.34-.06-.1-.15-.17-.27-.21-.12-.04-.28-.06-.48-.06h-.55v2.44h.55c.3,0,.52-.07.66-.21.12-.11.19-.32.22-.62Z"/>
        <path class="cls-5" d="m405.43,502.93h-1.39v-3.76h1.39c.36,0,.65.03.88.1.23.07.41.18.54.34.13.16.22.34.26.55.05.21.07.49.07.83s-.02.62-.07.84c-.04.22-.13.42-.25.6-.12.18-.3.3-.54.38-.24.08-.54.12-.9.12Zm.88-1.49c0-.12.01-.28.01-.49s0-.38-.02-.5c-.02-.12-.05-.24-.12-.34-.06-.1-.15-.17-.27-.21-.12-.04-.28-.06-.48-.06h-.55v2.44h.55c.3,0,.52-.07.66-.21.12-.11.19-.32.22-.62Z"/>
        <path class="cls-5" d="m410.78,502.53c-.26.31-.7.47-1.33.47s-1.07-.16-1.33-.47c-.26-.31-.39-.8-.39-1.46s.13-1.16.39-1.48c.26-.32.7-.48,1.33-.48s1.07.16,1.33.48c.26.32.39.82.39,1.48s-.13,1.15-.39,1.46Zm-2-.49c.12.19.34.29.67.29s.55-.1.67-.29c.12-.19.18-.52.18-.97s-.06-.79-.18-.99c-.12-.21-.34-.31-.67-.31s-.55.1-.67.31c-.12.21-.18.54-.18.99s.06.78.18.97Z"/>
        <path class="cls-5" d="m414.51,502.87c-.43.08-.82.13-1.16.13s-.62-.04-.83-.12-.37-.2-.49-.37-.2-.37-.24-.6c-.04-.23-.07-.52-.07-.86,0-.73.11-1.23.34-1.52s.64-.43,1.24-.43c.35,0,.75.05,1.21.15l-.02.61c-.4-.05-.74-.08-1-.08s-.46.03-.57.1c-.11.07-.2.19-.25.37-.05.18-.08.49-.08.92s.06.74.17.91c.11.17.33.25.67.25s.69-.03,1.07-.08l.02.63Z"/>
        <path class="cls-5" d="m416.03,502.93h-.84v-3.76h.84v1.66l.56-.06.68-1.6h.96l-.9,1.89.92,1.88h-.97l-.69-1.5-.56.06v1.44Z"/>
        <path class="cls-5" d="m387.67,508.7c-.43.08-.82.13-1.16.13s-.62-.04-.83-.12-.37-.2-.49-.37-.2-.37-.24-.6c-.04-.23-.07-.52-.07-.86,0-.73.11-1.23.34-1.52s.64-.43,1.24-.43c.35,0,.75.05,1.21.15l-.02.61c-.4-.05-.74-.08-1-.08s-.46.03-.57.1c-.11.07-.2.19-.25.37-.05.18-.08.49-.08.92s.06.74.17.91c.11.17.33.25.67.25s.69-.03,1.07-.08l.02.63Z"/>
        <path class="cls-5" d="m390.71,508.76h-2.35v-3.76h.84v3.09h1.51v.67Z"/>
        <path class="cls-5" d="m392,507.5c0,.44.25.66.74.66s.74-.22.74-.66v-2.51h.84v2.49c0,.46-.13.8-.39,1.02s-.66.32-1.18.32-.92-.11-1.18-.32-.39-.55-.39-1.02v-2.49h.84v2.51Z"/>
        <path class="cls-5" d="m395.18,504.99h1.62c.43,0,.75.08.97.24.21.16.32.41.32.76,0,.21-.03.38-.1.5-.07.12-.19.23-.35.33.18.07.32.17.4.3.09.13.13.32.13.55,0,.37-.12.64-.35.81s-.57.27-.99.27h-1.65v-3.76Zm1.58.65h-.74v.9h.75c.32,0,.47-.15.47-.45s-.16-.45-.48-.45Zm.02,1.54h-.77v.92h.77c.18,0,.32-.03.4-.1.09-.07.13-.19.13-.37,0-.3-.18-.45-.54-.45Z"/>
      </g>
      <g>
        <path class="cls-5" d="m363.78,478.45v-.67h3.04v.67h-1.1v3.09h-.84v-3.09h-1.11Z"/>
        <path class="cls-5" d="m369.73,481.54v-1.56h-1.54v1.56h-.84v-3.76h.84v1.54h1.54v-1.54h.84v3.76h-.84Z"/>
        <path class="cls-5" d="m371.47,481.54v-3.76h2.68v.66h-1.84v.88h1.47v.65h-1.47v.9h1.84v.66h-2.68Z"/>
        <path class="cls-5" d="m378.53,481.54h-2.35v-3.76h.84v3.09h1.51v.67Z"/>
        <path class="cls-5" d="m381.88,481.14c-.26.31-.7.47-1.33.47s-1.07-.16-1.33-.47c-.26-.31-.39-.8-.39-1.46s.13-1.16.39-1.48c.26-.32.7-.48,1.33-.48s1.07.16,1.33.48c.26.32.39.82.39,1.48s-.13,1.15-.39,1.46Zm-2-.49c.12.19.34.29.67.29s.55-.1.67-.29c.12-.19.18-.52.18-.97s-.06-.79-.18-.99c-.12-.21-.34-.31-.67-.31s-.55.1-.67.31c-.12.21-.18.54-.18.99s.06.78.18.97Z"/>
        <path class="cls-5" d="m383.79,480.28c0,.44.25.66.74.66s.74-.22.74-.66v-2.51h.84v2.49c0,.46-.13.8-.39,1.02s-.66.32-1.18.32-.92-.11-1.18-.32-.39-.55-.39-1.02v-2.49h.84v2.51Z"/>
        <path class="cls-5" d="m386.96,481.54v-3.76h1.42l1,3.1h.06v-3.1h.84v3.76h-1.38l-1.03-3.1h-.06v3.1h-.84Z"/>
        <path class="cls-5" d="m392.9,480.19v-.66h1.21v1.95c-.58.08-1.05.13-1.41.13-.65,0-1.09-.16-1.33-.47s-.36-.81-.36-1.49.13-1.18.38-1.48c.25-.3.68-.45,1.28-.45.38,0,.79.04,1.22.12l.22.04-.02.59c-.49-.05-.89-.07-1.2-.07s-.53.03-.65.1c-.13.07-.22.19-.28.37-.06.18-.09.49-.09.92s.06.74.18.91c.12.17.36.26.73.26l.5-.02v-.73h-.38Z"/>
        <path class="cls-5" d="m394.9,481.54v-3.76h2.68v.66h-1.84v.88h1.47v.65h-1.47v.9h1.84v.66h-2.68Z"/>
      </g>
      <g>
        <path class="cls-5" d="m284.58,490.23h1.62c.43,0,.75.08.97.24.21.16.32.41.32.76,0,.21-.03.38-.1.5-.07.12-.19.23-.35.33.18.07.32.17.4.3.09.13.13.32.13.55,0,.37-.12.64-.35.81s-.57.27-.99.27h-1.65v-3.76Zm1.58.65h-.74v.9h.75c.32,0,.47-.15.47-.45s-.16-.45-.48-.45Zm.02,1.54h-.77v.92h.77c.18,0,.32-.03.4-.1.09-.07.13-.19.13-.37,0-.3-.18-.45-.54-.45Z"/>
        <path class="cls-5" d="m289.13,492.73v1.26h-.84v-3.76h1.61c.97,0,1.46.41,1.46,1.24,0,.49-.2.85-.61,1.08l.59,1.44h-.92l-.48-1.26h-.81Zm1.22-.82c.1-.11.15-.26.15-.44s-.05-.32-.16-.43c-.1-.11-.25-.16-.45-.16h-.77v1.2h.78c.2,0,.35-.06.44-.17Z"/>
        <path class="cls-5" d="m291.66,493.99l.93-3.76h1.59l.93,3.76h-.84l-.16-.68h-1.45l-.16.68h-.84Zm1.58-3.13l-.42,1.79h1.13l-.42-1.79h-.29Z"/>
        <path class="cls-5" d="m295.67,490.23h1.62c.43,0,.75.08.97.24.21.16.32.41.32.76,0,.21-.03.38-.1.5-.07.12-.19.23-.35.33.18.07.32.17.4.3.09.13.13.32.13.55,0,.37-.12.64-.35.81s-.57.27-.99.27h-1.65v-3.76Zm1.58.65h-.74v.9h.75c.32,0,.47-.15.47-.45s-.16-.45-.48-.45Zm.02,1.54h-.77v.92h.77c.18,0,.32-.03.4-.1.09-.07.13-.19.13-.37,0-.3-.18-.45-.54-.45Z"/>
        <path class="cls-5" d="m301.76,493.99v-1.56h-1.54v1.56h-.84v-3.76h.84v1.54h1.54v-1.54h.84v3.76h-.84Z"/>
        <path class="cls-5" d="m303.15,493.99l.93-3.76h1.59l.93,3.76h-.84l-.16-.68h-1.45l-.16.68h-.84Zm1.58-3.13l-.42,1.79h1.13l-.42-1.79h-.29Z"/>
        <path class="cls-5" d="m307.16,493.99v-3.76h1.43l.73,2.75.73-2.75h1.43v3.76h-.84v-2.91h-.09l-.81,2.75h-.84l-.81-2.75h-.09v2.91h-.84Z"/>
        <path class="cls-5" d="m285.85,496.65c-.44,0-.66.13-.66.4,0,.12.05.21.16.27.11.06.37.15.77.27.4.12.69.25.85.4s.24.38.24.69c0,.39-.13.69-.4.9-.26.2-.61.3-1.03.3-.32,0-.7-.04-1.16-.13l-.22-.04.08-.59c.54.07.96.1,1.25.1.43,0,.64-.16.64-.49,0-.12-.05-.21-.15-.28s-.3-.14-.59-.22c-.47-.12-.8-.27-.99-.43-.19-.17-.29-.4-.29-.7,0-.38.13-.66.38-.84.25-.18.6-.28,1.03-.28.3,0,.68.04,1.14.11l.22.04-.07.6c-.57-.06-.98-.09-1.21-.09Z"/>
        <path class="cls-5" d="m288.69,498.56c0,.44.25.66.74.66s.74-.22.74-.66v-2.51h.84v2.49c0,.46-.13.8-.39,1.02s-.66.32-1.18.32-.92-.11-1.18-.32-.39-.55-.39-1.02v-2.49h.84v2.51Z"/>
        <path class="cls-5" d="m291.87,499.82v-3.76h.84v3.76h-.84Z"/>
        <path class="cls-5" d="m293.24,496.73v-.67h3.04v.67h-1.1v3.09h-.84v-3.09h-1.11Z"/>
        <path class="cls-5" d="m296.81,499.82v-3.76h2.68v.66h-1.84v.88h1.47v.65h-1.47v.9h1.84v.66h-2.68Z"/>
        <path class="cls-5" d="m301.45,496.65c-.44,0-.66.13-.66.4,0,.12.05.21.16.27.11.06.37.15.77.27.4.12.69.25.85.4s.24.38.24.69c0,.39-.13.69-.4.9-.26.2-.61.3-1.03.3-.32,0-.7-.04-1.16-.13l-.22-.04.08-.59c.54.07.96.1,1.25.1.43,0,.64-.16.64-.49,0-.12-.05-.21-.15-.28s-.3-.14-.59-.22c-.47-.12-.8-.27-.99-.43-.19-.17-.29-.4-.29-.7,0-.38.13-.66.38-.84.25-.18.6-.28,1.03-.28.3,0,.68.04,1.14.11l.22.04-.07.6c-.57-.06-.98-.09-1.21-.09Z"/>
      </g>
      <g>
        <path class="cls-5" d="m519.64,468.52v-.67h3.04v.67h-1.1v3.09h-.84v-3.09h-1.11Z"/>
        <path class="cls-5" d="m525.59,471.61v-1.56h-1.54v1.56h-.84v-3.76h.84v1.54h1.54v-1.54h.84v3.76h-.84Z"/>
        <path class="cls-5" d="m527.33,471.61v-3.76h2.68v.66h-1.84v.88h1.47v.65h-1.47v.9h1.84v.66h-2.68Z"/>
        <path class="cls-5" d="m531.69,471.61l.93-3.76h1.59l.93,3.76h-.84l-.16-.68h-1.45l-.16.68h-.84Zm1.58-3.13l-.42,1.79h1.13l-.42-1.79h-.29Z"/>
        <path class="cls-5" d="m537.22,470.52h-.68v1.1h-.84v-3.76h1.52c.98,0,1.47.44,1.47,1.31,0,.44-.12.78-.37,1.01s-.62.35-1.1.35Zm-.68-.65h.68c.42,0,.63-.24.63-.71,0-.23-.05-.4-.15-.5-.1-.1-.26-.15-.47-.15h-.68v1.36Z"/>
        <path class="cls-5" d="m539.28,471.61v-3.76h2.68v.66h-1.84v.88h1.47v.65h-1.47v.9h1.84v.66h-2.68Z"/>
        <path class="cls-5" d="m543.19,467.85l.77,1.38.78-1.38h.87l-1.19,1.92,1.19,1.84h-.93l-.77-1.3-.78,1.3h-.87l1.19-1.8-1.19-1.96h.93Z"/>
      </g>
      <g>
        <path class="cls-5" d="m533.4,449.61v1.26h-.84v-3.76h1.61c.97,0,1.46.41,1.46,1.24,0,.49-.2.85-.61,1.08l.59,1.44h-.92l-.48-1.26h-.81Zm1.22-.82c.1-.11.15-.26.15-.44s-.05-.32-.16-.43c-.1-.11-.25-.16-.45-.16h-.77v1.2h.78c.2,0,.35-.06.44-.17Z"/>
        <path class="cls-5" d="m535.93,450.87l.93-3.76h1.59l.93,3.76h-.84l-.16-.68h-1.45l-.16.68h-.84Zm1.58-3.13l-.42,1.79h1.13l-.42-1.79h-.29Z"/>
        <path class="cls-5" d="m542.51,450.81c-.43.08-.82.13-1.16.13s-.62-.04-.83-.12-.37-.2-.49-.37-.2-.37-.24-.6c-.04-.23-.07-.52-.07-.86,0-.73.11-1.23.34-1.52s.64-.43,1.24-.43c.35,0,.75.05,1.21.15l-.02.61c-.4-.05-.74-.08-1-.08s-.46.03-.57.1c-.11.07-.2.19-.25.37-.05.18-.08.49-.08.92s.06.74.17.91c.11.17.33.25.67.25s.69-.03,1.07-.08l.02.63Z"/>
        <path class="cls-5" d="m543.19,450.87v-3.76h2.68v.66h-1.84v.88h1.47v.65h-1.47v.9h1.84v.66h-2.68Z"/>
        <path class="cls-5" d="m550.52,450.81c-.43.08-.82.13-1.16.13s-.62-.04-.83-.12-.37-.2-.49-.37-.2-.37-.24-.6c-.04-.23-.07-.52-.07-.86,0-.73.11-1.23.34-1.52s.64-.43,1.24-.43c.35,0,.75.05,1.21.15l-.02.61c-.4-.05-.74-.08-1-.08s-.46.03-.57.1c-.11.07-.2.19-.25.37-.05.18-.08.49-.08.92s.06.74.17.91c.11.17.33.25.67.25s.69-.03,1.07-.08l.02.63Z"/>
        <path class="cls-5" d="m552.01,449.61c0,.44.25.66.74.66s.74-.22.74-.66v-2.51h.84v2.49c0,.46-.13.8-.39,1.02s-.66.32-1.18.32-.92-.11-1.18-.32-.39-.55-.39-1.02v-2.49h.84v2.51Z"/>
        <path class="cls-5" d="m555.18,447.1h1.62c.43,0,.75.08.97.24.21.16.32.41.32.76,0,.21-.03.38-.1.5-.07.12-.19.23-.35.33.18.07.32.17.4.3.09.13.13.32.13.55,0,.37-.12.64-.35.81s-.57.27-.99.27h-1.65v-3.76Zm1.58.65h-.74v.9h.75c.32,0,.47-.15.47-.45s-.16-.45-.48-.45Zm.02,1.54h-.77v.92h.77c.18,0,.32-.03.4-.1.09-.07.13-.19.13-.37,0-.3-.18-.45-.54-.45Z"/>
        <path class="cls-5" d="m558.89,450.87v-3.76h2.68v.66h-1.84v.88h1.47v.65h-1.47v.9h1.84v.66h-2.68Z"/>
      </g>
      <g>
        <path class="cls-5" d="m486.55,396.99v-.68h2.77v.68h-1v3.09h-.76v-3.09h-1.01Z"/>
        <path class="cls-5" d="m491.97,400.08v-1.56h-1.4v1.56h-.76v-3.76h.76v1.54h1.4v-1.54h.76v3.76h-.76Z"/>
        <path class="cls-5" d="m493.55,400.08v-3.76h2.44v.66h-1.67v.88h1.34v.65h-1.34v.9h1.67v.66h-2.44Z"/>
        <path class="cls-5" d="m499.22,398.98h-.62v1.1h-.76v-3.76h1.38c.89,0,1.34.44,1.34,1.31,0,.44-.11.78-.34,1.01s-.56.35-1,.35Zm-.62-.65h.61c.38,0,.57-.24.57-.71,0-.23-.05-.4-.14-.5-.09-.1-.24-.15-.43-.15h-.61v1.36Z"/>
        <path class="cls-5" d="m500.67,400.08l.85-3.76h1.45l.85,3.76h-.76l-.15-.68h-1.32l-.15.68h-.76Zm1.44-3.13l-.38,1.79h1.03l-.38-1.79h-.27Z"/>
        <path class="cls-5" d="m505.08,398.82v1.26h-.76v-3.76h1.46c.89,0,1.33.41,1.33,1.24,0,.49-.18.85-.55,1.08l.54,1.44h-.84l-.44-1.26h-.74Zm1.11-.82c.09-.11.13-.26.13-.44s-.05-.32-.14-.43c-.09-.11-.23-.16-.41-.16h-.7v1.2h.71c.18,0,.32-.06.4-.17Z"/>
        <path class="cls-5" d="m508.52,400.08h-.76v-3.76h.76v1.65l.51-.06.62-1.6h.87l-.82,1.89.84,1.88h-.88l-.63-1.5-.51.06v1.44Z"/>
      </g>
      <g>
        <path class="cls-5" d="m422.13,415.77c-.4,0-.6.13-.6.4,0,.12.05.21.15.27.1.06.33.15.7.27s.62.25.77.4c.15.15.22.38.22.69,0,.39-.12.69-.36.9-.24.2-.55.3-.94.3-.29,0-.64-.04-1.06-.13l-.2-.04.08-.59c.49.07.87.1,1.13.1.39,0,.59-.16.59-.49,0-.12-.04-.21-.14-.28-.09-.07-.27-.14-.54-.22-.43-.12-.73-.27-.9-.43-.18-.17-.26-.4-.26-.7,0-.38.11-.66.34-.84.23-.18.54-.28.94-.28.27,0,.62.04,1.04.11l.2.04-.06.6c-.52-.06-.89-.09-1.1-.09Z"/>
        <path class="cls-5" d="m426.13,418.94h-2.14v-3.76h.76v3.09h1.38v.68Z"/>
        <path class="cls-5" d="m426.6,418.94v-3.76h.76v3.76h-.76Z"/>
        <path class="cls-5" d="m429.57,417.84h-.62v1.1h-.76v-3.76h1.38c.89,0,1.34.43,1.34,1.31,0,.44-.11.78-.34,1.01s-.56.35-1,.35Zm-.62-.65h.61c.38,0,.57-.24.57-.71,0-.23-.05-.4-.14-.5-.09-.1-.24-.15-.43-.15h-.61v1.36Z"/>
        <path class="cls-5" d="m432.6,415.77c-.4,0-.6.13-.6.4,0,.12.05.21.15.27.1.06.33.15.7.27s.62.25.77.4c.15.15.22.38.22.69,0,.39-.12.69-.36.9-.24.2-.55.3-.94.3-.29,0-.64-.04-1.06-.13l-.2-.04.08-.59c.49.07.87.1,1.13.1.39,0,.59-.16.59-.49,0-.12-.04-.21-.14-.28-.09-.07-.27-.14-.54-.22-.43-.12-.73-.27-.9-.43-.18-.17-.26-.4-.26-.7,0-.38.11-.66.34-.84.23-.18.54-.28.94-.28.27,0,.62.04,1.04.11l.2.04-.06.6c-.52-.06-.89-.09-1.1-.09Z"/>
        <path class="cls-5" d="m434.12,415.85v-.67h2.77v.67h-1v3.09h-.76v-3.09h-1.01Z"/>
        <path class="cls-5" d="m438.13,417.67v1.26h-.76v-3.76h1.46c.89,0,1.33.41,1.33,1.24,0,.49-.18.85-.55,1.08l.54,1.44h-.84l-.44-1.26h-.74Zm1.11-.82c.09-.11.13-.26.13-.44s-.05-.33-.14-.43c-.09-.11-.23-.16-.41-.16h-.7v1.2h.71c.18,0,.32-.06.4-.17Z"/>
        <path class="cls-5" d="m440.8,418.94v-3.76h2.44v.66h-1.67v.88h1.34v.65h-1.34v.9h1.67v.66h-2.44Z"/>
        <path class="cls-5" d="m443.55,418.94l.85-3.76h1.45l.85,3.76h-.76l-.15-.68h-1.32l-.15.68h-.76Zm1.44-3.13l-.38,1.79h1.03l-.38-1.79h-.27Z"/>
        <path class="cls-5" d="m447.19,418.94v-3.76h1.3l.66,2.75.66-2.75h1.3v3.76h-.76v-2.91h-.08l-.74,2.75h-.76l-.74-2.75h-.08v2.91h-.76Z"/>
      </g>
      <g>
        <path class="cls-5" d="m247.77,565.72v-.66c.16,0,.28-.03.35-.08.07-.06.11-.16.11-.31v-3.09h.83v3.13c0,.4-.09.67-.29.81-.2.14-.53.21-1.01.21Z"/>
        <path class="cls-5" d="m252.81,564.93c-.26.31-.7.47-1.33.47s-1.07-.16-1.33-.47c-.26-.31-.39-.8-.39-1.46s.13-1.16.39-1.48c.26-.32.7-.48,1.33-.48s1.07.16,1.33.48c.26.32.39.82.39,1.48s-.13,1.15-.39,1.46Zm-2-.49c.12.19.34.29.67.29s.55-.1.67-.29c.12-.19.18-.52.18-.97s-.06-.79-.18-.99c-.12-.21-.34-.31-.67-.31s-.55.1-.67.31c-.12.21-.18.54-.18.99s.06.78.18.97Z"/>
        <path class="cls-5" d="m253.91,565.34v-3.76h1.42l1,3.1h.06v-3.1h.84v3.76h-1.38l-1.03-3.1h-.06v3.1h-.84Z"/>
        <path class="cls-5" d="m258.13,565.34v-3.76h2.68v.66h-1.84v.88h1.47v.65h-1.47v.9h1.84v.66h-2.68Z"/>
        <path class="cls-5" d="m262.77,562.17c-.44,0-.66.13-.66.4,0,.12.05.21.16.27.11.06.37.15.77.27.4.12.69.25.85.4s.24.38.24.69c0,.39-.13.69-.4.9-.26.2-.61.3-1.03.3-.32,0-.7-.04-1.16-.13l-.22-.04.08-.59c.54.07.96.1,1.25.1.43,0,.64-.16.64-.49,0-.12-.05-.21-.15-.28s-.3-.14-.59-.22c-.47-.12-.8-.27-.99-.43-.19-.17-.29-.4-.29-.7,0-.38.13-.66.38-.84.25-.18.6-.28,1.03-.28.3,0,.68.04,1.14.11l.22.04-.07.6c-.57-.06-.98-.09-1.21-.09Z"/>
        <path class="cls-5" d="m267.42,562.17c-.44,0-.66.13-.66.4,0,.12.05.21.16.27.11.06.37.15.77.27.4.12.69.25.85.4s.24.38.24.69c0,.39-.13.69-.4.9-.26.2-.61.3-1.03.3-.32,0-.7-.04-1.16-.13l-.22-.04.08-.59c.54.07.96.1,1.25.1.43,0,.64-.16.64-.49,0-.12-.05-.21-.15-.28s-.3-.14-.59-.22c-.47-.12-.8-.27-.99-.43-.19-.17-.29-.4-.29-.7,0-.38.13-.66.38-.84.25-.18.6-.28,1.03-.28.3,0,.68.04,1.14.11l.22.04-.07.6c-.57-.06-.98-.09-1.21-.09Z"/>
        <path class="cls-5" d="m270.26,564.08c0,.44.25.66.74.66s.74-.22.74-.66v-2.51h.84v2.49c0,.46-.13.8-.39,1.02s-.66.32-1.18.32-.92-.11-1.18-.32-.39-.55-.39-1.02v-2.49h.84v2.51Z"/>
        <path class="cls-5" d="m273.43,565.34v-3.76h.84v3.76h-.84Z"/>
        <path class="cls-5" d="m274.8,562.25v-.67h3.04v.67h-1.1v3.09h-.84v-3.09h-1.11Z"/>
        <path class="cls-5" d="m278.37,565.34v-3.76h2.68v.66h-1.84v.88h1.47v.65h-1.47v.9h1.84v.66h-2.68Z"/>
        <path class="cls-5" d="m283.02,562.17c-.44,0-.66.13-.66.4,0,.12.05.21.16.27.11.06.37.15.77.27.4.12.69.25.85.4s.24.38.24.69c0,.39-.13.69-.4.9-.26.2-.61.3-1.03.3-.32,0-.7-.04-1.16-.13l-.22-.04.08-.59c.54.07.96.1,1.25.1.43,0,.64-.16.64-.49,0-.12-.05-.21-.15-.28s-.3-.14-.59-.22c-.47-.12-.8-.27-.99-.43-.19-.17-.29-.4-.29-.7,0-.38.13-.66.38-.84.25-.18.6-.28,1.03-.28.3,0,.68.04,1.14.11l.22.04-.07.6c-.57-.06-.98-.09-1.21-.09Z"/>
      </g>
      <g>
        <path class="cls-5" d="m325.87,551.37v-.67h3.04v.67h-1.1v3.09h-.84v-3.09h-1.11Z"/>
        <path class="cls-5" d="m331.82,554.45v-1.56h-1.54v1.56h-.84v-3.76h.84v1.54h1.54v-1.54h.84v3.76h-.84Z"/>
        <path class="cls-5" d="m333.56,554.45v-3.76h2.68v.66h-1.84v.88h1.47v.65h-1.47v.9h1.84v.66h-2.68Z"/>
        <path class="cls-5" d="m320.56,560.28l.93-3.76h1.59l.93,3.76h-.84l-.16-.68h-1.45l-.16.68h-.84Zm1.58-3.13l-.42,1.79h1.13l-.42-1.79h-.29Z"/>
        <path class="cls-5" d="m323.97,557.19v-.67h3.04v.67h-1.1v3.09h-.84v-3.09h-1.11Z"/>
        <path class="cls-5" d="m328.38,559.02v1.26h-.84v-3.76h1.61c.97,0,1.46.41,1.46,1.24,0,.49-.2.85-.61,1.08l.59,1.44h-.92l-.48-1.26h-.81Zm1.22-.82c.1-.11.15-.26.15-.44s-.05-.32-.16-.43c-.1-.11-.25-.16-.45-.16h-.77v1.2h.78c.2,0,.35-.06.44-.17Z"/>
        <path class="cls-5" d="m331.32,560.28v-3.76h.84v3.76h-.84Z"/>
        <path class="cls-5" d="m333.86,559.02c0,.44.25.66.74.66s.74-.22.74-.66v-2.51h.84v2.49c0,.46-.13.8-.39,1.02s-.66.32-1.18.32-.92-.11-1.18-.32-.39-.55-.39-1.02v-2.49h.84v2.51Z"/>
        <path class="cls-5" d="m337.04,560.28v-3.76h1.43l.73,2.75.73-2.75h1.43v3.76h-.84v-2.91h-.09l-.81,2.75h-.84l-.81-2.75h-.09v2.91h-.84Z"/>
      </g>
      <g>
        <path class="cls-5" d="m205.78,520.29c-.43.08-.82.13-1.16.13s-.62-.04-.83-.12-.37-.2-.49-.37-.2-.37-.24-.6c-.04-.23-.07-.52-.07-.86,0-.73.11-1.23.34-1.52s.64-.43,1.24-.43c.35,0,.75.05,1.21.15l-.02.61c-.4-.05-.74-.08-1-.08s-.46.03-.57.1c-.11.07-.2.19-.25.37-.05.18-.08.49-.08.92s.06.74.17.91c.11.17.33.25.67.25s.69-.03,1.07-.08l.02.63Z"/>
        <path class="cls-5" d="m208.84,520.35v-1.56h-1.54v1.56h-.84v-3.76h.84v1.54h1.54v-1.54h.84v3.76h-.84Z"/>
        <path class="cls-5" d="m210.58,520.35v-3.76h.84v3.76h-.84Z"/>
        <path class="cls-5" d="m214.94,520.29c-.43.08-.82.13-1.16.13s-.62-.04-.83-.12-.37-.2-.49-.37-.2-.37-.24-.6c-.04-.23-.07-.52-.07-.86,0-.73.11-1.23.34-1.52s.64-.43,1.24-.43c.35,0,.75.05,1.21.15l-.02.61c-.4-.05-.74-.08-1-.08s-.46.03-.57.1c-.11.07-.2.19-.25.37-.05.18-.08.49-.08.92s.06.74.17.91c.11.17.33.25.67.25s.69-.03,1.07-.08l.02.63Z"/>
        <path class="cls-5" d="m215.28,520.35l.93-3.76h1.59l.93,3.76h-.84l-.16-.68h-1.45l-.16.68h-.84Zm1.58-3.13l-.42,1.79h1.13l-.42-1.79h-.29Z"/>
        <path class="cls-5" d="m219.29,520.35v-3.76h1.42l1,3.1h.06v-3.1h.84v3.76h-1.38l-1.03-3.1h-.06v3.1h-.84Z"/>
        <path class="cls-5" d="m223.5,520.35v-3.76h2.68v.66h-1.84v.88h1.47v.65h-1.47v.9h1.84v.66h-2.68Z"/>
        <path class="cls-5" d="m203.23,525.08h-.68v1.1h-.84v-3.76h1.52c.98,0,1.47.44,1.47,1.31,0,.44-.12.78-.37,1.01s-.62.35-1.1.35Zm-.68-.65h.68c.42,0,.63-.24.63-.71,0-.23-.05-.4-.15-.5-.1-.1-.26-.15-.47-.15h-.68v1.36Z"/>
        <path class="cls-5" d="m204.83,526.17l.93-3.76h1.59l.93,3.76h-.84l-.16-.68h-1.45l-.16.68h-.84Zm1.58-3.13l-.42,1.79h1.13l-.42-1.79h-.29Z"/>
        <path class="cls-5" d="m210.91,522.41h.88l-.96,3.76h-1.55l-.96-3.76h.88l.72,3.1h.27l.72-3.1Z"/>
        <path class="cls-5" d="m212.34,526.17v-3.76h.84v3.76h-.84Z"/>
        <path class="cls-5" d="m216.43,526.17h-2.35v-3.76h.84v3.09h1.51v.67Z"/>
        <path class="cls-5" d="m216.95,526.17v-3.76h.84v3.76h-.84Z"/>
        <path class="cls-5" d="m221.55,525.77c-.26.31-.7.47-1.33.47s-1.07-.16-1.33-.47c-.26-.31-.39-.8-.39-1.46s.13-1.16.39-1.48c.26-.32.7-.48,1.33-.48s1.07.16,1.33.48c.26.32.39.82.39,1.48s-.13,1.15-.39,1.46Zm-2-.49c.12.19.34.29.67.29s.55-.1.67-.29c.12-.19.18-.52.18-.97s-.06-.79-.18-.99c-.12-.21-.34-.31-.67-.31s-.55.1-.67.31c-.12.21-.18.54-.18.99s.06.78.18.97Z"/>
        <path class="cls-5" d="m222.66,526.17v-3.76h1.42l1,3.1h.06v-3.1h.84v3.76h-1.38l-1.03-3.1h-.06v3.1h-.84Z"/>
      </g>
      <g>
        <path class="cls-5" d="m451.18,477.65v-.67h3.04v.67h-1.1v3.09h-.84v-3.09h-1.11Z"/>
        <path class="cls-5" d="m457.13,480.74v-1.56h-1.54v1.56h-.84v-3.76h.84v1.54h1.54v-1.54h.84v3.76h-.84Z"/>
        <path class="cls-5" d="m458.87,480.74v-3.76h2.68v.66h-1.84v.88h1.47v.65h-1.47v.9h1.84v.66h-2.68Z"/>
        <path class="cls-5" d="m464.97,480.74h-1.39v-3.76h1.39c.36,0,.65.03.88.1.23.07.41.18.54.34.13.16.22.34.26.55.05.21.07.49.07.83s-.02.62-.07.84c-.04.22-.13.42-.25.6-.12.18-.3.3-.54.38-.24.08-.54.12-.9.12Zm.88-1.49c0-.12.01-.28.01-.49s0-.38-.02-.5c-.02-.12-.05-.24-.12-.34-.06-.1-.15-.17-.27-.21-.12-.04-.28-.06-.48-.06h-.55v2.44h.55c.3,0,.52-.07.66-.21.12-.11.19-.32.22-.62Z"/>
        <path class="cls-5" d="m467.46,480.74v-3.76h2.68v.66h-1.84v.88h1.47v.65h-1.47v.9h1.84v.66h-2.68Z"/>
        <path class="cls-5" d="m473.42,480.67c-.43.08-.82.13-1.16.13s-.62-.04-.83-.12-.37-.2-.49-.37-.2-.37-.24-.6c-.04-.23-.07-.52-.07-.86,0-.73.11-1.23.34-1.52s.64-.43,1.24-.43c.35,0,.75.05,1.21.15l-.02.61c-.4-.05-.74-.08-1-.08s-.46.03-.57.1c-.11.07-.2.19-.25.37-.05.18-.08.49-.08.92s.06.74.17.91c.11.17.33.25.67.25s.69-.03,1.07-.08l.02.63Z"/>
        <path class="cls-5" d="m474.94,480.74h-.84v-3.76h.84v1.66l.56-.06.68-1.6h.96l-.9,1.89.92,1.88h-.97l-.69-1.5-.56.06v1.44Z"/>
        <path class="cls-5" d="m484.34,479.05v.04c0,.57-.1.98-.3,1.25s-.49.4-.88.4c-.29,0-.52-.07-.71-.2-.04-.03-.07-.07-.1-.11-.32.21-.62.31-.9.31-.38,0-.67-.11-.85-.32-.19-.22-.28-.56-.28-1.05s.09-.83.26-1.06c.18-.23.48-.34.9-.34.14,0,.3.03.46.1l.09.04v-.07h.82v.99c0,.51.01.8.03.87.02.07.05.13.07.16s.05.05.08.05c.03,0,.07,0,.12,0,.13,0,.22-.07.28-.22.06-.14.09-.41.09-.81v-.05c0-.59-.15-1.02-.45-1.29-.3-.27-.77-.4-1.42-.4s-1.15.17-1.49.51c-.34.34-.52.83-.52,1.48s.15,1.12.46,1.43c.31.31.83.46,1.55.46l.87-.05.03.65c-.37.04-.67.06-.9.06-.47,0-.87-.04-1.21-.13-.34-.08-.63-.22-.88-.42-.5-.39-.74-1.08-.74-2.05,0-.85.25-1.5.76-1.93s1.2-.66,2.08-.66,1.54.2,2,.6c.45.4.68.98.68,1.75Zm-2.82,1.04c.15,0,.34-.05.55-.14-.02-.13-.04-.33-.04-.59v-.68c-.17-.04-.29-.06-.37-.06-.21,0-.35.05-.42.16-.07.11-.1.3-.1.56,0,.49.13.74.38.74Z"/>
        <path class="cls-5" d="m457.61,483.47v-.67h3.04v.67h-1.1v3.09h-.84v-3.09h-1.11Z"/>
        <path class="cls-5" d="m463.56,486.56v-1.56h-1.54v1.56h-.84v-3.76h.84v1.54h1.54v-1.54h.84v3.76h-.84Z"/>
        <path class="cls-5" d="m465.3,486.56v-3.76h.84v3.76h-.84Z"/>
        <path class="cls-5" d="m467.88,485.3v1.26h-.84v-3.76h1.61c.97,0,1.46.41,1.46,1.24,0,.49-.2.85-.61,1.08l.59,1.44h-.92l-.48-1.26h-.81Zm1.22-.82c.1-.11.15-.26.15-.44s-.05-.32-.16-.43c-.1-.11-.25-.16-.45-.16h-.77v1.2h.78c.2,0,.35-.06.44-.17Z"/>
        <path class="cls-5" d="m470.44,483.47v-.67h3.04v.67h-1.1v3.09h-.84v-3.09h-1.11Z"/>
        <path class="cls-5" d="m474.01,486.56v-3.76h2.68v.66h-1.84v.88h1.47v.65h-1.47v.9h1.84v.66h-2.68Z"/>
        <path class="cls-5" d="m477.38,486.56v-3.76h2.68v.66h-1.84v.88h1.47v.65h-1.47v.9h1.84v.66h-2.68Z"/>
        <path class="cls-5" d="m480.75,486.56v-3.76h1.42l1,3.1h.06v-3.1h.84v3.76h-1.38l-1.03-3.1h-.06v3.1h-.84Z"/>
      </g>
      <g>
        <path class="cls-5" d="m111.35,413.49v1.26h-.84v-3.76h1.61c.97,0,1.46.41,1.46,1.24,0,.49-.2.85-.61,1.08l.59,1.44h-.92l-.48-1.26h-.81Zm1.22-.82c.1-.11.15-.26.15-.44s-.05-.32-.16-.43c-.1-.11-.25-.16-.45-.16h-.77v1.2h.78c.2,0,.35-.06.44-.17Z"/>
        <path class="cls-5" d="m114.29,414.75v-3.76h.84v3.76h-.84Z"/>
        <path class="cls-5" d="m118.65,414.69c-.43.08-.82.13-1.16.13s-.62-.04-.83-.12-.37-.2-.49-.37-.2-.37-.24-.6c-.04-.23-.07-.52-.07-.86,0-.73.11-1.23.34-1.52s.64-.43,1.24-.43c.35,0,.75.05,1.21.15l-.02.61c-.4-.05-.74-.08-1-.08s-.46.03-.57.1c-.11.07-.2.19-.25.37-.05.18-.08.49-.08.92s.06.74.17.91c.11.17.33.25.67.25s.69-.03,1.07-.08l.02.63Z"/>
        <path class="cls-5" d="m121.95,414.69c-.43.08-.82.13-1.16.13s-.62-.04-.83-.12-.37-.2-.49-.37-.2-.37-.24-.6c-.04-.23-.07-.52-.07-.86,0-.73.11-1.23.34-1.52s.64-.43,1.24-.43c.35,0,.75.05,1.21.15l-.02.61c-.4-.05-.74-.08-1-.08s-.46.03-.57.1c-.11.07-.2.19-.25.37-.05.18-.08.49-.08.92s.06.74.17.91c.11.17.33.25.67.25s.69-.03,1.07-.08l.02.63Z"/>
        <path class="cls-5" d="m122.63,414.75v-3.76h.84v3.76h-.84Z"/>
        <path class="cls-5" d="m124.03,414.75l.93-3.76h1.59l.93,3.76h-.84l-.16-.68h-1.45l-.16.68h-.84Zm1.58-3.13l-.42,1.79h1.13l-.42-1.79h-.29Z"/>
        <path class="cls-5" d="m128.88,413.49v1.26h-.84v-3.76h1.61c.97,0,1.46.41,1.46,1.24,0,.49-.2.85-.61,1.08l.59,1.44h-.92l-.48-1.26h-.81Zm1.22-.82c.1-.11.15-.26.15-.44s-.05-.32-.16-.43c-.1-.11-.25-.16-.45-.16h-.77v1.2h.78c.2,0,.35-.06.44-.17Z"/>
        <path class="cls-5" d="m133.2,414.75h-1.39v-3.76h1.39c.36,0,.65.03.88.1.23.07.41.18.54.34.13.16.22.34.26.55.05.21.07.49.07.83s-.02.62-.07.84c-.04.22-.13.42-.25.6-.12.18-.3.3-.54.38-.24.08-.54.12-.9.12Zm.88-1.49c0-.12.01-.28.01-.49s0-.38-.02-.5c-.02-.12-.05-.24-.12-.34-.06-.1-.15-.17-.27-.21-.12-.04-.28-.06-.48-.06h-.55v2.44h.55c.3,0,.52-.07.66-.21.12-.11.19-.32.22-.62Z"/>
        <path class="cls-5" d="m138.55,414.35c-.26.31-.7.47-1.33.47s-1.07-.16-1.33-.47c-.26-.31-.39-.8-.39-1.46s.13-1.16.39-1.48c.26-.32.7-.48,1.33-.48s1.07.16,1.33.48c.26.32.39.82.39,1.48s-.13,1.15-.39,1.46Zm-2-.49c.12.19.34.29.67.29s.55-.1.67-.29c.12-.19.18-.52.18-.97s-.06-.79-.18-.99c-.12-.21-.34-.31-.67-.31s-.55.1-.67.31c-.12.21-.18.54-.18.99s.06.78.18.97Z"/>
        <path class="cls-5" d="m142.27,411.59c-.44,0-.66.13-.66.4,0,.12.05.21.16.27.11.06.37.15.77.27.4.12.69.25.85.4s.24.38.24.69c0,.39-.13.69-.4.9-.26.2-.61.3-1.03.3-.32,0-.7-.04-1.16-.13l-.22-.04.08-.59c.54.07.96.1,1.25.1.43,0,.64-.16.64-.49,0-.12-.05-.21-.15-.28s-.3-.14-.59-.22c-.47-.12-.8-.27-.99-.43-.19-.17-.29-.4-.29-.7,0-.38.13-.66.38-.84.25-.18.6-.28,1.03-.28.3,0,.68.04,1.14.11l.22.04-.07.6c-.57-.06-.98-.09-1.21-.09Z"/>
        <path class="cls-5" d="m145.11,413.5c0,.44.25.66.74.66s.74-.22.74-.66v-2.51h.84v2.49c0,.46-.13.8-.39,1.02s-.66.32-1.18.32-.92-.11-1.18-.32-.39-.55-.39-1.02v-2.49h.84v2.51Z"/>
        <path class="cls-5" d="m148.28,414.75v-3.76h.84v3.76h-.84Z"/>
        <path class="cls-5" d="m149.65,411.66v-.67h3.04v.67h-1.1v3.09h-.84v-3.09h-1.11Z"/>
        <path class="cls-5" d="m153.23,414.75v-3.76h2.68v.66h-1.84v.88h1.47v.65h-1.47v.9h1.84v.66h-2.68Z"/>
        <path class="cls-5" d="m157.87,411.59c-.44,0-.66.13-.66.4,0,.12.05.21.16.27.11.06.37.15.77.27.4.12.69.25.85.4s.24.38.24.69c0,.39-.13.69-.4.9-.26.2-.61.3-1.03.3-.32,0-.7-.04-1.16-.13l-.22-.04.08-.59c.54.07.96.1,1.25.1.43,0,.64-.16.64-.49,0-.12-.05-.21-.15-.28s-.3-.14-.59-.22c-.47-.12-.8-.27-.99-.43-.19-.17-.29-.4-.29-.7,0-.38.13-.66.38-.84.25-.18.6-.28,1.03-.28.3,0,.68.04,1.14.11l.22.04-.07.6c-.57-.06-.98-.09-1.21-.09Z"/>
      </g>
      <g>
        <path class="cls-5" d="m118.02,474.62v1.26h-.84v-3.76h1.61c.97,0,1.46.41,1.46,1.24,0,.49-.2.85-.61,1.08l.59,1.44h-.92l-.48-1.26h-.81Zm1.22-.82c.1-.11.15-.26.15-.44s-.05-.32-.16-.43c-.1-.11-.25-.16-.45-.16h-.77v1.2h.78c.2,0,.35-.06.44-.17Z"/>
        <path class="cls-5" d="m120.55,475.88l.93-3.76h1.59l.93,3.76h-.84l-.16-.68h-1.45l-.16.68h-.84Zm1.58-3.13l-.42,1.79h1.13l-.42-1.79h-.29Z"/>
        <path class="cls-5" d="m127.13,475.82c-.43.08-.82.13-1.16.13s-.62-.04-.83-.12-.37-.2-.49-.37-.2-.37-.24-.6c-.04-.23-.07-.52-.07-.86,0-.73.11-1.23.34-1.52s.64-.43,1.24-.43c.35,0,.75.05,1.21.15l-.02.61c-.4-.05-.74-.08-1-.08s-.46.03-.57.1c-.11.07-.2.19-.25.37-.05.18-.08.49-.08.92s.06.74.17.91c.11.17.33.25.67.25s.69-.03,1.07-.08l.02.63Z"/>
        <path class="cls-5" d="m127.81,475.88v-3.76h2.68v.66h-1.84v.88h1.47v.65h-1.47v.9h1.84v.66h-2.68Z"/>
        <path class="cls-5" d="m133.92,475.88h-1.39v-3.76h1.39c.36,0,.65.03.88.1.23.07.41.18.54.34.13.16.22.34.26.55.05.21.07.49.07.83s-.02.62-.07.84c-.04.22-.13.42-.25.6-.12.18-.3.3-.54.38-.24.08-.54.12-.9.12Zm.88-1.49c0-.12.01-.28.01-.49s0-.38-.02-.5c-.02-.12-.05-.24-.12-.34-.06-.1-.15-.17-.27-.21-.12-.04-.28-.06-.48-.06h-.55v2.44h.55c.3,0,.52-.07.66-.21.12-.11.19-.32.22-.62Z"/>
        <path class="cls-5" d="m136.4,475.88v-3.76h2.68v.66h-1.84v.88h1.47v.65h-1.47v.9h1.84v.66h-2.68Z"/>
        <path class="cls-5" d="m142.37,475.82c-.43.08-.82.13-1.16.13s-.62-.04-.83-.12-.37-.2-.49-.37-.2-.37-.24-.6c-.04-.23-.07-.52-.07-.86,0-.73.11-1.23.34-1.52s.64-.43,1.24-.43c.35,0,.75.05,1.21.15l-.02.61c-.4-.05-.74-.08-1-.08s-.46.03-.57.1c-.11.07-.2.19-.25.37-.05.18-.08.49-.08.92s.06.74.17.91c.11.17.33.25.67.25s.69-.03,1.07-.08l.02.63Z"/>
        <path class="cls-5" d="m143.89,475.88h-.84v-3.76h.84v1.66l.56-.06.68-1.6h.96l-.9,1.89.92,1.88h-.97l-.69-1.5-.56.06v1.44Z"/>
      </g>
      <g>
        <path class="cls-5" d="m31.96,448.14v1.26h-.84v-3.76h1.61c.97,0,1.46.41,1.46,1.24,0,.49-.2.85-.61,1.08l.59,1.44h-.92l-.48-1.26h-.81Zm1.22-.82c.1-.11.15-.26.15-.44s-.05-.32-.16-.43c-.1-.11-.25-.16-.45-.16h-.77v1.2h.78c.2,0,.35-.06.44-.17Z"/>
        <path class="cls-5" d="m34.9,449.4v-3.76h2.68v.66h-1.84v.88h1.47v.65h-1.47v.9h1.84v.66h-2.68Z"/>
        <path class="cls-5" d="m39.66,449.4h-1.39v-3.76h1.39c.36,0,.65.03.88.1.23.07.41.18.54.34.13.16.22.34.26.55.05.21.07.49.07.83s-.02.62-.07.84c-.04.22-.13.42-.25.6-.12.18-.3.3-.54.38-.24.08-.54.12-.9.12Zm.88-1.49c0-.12.01-.28.01-.49s0-.38-.02-.5c-.02-.12-.05-.24-.12-.34-.06-.1-.15-.17-.27-.21-.12-.04-.28-.06-.48-.06h-.55v2.44h.55c.3,0,.52-.07.66-.21.12-.11.19-.32.22-.62Z"/>
        <path class="cls-5" d="m44.5,449.4h-2.35v-3.76h.84v3.09h1.51v.67Z"/>
        <path class="cls-5" d="m45.02,449.4v-3.76h.84v3.76h-.84Z"/>
        <path class="cls-5" d="m46.76,449.4v-3.76h1.42l1,3.1h.06v-3.1h.84v3.76h-1.38l-1.03-3.1h-.06v3.1h-.84Z"/>
        <path class="cls-5" d="m50.98,449.4v-3.76h2.68v.66h-1.84v.88h1.47v.65h-1.47v.9h1.84v.66h-2.68Z"/>
      </g>
      <g>
        <path class="cls-5" d="m422.86,495h-.68v1.1h-.84v-3.76h1.52c.98,0,1.47.44,1.47,1.31,0,.44-.12.78-.37,1.01s-.62.35-1.1.35Zm-.68-.65h.68c.42,0,.63-.24.63-.71,0-.23-.05-.4-.15-.5-.1-.1-.26-.15-.47-.15h-.68v1.36Z"/>
        <path class="cls-5" d="m424.92,496.09v-3.76h.84v3.76h-.84Z"/>
        <path class="cls-5" d="m426.29,493v-.67h3.04v.67h-1.1v3.09h-.84v-3.09h-1.11Z"/>
        <path class="cls-5" d="m431.2,496.09v-3.76h2.68v.66h-1.84v.88h1.47v.65h-1.47v.9h1.84v.66h-2.68Z"/>
        <path class="cls-5" d="m434.57,496.09v-3.76h1.42l1,3.1h.06v-3.1h.84v3.76h-1.38l-1.03-3.1h-.06v3.1h-.84Z"/>
        <path class="cls-5" d="m438.42,493v-.67h3.04v.67h-1.1v3.09h-.84v-3.09h-1.11Z"/>
        <path class="cls-5" d="m442.83,494.83v1.26h-.84v-3.76h1.61c.97,0,1.46.41,1.46,1.24,0,.49-.2.85-.61,1.08l.59,1.44h-.92l-.48-1.26h-.81Zm1.22-.82c.1-.11.15-.26.15-.44s-.05-.32-.16-.43c-.1-.11-.25-.16-.45-.16h-.77v1.2h.78c.2,0,.35-.06.44-.17Z"/>
        <path class="cls-5" d="m447.29,496.09h-.84v-1.52l-1.28-2.24h.93l.76,1.5.76-1.5h.93l-1.27,2.24v1.52Z"/>
      </g>
      <g>
        <path class="cls-5" d="m322.14,496.42h-.68v1.1h-.84v-3.76h1.52c.98,0,1.47.44,1.47,1.31,0,.44-.12.78-.37,1.01s-.62.35-1.1.35Zm-.68-.65h.68c.42,0,.63-.24.63-.71,0-.23-.05-.4-.15-.5-.1-.1-.26-.15-.47-.15h-.68v1.36Z"/>
        <path class="cls-5" d="m324.2,497.51v-3.76h.84v3.76h-.84Z"/>
        <path class="cls-5" d="m325.57,494.42v-.67h3.04v.67h-1.1v3.09h-.84v-3.09h-1.11Z"/>
        <path class="cls-5" d="m330.48,497.51v-3.76h2.68v.66h-1.84v.88h1.47v.65h-1.47v.9h1.84v.66h-2.68Z"/>
        <path class="cls-5" d="m334.39,493.75l.77,1.38.78-1.38h.87l-1.19,1.92,1.19,1.84h-.93l-.77-1.3-.78,1.3h-.87l1.19-1.8-1.19-1.96h.93Z"/>
        <path class="cls-5" d="m337.31,497.51v-3.76h.84v3.76h-.84Z"/>
        <path class="cls-5" d="m338.68,494.42v-.67h3.04v.67h-1.1v3.09h-.84v-3.09h-1.11Z"/>
      </g>
      <g>
        <path class="cls-5" d="m320,474.71v1.26h-.84v-3.76h1.61c.97,0,1.46.41,1.46,1.24,0,.49-.2.85-.61,1.08l.59,1.44h-.92l-.48-1.26h-.81Zm1.22-.82c.1-.11.15-.26.15-.44s-.05-.32-.16-.43c-.1-.11-.25-.16-.45-.16h-.77v1.2h.78c.2,0,.35-.06.44-.17Z"/>
        <path class="cls-5" d="m322.93,475.97v-3.76h2.68v.66h-1.84v.88h1.47v.65h-1.47v.9h1.84v.66h-2.68Z"/>
        <path class="cls-5" d="m327.69,475.97h-1.39v-3.76h1.39c.36,0,.65.03.88.1.23.07.41.18.54.34.13.16.22.34.26.55.05.21.07.49.07.83s-.02.62-.07.84c-.04.22-.13.42-.25.6-.12.18-.3.3-.54.38-.24.08-.54.12-.9.12Zm.88-1.49c0-.12.01-.28.01-.49s0-.38-.02-.5c-.02-.12-.05-.24-.12-.34-.06-.1-.15-.17-.27-.21-.12-.04-.28-.06-.48-.06h-.55v2.44h.55c.3,0,.52-.07.66-.21.12-.11.19-.32.22-.62Z"/>
        <path class="cls-5" d="m331.52,472.2h1.62c.43,0,.75.08.97.24.21.16.32.41.32.76,0,.21-.03.38-.1.5-.07.12-.19.23-.35.33.18.07.32.17.4.3.09.13.13.32.13.55,0,.37-.12.64-.35.81s-.57.27-.99.27h-1.65v-3.76Zm1.58.65h-.74v.9h.75c.32,0,.47-.15.47-.45s-.16-.45-.48-.45Zm.02,1.54h-.77v.92h.77c.18,0,.32-.03.4-.1.09-.07.13-.19.13-.37,0-.3-.18-.45-.54-.45Z"/>
        <path class="cls-5" d="m336.03,474.71c0,.44.25.66.74.66s.74-.22.74-.66v-2.51h.84v2.49c0,.46-.13.8-.39,1.02s-.66.32-1.18.32-.92-.11-1.18-.32-.39-.55-.39-1.02v-2.49h.84v2.51Z"/>
        <path class="cls-5" d="m341.56,475.97h-2.35v-3.76h.84v3.09h1.51v.67Z"/>
        <path class="cls-5" d="m344.43,475.97h-2.35v-3.76h.84v3.09h1.51v.67Z"/>
        <path class="cls-5" d="m320.51,481.79v-3.76h2.68v.66h-1.84v.88h1.47v.65h-1.47v.9h1.84v.66h-2.68Z"/>
        <path class="cls-5" d="m323.88,481.79v-3.76h1.42l1,3.1h.06v-3.1h.84v3.76h-1.38l-1.03-3.1h-.06v3.1h-.84Z"/>
        <path class="cls-5" d="m328.1,481.79v-3.76h2.68v.66h-1.84v.88h1.47v.65h-1.47v.9h1.84v.66h-2.68Z"/>
        <path class="cls-5" d="m332.31,480.53v1.26h-.84v-3.76h1.61c.97,0,1.46.41,1.46,1.24,0,.49-.2.85-.61,1.08l.59,1.44h-.92l-.48-1.26h-.81Zm1.22-.82c.1-.11.15-.26.15-.44s-.05-.32-.16-.43c-.1-.11-.25-.16-.45-.16h-.77v1.2h.78c.2,0,.35-.06.44-.17Z"/>
        <path class="cls-5" d="m336.96,480.44v-.66h1.21v1.95c-.58.08-1.05.13-1.41.13-.65,0-1.09-.16-1.33-.47s-.36-.81-.36-1.49.13-1.18.38-1.48c.25-.3.68-.45,1.28-.45.38,0,.79.04,1.22.12l.22.04-.02.59c-.49-.05-.89-.07-1.2-.07s-.53.03-.65.1c-.13.07-.22.19-.28.37-.06.18-.09.49-.09.92s.06.74.18.91c.12.17.36.26.73.26l.5-.02v-.73h-.38Z"/>
        <path class="cls-5" d="m340.53,481.79h-.84v-1.52l-1.28-2.24h.93l.76,1.5.76-1.5h.93l-1.27,2.24v1.52Z"/>
        <path class="cls-5" d="m321.9,484.45c-.44,0-.66.13-.66.4,0,.12.05.21.16.27.11.06.37.15.77.27.4.12.69.25.85.4s.24.38.24.69c0,.39-.13.69-.4.9-.26.2-.61.3-1.03.3-.32,0-.7-.04-1.16-.13l-.22-.04.08-.59c.54.07.96.1,1.25.1.43,0,.64-.16.64-.49,0-.12-.05-.21-.15-.28s-.3-.14-.59-.22c-.47-.12-.8-.27-.99-.43-.19-.17-.29-.4-.29-.7,0-.38.13-.66.38-.84.25-.18.6-.28,1.03-.28.3,0,.68.04,1.14.11l.22.04-.07.6c-.57-.06-.98-.09-1.21-.09Z"/>
        <path class="cls-5" d="m323.57,484.53v-.67h3.04v.67h-1.1v3.09h-.84v-3.09h-1.11Z"/>
        <path class="cls-5" d="m326.57,487.62l.93-3.76h1.59l.93,3.76h-.84l-.16-.68h-1.45l-.16.68h-.84Zm1.58-3.13l-.42,1.79h1.13l-.42-1.79h-.29Z"/>
        <path class="cls-5" d="m329.98,484.53v-.67h3.04v.67h-1.1v3.09h-.84v-3.09h-1.11Z"/>
        <path class="cls-5" d="m333.55,487.62v-3.76h.84v3.76h-.84Z"/>
        <path class="cls-5" d="m338.15,487.22c-.26.31-.7.47-1.33.47s-1.07-.16-1.33-.47c-.26-.31-.39-.8-.39-1.46s.13-1.16.39-1.48c.26-.32.7-.48,1.33-.48s1.07.16,1.33.48c.26.32.39.82.39,1.48s-.13,1.15-.39,1.46Zm-2-.49c.12.19.34.29.67.29s.55-.1.67-.29c.12-.19.18-.52.18-.97s-.06-.79-.18-.99c-.12-.21-.34-.31-.67-.31s-.55.1-.67.31c-.12.21-.18.54-.18.99s.06.78.18.97Z"/>
        <path class="cls-5" d="m339.26,487.62v-3.76h1.42l1,3.1h.06v-3.1h.84v3.76h-1.38l-1.03-3.1h-.06v3.1h-.84Z"/>
      </g>
      <g>
        <path class="cls-5" d="m194.27,320.09v-.67h2.77v.67h-1v3.09h-.76v-3.09h-1.01Z"/>
        <path class="cls-5" d="m197.69,319.73c.24-.17.56-.26.96-.26s.73.09.97.27c.25.18.37.42.37.74,0,.21-.03.38-.08.48-.05.11-.16.23-.32.35.16.14.28.27.35.39.07.12.1.29.1.5,0,.36-.13.63-.39.8-.26.17-.6.26-1.01.26-.92,0-1.38-.33-1.38-1,0-.24.04-.42.11-.55.07-.13.19-.26.35-.4-.15-.12-.26-.25-.32-.37s-.08-.28-.08-.47c0-.31.12-.56.36-.73Zm.4,2.35c0,.33.19.49.57.49s.57-.16.57-.49c0-.19-.11-.33-.33-.42h-.49c-.22.08-.33.22-.33.42Zm.58-1.93c-.17,0-.29.04-.38.11-.09.07-.13.19-.13.34s.09.29.27.42h.49c.18-.12.27-.27.27-.43,0-.29-.17-.43-.51-.43Z"/>
        <path class="cls-5" d="m203.98,323.18h-2.14v-3.76h.76v3.09h1.38v.67Z"/>
        <path class="cls-5" d="m204.14,323.18l.85-3.76h1.45l.85,3.76h-.76l-.15-.68h-1.32l-.15.68h-.76Zm1.44-3.13l-.38,1.79h1.03l-.38-1.79h-.27Z"/>
        <path class="cls-5" d="m208.55,323.18h-.76v-3.76h.76v1.66l.51-.06.62-1.6h.87l-.82,1.89.84,1.88h-.88l-.63-1.5-.51.06v1.44Z"/>
        <path class="cls-5" d="m211.07,323.18v-3.76h2.44v.66h-1.67v.88h1.34v.65h-1.34v.9h1.67v.66h-2.44Z"/>
        <path class="cls-5" d="m215.29,320.02c-.4,0-.6.13-.6.4,0,.12.05.21.15.27.1.06.33.15.7.27.37.12.62.25.77.4.15.15.22.38.22.69,0,.39-.12.69-.36.9-.24.2-.55.3-.94.3-.29,0-.64-.04-1.06-.13l-.2-.04.08-.59c.49.07.87.1,1.13.1.39,0,.59-.16.59-.49,0-.12-.04-.21-.14-.28-.09-.07-.27-.14-.54-.22-.43-.12-.73-.27-.9-.43s-.26-.4-.26-.7c0-.38.11-.66.34-.84.23-.18.54-.28.94-.28.27,0,.62.04,1.04.11l.2.04-.06.6c-.52-.06-.89-.09-1.1-.09Z"/>
        <path class="cls-5" d="m217.14,323.18v-3.76h.76v3.76h-.76Z"/>
        <path class="cls-5" d="m220,323.18h-1.27v-3.76h1.27c.32,0,.59.03.8.1.21.07.37.18.49.34.12.16.2.34.24.55.04.21.07.49.07.83s-.02.62-.06.84-.12.42-.23.6c-.11.18-.28.3-.49.38-.21.08-.49.12-.82.12Zm.8-1.49c0-.12.01-.28.01-.49s0-.38-.02-.5c-.02-.12-.05-.24-.11-.34-.06-.1-.14-.17-.25-.21-.11-.04-.26-.06-.44-.06h-.5v2.44h.5c.28,0,.48-.07.6-.21.11-.11.17-.32.2-.62Z"/>
        <path class="cls-5" d="m222.26,323.18v-3.76h2.44v.66h-1.67v.88h1.34v.65h-1.34v.9h1.67v.66h-2.44Z"/>
      </g>
      <g>
        <path class="cls-5" d="m252.67,460.44h-2.35v-3.76h.84v3.09h1.51v.67Z"/>
        <path class="cls-5" d="m252.84,460.44l.93-3.76h1.59l.93,3.76h-.84l-.16-.68h-1.45l-.16.68h-.84Zm1.58-3.13l-.42,1.79h1.13l-.42-1.79h-.29Z"/>
        <path class="cls-5" d="m257.69,460.44h-.84v-3.76h.84v1.66l.56-.06.68-1.6h.96l-.9,1.89.92,1.88h-.97l-.69-1.5-.56.06v1.44Z"/>
        <path class="cls-5" d="m260.45,460.44v-3.76h2.68v.66h-1.84v.88h1.47v.65h-1.47v.9h1.84v.66h-2.68Z"/>
        <path class="cls-5" d="m265.1,457.28c-.44,0-.66.13-.66.4,0,.12.05.21.16.27.11.06.37.15.77.27.4.12.69.25.85.4s.24.38.24.69c0,.39-.13.69-.4.9-.26.2-.61.3-1.03.3-.32,0-.7-.04-1.16-.13l-.22-.04.08-.59c.54.07.96.1,1.25.1.43,0,.64-.16.64-.49,0-.12-.05-.21-.15-.28s-.3-.14-.59-.22c-.47-.12-.8-.27-.99-.43-.19-.17-.29-.4-.29-.7,0-.38.13-.66.38-.84.25-.18.6-.28,1.03-.28.3,0,.68.04,1.14.11l.22.04-.07.6c-.57-.06-.98-.09-1.21-.09Z"/>
        <path class="cls-5" d="m267.13,460.44v-3.76h.84v3.76h-.84Z"/>
        <path class="cls-5" d="m270.27,460.44h-1.39v-3.76h1.39c.36,0,.65.03.88.1.23.07.41.18.54.34.13.16.22.34.26.55.05.21.07.49.07.83s-.02.62-.07.84c-.04.22-.13.42-.25.6-.12.18-.3.3-.54.38-.24.08-.54.12-.9.12Zm.88-1.49c0-.12.01-.28.01-.49s0-.38-.02-.5c-.02-.12-.05-.24-.12-.34-.06-.1-.15-.17-.27-.21-.12-.04-.28-.06-.48-.06h-.55v2.44h.55c.3,0,.52-.07.66-.21.12-.11.19-.32.22-.62Z"/>
        <path class="cls-5" d="m272.76,460.44v-3.76h2.68v.66h-1.84v.88h1.47v.65h-1.47v.9h1.84v.66h-2.68Z"/>
        <path class="cls-5" d="m278.74,457.28c-.44,0-.66.13-.66.4,0,.12.05.21.16.27.11.06.37.15.77.27.4.12.69.25.85.4s.24.38.24.69c0,.39-.13.69-.4.9-.26.2-.61.3-1.03.3-.32,0-.7-.04-1.16-.13l-.22-.04.08-.59c.54.07.96.1,1.25.1.43,0,.64-.16.64-.49,0-.12-.05-.21-.15-.28s-.3-.14-.59-.22c-.47-.12-.8-.27-.99-.43-.19-.17-.29-.4-.29-.7,0-.38.13-.66.38-.84.25-.18.6-.28,1.03-.28.3,0,.68.04,1.14.11l.22.04-.07.6c-.57-.06-.98-.09-1.21-.09Z"/>
        <path class="cls-5" d="m280.4,457.35v-.67h3.04v.67h-1.1v3.09h-.84v-3.09h-1.11Z"/>
        <path class="cls-5" d="m284.78,459.19c0,.44.25.66.74.66s.74-.22.74-.66v-2.51h.84v2.49c0,.46-.13.8-.39,1.02s-.66.32-1.18.32-.92-.11-1.18-.32-.39-.55-.39-1.02v-2.49h.84v2.51Z"/>
        <path class="cls-5" d="m289.35,460.44h-1.39v-3.76h1.39c.36,0,.65.03.88.1.23.07.41.18.54.34.13.16.22.34.26.55.05.21.07.49.07.83s-.02.62-.07.84c-.04.22-.13.42-.25.6-.12.18-.3.3-.54.38-.24.08-.54.12-.9.12Zm.88-1.49c0-.12.01-.28.01-.49s0-.38-.02-.5c-.02-.12-.05-.24-.12-.34-.06-.1-.15-.17-.27-.21-.12-.04-.28-.06-.48-.06h-.55v2.44h.55c.3,0,.52-.07.66-.21.12-.11.19-.32.22-.62Z"/>
        <path class="cls-5" d="m291.84,460.44v-3.76h.84v3.76h-.84Z"/>
        <path class="cls-5" d="m296.44,460.04c-.26.31-.7.47-1.33.47s-1.07-.16-1.33-.47c-.26-.31-.39-.8-.39-1.46s.13-1.16.39-1.48c.26-.32.7-.48,1.33-.48s1.07.16,1.33.48c.26.32.39.82.39,1.48s-.13,1.15-.39,1.46Zm-2-.49c.12.19.34.29.67.29s.55-.1.67-.29c.12-.19.18-.52.18-.97s-.06-.79-.18-.99c-.12-.21-.34-.31-.67-.31s-.55.1-.67.31c-.12.21-.18.54-.18.99s.06.78.18.97Z"/>
        <path class="cls-5" d="m255.48,466.27l.93-3.76h1.59l.93,3.76h-.84l-.16-.68h-1.45l-.16.68h-.84Zm1.58-3.13l-.42,1.79h1.13l-.42-1.79h-.29Z"/>
        <path class="cls-5" d="m258.89,463.18v-.67h3.04v.67h-1.1v3.09h-.84v-3.09h-1.11Z"/>
        <path class="cls-5" d="m266.42,466.21c-.43.08-.82.13-1.16.13s-.62-.04-.83-.12-.37-.2-.49-.37-.2-.37-.24-.6c-.04-.23-.07-.52-.07-.86,0-.73.11-1.23.34-1.52s.64-.43,1.24-.43c.35,0,.75.05,1.21.15l-.02.61c-.4-.05-.74-.08-1-.08s-.46.03-.57.1c-.11.07-.2.19-.25.37-.05.18-.08.49-.08.92s.06.74.17.91c.11.17.33.25.67.25s.69-.03,1.07-.08l.02.63Z"/>
        <path class="cls-5" d="m266.75,466.27l.93-3.76h1.59l.93,3.76h-.84l-.16-.68h-1.45l-.16.68h-.84Zm1.58-3.13l-.42,1.79h1.13l-.42-1.79h-.29Z"/>
        <path class="cls-5" d="m271.6,465.01v1.26h-.84v-3.76h1.61c.97,0,1.46.41,1.46,1.24,0,.49-.2.85-.61,1.08l.59,1.44h-.92l-.48-1.26h-.81Zm1.22-.82c.1-.11.15-.26.15-.44s-.05-.32-.16-.43c-.1-.11-.25-.16-.45-.16h-.77v1.2h.78c.2,0,.35-.06.44-.17Z"/>
        <path class="cls-5" d="m277.4,465.87c-.26.31-.7.47-1.33.47s-1.07-.16-1.33-.47c-.26-.31-.39-.8-.39-1.46s.13-1.16.39-1.48c.26-.32.7-.48,1.33-.48s1.07.16,1.33.48c.26.32.39.82.39,1.48s-.13,1.15-.39,1.46Zm-2-.49c.12.19.34.29.67.29s.55-.1.67-.29c.12-.19.18-.52.18-.97s-.06-.79-.18-.99c-.12-.21-.34-.31-.67-.31s-.55.1-.67.31c-.12.21-.18.54-.18.99s.06.78.18.97Z"/>
        <path class="cls-5" d="m279.31,465.01c0,.44.25.66.74.66s.74-.22.74-.66v-2.51h.84v2.49c0,.46-.13.8-.39,1.02s-.66.32-1.18.32-.92-.11-1.18-.32-.39-.55-.39-1.02v-2.49h.84v2.51Z"/>
        <path class="cls-5" d="m283.75,463.1c-.44,0-.66.13-.66.4,0,.12.05.21.16.27.11.06.37.15.77.27.4.12.69.25.85.4s.24.38.24.69c0,.39-.13.69-.4.9-.26.2-.61.3-1.03.3-.32,0-.7-.04-1.16-.13l-.22-.04.08-.59c.54.07.96.1,1.25.1.43,0,.64-.16.64-.49,0-.12-.05-.21-.15-.28s-.3-.14-.59-.22c-.47-.12-.8-.27-.99-.43-.19-.17-.29-.4-.29-.7,0-.38.13-.66.38-.84.25-.18.6-.28,1.03-.28.3,0,.68.04,1.14.11l.22.04-.07.6c-.57-.06-.98-.09-1.21-.09Z"/>
        <path class="cls-5" d="m285.79,466.27v-3.76h2.68v.66h-1.84v.88h1.47v.65h-1.47v.9h1.84v.66h-2.68Z"/>
        <path class="cls-5" d="m291.52,466.27h-2.35v-3.76h.84v3.09h1.51v.67Z"/>
      </g>
      <g>
        <path class="cls-5" d="m353.2,488.15v-.67h3.04v.67h-1.1v3.09h-.84v-3.09h-1.11Z"/>
        <path class="cls-5" d="m359.6,490.84c-.26.31-.7.47-1.33.47s-1.07-.16-1.33-.47c-.26-.31-.39-.8-.39-1.46s.13-1.16.39-1.48c.26-.32.7-.48,1.33-.48s1.07.16,1.33.48c.26.32.39.82.39,1.48s-.13,1.15-.39,1.46Zm-2-.49c.12.19.34.29.67.29s.55-.1.67-.29c.12-.19.18-.52.18-.97s-.06-.79-.18-.99c-.12-.21-.34-.31-.67-.31s-.55.1-.67.31c-.12.21-.18.54-.18.99s.06.78.18.97Z"/>
        <path class="cls-5" d="m361.54,489.98v1.26h-.84v-3.76h1.61c.97,0,1.46.41,1.46,1.24,0,.49-.2.85-.61,1.08l.59,1.44h-.92l-.48-1.26h-.81Zm1.22-.82c.1-.11.15-.26.15-.44s-.05-.32-.16-.43c-.1-.11-.25-.16-.45-.16h-.77v1.2h.78c.2,0,.35-.06.44-.17Z"/>
        <path class="cls-5" d="m366.01,491.3c-.63,0-1.08-.16-1.33-.46-.26-.31-.38-.8-.38-1.46s.13-1.16.39-1.48c.26-.32.7-.48,1.33-.48s1.07.16,1.33.48c.26.32.39.82.39,1.49,0,.82-.21,1.37-.64,1.65l.5.74-.77.33-.55-.81s-.13.02-.27.02Zm-.67-.95c.12.19.34.29.67.29s.55-.1.67-.29c.12-.19.18-.52.18-.97s-.06-.79-.18-1c-.12-.21-.34-.31-.67-.31s-.55.1-.67.31c-.12.21-.18.54-.18,1s.06.78.18.97Z"/>
        <path class="cls-5" d="m369.24,489.98c0,.44.25.66.74.66s.74-.22.74-.66v-2.51h.84v2.49c0,.46-.13.8-.39,1.02s-.66.32-1.18.32-.92-.11-1.18-.32-.39-.55-.39-1.02v-2.49h.84v2.51Z"/>
        <path class="cls-5" d="m372.42,491.24v-3.76h2.68v.66h-1.84v.88h1.47v.65h-1.47v.9h1.84v.66h-2.68Z"/>
        <path class="cls-5" d="m359.8,493.3h1.62c.43,0,.75.08.97.24.21.16.32.41.32.76,0,.21-.03.38-.1.5-.07.12-.19.23-.35.33.18.07.32.17.4.3.09.13.13.32.13.55,0,.37-.12.64-.35.81s-.57.27-.99.27h-1.65v-3.76Zm1.58.65h-.74v.9h.75c.32,0,.47-.15.47-.45s-.16-.45-.48-.45Zm.02,1.54h-.77v.92h.77c.18,0,.32-.03.4-.1.09-.07.13-.19.13-.37,0-.3-.18-.45-.54-.45Z"/>
        <path class="cls-5" d="m363.11,497.06l.93-3.76h1.59l.93,3.76h-.84l-.16-.68h-1.45l-.16.68h-.84Zm1.58-3.13l-.42,1.79h1.13l-.42-1.79h-.29Z"/>
        <path class="cls-5" d="m367.96,495.8v1.26h-.84v-3.76h1.61c.97,0,1.46.41,1.46,1.24,0,.49-.2.85-.61,1.08l.59,1.44h-.92l-.48-1.26h-.81Zm1.22-.82c.1-.11.15-.26.15-.44s-.05-.32-.16-.43c-.1-.11-.25-.16-.45-.16h-.77v1.2h.78c.2,0,.35-.06.44-.17Z"/>
      </g>
      <line class="cls-3" x1="348.06" y1="499.08" x2="342.45" y2="488.41"/>
      <g>
        <path class="cls-5" d="m292.07,505.54c.37-.14.78-.22,1.24-.24.46-.01.8.06,1.01.21.22.15.33.41.34.76s-.14.63-.44.83c.2.09.34.19.42.29.09.1.13.26.14.49.01.39-.09.69-.3.89-.21.2-.56.3-1.03.32-.35,0-.73-.03-1.12-.11l-.2-.04.03-.58c.46.06.84.08,1.15.07.42-.01.62-.18.61-.5,0-.14-.06-.24-.17-.32-.11-.08-.25-.11-.43-.11l-.81.02-.02-.63.81-.02c.13,0,.25-.06.35-.17s.15-.22.15-.35c0-.26-.21-.39-.61-.38-.28,0-.58.04-.89.1l-.16.03-.07-.56Z"/>
        <path class="cls-5" d="m295.47,505.44c.37-.14.78-.22,1.24-.24.46-.01.8.06,1.01.21.22.15.33.41.34.76s-.14.63-.44.83c.2.09.34.19.42.29.09.1.13.26.14.49.01.39-.09.69-.3.89-.21.2-.56.3-1.03.32-.35,0-.73-.03-1.12-.11l-.2-.04.03-.58c.46.06.84.08,1.15.07.42-.01.62-.18.61-.5,0-.14-.06-.24-.17-.32-.11-.08-.25-.11-.43-.11l-.81.02-.02-.63.81-.02c.13,0,.25-.06.35-.17s.15-.22.15-.35c0-.26-.21-.39-.61-.38-.28,0-.58.04-.89.1l-.16.03-.07-.56Z"/>
        <path class="cls-5" d="m299.05,505.6c.25-.31.64-.47,1.15-.49.52-.01.91.12,1.18.42.27.3.42.78.44,1.45.02.67-.1,1.15-.35,1.45-.25.3-.64.45-1.15.47s-.91-.12-1.18-.4c-.27-.28-.41-.76-.43-1.43-.02-.67.1-1.16.35-1.47Zm1.9,1.39c-.01-.46-.08-.77-.19-.95-.11-.18-.29-.27-.54-.26-.25,0-.42.11-.53.29-.1.19-.15.51-.13.96s.08.77.19.95c.11.18.3.26.54.26.25,0,.42-.1.52-.29.1-.18.14-.5.13-.96Z"/>
        <path class="cls-5" d="m306.42,508.59c-.43.1-.81.15-1.16.16-.35,0-.62-.02-.83-.09-.21-.07-.38-.19-.5-.36s-.21-.36-.26-.59c-.05-.23-.08-.51-.09-.86-.02-.73.08-1.24.29-1.53.22-.29.63-.45,1.23-.46.35,0,.75.03,1.21.11v.61c-.41-.04-.74-.06-1.01-.05s-.45.04-.57.11c-.11.07-.19.19-.24.38-.05.18-.07.49-.06.93s.08.74.19.9c.12.16.34.24.68.23.33,0,.69-.05,1.06-.11l.04.62Z"/>
        <path class="cls-5" d="m309.45,508.56l-2.35.07-.11-3.76.84-.02.09,3.09,1.51-.04.02.67Z"/>
        <path class="cls-5" d="m310.7,507.27c.01.44.26.65.76.64.49-.01.73-.24.72-.68l-.07-2.51.84-.02.07,2.49c.01.46-.11.8-.36,1.03-.26.22-.65.34-1.17.36-.53.02-.93-.08-1.19-.29-.27-.21-.41-.54-.42-1l-.07-2.49.84-.02.07,2.51Z"/>
        <path class="cls-5" d="m313.81,504.67l1.62-.05c.43-.01.75.06.97.21.22.15.33.4.35.75,0,.21-.02.38-.09.5s-.18.24-.34.34c.18.07.32.16.41.29.09.13.14.31.15.55.01.37-.1.64-.33.82-.23.18-.56.28-.98.29l-1.65.05-.11-3.76Zm1.6.61l-.74.02.03.9.75-.02c.32,0,.47-.16.46-.46,0-.3-.17-.44-.49-.43Zm.07,1.54l-.77.02.03.92.77-.02c.18,0,.32-.04.4-.11.09-.07.13-.19.12-.37,0-.3-.19-.45-.55-.44Z"/>
      </g>
    </g>
  </g>
  <g id="grandstands">
    <g id="Albert_Park" data-name="Albert Park">
      <g id="Paddock_Club" data-name="Paddock Club">
        <path idGrandstand="14427" class="cls-5" d="m378.09,508.8c2.4,0,4.35-1.95,4.35-4.35s-1.95-4.35-4.35-4.35-4.35,1.95-4.35,4.35,1.95,4.35,4.35,4.35Z"/>
      </g>
      <g id="The_Apex" data-name="The Apex">
        <path idGrandstand="18807" class="cls-5" d="m551.71,474.39c2.4,0,4.35-1.95,4.35-4.35s-1.95-4.35-4.35-4.35-4.35,1.95-4.35,4.35,1.95,4.35,4.35,4.35Z"/>
      </g>
      <g id="RaceCube">
        <path idGrandstand="12237" class="cls-5" d="m569.06,452.58c2.4,0,4.35-1.95,4.35-4.35s-1.95-4.35-4.35-4.35-4.35,1.95-4.35,4.35,1.95,4.35,4.35,4.35Z"/>
      </g>
      <g id="The_lounge" data-name="The lounge">
        <path idGrandstand="12197" class="cls-5" d="m355.18,484.67c2.4,0,4.35-1.95,4.35-4.35s-1.95-4.35-4.35-4.35-4.35,1.95-4.35,4.35,1.95,4.35,4.35,4.35Z"/>
      </g>
      <g id="Torque_Bar" data-name="Torque Bar">
        <path idGrandstand="12627" class="cls-5" d="m364.11,507.27c2.4,0,4.35-1.95,4.35-4.35s-1.95-4.35-4.35-4.35-4.35,1.95-4.35,4.35,1.95,4.35,4.35,4.35Z"/>
      </g>
      <g id="Brabham_suite" data-name="Brabham suite">
        <path idGrandstand="18747" class="cls-5" d="m277.83,505.74c2.4,0,4.35-1.95,4.35-4.35s-1.95-4.35-4.35-4.35-4.35,1.95-4.35,4.35,1.95,4.35,4.35,4.35Z"/>
      </g>
      <g id="The_park" data-name="The park">
        <path idGrandstand="12217" class="cls-5" d="m499.85,394.23c2.4,0,4.35-1.95,4.35-4.35s-1.95-4.35-4.35-4.35-4.35,1.95-4.35,4.35,1.95,4.35,4.35,4.35Z"/>
      </g>
      <g id="Jones_Suites" data-name="Jones Suites">
        <path idGrandstand="18787" class="cls-5" d="m266.13,559.84c2.4,0,4.35-1.95,4.35-4.35s-1.95-4.35-4.35-4.35-4.35,1.95-4.35,4.35,1.95,4.35,4.35,4.35Z"/>
      </g>
      <g id="The_Atrium" data-name="The Atrium">
        <path idGrandstand="18737" class="cls-5" d="m330.99,548.21c2.4,0,4.35-1.95,4.35-4.35s-1.95-4.35-4.35-4.35-4.35,1.95-4.35,4.35,1.95,4.35,4.35,4.35Z"/>
      </g>
      <g id="Chicane_Pavillon_Lower" data-name="Chicane Pavillon Lower">
        <path idGrandstand="14457" class="cls-5" d="m233.47,524.7c2.4,0,4.35-1.95,4.35-4.35s-1.95-4.35-4.35-4.35-4.35,1.95-4.35,4.35,1.95,4.35,4.35,4.35Z"/>
      </g>
      <g id="THE_DECK_THIRTEEN" data-name="THE DECK@ THIRTEEN">
        <path idGrandstand="18757" class="cls-5" d="m476.43,495.06c0-2.4,1.95-4.35,4.35-4.35s4.35,1.95,4.35,4.35-1.95,4.35-4.35,4.35-4.35-1.95-4.35-4.35Z"/>
      </g>
      <g id="ricciardo_suites" data-name="ricciardo suites">
        <path idGrandstand="18767" class="cls-5" d="m103.75,417.33c2.4,0,4.35-1.95,4.35-4.35s-1.95-4.35-4.35-4.35-4.35,1.95-4.35,4.35,1.95,4.35,4.35,4.35Z"/>
      </g>
      <g id="Race_Deck" data-name="Race Deck">
        <path idGrandstand="18767-2" data-name="idGrandstand18767" class="cls-5" d="m131.47,486.54c2.4,0,4.35-1.95,4.35-4.35s-1.95-4.35-4.35-4.35-4.35,1.95-4.35,4.35,1.95,4.35,4.35,4.35Z"/>
      </g>
      <g id="redline">
        <path idGrandstand="18727" class="cls-5" d="m61.07,451.64c2.4,0,4.35-1.95,4.35-4.35s-1.95-4.35-4.35-4.35-4.35,1.95-4.35,4.35,1.95,4.35,4.35,4.35Z"/>
      </g>
      <g id="Pit_Entry" data-name="Pit Entry">
        <path idGrandstand="18817" class="cls-5" d="m430.38,502.92c0-2.4,1.95-4.35,4.35-4.35s4.35,1.95,4.35,4.35-1.95,4.35-4.35,4.35-4.35-1.95-4.35-4.35Z"/>
      </g>
      <g id="Pit_Exit" data-name="Pit Exit">
        <path idGrandstand="18717" class="cls-5" d="m335.34,507.27c2.4,0,4.35-1.95,4.35-4.35s-1.95-4.35-4.35-4.35-4.35,1.95-4.35,4.35,1.95,4.35,4.35,4.35Z"/>
      </g>
      <g id="Senna">
        <polygon idGrandstand="9785" class="cls-5" points="492.42 545.47 492.34 540.98 492.27 536.73 431.58 538.03 431.73 546.77 492.42 545.47"/>
      </g>
      <g id="Fangio">
        <polygon idGrandstand="9765" class="cls-5" points="422.71 547.27 422.56 538.54 338.82 539.89 338.98 548.63 422.71 547.27"/>
      </g>
      <g id="Jones">
        <rect idGrandstand="9745" class="cls-5" x="253.73" y="541.17" width="24.8" height="8.74" transform="translate(-9.47 4.72) rotate(-1)"/>
      </g>
      <g id="Prost">
        <path idGrandstand="9795" class="cls-5" d="m516.03,524.72l-7.05-5.17s-13.42,17.18-16.71,17.18l.15,8.74c5.38,0,8.68-3.85,8.68-3.85l14.92-16.9Z"/>
      </g>
      <g id="Schumacher">
        <rect idGrandstand="9805" class="cls-5" x="509.79" y="498.38" width="8.74" height="17.79"/>
      </g>
      <g id="Lauda">
        <rect idGrandstand="19727" class="cls-5" x="577.06" y="498.02" width="17.79" height="8.74" transform="translate(-182.88 570.51) rotate(-45.67)"/>
      </g>
      <g id="Stewart">
        <rect idGrandstand="19737" class="cls-5" x="24.06" y="372.45" width="25.04" height="8.74" transform="translate(-335.47 306.71) rotate(-73.78)"/>
      </g>
      <g id="Hill">
        <rect idGrandstand="21628" class="cls-5" x="50.04" y="456.84" width="28.55" height="8.74" transform="translate(-338.14 226.94) rotate(-51.86)"/>
      </g>
      <g id="Waite">
        <rect idGrandstand="9815" class="cls-5" x="380.15" y="370.22" width="36.04" height="8.74" transform="translate(-143.41 449.02) rotate(-51.08)"/>
      </g>
      <g id="Brabham">
        <rect idGrandstand="9855" class="cls-5" x="264.44" y="495.29" width="8.74" height="21.35" transform="translate(-279.04 338.29) rotate(-45)"/>
      </g>
      <g id="Webber">
        <polygon idGrandstand="9775" class="cls-5" points="554.64 421.01 571 443.88 578.19 438.91 561.82 416.04 554.64 421.01"/>
      </g>
      <g id="Moss">
        <rect idGrandstand="9755" class="cls-5" x="293.44" y="539.89" width="24.8" height="8.74" transform="translate(-9.4 5.39) rotate(-.99)"/>
      </g>
      <g id="Ricciardo">
        <rect idGrandstand="9835" class="cls-5" x="91.45" y="407.84" width="8.74" height="24.8" transform="translate(-288.8 225.67) rotate(-50.32)"/>
      </g>
      <g id="Button">
        <rect idGrandstand="20157" class="cls-5" x="162.69" y="226.51" width="8.98" height="37.02" transform="translate(-95.24 383.31) rotate(-83.48)"/>
      </g>
      <g id="Slipstream">
        <path idGrandstand="19187" class="cls-5" d="m436.05,413.27c2.47,0,4.47-2,4.47-4.47s-2-4.47-4.47-4.47-4.47,2-4.47,4.47,2,4.47,4.47,4.47Z"/>
      </g>
      <g id="T8_Lakeside" data-name="T8 Lakeside">
        <path idGrandstand="21678" class="cls-5" d="m209.56,317.13c2.47,0,4.47-2,4.47-4.47s-2-4.47-4.47-4.47-4.47,2-4.47,4.47,2,4.47,4.47,4.47Z"/>
      </g>
      <g id="Lakeside_Studio_At_Carousel" data-name="Lakeside Studio At Carousel">
        <path idGrandstand="21658" class="cls-5" d="m244.4,465.68c2.47,0,4.47-2,4.47-4.47s-2-4.47-4.47-4.47-4.47,2-4.47,4.47,2,4.47,4.47,4.47Z"/>
      </g>
      <g id="Red_Bull_Energy_Station" data-name="Red Bull Energy Station">
        <path idGrandstand="21688" class="cls-5" d="m349.73,507.39c2.47,0,4.47-2,4.47-4.47s-2-4.47-4.47-4.47-4.47,2-4.47,4.47,2,4.47,4.47,4.47Z"/>
      </g>
      <g id="Vettel">
        <rect idGrandstand="21638" class="cls-5" x="577.19" y="375.93" width="8.98" height="37.02" transform="translate(-38.97 724.19) rotate(-62.12)"/>
      </g>
      <g id="Clark">
        <rect idGrandstand="61987" class="cls-5" x="239.7" y="278.78" width="8.98" height="37.02" transform="translate(-121.26 177.06) rotate(-32.39)"/>
      </g>
    </g>
    <g id="_330_Club" data-name="330 Club">
      <polygon idGrandstand="22578" class="cls-5" points="286.52 513.06 286.87 521.79 324.14 520.82 323.79 512.08 286.52 513.06"/>
    </g>
  </g>
  <g id="gs_names" data-name="gs names">
    <g>
      <path class="cls-5" d="m359,368.47h1.31l.76,5.06h.14l1.1-5.06h1.44l1.1,5.06h.14l.76-5.06h1.31l-1.17,6.12h-1.88l-.96-4.65-.96,4.65h-1.88l-1.17-6.12Z"/>
      <path class="cls-5" d="m367.18,374.59l1.38-6.12h2.36l1.38,6.12h-1.24l-.24-1.11h-2.14l-.24,1.11h-1.24Zm2.34-5.09l-.62,2.91h1.67l-.62-2.91h-.43Z"/>
      <path class="cls-5" d="m373.12,374.59v-6.12h1.24v6.12h-1.24Z"/>
      <path class="cls-5" d="m375.14,369.56v-1.1h4.5v1.1h-1.62v5.02h-1.24v-5.02h-1.64Z"/>
      <path class="cls-5" d="m380.42,374.59v-6.12h3.96v1.08h-2.72v1.43h2.18v1.06h-2.18v1.47h2.72v1.08h-3.96Z"/>
    </g>
    <g>
      <path class="cls-5" d="m583.49,379.41h1.31l-1.42,6.12h-2.29l-1.42-6.12h1.31l1.06,5.04h.4l1.06-5.04Z"/>
      <path class="cls-5" d="m585.61,385.53v-6.12h3.96v1.08h-2.72v1.43h2.18v1.06h-2.18v1.47h2.72v1.08h-3.96Z"/>
      <path class="cls-5" d="m590.04,380.51v-1.1h4.5v1.1h-1.62v5.02h-1.24v-5.02h-1.64Z"/>
      <path class="cls-5" d="m594.78,380.51v-1.1h4.5v1.1h-1.62v5.02h-1.24v-5.02h-1.64Z"/>
      <path class="cls-5" d="m600.06,385.53v-6.12h3.96v1.08h-2.72v1.43h2.18v1.06h-2.18v1.47h2.72v1.08h-3.96Z"/>
      <path class="cls-5" d="m608.53,385.53h-3.48v-6.12h1.24v5.02h2.24v1.1Z"/>
    </g>
    <g>
      <path class="cls-5" d="m39.12,481.54v-2.54h-2.28v2.54h-1.24v-6.12h1.24v2.5h2.28v-2.5h1.24v6.12h-1.24Z"/>
      <path class="cls-5" d="m41.69,481.54v-6.12h1.24v6.12h-1.24Z"/>
      <path class="cls-5" d="m47.75,481.54h-3.48v-6.12h1.24v5.02h2.24v1.1Z"/>
      <path class="cls-5" d="m52,481.54h-3.48v-6.12h1.24v5.02h2.24v1.1Z"/>
    </g>
    <g>
      <path class="cls-5" d="m523.57,510.34c-.65,0-.98.22-.98.65,0,.19.08.34.24.44.16.1.54.25,1.14.44.6.19,1.02.41,1.26.65.24.24.36.62.36,1.12,0,.64-.19,1.13-.58,1.46s-.9.5-1.53.5c-.47,0-1.04-.07-1.72-.22l-.32-.06.13-.96c.8.11,1.42.16,1.85.16.64,0,.95-.26.95-.79,0-.19-.07-.34-.22-.45-.15-.11-.44-.23-.88-.35-.7-.2-1.19-.43-1.47-.71-.29-.27-.43-.65-.43-1.14,0-.61.19-1.07.56-1.37.37-.3.88-.45,1.53-.45.44,0,1.01.06,1.69.18l.32.06-.1.98c-.85-.1-1.44-.14-1.79-.14Z"/>
      <path class="cls-5" d="m529.92,515.39c-.64.14-1.21.21-1.72.21s-.92-.06-1.22-.19-.55-.33-.72-.6c-.17-.28-.29-.6-.36-.97s-.1-.84-.1-1.4c0-1.18.17-2.01.5-2.47s.95-.7,1.84-.7c.52,0,1.11.08,1.79.24l-.04.99c-.59-.09-1.09-.13-1.48-.13s-.67.05-.84.16c-.17.11-.29.3-.37.6-.08.29-.12.79-.12,1.5s.08,1.2.25,1.47c.16.27.49.41.99.41s1.02-.04,1.58-.13l.03,1.02Z"/>
      <path class="cls-5" d="m533.91,515.49v-2.54h-2.28v2.54h-1.24v-6.12h1.24v2.5h2.28v-2.5h1.24v6.12h-1.24Z"/>
      <path class="cls-5" d="m537.13,513.44c0,.71.36,1.07,1.09,1.07s1.09-.36,1.09-1.07v-4.08h1.24v4.05c0,.75-.19,1.3-.58,1.65-.39.35-.97.53-1.75.53s-1.36-.18-1.75-.53c-.39-.35-.58-.9-.58-1.65v-4.05h1.24v4.08Z"/>
      <path class="cls-5" d="m541.29,515.49v-6.12h2.11l1.08,4.46,1.08-4.46h2.12v6.12h-1.24v-4.73h-.13l-1.2,4.46h-1.24l-1.2-4.46h-.13v4.73h-1.24Z"/>
      <path class="cls-5" d="m547.96,515.49l1.38-6.12h2.36l1.38,6.12h-1.24l-.24-1.11h-2.14l-.24,1.11h-1.24Zm2.34-5.09l-.62,2.91h1.67l-.62-2.91h-.43Z"/>
      <path class="cls-5" d="m557.15,515.39c-.64.14-1.21.21-1.72.21s-.92-.06-1.22-.19-.55-.33-.72-.6c-.17-.28-.29-.6-.36-.97s-.1-.84-.1-1.4c0-1.18.17-2.01.5-2.47s.95-.7,1.84-.7c.52,0,1.11.08,1.79.24l-.04.99c-.59-.09-1.09-.13-1.48-.13s-.67.05-.84.16c-.17.11-.29.3-.37.6-.08.29-.12.79-.12,1.5s.08,1.2.25,1.47c.16.27.49.41.99.41s1.02-.04,1.58-.13l.03,1.02Z"/>
      <path class="cls-5" d="m561.14,515.49v-2.54h-2.28v2.54h-1.24v-6.12h1.24v2.5h2.28v-2.5h1.24v6.12h-1.24Z"/>
      <path class="cls-5" d="m563.17,515.49v-6.12h3.96v1.08h-2.72v1.43h2.18v1.06h-2.18v1.47h2.72v1.08h-3.96Z"/>
      <path class="cls-5" d="m568.86,513.44v2.05h-1.24v-6.12h2.38c1.44,0,2.16.67,2.16,2.02,0,.8-.3,1.39-.9,1.76l.87,2.34h-1.36l-.71-2.05h-1.2Zm1.81-1.33c.14-.18.22-.42.22-.71s-.08-.53-.23-.7c-.15-.17-.37-.26-.66-.26h-1.13v1.94h1.15c.29,0,.51-.09.66-.27Z"/>
    </g>
    <g>
      <path class="cls-5" d="m595.41,511.1h-3.48v-6.12h1.24v5.02h2.24v1.1Z"/>
      <path class="cls-5" d="m595.67,511.1l1.38-6.12h2.36l1.38,6.12h-1.24l-.24-1.11h-2.14l-.24,1.11h-1.24Zm2.34-5.09l-.62,2.91h1.67l-.62-2.91h-.43Z"/>
      <path class="cls-5" d="m602.74,509.05c0,.71.36,1.07,1.09,1.07s1.09-.36,1.09-1.07v-4.08h1.24v4.05c0,.75-.19,1.3-.58,1.65-.39.35-.97.53-1.75.53s-1.36-.18-1.75-.53c-.39-.35-.58-.9-.58-1.65v-4.05h1.24v4.08Z"/>
      <path class="cls-5" d="m609.5,511.1h-2.06v-6.12h2.06c.53,0,.96.06,1.31.17.34.11.61.29.8.55s.32.55.39.9c.07.35.11.79.11,1.35s-.03,1.01-.1,1.37c-.07.36-.19.69-.37.97s-.45.49-.8.62c-.35.13-.79.19-1.33.19Zm1.31-2.43c.01-.19.02-.46.02-.8s-.01-.61-.04-.81c-.02-.2-.08-.39-.17-.56-.09-.17-.22-.28-.4-.35-.18-.06-.42-.09-.72-.09h-.82v3.96h.82c.45,0,.78-.11.98-.34.17-.19.28-.52.32-1.01Z"/>
      <path class="cls-5" d="m612.58,511.1l1.38-6.12h2.36l1.38,6.12h-1.24l-.24-1.11h-2.14l-.24,1.11h-1.24Zm2.34-5.09l-.62,2.91h1.67l-.62-2.91h-.43Z"/>
    </g>
    <g>
      <path class="cls-5" d="m9.08,355.08c-.65,0-.98.22-.98.65,0,.19.08.34.24.44.16.1.54.25,1.14.44.6.19,1.02.41,1.26.65.24.24.36.62.36,1.12,0,.64-.19,1.13-.58,1.46s-.9.5-1.53.5c-.47,0-1.04-.07-1.72-.22l-.32-.06.13-.96c.8.11,1.42.16,1.85.16.64,0,.95-.26.95-.79,0-.19-.07-.34-.22-.45-.15-.11-.44-.23-.88-.35-.7-.2-1.19-.43-1.47-.71-.29-.27-.43-.65-.43-1.14,0-.61.19-1.07.56-1.37.37-.3.88-.45,1.53-.45.44,0,1.01.06,1.69.18l.32.06-.1.98c-.85-.1-1.44-.14-1.79-.14Z"/>
      <path class="cls-5" d="m11.55,355.2v-1.1h4.5v1.1h-1.62v5.02h-1.24v-5.02h-1.64Z"/>
      <path class="cls-5" d="m16.83,360.23v-6.12h3.96v1.08h-2.72v1.43h2.18v1.06h-2.18v1.47h2.72v1.08h-3.96Z"/>
      <path class="cls-5" d="m21.32,354.11h1.31l.76,5.06h.14l1.1-5.06h1.44l1.1,5.06h.14l.76-5.06h1.31l-1.17,6.12h-1.88l-.96-4.65-.96,4.65h-1.88l-1.17-6.12Z"/>
      <path class="cls-5" d="m29.5,360.23l1.38-6.12h2.36l1.38,6.12h-1.24l-.24-1.11h-2.14l-.24,1.11h-1.24Zm2.34-5.09l-.62,2.91h1.67l-.62-2.91h-.43Z"/>
      <path class="cls-5" d="m36.67,358.17v2.05h-1.24v-6.12h2.38c1.44,0,2.16.67,2.16,2.02,0,.8-.3,1.39-.9,1.76l.87,2.34h-1.36l-.71-2.05h-1.2Zm1.81-1.33c.14-.18.22-.42.22-.71s-.08-.53-.23-.7c-.15-.17-.37-.26-.66-.26h-1.13v1.94h1.15c.29,0,.51-.09.66-.27Z"/>
      <path class="cls-5" d="m40.46,355.2v-1.1h4.5v1.1h-1.62v5.02h-1.24v-5.02h-1.64Z"/>
    </g>
    <g>
      <path class="cls-5" d="m514.4,538.45h-1.01v1.78h-1.24v-6.12h2.25c1.45,0,2.18.71,2.18,2.12,0,.71-.18,1.26-.55,1.64s-.91.57-1.62.57Zm-1.01-1.06h1c.62,0,.93-.38.93-1.15,0-.38-.08-.65-.23-.81s-.38-.25-.7-.25h-1v2.21Z"/>
      <path class="cls-5" d="m518.69,538.18v2.05h-1.24v-6.12h2.38c1.44,0,2.16.67,2.16,2.02,0,.8-.3,1.39-.9,1.76l.87,2.34h-1.36l-.71-2.05h-1.2Zm1.81-1.33c.14-.18.22-.42.22-.71s-.08-.53-.23-.7c-.15-.17-.37-.26-.66-.26h-1.13v1.94h1.15c.29,0,.51-.09.66-.27Z"/>
      <path class="cls-5" d="m527.27,539.58c-.38.51-1.04.76-1.97.76s-1.59-.25-1.97-.76c-.38-.51-.57-1.3-.57-2.38s.19-1.88.57-2.41c.38-.53,1.04-.79,1.97-.79s1.59.26,1.97.79.57,1.33.57,2.41-.19,1.87-.57,2.38Zm-2.96-.79c.18.31.51.47.99.47s.82-.16.99-.47c.18-.32.27-.84.27-1.58s-.09-1.28-.27-1.62c-.18-.34-.51-.5-.99-.5s-.81.17-.99.5c-.18.34-.27.87-.27,1.62s.09,1.27.27,1.58Z"/>
      <path class="cls-5" d="m530.78,535.08c-.65,0-.98.22-.98.65,0,.19.08.34.24.44.16.1.54.25,1.14.44.6.19,1.02.41,1.26.65.24.24.36.62.36,1.12,0,.64-.19,1.13-.58,1.46s-.9.5-1.53.5c-.47,0-1.04-.07-1.72-.22l-.32-.06.13-.96c.8.11,1.42.16,1.85.16.64,0,.95-.26.95-.79,0-.19-.07-.34-.22-.45-.15-.11-.44-.23-.88-.35-.7-.2-1.19-.43-1.47-.71-.29-.27-.43-.65-.43-1.14,0-.61.19-1.07.56-1.37.37-.3.88-.45,1.53-.45.44,0,1.01.06,1.69.18l.32.06-.1.98c-.85-.1-1.44-.14-1.79-.14Z"/>
      <path class="cls-5" d="m533.25,535.21v-1.1h4.5v1.1h-1.62v5.02h-1.24v-5.02h-1.64Z"/>
    </g>
    <g>
      <path class="cls-5" d="m454.58,553.17c-.65,0-.98.22-.98.65,0,.19.08.34.24.44.16.1.54.25,1.14.44.6.19,1.02.41,1.26.65.24.24.36.62.36,1.12,0,.64-.19,1.13-.58,1.46s-.9.5-1.53.5c-.47,0-1.04-.07-1.72-.22l-.32-.06.13-.96c.8.11,1.42.16,1.85.16.64,0,.95-.26.95-.79,0-.19-.07-.34-.22-.45-.15-.11-.44-.23-.88-.35-.7-.2-1.19-.43-1.47-.71-.29-.27-.43-.65-.43-1.14,0-.61.19-1.07.56-1.37.37-.3.88-.45,1.53-.45.44,0,1.01.06,1.69.18l.32.06-.1.98c-.85-.1-1.44-.14-1.79-.14Z"/>
      <path class="cls-5" d="m457.6,558.31v-6.12h3.96v1.08h-2.72v1.43h2.18v1.06h-2.18v1.47h2.72v1.08h-3.96Z"/>
      <path class="cls-5" d="m462.58,558.31v-6.12h2.1l1.48,5.04h.09v-5.04h1.24v6.12h-2.04l-1.53-5.04h-.09v5.04h-1.24Z"/>
      <path class="cls-5" d="m468.82,558.31v-6.12h2.1l1.48,5.04h.09v-5.04h1.24v6.12h-2.04l-1.53-5.04h-.09v5.04h-1.24Z"/>
      <path class="cls-5" d="m474.54,558.31l1.38-6.12h2.36l1.38,6.12h-1.24l-.24-1.11h-2.14l-.24,1.11h-1.24Zm2.34-5.09l-.62,2.91h1.67l-.62-2.91h-.43Z"/>
    </g>
    <g>
      <path class="cls-5" d="m370.46,559.84v-6.12h3.91v1.08h-2.66v1.8h2.18v1.08h-2.18v2.16h-1.24Z"/>
      <path class="cls-5" d="m374.54,559.84l1.38-6.12h2.36l1.38,6.12h-1.24l-.24-1.11h-2.14l-.24,1.11h-1.24Zm2.34-5.09l-.62,2.91h1.67l-.62-2.91h-.43Z"/>
      <path class="cls-5" d="m380.47,559.84v-6.12h2.1l1.48,5.04h.09v-5.04h1.24v6.12h-2.04l-1.53-5.04h-.09v5.04h-1.24Z"/>
      <path class="cls-5" d="m389.25,557.64v-1.08h1.78v3.18c-.86.14-1.55.21-2.09.21-.95,0-1.61-.25-1.97-.77-.36-.51-.54-1.32-.54-2.43s.19-1.91.56-2.4c.37-.49,1-.74,1.9-.74.56,0,1.16.06,1.81.19l.32.06-.04.96c-.72-.08-1.31-.12-1.77-.12s-.78.05-.97.16c-.19.11-.32.31-.41.6s-.13.79-.13,1.49.09,1.2.26,1.48c.17.28.53.42,1.08.42l.75-.04v-1.19h-.56Z"/>
      <path class="cls-5" d="m392.2,559.84v-6.12h1.24v6.12h-1.24Z"/>
      <path class="cls-5" d="m399.01,559.19c-.38.51-1.04.76-1.97.76s-1.59-.25-1.97-.76c-.38-.51-.57-1.3-.57-2.38s.19-1.88.57-2.41c.38-.53,1.04-.79,1.97-.79s1.59.26,1.97.79.57,1.33.57,2.41-.19,1.87-.57,2.38Zm-2.96-.79c.18.31.51.47.99.47s.82-.16.99-.47c.18-.32.27-.84.27-1.58s-.09-1.28-.27-1.62c-.18-.34-.51-.5-.99-.5s-.81.17-.99.5c-.18.34-.27.87-.27,1.62s.09,1.27.27,1.58Z"/>
    </g>
    <g>
      <path class="cls-5" d="m224.67,549.48v-1.08c.24,0,.41-.04.52-.13s.16-.26.16-.5v-5.03h1.23v5.08c0,.65-.14,1.09-.43,1.32-.29.23-.79.34-1.49.34Z"/>
      <path class="cls-5" d="m232.11,548.2c-.38.51-1.04.76-1.97.76s-1.59-.25-1.97-.76c-.38-.51-.57-1.3-.57-2.38s.19-1.88.57-2.41c.38-.53,1.04-.79,1.97-.79s1.59.26,1.97.79.57,1.33.57,2.41-.19,1.87-.57,2.38Zm-2.96-.79c.18.31.51.47.99.47s.82-.16.99-.47c.18-.32.27-.84.27-1.58s-.09-1.28-.27-1.62c-.18-.34-.51-.5-.99-.5s-.81.17-.99.5c-.18.34-.27.87-.27,1.62s.09,1.27.27,1.58Z"/>
      <path class="cls-5" d="m233.75,548.85v-6.12h2.1l1.48,5.04h.09v-5.04h1.24v6.12h-2.04l-1.53-5.04h-.09v5.04h-1.24Z"/>
      <path class="cls-5" d="m239.98,548.85v-6.12h3.96v1.08h-2.72v1.43h2.18v1.06h-2.18v1.47h2.72v1.08h-3.96Z"/>
      <path class="cls-5" d="m246.85,543.7c-.65,0-.98.22-.98.65,0,.19.08.34.24.44.16.1.54.25,1.14.44.6.19,1.02.41,1.26.65.24.24.36.62.36,1.12,0,.64-.19,1.13-.58,1.46s-.9.5-1.53.5c-.47,0-1.04-.07-1.72-.22l-.32-.06.13-.96c.8.11,1.42.16,1.85.16.64,0,.95-.26.95-.79,0-.19-.07-.34-.22-.45-.15-.11-.44-.23-.88-.35-.7-.2-1.19-.43-1.47-.71-.29-.27-.43-.65-.43-1.14,0-.61.19-1.07.56-1.37.37-.3.88-.45,1.53-.45.44,0,1.01.06,1.69.18l.32.06-.1.98c-.85-.1-1.44-.14-1.79-.14Z"/>
    </g>
    <g>
      <path class="cls-5" d="m242.63,484.91h2.4c.64,0,1.11.13,1.43.38s.48.67.48,1.24c0,.34-.05.61-.15.81-.1.2-.28.38-.52.54.27.11.47.28.6.5s.19.52.19.9c0,.59-.17,1.04-.52,1.32-.35.29-.84.43-1.47.43h-2.44v-6.12Zm2.34,1.06h-1.1v1.46h1.11c.47,0,.7-.24.7-.73s-.24-.73-.71-.73Zm.04,2.5h-1.13v1.49h1.13c.27,0,.47-.05.6-.16.13-.11.19-.31.19-.59,0-.49-.26-.74-.79-.74Z"/>
      <path class="cls-5" d="m249.36,488.97v2.05h-1.24v-6.12h2.38c1.44,0,2.16.67,2.16,2.02,0,.8-.3,1.39-.9,1.76l.87,2.34h-1.36l-.71-2.05h-1.2Zm1.81-1.33c.14-.18.22-.42.22-.71s-.08-.53-.23-.7c-.15-.17-.37-.26-.66-.26h-1.13v1.94h1.15c.29,0,.51-.09.66-.27Z"/>
      <path class="cls-5" d="m253.11,491.03l1.38-6.12h2.36l1.38,6.12h-1.24l-.24-1.11h-2.14l-.24,1.11h-1.24Zm2.34-5.09l-.62,2.91h1.67l-.62-2.91h-.43Z"/>
      <path class="cls-5" d="m259.04,484.91h2.4c.64,0,1.11.13,1.43.38s.48.67.48,1.24c0,.34-.05.61-.15.81-.1.2-.28.38-.52.54.27.11.47.28.6.5s.19.52.19.9c0,.59-.17,1.04-.52,1.32-.35.29-.84.43-1.47.43h-2.44v-6.12Zm2.34,1.06h-1.1v1.46h1.11c.47,0,.7-.24.7-.73s-.24-.73-.71-.73Zm.04,2.5h-1.13v1.49h1.13c.27,0,.47-.05.6-.16.13-.11.19-.31.19-.59,0-.49-.26-.74-.79-.74Z"/>
      <path class="cls-5" d="m268.04,491.03v-2.54h-2.28v2.54h-1.24v-6.12h1.24v2.5h2.28v-2.5h1.24v6.12h-1.24Z"/>
      <path class="cls-5" d="m270.1,491.03l1.38-6.12h2.36l1.38,6.12h-1.24l-.24-1.11h-2.14l-.24,1.11h-1.24Zm2.34-5.09l-.62,2.91h1.67l-.62-2.91h-.43Z"/>
      <path class="cls-5" d="m276.03,491.03v-6.12h2.11l1.08,4.46,1.08-4.46h2.12v6.12h-1.24v-4.73h-.13l-1.2,4.46h-1.24l-1.2-4.46h-.13v4.73h-1.24Z"/>
    </g>
    <g>
      <path class="cls-5" d="m524.28,431.29h1.31l.76,5.06h.14l1.1-5.06h1.44l1.1,5.06h.14l.76-5.06h1.31l-1.17,6.12h-1.88l-.96-4.65-.96,4.65h-1.88l-1.17-6.12Z"/>
      <path class="cls-5" d="m533.15,437.41v-6.12h3.96v1.08h-2.72v1.43h2.18v1.06h-2.18v1.47h2.72v1.08h-3.96Z"/>
      <path class="cls-5" d="m538.13,431.29h2.4c.64,0,1.11.13,1.43.38s.48.67.48,1.24c0,.34-.05.61-.15.81-.1.2-.28.38-.52.54.27.11.47.28.6.5s.19.52.19.9c0,.59-.17,1.04-.52,1.32-.35.29-.84.43-1.47.43h-2.44v-6.12Zm2.34,1.06h-1.1v1.46h1.11c.47,0,.7-.24.7-.73s-.24-.73-.71-.73Zm.04,2.5h-1.13v1.49h1.13c.27,0,.47-.05.6-.16.13-.11.19-.31.19-.59,0-.49-.26-.74-.79-.74Z"/>
      <path class="cls-5" d="m543.61,431.29h2.4c.64,0,1.11.13,1.43.38s.48.67.48,1.24c0,.34-.05.61-.15.81-.1.2-.28.38-.52.54.27.11.47.28.6.5s.19.52.19.9c0,.59-.17,1.04-.52,1.32-.35.29-.84.43-1.47.43h-2.44v-6.12Zm2.34,1.06h-1.1v1.46h1.11c.47,0,.7-.24.7-.73s-.24-.73-.71-.73Zm.04,2.5h-1.13v1.49h1.13c.27,0,.47-.05.6-.16.13-.11.19-.31.19-.59,0-.49-.26-.74-.79-.74Z"/>
      <path class="cls-5" d="m549.09,437.41v-6.12h3.96v1.08h-2.72v1.43h2.18v1.06h-2.18v1.47h2.72v1.08h-3.96Z"/>
      <path class="cls-5" d="m555.32,435.36v2.05h-1.24v-6.12h2.38c1.44,0,2.16.67,2.16,2.02,0,.8-.3,1.39-.9,1.76l.87,2.34h-1.36l-.71-2.05h-1.2Zm1.81-1.33c.14-.18.22-.42.22-.71s-.08-.53-.23-.7c-.15-.17-.37-.26-.66-.26h-1.13v1.94h1.15c.29,0,.51-.09.66-.27Z"/>
    </g>
    <g>
      <path class="cls-5" d="m293.8,558.31v-6.12h2.11l1.08,4.46,1.08-4.46h2.12v6.12h-1.24v-4.73h-.13l-1.2,4.46h-1.24l-1.2-4.46h-.13v4.73h-1.24Z"/>
      <path class="cls-5" d="m305.76,557.66c-.38.51-1.04.76-1.97.76s-1.59-.25-1.97-.76c-.38-.51-.57-1.3-.57-2.38s.19-1.88.57-2.41c.38-.53,1.04-.79,1.97-.79s1.59.26,1.97.79.57,1.33.57,2.41-.19,1.87-.57,2.38Zm-2.96-.79c.18.31.51.47.99.47s.82-.16.99-.47c.18-.32.27-.84.27-1.58s-.09-1.28-.27-1.62c-.18-.34-.51-.5-.99-.5s-.81.17-.99.5c-.18.34-.27.87-.27,1.62s.09,1.27.27,1.58Z"/>
      <path class="cls-5" d="m309.27,553.17c-.65,0-.98.22-.98.65,0,.19.08.34.24.44.16.1.54.25,1.14.44.6.19,1.02.41,1.26.65.24.24.36.62.36,1.12,0,.64-.19,1.13-.58,1.46s-.9.5-1.53.5c-.47,0-1.04-.07-1.72-.22l-.32-.06.13-.96c.8.11,1.42.16,1.85.16.64,0,.95-.26.95-.79,0-.19-.07-.34-.22-.45-.15-.11-.44-.23-.88-.35-.7-.2-1.19-.43-1.47-.71-.29-.27-.43-.65-.43-1.14,0-.61.19-1.07.56-1.37.37-.3.88-.45,1.53-.45.44,0,1.01.06,1.69.18l.32.06-.1.98c-.85-.1-1.44-.14-1.79-.14Z"/>
      <path class="cls-5" d="m314.17,553.17c-.65,0-.98.22-.98.65,0,.19.08.34.24.44.16.1.54.25,1.14.44.6.19,1.02.41,1.26.65.24.24.36.62.36,1.12,0,.64-.19,1.13-.58,1.46s-.9.5-1.53.5c-.47,0-1.04-.07-1.72-.22l-.32-.06.13-.96c.8.11,1.42.16,1.85.16.64,0,.95-.26.95-.79,0-.19-.07-.34-.22-.45-.15-.11-.44-.23-.88-.35-.7-.2-1.19-.43-1.47-.71-.29-.27-.43-.65-.43-1.14,0-.61.19-1.07.56-1.37.37-.3.88-.45,1.53-.45.44,0,1.01.06,1.69.18l.32.06-.1.98c-.85-.1-1.44-.14-1.79-.14Z"/>
    </g>
    <g>
      <path class="cls-5" d="m110.06,432.83v2.05h-1.24v-6.12h2.38c1.44,0,2.16.67,2.16,2.02,0,.8-.3,1.39-.9,1.76l.87,2.34h-1.36l-.71-2.05h-1.2Zm1.81-1.33c.14-.18.22-.42.22-.71s-.08-.53-.23-.7c-.15-.17-.37-.26-.66-.26h-1.13v1.94h1.15c.29,0,.51-.09.66-.27Z"/>
      <path class="cls-5" d="m114.39,434.88v-6.12h1.24v6.12h-1.24Z"/>
      <path class="cls-5" d="m120.85,434.79c-.64.14-1.21.21-1.72.21s-.92-.06-1.22-.19-.55-.33-.72-.6c-.17-.28-.29-.6-.36-.97s-.1-.84-.1-1.4c0-1.18.17-2.01.5-2.47s.95-.7,1.84-.7c.52,0,1.11.08,1.79.24l-.04.99c-.59-.09-1.09-.13-1.48-.13s-.67.05-.84.16c-.17.11-.29.3-.37.6-.08.29-.12.79-.12,1.5s.08,1.2.25,1.47c.16.27.49.41.99.41s1.02-.04,1.58-.13l.03,1.02Z"/>
      <path class="cls-5" d="m125.73,434.79c-.64.14-1.21.21-1.72.21s-.92-.06-1.22-.19-.55-.33-.72-.6c-.17-.28-.29-.6-.36-.97s-.1-.84-.1-1.4c0-1.18.17-2.01.5-2.47s.95-.7,1.84-.7c.52,0,1.11.08,1.79.24l-.04.99c-.59-.09-1.09-.13-1.48-.13s-.67.05-.84.16c-.17.11-.29.3-.37.6-.08.29-.12.79-.12,1.5s.08,1.2.25,1.47c.16.27.49.41.99.41s1.02-.04,1.58-.13l.03,1.02Z"/>
      <path class="cls-5" d="m126.74,434.88v-6.12h1.24v6.12h-1.24Z"/>
      <path class="cls-5" d="m128.8,434.88l1.38-6.12h2.36l1.38,6.12h-1.24l-.24-1.11h-2.14l-.24,1.11h-1.24Zm2.34-5.09l-.62,2.91h1.67l-.62-2.91h-.43Z"/>
      <path class="cls-5" d="m135.98,432.83v2.05h-1.24v-6.12h2.38c1.44,0,2.16.67,2.16,2.02,0,.8-.3,1.39-.9,1.76l.87,2.34h-1.36l-.71-2.05h-1.2Zm1.81-1.33c.14-.18.22-.42.22-.71s-.08-.53-.23-.7c-.15-.17-.37-.26-.66-.26h-1.13v1.94h1.15c.29,0,.51-.09.66-.27Z"/>
      <path class="cls-5" d="m142.38,434.88h-2.06v-6.12h2.06c.53,0,.96.06,1.31.17.34.11.61.29.8.55s.32.55.39.9c.07.35.11.79.11,1.35s-.03,1.01-.1,1.37c-.07.36-.19.69-.37.97s-.45.49-.8.62c-.35.13-.79.19-1.33.19Zm1.31-2.43c.01-.19.02-.46.02-.8s-.01-.61-.04-.81c-.02-.2-.08-.39-.17-.56-.09-.17-.22-.28-.4-.35-.18-.06-.42-.09-.72-.09h-.82v3.96h.82c.45,0,.78-.11.98-.34.17-.19.28-.52.32-1.01Z"/>
      <path class="cls-5" d="m150.29,434.23c-.38.51-1.04.76-1.97.76s-1.59-.25-1.97-.76c-.38-.51-.57-1.3-.57-2.38s.19-1.88.57-2.41c.38-.53,1.04-.79,1.97-.79s1.59.26,1.97.79.57,1.33.57,2.41-.19,1.87-.57,2.38Zm-2.96-.79c.18.31.51.47.99.47s.82-.16.99-.47c.18-.32.27-.84.27-1.58s-.09-1.28-.27-1.62c-.18-.34-.51-.5-.99-.5s-.81.17-.99.5c-.18.34-.27.87-.27,1.62s.09,1.27.27,1.58Z"/>
    </g>
    <g>
      <path class="cls-5" d="m153.74,230.28h2.4c.64,0,1.11.13,1.43.38.32.25.48.67.48,1.24,0,.34-.05.61-.15.81-.1.2-.28.38-.52.54.27.11.47.28.6.5.13.22.19.52.19.9,0,.59-.17,1.03-.52,1.32-.35.29-.84.43-1.47.43h-2.44v-6.12Zm2.34,1.06h-1.1v1.46h1.11c.47,0,.7-.24.7-.73s-.24-.73-.71-.73Zm.04,2.5h-1.13v1.49h1.13c.27,0,.47-.05.6-.16.13-.11.19-.31.19-.59,0-.49-.26-.74-.79-.74Z"/>
      <path class="cls-5" d="m160.41,234.36c0,.71.36,1.07,1.09,1.07s1.09-.36,1.09-1.07v-4.08h1.24v4.05c0,.75-.19,1.3-.58,1.65-.39.35-.97.53-1.75.53s-1.36-.18-1.75-.53c-.39-.35-.58-.9-.58-1.65v-4.05h1.24v4.08Z"/>
      <path class="cls-5" d="m164.56,231.38v-1.1h4.5v1.1h-1.62v5.02h-1.24v-5.02h-1.64Z"/>
      <path class="cls-5" d="m169.29,231.38v-1.1h4.5v1.1h-1.62v5.02h-1.24v-5.02h-1.64Z"/>
      <path class="cls-5" d="m178.75,235.75c-.38.51-1.04.76-1.97.76s-1.59-.25-1.97-.76c-.38-.51-.57-1.3-.57-2.38s.19-1.88.57-2.41c.38-.52,1.04-.79,1.97-.79s1.59.26,1.97.79.57,1.33.57,2.41-.19,1.87-.57,2.38Zm-2.96-.79c.18.31.51.47.99.47s.82-.16.99-.47c.18-.31.27-.84.27-1.58s-.09-1.28-.27-1.62c-.18-.34-.51-.5-.99-.5s-.81.17-.99.5c-.18.34-.27.87-.27,1.62s.09,1.27.27,1.58Z"/>
      <path class="cls-5" d="m180.39,236.4v-6.12h2.1l1.48,5.04h.09v-5.04h1.24v6.12h-2.04l-1.53-5.04h-.09v5.04h-1.24Z"/>
    </g>
    <g>
      <path class="cls-5" d="m256.29,294.38c-.64.14-1.21.21-1.72.21s-.92-.06-1.22-.19-.55-.33-.72-.6c-.17-.28-.29-.6-.36-.97s-.1-.84-.1-1.4c0-1.18.17-2.01.5-2.47.33-.47.95-.7,1.84-.7.52,0,1.11.08,1.79.24l-.04.99c-.59-.09-1.09-.13-1.48-.13s-.67.05-.84.16-.29.3-.37.6c-.08.29-.12.79-.12,1.5s.08,1.2.25,1.47c.16.27.49.41.99.41s1.02-.04,1.58-.13l.03,1.02Z"/>
      <path class="cls-5" d="m260.78,294.48h-3.48v-6.12h1.24v5.02h2.24v1.1Z"/>
      <path class="cls-5" d="m261.03,294.48l1.38-6.12h2.36l1.38,6.12h-1.24l-.24-1.11h-2.14l-.24,1.11h-1.24Zm2.34-5.09l-.62,2.91h1.67l-.62-2.91h-.43Z"/>
      <path class="cls-5" d="m268.2,292.43v2.05h-1.24v-6.12h2.38c1.44,0,2.16.67,2.16,2.02,0,.8-.3,1.39-.9,1.76l.87,2.34h-1.36l-.71-2.05h-1.2Zm1.81-1.33c.14-.18.22-.42.22-.71s-.08-.53-.23-.7c-.15-.17-.37-.26-.66-.26h-1.13v1.94h1.15c.29,0,.51-.09.66-.27Z"/>
      <path class="cls-5" d="m273.78,294.48h-1.24v-6.12h1.24v2.69l.83-.09,1.01-2.6h1.41l-1.33,3.07,1.37,3.05h-1.43l-1.03-2.44-.83.09v2.35Z"/>
    </g>
  </g>
</svg>