<?xml version="1.0" encoding="UTF-8"?>
<svg xmlns="http://www.w3.org/2000/svg" viewBox="0 0 630 800">
  <defs>
    <style>
      .cls-1 {
        fill: #fff;
        stroke-miterlimit: 10;
        stroke-width: 2px;
      }

      .cls-1, .cls-2 {
        stroke: #fff;
      }

      .cls-3 {
        stroke: #1a171b;
        stroke-width: .32px;
      }

      .cls-3, .cls-2, .cls-4 {
        fill: none;
      }

      .cls-2 {
        stroke-width: 1.8px;
      }

      .cls-5 {
        fill-rule: evenodd;
      }

      .cls-5, .cls-6, .cls-7 {
        stroke-width: 0px;
      }

      .cls-5, .cls-7 {
        fill: #7d7d7d;
      }

      .cls-4 {
        stroke: #000;
        stroke-width: 15.3px;
      }


   #GA path, #GA rect{
      mask: url(#mask-stripe)
      }

    </style>




 <pattern id="pattern-stripe" width="4" height="4" patternUnits="userSpaceOnUse" patternTransform="rotate(45)">
          <rect width="1.5" height="4" transform="translate(0,0)" fill="white"/>
  </pattern>
  <mask id="mask-stripe">
          <rect x="0" y="0" width="100%" height="100%" fill="url(#pattern-stripe)"/>
  </mask>   





  </defs>
  <g id="GA">
    <g idGrandstand="">
      <path class="cls-5" d="m513.67,348.66s-15.15-38.95-16.7-42.35c-1.55-3.4-5.88-.31-5.88-.31l-10.21,4.33,7.11,20.71,5.57.93,8.35,25.96s7.42-3.71,9.9-4.95c2.47-1.24,1.86-4.33,1.86-4.33ZM116.6,221.94s-3.4,0-4.64,4.64c-1.24,4.64-3.71,45.44-3.71,45.44l-15.77,65.84s.93,2.78,2.78,3.71c1.86.93,12.06,2.16,12.06,2.16l4.95-16.07-2.16-5.87,11.13-49.45-1.55-6.18,8.66-42.35-11.75-1.85Z"/>
    </g>
  </g>
  <g id="track">
    <g id="Track">
      <path class="cls-4" d="m214.99,284.05c21.53,22.97,36.5,13.5,46.5,34.5,8.81,18.51-10.65,41.94-5,53,6.29,12.31,18.33,19.11,23.5,23,4.66,3.51,49.16,34.29,54.68,38.37,5.52,4.08,3.66,11.42-1.74,14.85-6.98,4.43-17.75,2.37-22.23,1.71-4.47-.66-89.83-11.97-89.83-11.97-3.81-.4-6.18-1.02-12.36-1.19-7.73-.21-17.28,1.29-26.17,11.31-8.35,9.41-16.41,19.12-13.85,25.41,3.02,7.43,57,9.61,57,9.61h233.96s10.17-.68,14.71-7.4c4.55-6.72,10.05-24.77,0-44.87-2.17-4.35-15.36-26.44-36.26-34.16-20.24-7.47-31.95-9.82-47.5-18.89-12.42-7.24-20.32-11.44-24.41-19.28-6-11.5-1.59-27.53.5-33,8.69-22.75,11-30.5,24.59-57.69,5.48-10.96,8.89-13.86,15.56-16.59,7.85-3.22,10.46-.5,13.03.41,5.31,1.87,35.37,40.01,35.37,40.01.78,1.91,119.43,235,119.43,235,2.85,7.73-.95,11.3-7.74,21.3-10.72,15.8-28.59,15.46-28.59,15.46H90.61s-11.4.01-13.72-6.82c-1.9-5.59.81-8.79,4.73-12.17,3.56-3.06,28.81-22.72,30.16-24.34,1.35-1.62,8.85-8.6,5.82-19.07-.63-2.18-5.97-19.2-11.74-38.17-.7-2.32-2.43-7.49-.1-20.26,0,0,29.82-199.07,32.69-214.62,1.47-7.93,7.5-7.8,12.99-4.68,10.39,5.9,17.07,9.7,25.05,18.56,0,0,31,34.67,38.5,42.67Z"/>
      <path class="cls-2" d="m214.99,284.05c21.53,22.97,36.5,13.5,46.5,34.5,8.81,18.51-10.65,41.94-5,53,6.29,12.31,18.33,19.11,23.5,23,4.66,3.51,49.16,34.29,54.68,38.37,5.52,4.08,3.66,11.42-1.74,14.85-6.98,4.43-17.75,2.37-22.23,1.71-4.47-.66-89.83-11.97-89.83-11.97-3.81-.4-6.18-1.02-12.36-1.19-7.73-.21-17.28,1.29-26.17,11.31-8.35,9.41-16.41,19.12-13.85,25.41,3.02,7.43,57,9.61,57,9.61h233.96s10.17-.68,14.71-7.4c4.55-6.72,10.05-24.77,0-44.87-2.17-4.35-15.36-26.44-36.26-34.16-20.24-7.47-31.95-9.82-47.5-18.89-12.42-7.24-20.32-11.44-24.41-19.28-6-11.5-1.59-27.53.5-33,8.69-22.75,11-30.5,24.59-57.69,5.48-10.96,8.89-13.86,15.56-16.59,7.85-3.22,10.46-.5,13.03.41,5.31,1.87,35.37,40.01,35.37,40.01.78,1.91,119.43,235,119.43,235,2.85,7.73-.95,11.3-7.74,21.3-10.72,15.8-28.59,15.46-28.59,15.46H90.61s-11.4.01-13.72-6.82c-1.9-5.59.81-8.79,4.73-12.17,3.56-3.06,28.81-22.72,30.16-24.34,1.35-1.62,8.85-8.6,5.82-19.07-.63-2.18-5.97-19.2-11.74-38.17-.7-2.32-2.43-7.49-.1-20.26,0,0,29.82-199.07,32.69-214.62,1.47-7.93,7.5-7.8,12.99-4.68,10.39,5.9,17.07,9.7,25.05,18.56,0,0,31,34.67,38.5,42.67Z"/>
    </g>
  </g>
  <g id="arrow">
    <g>
      <path class="cls-6" d="m360.95,542.22l-3.38,3.47c-.16.16-.23.34-.23.57s.08.41.25.57l3.38,3.53-1.12,1.08-3.37-3.53c-.46-.46-.68-1.01-.68-1.66s.23-1.19.68-1.64l3.37-3.47,1.1,1.08Z"/>
      <path class="cls-6" d="m371.38,542.22l-3.38,3.47c-.16.16-.23.34-.23.57s.08.41.25.57l3.38,3.53-1.12,1.08-3.37-3.53c-.46-.46-.68-1.01-.68-1.66s.23-1.19.68-1.64l3.37-3.47,1.1,1.08Z"/>
      <path class="cls-6" d="m366.17,542.22l-3.38,3.47c-.16.16-.23.34-.23.57s.08.41.25.57l3.38,3.53-1.12,1.08-3.37-3.53c-.46-.46-.68-1.01-.68-1.66s.23-1.19.68-1.64l3.37-3.47,1.1,1.08Z"/>
    </g>
  </g>
  <g id="start">
    <g>
      <rect class="cls-6" x="389.02" y="544.77" width="3.44" height="3.47"/>
      <rect class="cls-6" x="385.57" y="541.3" width="3.44" height="3.47"/>
      <rect class="cls-6" x="385.57" y="548.25" width="3.44" height="3.47"/>
      <rect class="cls-6" x="392.44" y="541.3" width="3.44" height="3.47"/>
      <rect class="cls-6" x="392.44" y="548.25" width="3.44" height="3.47"/>
      <rect class="cls-6" x="382.13" y="544.77" width="3.44" height="3.47"/>
      <rect class="cls-6" x="378.69" y="541.3" width="3.44" height="3.47"/>
      <rect class="cls-6" x="378.69" y="548.25" width="3.44" height="3.47"/>
    </g>
  </g>
  <g id="grandstands">
    <g id="Sakhir">
      <g id="batelco">
        <rect idGrandstand="9935" class="cls-7" x="266.06" y="492.06" width="70.23" height="10.03"/>
      </g>
      <g id="main">
        <rect idGrandstand="9875" class="cls-7" x="235.96" y="573.33" width="226.74" height="10.03"/>
      </g>
      <g id="main-2" data-name="main">
        <rect idGrandstand="20127" class="cls-7" x="235.96" y="584.05" width="226.74" height="4.67"/>
      </g>
      <g id="turn1">
        <rect idGrandstand="9895" class="cls-7" x="90.99" y="573.33" width="66.39" height="10.03"/>
      </g>
      <g id="university_gs" data-name="university gs">
        <path idGrandstand="9905" class="cls-7" d="m103.1,380.77l-9.91-1.56,4.89-31.1,9.91,1.56-4.89,31.1Zm-.44,3.11l-9.91-1.56-4.89,31.1,9.91,1.56,4.89-31.1Zm-5.33,34.21l-9.91-1.56-4.89,31.1,9.91,1.56,4.89-31.1Z"/>
      </g>
      <g id="victory_grandstand" data-name="victory grandstand">
        <path idGrandstand="9945" class="cls-7" d="m545.91,443.43l-25.58-51.17,8.97-4.49,25.58,51.17-8.97,4.49Zm44.18,66.46l-25.58-51.17-8.97,4.49,25.58,51.17,8.97-4.49Z"/>
      </g>
      <g id="vip_tent" data-name="vip tent">
        <rect idGrandstand="13637" class="cls-7" x="187.58" y="573.33" width="18.06" height="10.03"/>
      </g>
      <g id="paddock_club" data-name="paddock club">
        <path idGrandstand="13647" class="cls-7" d="m334.01,549.71c2.47,0,4.48-2.01,4.48-4.48s-2.01-4.48-4.48-4.48-4.48,2.01-4.48,4.48,2.01,4.48,4.48,4.48Z"/>
      </g>
      <g id="podium_view" data-name="podium view">
        <path id="podium_view_stroke" data-name="podium view stroke" class="cls-1" d="m459.36,579.54c1.84,0,3.34-1.5,3.34-3.34s-1.5-3.34-3.34-3.34-3.34,1.5-3.34,3.34,1.5,3.34,3.34,3.34Z"/>
        <path idGrandstand="21768" class="cls-7" d="m459.36,579.54c1.84,0,3.34-1.5,3.34-3.34s-1.5-3.34-3.34-3.34-3.34,1.5-3.34,3.34,1.5,3.34,3.34,3.34Z"/>
      </g>
      <g id="section_p_r" data-name="section p+r">
        <path id="podium_view_stroke-2" data-name="podium view stroke" class="cls-1" d="m96.59,584.17c1.84,0,3.34-1.5,3.34-3.34s-1.5-3.34-3.34-3.34-3.34,1.5-3.34,3.34,1.5,3.34,3.34,3.34Z"/>
        <path idGrandstand="21778" class="cls-7" d="m96.59,584.17c1.84,0,3.34-1.5,3.34-3.34s-1.5-3.34-3.34-3.34-3.34,1.5-3.34,3.34,1.5,3.34,3.34,3.34Z"/>
      </g>
    </g>
  </g>
  <g id="gs_names" data-name="gs names">
    <g>
      <g>
        <path class="cls-7" d="m306.17,601.23v-6.8h2.35l1.2,4.96,1.2-4.96h2.35v6.8h-1.38v-5.26h-.15l-1.33,4.96h-1.38l-1.33-4.96h-.15v5.26h-1.38Z"/>
        <path class="cls-7" d="m314.18,601.23l1.53-6.8h2.62l1.53,6.8h-1.38l-.27-1.23h-2.38l-.27,1.23h-1.38Zm2.6-5.66l-.69,3.23h1.86l-.69-3.23h-.48Z"/>
        <path class="cls-7" d="m320.77,601.23v-6.8h1.38v6.8h-1.38Z"/>
        <path class="cls-7" d="m323.63,601.23v-6.8h2.33l1.64,5.6h.1v-5.6h1.38v6.8h-2.27l-1.7-5.6h-.1v5.6h-1.38Z"/>
        <path class="cls-7" d="m335.59,598.79v-1.2h1.98v3.53c-.95.15-1.73.23-2.32.23-1.06,0-1.79-.28-2.19-.85-.4-.57-.59-1.47-.59-2.7s.21-2.12.62-2.67c.41-.55,1.12-.82,2.11-.82.62,0,1.29.07,2.01.21l.36.07-.04,1.07c-.8-.09-1.45-.13-1.96-.13s-.87.06-1.07.18c-.21.12-.36.34-.46.66-.1.32-.15.88-.15,1.66s.1,1.33.29,1.65.59.47,1.2.47l.83-.04v-1.32h-.62Z"/>
        <path class="cls-7" d="m340.25,598.95v2.28h-1.38v-6.8h2.64c1.6,0,2.4.75,2.4,2.24,0,.89-.33,1.54-1,1.96l.97,2.6h-1.51l-.79-2.28h-1.33Zm2.01-1.48c.16-.2.24-.46.24-.79s-.08-.59-.25-.78c-.17-.19-.42-.29-.74-.29h-1.26v2.16h1.28c.33,0,.57-.1.73-.3Z"/>
        <path class="cls-7" d="m344.42,601.23l1.53-6.8h2.62l1.53,6.8h-1.38l-.27-1.23h-2.38l-.27,1.23h-1.38Zm2.6-5.66l-.69,3.23h1.86l-.69-3.23h-.48Z"/>
        <path class="cls-7" d="m351.01,601.23v-6.8h2.33l1.64,5.6h.1v-5.6h1.38v6.8h-2.27l-1.7-5.6h-.1v5.6h-1.38Z"/>
        <path class="cls-7" d="m360.23,601.23h-2.29v-6.8h2.29c.59,0,1.07.06,1.45.18.38.12.67.33.89.61.21.28.35.62.43,1,.08.38.12.88.12,1.5s-.04,1.12-.11,1.52c-.07.4-.21.76-.42,1.08-.2.32-.5.55-.89.69s-.88.21-1.48.21Zm1.45-2.7c.01-.21.02-.51.02-.88s-.01-.68-.04-.91c-.03-.23-.09-.43-.19-.62-.1-.19-.25-.31-.44-.38-.2-.07-.46-.1-.8-.1h-.91v4.4h.91c.5,0,.86-.13,1.09-.38.19-.21.31-.58.36-1.12Z"/>
        <path class="cls-7" d="m366.41,595.51c-.73,0-1.09.24-1.09.72,0,.21.09.38.27.49.18.11.6.28,1.27.49.66.21,1.13.45,1.4.72.27.27.4.68.4,1.25,0,.71-.22,1.25-.65,1.62-.43.37-1,.55-1.7.55-.52,0-1.16-.08-1.91-.24l-.36-.07.14-1.07c.89.12,1.58.18,2.05.18.71,0,1.06-.29,1.06-.88,0-.21-.08-.38-.25-.5-.16-.12-.49-.25-.98-.39-.77-.22-1.32-.48-1.63-.79-.32-.3-.48-.73-.48-1.27,0-.68.21-1.19.62-1.52.41-.33.98-.5,1.7-.5.49,0,1.12.07,1.88.2l.36.07-.11,1.09c-.94-.11-1.6-.16-1.99-.16Z"/>
        <path class="cls-7" d="m369.15,595.65v-1.22h5v1.22h-1.8v5.58h-1.38v-5.58h-1.82Z"/>
        <path class="cls-7" d="m374.08,601.23l1.53-6.8h2.62l1.53,6.8h-1.38l-.27-1.23h-2.38l-.27,1.23h-1.38Zm2.6-5.66l-.69,3.23h1.86l-.69-3.23h-.48Z"/>
        <path class="cls-7" d="m380.67,601.23v-6.8h2.33l1.64,5.6h.1v-5.6h1.38v6.8h-2.27l-1.7-5.6h-.1v5.6h-1.38Z"/>
        <path class="cls-7" d="m389.89,601.23h-2.29v-6.8h2.29c.59,0,1.07.06,1.45.18.38.12.67.33.89.61.21.28.35.62.43,1,.08.38.12.88.12,1.5s-.04,1.12-.11,1.52c-.07.4-.21.76-.42,1.08-.2.32-.5.55-.89.69s-.88.21-1.48.21Zm1.45-2.7c.01-.21.02-.51.02-.88s-.01-.68-.04-.91c-.03-.23-.09-.43-.19-.62-.1-.19-.25-.31-.44-.38-.2-.07-.46-.1-.8-.1h-.91v4.4h.91c.5,0,.86-.13,1.09-.38.19-.21.31-.58.36-1.12Z"/>
      </g>
      <g>
        <path class="cls-7" d="m477.39,588.77c-.42.09-.81.14-1.15.14s-.61-.04-.82-.13-.36-.22-.48-.4c-.12-.18-.2-.4-.24-.65-.04-.25-.07-.56-.07-.94,0-.79.11-1.34.33-1.65.22-.31.63-.47,1.23-.47.34,0,.74.05,1.19.16l-.02.66c-.4-.06-.73-.09-.99-.09s-.45.04-.56.1c-.11.07-.19.2-.25.4-.05.2-.08.53-.08,1s.06.8.17.98c.11.18.33.27.66.27s.68-.03,1.05-.08l.02.68Z"/>
        <path class="cls-7" d="m480.85,588.4c-.25.34-.69.51-1.31.51s-1.06-.17-1.31-.51c-.25-.34-.38-.87-.38-1.59s.13-1.25.38-1.6.69-.53,1.31-.53,1.06.18,1.31.53c.25.35.38.88.38,1.6s-.13,1.25-.38,1.59Zm-1.97-.53c.12.21.34.31.66.31s.54-.1.66-.31c.12-.21.18-.56.18-1.06s-.06-.85-.18-1.08c-.12-.22-.34-.34-.66-.34s-.54.11-.66.34c-.12.22-.18.58-.18,1.08s.06.85.18,1.06Z"/>
        <path class="cls-7" d="m482.76,587.47v1.37h-.83v-4.08h1.58c.96,0,1.44.45,1.44,1.34,0,.53-.2.92-.6,1.18l.58,1.56h-.91l-.47-1.37h-.8Zm1.21-.89c.1-.12.14-.28.14-.47s-.05-.35-.15-.47c-.1-.12-.25-.17-.44-.17h-.76v1.3h.77c.2,0,.34-.06.44-.18Z"/>
        <path class="cls-7" d="m487.15,587.65h-.67v1.19h-.83v-4.08h1.5c.97,0,1.45.47,1.45,1.42,0,.48-.12.84-.37,1.09-.25.25-.61.38-1.08.38Zm-.67-.71h.67c.41,0,.62-.26.62-.77,0-.25-.05-.43-.15-.54-.1-.11-.26-.17-.47-.17h-.67v1.48Z"/>
        <path class="cls-7" d="m492.01,588.4c-.25.34-.69.51-1.31.51s-1.06-.17-1.31-.51c-.25-.34-.38-.87-.38-1.59s.13-1.25.38-1.6.69-.53,1.31-.53,1.06.18,1.31.53c.25.35.38.88.38,1.6s-.13,1.25-.38,1.59Zm-1.97-.53c.12.21.34.31.66.31s.54-.1.66-.31c.12-.21.18-.56.18-1.06s-.06-.85-.18-1.08c-.12-.22-.34-.34-.66-.34s-.54.11-.66.34c-.12.22-.18.58-.18,1.08s.06.85.18,1.06Z"/>
        <path class="cls-7" d="m493.93,587.47v1.37h-.83v-4.08h1.58c.96,0,1.44.45,1.44,1.34,0,.53-.2.92-.6,1.18l.58,1.56h-.91l-.47-1.37h-.8Zm1.21-.89c.1-.12.14-.28.14-.47s-.05-.35-.15-.47c-.1-.12-.25-.17-.44-.17h-.76v1.3h.77c.2,0,.34-.06.44-.18Z"/>
        <path class="cls-7" d="m496.43,588.83l.92-4.08h1.57l.92,4.08h-.83l-.16-.74h-1.43l-.16.74h-.83Zm1.56-3.4l-.41,1.94h1.12l-.41-1.94h-.29Z"/>
        <path class="cls-7" d="m499.8,585.49v-.73h3v.73h-1.08v3.35h-.83v-3.35h-1.09Z"/>
        <path class="cls-7" d="m503.32,588.83v-4.08h2.64v.72h-1.81v.95h1.45v.71h-1.45v.98h1.81v.72h-2.64Z"/>
        <path class="cls-7" d="m510.28,588.83h-2.32v-4.08h.83v3.35h1.49v.73Z"/>
        <path class="cls-7" d="m513.58,588.4c-.25.34-.69.51-1.31.51s-1.06-.17-1.31-.51c-.25-.34-.38-.87-.38-1.59s.13-1.25.38-1.6.69-.53,1.31-.53,1.06.18,1.31.53c.25.35.38.88.38,1.6s-.13,1.25-.38,1.59Zm-1.97-.53c.12.21.34.31.66.31s.54-.1.66-.31c.12-.21.18-.56.18-1.06s-.06-.85-.18-1.08c-.12-.22-.34-.34-.66-.34s-.54.11-.66.34c-.12.22-.18.58-.18,1.08s.06.85.18,1.06Z"/>
        <path class="cls-7" d="m515.46,587.47c0,.48.24.71.73.71s.73-.24.73-.71v-2.72h.83v2.7c0,.5-.13.87-.39,1.1-.26.23-.65.35-1.17.35s-.91-.12-1.17-.35c-.26-.23-.39-.6-.39-1.1v-2.7h.83v2.72Z"/>
        <path class="cls-7" d="m518.59,588.83v-4.08h1.4l.98,3.36h.06v-3.36h.83v4.08h-1.36l-1.02-3.36h-.06v3.36h-.83Z"/>
        <path class="cls-7" d="m524.45,587.37v-.72h1.19v2.12c-.57.09-1.04.14-1.39.14-.64,0-1.07-.17-1.31-.51-.24-.34-.36-.88-.36-1.62s.12-1.27.37-1.6.67-.49,1.27-.49c.37,0,.77.04,1.21.13l.22.04-.02.64c-.48-.05-.87-.08-1.18-.08s-.52.04-.65.11c-.12.07-.21.2-.27.4s-.09.53-.09,1,.06.8.17.99c.12.19.36.28.72.28l.5-.02v-.79h-.37Z"/>
        <path class="cls-7" d="m526.42,588.83v-4.08h2.64v.72h-1.81v.95h1.45v.71h-1.45v.98h1.81v.72h-2.64Z"/>
      </g>
      <g>
        <path class="cls-7" d="m476.3,577.65h-.67v1.19h-.83v-4.08h1.5c.97,0,1.45.47,1.45,1.42,0,.48-.12.84-.37,1.09-.25.25-.61.38-1.08.38Zm-.67-.71h.67c.41,0,.62-.26.62-.77,0-.25-.05-.43-.15-.54-.1-.11-.26-.17-.47-.17h-.67v1.48Z"/>
        <path class="cls-7" d="m481.16,578.4c-.25.34-.69.51-1.31.51s-1.06-.17-1.31-.51c-.25-.34-.38-.87-.38-1.59s.13-1.25.38-1.6.69-.53,1.31-.53,1.06.18,1.31.53c.25.35.38.88.38,1.6s-.13,1.25-.38,1.59Zm-1.97-.53c.12.21.34.31.66.31s.54-.1.66-.31c.12-.21.18-.56.18-1.06s-.06-.85-.18-1.08c-.12-.22-.34-.34-.66-.34s-.54.11-.66.34c-.12.22-.18.58-.18,1.08s.06.85.18,1.06Z"/>
        <path class="cls-7" d="m483.62,578.83h-1.37v-4.08h1.37c.35,0,.64.04.87.11s.4.2.53.37c.13.17.21.37.26.6s.07.53.07.9-.02.67-.07.92c-.04.24-.13.46-.25.65s-.3.33-.53.41-.53.13-.89.13Zm.87-1.62c0-.13.01-.3.01-.53s0-.41-.02-.54c-.02-.14-.05-.26-.11-.37-.06-.11-.15-.19-.27-.23s-.28-.06-.48-.06h-.55v2.64h.55c.3,0,.52-.08.65-.23.12-.12.19-.35.22-.67Z"/>
        <path class="cls-7" d="m486.07,578.83v-4.08h.83v4.08h-.83Z"/>
        <path class="cls-7" d="m488.58,577.47c0,.48.24.71.73.71s.73-.24.73-.71v-2.72h.83v2.7c0,.5-.13.87-.39,1.1-.26.23-.65.35-1.17.35s-.91-.12-1.17-.35c-.26-.23-.39-.6-.39-1.1v-2.7h.83v2.72Z"/>
        <path class="cls-7" d="m491.71,578.83v-4.08h1.41l.72,2.98.72-2.98h1.41v4.08h-.83v-3.16h-.09l-.8,2.98h-.83l-.8-2.98h-.09v3.16h-.83Z"/>
        <path class="cls-7" d="m500.39,574.75h.87l-.95,4.08h-1.53l-.95-4.08h.87l.71,3.36h.27l.71-3.36Z"/>
        <path class="cls-7" d="m501.8,578.83v-4.08h.83v4.08h-.83Z"/>
        <path class="cls-7" d="m503.52,578.83v-4.08h2.64v.72h-1.81v.95h1.45v.71h-1.45v.98h1.81v.72h-2.64Z"/>
        <path class="cls-7" d="m506.51,574.75h.87l.5,3.37h.09l.73-3.37h.96l.73,3.37h.09l.5-3.37h.87l-.78,4.08h-1.25l-.64-3.1-.64,3.1h-1.25l-.78-4.08Z"/>
      </g>
      <g>
        <path class="cls-7" d="m47.84,579.93c-.44,0-.65.14-.65.43,0,.13.05.23.16.29.11.07.36.17.76.29.4.13.68.27.84.44.16.16.24.41.24.75,0,.43-.13.75-.39.97-.26.22-.6.33-1.02.33-.31,0-.69-.05-1.15-.14l-.22-.04.08-.64c.54.07.95.11,1.23.11.42,0,.64-.18.64-.53,0-.13-.05-.23-.15-.3-.1-.07-.29-.15-.59-.23-.46-.13-.79-.29-.98-.47-.19-.18-.29-.44-.29-.76,0-.41.12-.71.37-.91.25-.2.59-.3,1.02-.3.3,0,.67.04,1.13.12l.22.04-.07.65c-.56-.06-.96-.1-1.19-.1Z"/>
        <path class="cls-7" d="m49.85,583.36v-4.08h2.64v.72h-1.81v.95h1.45v.71h-1.45v.98h1.81v.72h-2.64Z"/>
        <path class="cls-7" d="m55.73,583.29c-.42.09-.81.14-1.15.14s-.61-.04-.82-.13-.36-.22-.48-.4c-.12-.18-.2-.4-.24-.65-.04-.25-.07-.56-.07-.94,0-.79.11-1.34.33-1.65.22-.31.63-.47,1.23-.47.34,0,.74.05,1.19.16l-.02.66c-.4-.06-.73-.09-.99-.09s-.45.04-.56.1c-.11.07-.19.2-.25.4-.05.2-.08.53-.08,1s.06.8.17.98c.11.18.33.27.66.27s.68-.03,1.05-.08l.02.68Z"/>
        <path class="cls-7" d="m56.03,580.01v-.73h3v.73h-1.08v3.35h-.83v-3.35h-1.09Z"/>
        <path class="cls-7" d="m59.55,583.36v-4.08h.83v4.08h-.83Z"/>
        <path class="cls-7" d="m64.09,582.92c-.25.34-.69.51-1.31.51s-1.06-.17-1.31-.51c-.25-.34-.38-.87-.38-1.59s.13-1.25.38-1.6.69-.53,1.31-.53,1.06.18,1.31.53c.25.35.38.88.38,1.6s-.13,1.25-.38,1.59Zm-1.97-.53c.12.21.34.31.66.31s.54-.1.66-.31.18-.56.18-1.06-.06-.85-.18-1.08c-.12-.22-.34-.34-.66-.34s-.54.11-.66.34c-.12.22-.18.58-.18,1.08s.06.85.18,1.06Z"/>
        <path class="cls-7" d="m65.18,583.36v-4.08h1.4l.98,3.36h.06v-3.36h.83v4.08h-1.36l-1.02-3.36h-.06v3.36h-.83Z"/>
        <path class="cls-7" d="m72.16,582.17h-.67v1.19h-.83v-4.08h1.5c.97,0,1.45.47,1.45,1.42,0,.48-.12.84-.37,1.09-.25.25-.61.38-1.08.38Zm-.67-.71h.67c.41,0,.62-.26.62-.77,0-.25-.05-.43-.15-.54s-.26-.17-.47-.17h-.67v1.48Z"/>
        <path class="cls-7" d="m74.05,582.21v-.72h1.01v-1.01h.72v1.01h1.03v.72h-1.03v1.02h-.72v-1.02h-1.01Z"/>
        <path class="cls-7" d="m78.38,581.99v1.37h-.83v-4.08h1.58c.96,0,1.44.45,1.44,1.34,0,.53-.2.92-.6,1.18l.58,1.56h-.91l-.47-1.37h-.8Zm1.21-.89c.1-.12.14-.28.14-.47s-.05-.35-.15-.47-.25-.17-.44-.17h-.76v1.3h.77c.2,0,.34-.06.44-.18Z"/>
      </g>
      <g>
        <path class="cls-7" d="m107.98,590.96v-1.22h5v1.22h-1.8v5.58h-1.38v-5.58h-1.82Z"/>
        <path class="cls-7" d="m115.17,594.27c0,.79.4,1.19,1.21,1.19s1.21-.4,1.21-1.19v-4.53h1.38v4.5c0,.83-.21,1.44-.65,1.83-.43.39-1.08.58-1.94.58s-1.52-.2-1.94-.58c-.43-.39-.65-1-.65-1.83v-4.5h1.38v4.53Z"/>
        <path class="cls-7" d="m121.77,594.26v2.28h-1.38v-6.8h2.64c1.6,0,2.4.75,2.4,2.24,0,.89-.33,1.54-1,1.96l.97,2.6h-1.51l-.79-2.28h-1.33Zm2.01-1.48c.16-.2.24-.46.24-.79s-.08-.59-.25-.78c-.17-.19-.42-.29-.74-.29h-1.26v2.16h1.28c.33,0,.57-.1.73-.3Z"/>
        <path class="cls-7" d="m126.59,596.54v-6.8h2.33l1.64,5.6h.1v-5.6h1.38v6.8h-2.27l-1.7-5.6h-.1v5.6h-1.38Z"/>
        <path class="cls-7" d="m139.16,589.94v6.6h-1.38v-5.04l-1.43.92-.63-1.03,2.18-1.45h1.26Z"/>
        <path class="cls-7" d="m97.17,604.36v-1.2h1.98v3.53c-.95.15-1.73.23-2.32.23-1.06,0-1.79-.28-2.19-.85-.4-.57-.59-1.47-.59-2.7s.21-2.12.62-2.67c.41-.55,1.12-.82,2.11-.82.62,0,1.29.07,2.01.21l.36.07-.04,1.07c-.8-.09-1.45-.13-1.96-.13s-.87.06-1.07.18c-.21.12-.36.34-.46.66-.1.32-.15.88-.15,1.66s.1,1.33.29,1.65.59.47,1.2.47l.83-.04v-1.32h-.62Z"/>
        <path class="cls-7" d="m101.83,604.52v2.28h-1.38v-6.8h2.64c1.6,0,2.4.75,2.4,2.24,0,.89-.33,1.54-1,1.96l.97,2.6h-1.51l-.79-2.28h-1.33Zm2.01-1.48c.16-.2.24-.46.24-.79s-.08-.59-.25-.78c-.17-.19-.42-.29-.74-.29h-1.26v2.16h1.28c.33,0,.57-.1.73-.3Z"/>
        <path class="cls-7" d="m106,606.8l1.53-6.8h2.62l1.53,6.8h-1.38l-.27-1.23h-2.38l-.27,1.23h-1.38Zm2.6-5.66l-.69,3.23h1.86l-.69-3.23h-.48Z"/>
        <path class="cls-7" d="m112.6,606.8v-6.8h2.33l1.64,5.6h.1v-5.6h1.38v6.8h-2.27l-1.7-5.6h-.1v5.6h-1.38Z"/>
        <path class="cls-7" d="m121.81,606.8h-2.29v-6.8h2.29c.59,0,1.07.06,1.45.18.38.12.67.33.89.61.21.28.35.62.43,1,.08.38.12.88.12,1.5s-.04,1.12-.11,1.52c-.07.4-.21.76-.42,1.08-.2.32-.5.55-.89.69s-.88.21-1.48.21Zm1.45-2.7c.01-.21.02-.51.02-.88s-.01-.68-.04-.91c-.03-.23-.09-.43-.19-.62-.1-.19-.25-.31-.44-.38-.2-.07-.46-.1-.8-.1h-.91v4.4h.91c.5,0,.86-.13,1.09-.38.19-.21.31-.58.36-1.12Z"/>
        <path class="cls-7" d="m127.99,601.08c-.73,0-1.09.24-1.09.72,0,.21.09.38.27.49.18.11.6.28,1.27.49.66.21,1.13.45,1.4.72.27.27.4.68.4,1.25,0,.71-.22,1.25-.65,1.62-.43.37-1,.55-1.7.55-.52,0-1.16-.08-1.91-.24l-.36-.07.14-1.07c.89.12,1.58.18,2.05.18.71,0,1.06-.29,1.06-.88,0-.21-.08-.38-.25-.5-.16-.12-.49-.25-.98-.39-.77-.22-1.32-.48-1.63-.79-.32-.3-.48-.73-.48-1.27,0-.68.21-1.19.62-1.52.41-.33.98-.5,1.7-.5.49,0,1.12.07,1.88.2l.36.07-.11,1.09c-.94-.11-1.6-.16-1.99-.16Z"/>
        <path class="cls-7" d="m130.73,601.22v-1.22h5v1.22h-1.8v5.58h-1.38v-5.58h-1.82Z"/>
        <path class="cls-7" d="m135.66,606.8l1.53-6.8h2.62l1.53,6.8h-1.38l-.27-1.23h-2.38l-.27,1.23h-1.38Zm2.6-5.66l-.69,3.23h1.86l-.69-3.23h-.48Z"/>
        <path class="cls-7" d="m142.25,606.8v-6.8h2.33l1.64,5.6h.1v-5.6h1.38v6.8h-2.27l-1.7-5.6h-.1v5.6h-1.38Z"/>
        <path class="cls-7" d="m151.47,606.8h-2.29v-6.8h2.29c.59,0,1.07.06,1.45.18.38.12.67.33.89.61.21.28.35.62.43,1,.08.38.12.88.12,1.5s-.04,1.12-.11,1.52c-.07.4-.21.76-.42,1.08-.2.32-.5.55-.89.69s-.88.21-1.48.21Zm1.45-2.7c.01-.21.02-.51.02-.88s-.01-.68-.04-.91c-.03-.23-.09-.43-.19-.62-.1-.19-.25-.31-.44-.38-.2-.07-.46-.1-.8-.1h-.91v4.4h.91c.5,0,.86-.13,1.09-.38.19-.21.31-.58.36-1.12Z"/>
      </g>
      <g>
        <path class="cls-7" d="m12.67,381.4c0,.79.4,1.19,1.21,1.19s1.21-.4,1.21-1.19v-4.53h1.38v4.5c0,.83-.21,1.44-.65,1.83-.43.39-1.08.58-1.94.58s-1.52-.2-1.94-.58c-.43-.39-.65-1-.65-1.83v-4.5h1.38v4.53Z"/>
        <path class="cls-7" d="m17.89,383.67v-6.8h2.33l1.64,5.6h.1v-5.6h1.38v6.8h-2.27l-1.7-5.6h-.1v5.6h-1.38Z"/>
        <path class="cls-7" d="m24.82,383.67v-6.8h1.38v6.8h-1.38Z"/>
        <path class="cls-7" d="m31.36,376.87h1.45l-1.58,6.8h-2.55l-1.58-6.8h1.45l1.18,5.6h.45l1.18-5.6Z"/>
        <path class="cls-7" d="m33.71,383.67v-6.8h4.4v1.2h-3.02v1.59h2.42v1.18h-2.42v1.63h3.02v1.2h-4.4Z"/>
        <path class="cls-7" d="m40.63,381.39v2.28h-1.38v-6.8h2.64c1.6,0,2.4.75,2.4,2.24,0,.89-.33,1.54-1,1.96l.97,2.6h-1.51l-.79-2.28h-1.33Zm2.01-1.48c.16-.2.24-.46.24-.79s-.08-.59-.25-.78c-.17-.19-.42-.29-.74-.29h-1.26v2.16h1.28c.33,0,.57-.1.73-.3Z"/>
        <path class="cls-7" d="m47.54,377.95c-.73,0-1.09.24-1.09.72,0,.21.09.38.27.49.18.11.6.28,1.27.49.66.21,1.13.45,1.4.72.27.27.4.68.4,1.25,0,.71-.22,1.25-.65,1.62-.43.37-1,.55-1.7.55-.52,0-1.16-.08-1.91-.24l-.36-.07.14-1.07c.89.12,1.58.18,2.05.18.71,0,1.06-.29,1.06-.88,0-.21-.08-.38-.25-.5-.16-.12-.49-.25-.98-.39-.77-.22-1.32-.48-1.63-.79-.32-.3-.48-.73-.48-1.27,0-.68.21-1.19.62-1.52.41-.33.98-.5,1.7-.5.49,0,1.12.07,1.88.2l.36.07-.11,1.09c-.94-.11-1.6-.16-1.99-.16Z"/>
        <path class="cls-7" d="m50.89,383.67v-6.8h1.38v6.8h-1.38Z"/>
        <path class="cls-7" d="m53.14,378.09v-1.22h5v1.22h-1.8v5.58h-1.38v-5.58h-1.82Z"/>
        <path class="cls-7" d="m61.75,383.67h-1.38v-2.75l-2.1-4.05h1.53l1.25,2.71,1.25-2.71h1.53l-2.08,4.05v2.75Z"/>
        <path class="cls-7" d="m10.19,391.49v-1.2h1.98v3.53c-.95.15-1.73.23-2.32.23-1.06,0-1.79-.28-2.19-.85-.4-.57-.59-1.47-.59-2.7s.21-2.12.62-2.67c.41-.55,1.12-.82,2.11-.82.62,0,1.29.07,2.01.21l.36.07-.04,1.07c-.8-.09-1.45-.13-1.96-.13s-.87.06-1.07.18c-.21.12-.36.34-.46.66-.1.32-.15.88-.15,1.66s.1,1.33.29,1.65.59.47,1.2.47l.83-.04v-1.32h-.62Z"/>
        <path class="cls-7" d="m14.85,391.65v2.28h-1.38v-6.8h2.64c1.6,0,2.4.75,2.4,2.24,0,.89-.33,1.54-1,1.96l.97,2.6h-1.51l-.79-2.28h-1.33Zm2.01-1.48c.16-.2.24-.46.24-.79s-.08-.59-.25-.78c-.17-.19-.42-.29-.74-.29h-1.26v2.16h1.28c.33,0,.57-.1.73-.3Z"/>
        <path class="cls-7" d="m19.02,393.93l1.53-6.8h2.62l1.53,6.8h-1.38l-.27-1.23h-2.38l-.27,1.23h-1.38Zm2.6-5.66l-.69,3.23h1.86l-.69-3.23h-.48Z"/>
        <path class="cls-7" d="m25.61,393.93v-6.8h2.33l1.64,5.6h.1v-5.6h1.38v6.8h-2.27l-1.7-5.6h-.1v5.6h-1.38Z"/>
        <path class="cls-7" d="m34.83,393.93h-2.29v-6.8h2.29c.59,0,1.07.06,1.45.18.38.12.67.33.89.61.21.28.35.62.43,1,.08.38.12.88.12,1.5s-.04,1.12-.11,1.52c-.07.4-.21.76-.42,1.08-.2.32-.5.55-.89.69s-.88.21-1.48.21Zm1.45-2.7c.01-.21.02-.51.02-.88s-.01-.68-.04-.91c-.03-.23-.09-.43-.19-.62-.1-.19-.25-.31-.44-.38-.2-.07-.46-.1-.8-.1h-.91v4.4h.91c.5,0,.86-.13,1.09-.38.19-.21.31-.58.36-1.12Z"/>
        <path class="cls-7" d="m41.01,388.21c-.73,0-1.09.24-1.09.72,0,.21.09.38.27.49.18.11.6.28,1.27.49.66.21,1.13.45,1.4.72.27.27.4.68.4,1.25,0,.71-.22,1.25-.65,1.62-.43.37-1,.55-1.7.55-.52,0-1.16-.08-1.91-.24l-.36-.07.14-1.07c.89.12,1.58.18,2.05.18.71,0,1.06-.29,1.06-.88,0-.21-.08-.38-.25-.5-.16-.12-.49-.25-.98-.39-.77-.22-1.32-.48-1.63-.79-.32-.3-.48-.73-.48-1.27,0-.68.21-1.19.62-1.52.41-.33.98-.5,1.7-.5.49,0,1.12.07,1.88.2l.36.07-.11,1.09c-.94-.11-1.6-.16-1.99-.16Z"/>
        <path class="cls-7" d="m43.75,388.35v-1.22h5v1.22h-1.8v5.58h-1.38v-5.58h-1.82Z"/>
        <path class="cls-7" d="m48.68,393.93l1.53-6.8h2.62l1.53,6.8h-1.38l-.27-1.23h-2.38l-.27,1.23h-1.38Zm2.6-5.66l-.69,3.23h1.86l-.69-3.23h-.48Z"/>
        <path class="cls-7" d="m55.27,393.93v-6.8h2.33l1.64,5.6h.1v-5.6h1.38v6.8h-2.27l-1.7-5.6h-.1v5.6h-1.38Z"/>
        <path class="cls-7" d="m64.49,393.93h-2.29v-6.8h2.29c.59,0,1.07.06,1.45.18.38.12.67.33.89.61.21.28.35.62.43,1,.08.38.12.88.12,1.5s-.04,1.12-.11,1.52c-.07.4-.21.76-.42,1.08-.2.32-.5.55-.89.69s-.88.21-1.48.21Zm1.45-2.7c.01-.21.02-.51.02-.88s-.01-.68-.04-.91c-.03-.23-.09-.43-.19-.62-.1-.19-.25-.31-.44-.38-.2-.07-.46-.1-.8-.1h-.91v4.4h.91c.5,0,.86-.13,1.09-.38.19-.21.31-.58.36-1.12Z"/>
      </g>
      <g>
        <path class="cls-7" d="m284.58,506.35h2.67c.71,0,1.24.14,1.59.42s.53.74.53,1.38c0,.38-.06.68-.17.91s-.31.42-.58.59c.3.13.52.31.67.55.14.24.22.57.22,1,0,.66-.19,1.15-.58,1.47-.39.32-.93.48-1.63.48h-2.71v-6.8Zm2.6,1.18h-1.22v1.62h1.23c.52,0,.78-.27.78-.81s-.26-.81-.79-.81Zm.04,2.78h-1.26v1.66h1.26c.3,0,.52-.06.67-.18s.21-.34.21-.66c0-.55-.29-.82-.88-.82Z"/>
        <path class="cls-7" d="m290.67,513.15v-6.8h4.4v1.2h-3.02v1.59h2.42v1.18h-2.42v1.63h3.02v1.2h-4.4Z"/>
        <path class="cls-7" d="m298.94,513.15h-1.38v-2.75l-2.1-4.05h1.53l1.25,2.71,1.25-2.71h1.53l-2.08,4.05v2.75Z"/>
        <path class="cls-7" d="m306.2,512.42c-.42.56-1.15.84-2.19.84s-1.76-.28-2.18-.84c-.42-.56-.64-1.45-.64-2.65s.21-2.09.64-2.67c.42-.58,1.15-.88,2.18-.88s1.76.29,2.19.88.64,1.47.64,2.67-.21,2.08-.64,2.65Zm-3.29-.88c.2.35.57.53,1.1.53s.91-.17,1.11-.53c.2-.35.29-.94.29-1.76s-.1-1.42-.3-1.79c-.2-.37-.57-.56-1.1-.56s-.9.19-1.1.56c-.2.37-.3.97-.3,1.79s.1,1.41.29,1.76Z"/>
        <path class="cls-7" d="m308.01,513.15v-6.8h2.33l1.64,5.6h.1v-5.6h1.38v6.8h-2.27l-1.7-5.6h-.1v5.6h-1.38Z"/>
      </g>
      <g>
        <path class="cls-7" d="m287.45,545.66h-.67v1.19h-.83v-4.08h1.5c.97,0,1.45.47,1.45,1.42,0,.48-.12.84-.37,1.09-.25.25-.61.38-1.08.38Zm-.67-.71h.67c.41,0,.62-.26.62-.77,0-.25-.05-.43-.15-.54-.1-.11-.26-.17-.47-.17h-.67v1.48Z"/>
        <path class="cls-7" d="m289.03,546.85l.92-4.08h1.57l.92,4.08h-.83l-.16-.74h-1.43l-.16.74h-.83Zm1.56-3.4l-.41,1.94h1.12l-.41-1.94h-.29Z"/>
        <path class="cls-7" d="m294.36,546.85h-1.37v-4.08h1.37c.35,0,.64.04.87.11.23.07.4.2.53.37.13.17.21.37.26.6s.07.53.07.9-.02.67-.07.92c-.04.24-.13.46-.25.65s-.3.33-.53.41c-.23.09-.53.13-.89.13Zm.87-1.62c0-.13.01-.3.01-.53s0-.41-.02-.54c-.02-.14-.05-.26-.11-.37-.06-.11-.15-.19-.27-.23s-.28-.06-.48-.06h-.55v2.64h.55c.3,0,.52-.08.65-.23.12-.12.19-.35.22-.67Z"/>
        <path class="cls-7" d="m298.19,546.85h-1.37v-4.08h1.37c.35,0,.64.04.87.11.23.07.4.2.53.37.13.17.21.37.26.6s.07.53.07.9-.02.67-.07.92c-.04.24-.13.46-.25.65s-.3.33-.53.41c-.23.09-.53.13-.89.13Zm.87-1.62c0-.13.01-.3.01-.53s0-.41-.02-.54c-.02-.14-.05-.26-.11-.37-.06-.11-.15-.19-.27-.23s-.28-.06-.48-.06h-.55v2.64h.55c.3,0,.52-.08.65-.23.12-.12.19-.35.22-.67Z"/>
        <path class="cls-7" d="m303.46,546.41c-.25.34-.69.51-1.31.51s-1.06-.17-1.31-.51c-.25-.34-.38-.87-.38-1.59s.13-1.25.38-1.6.69-.53,1.31-.53,1.06.18,1.31.53.38.88.38,1.6-.13,1.25-.38,1.59Zm-1.97-.53c.12.21.34.31.66.31s.54-.1.66-.31c.12-.21.18-.56.18-1.06s-.06-.85-.18-1.08c-.12-.22-.34-.34-.66-.34s-.54.11-.66.34c-.12.22-.18.58-.18,1.08s.06.85.18,1.06Z"/>
        <path class="cls-7" d="m307.14,546.78c-.42.09-.81.14-1.15.14s-.61-.04-.82-.13-.36-.22-.48-.4c-.12-.18-.2-.4-.24-.65s-.07-.56-.07-.94c0-.79.11-1.34.33-1.65.22-.31.63-.47,1.23-.47.34,0,.74.05,1.19.16l-.02.66c-.4-.06-.72-.09-.99-.09s-.45.04-.56.1c-.11.07-.2.2-.25.4s-.08.53-.08,1,.05.8.17.98c.11.18.33.27.66.27s.68-.03,1.05-.08l.02.68Z"/>
        <path class="cls-7" d="m308.64,546.85h-.83v-4.08h.83v1.79l.55-.06.67-1.73h.94l-.89,2.05.91,2.03h-.95l-.68-1.63-.55.06v1.57Z"/>
        <path class="cls-7" d="m315.27,546.78c-.42.09-.81.14-1.15.14s-.61-.04-.82-.13-.36-.22-.48-.4c-.12-.18-.2-.4-.24-.65s-.07-.56-.07-.94c0-.79.11-1.34.33-1.65.22-.31.63-.47,1.23-.47.34,0,.74.05,1.19.16l-.02.66c-.4-.06-.72-.09-.99-.09s-.45.04-.56.1c-.11.07-.2.2-.25.4s-.08.53-.08,1,.05.8.17.98c.11.18.33.27.66.27s.68-.03,1.05-.08l.02.68Z"/>
        <path class="cls-7" d="m318.27,546.85h-2.32v-4.08h.83v3.35h1.49v.73Z"/>
        <path class="cls-7" d="m319.54,545.49c0,.48.24.71.73.71s.73-.24.73-.71v-2.72h.83v2.7c0,.5-.13.87-.39,1.1-.26.23-.65.35-1.17.35s-.91-.12-1.17-.35c-.26-.23-.39-.6-.39-1.1v-2.7h.83v2.72Z"/>
        <path class="cls-7" d="m322.67,542.77h1.6c.42,0,.74.08.95.25s.32.45.32.83c0,.23-.03.41-.1.54-.07.13-.18.25-.35.36.18.08.31.19.4.33.09.14.13.34.13.6,0,.4-.12.69-.35.88-.23.19-.56.29-.98.29h-1.63v-4.08Zm1.56.71h-.73v.97h.74c.31,0,.47-.16.47-.49s-.16-.49-.47-.49Zm.02,1.67h-.76v1h.76c.18,0,.31-.04.4-.11.09-.07.13-.2.13-.4,0-.33-.18-.49-.53-.49Z"/>
      </g>
      <g>
        <path class="cls-7" d="m575.12,433.3h1.45l-1.58,6.8h-2.55l-1.58-6.8h1.45l1.18,5.6h.45l1.18-5.6Z"/>
        <path class="cls-7" d="m577.47,440.1v-6.8h1.38v6.8h-1.38Z"/>
        <path class="cls-7" d="m584.64,439.99c-.71.15-1.34.23-1.91.23s-1.02-.07-1.36-.21c-.34-.14-.61-.36-.8-.67s-.33-.67-.4-1.08c-.07-.41-.11-.93-.11-1.56,0-1.31.18-2.23.55-2.74s1.05-.78,2.04-.78c.57,0,1.24.09,1.99.27l-.04,1.1c-.66-.1-1.21-.15-1.65-.15s-.75.06-.94.17c-.19.12-.32.34-.42.67-.09.33-.13.88-.13,1.67s.09,1.33.27,1.64c.18.3.55.46,1.1.46s1.13-.05,1.75-.14l.03,1.13Z"/>
        <path class="cls-7" d="m585.15,434.52v-1.22h5v1.22h-1.8v5.58h-1.38v-5.58h-1.82Z"/>
        <path class="cls-7" d="m595.67,439.38c-.42.56-1.15.84-2.19.84s-1.76-.28-2.18-.84c-.42-.56-.64-1.45-.64-2.65s.21-2.09.64-2.67c.42-.58,1.15-.88,2.18-.88s1.76.29,2.19.88.64,1.47.64,2.67-.21,2.08-.64,2.65Zm-3.29-.88c.2.35.57.53,1.1.53s.91-.17,1.11-.53c.2-.35.29-.94.29-1.76s-.1-1.42-.3-1.79c-.2-.37-.57-.56-1.1-.56s-.9.19-1.1.56c-.2.37-.3.97-.3,1.79s.1,1.41.29,1.76Z"/>
        <path class="cls-7" d="m598.86,437.82v2.28h-1.38v-6.8h2.64c1.6,0,2.4.75,2.4,2.24,0,.89-.33,1.54-1,1.96l.97,2.6h-1.51l-.79-2.28h-1.33Zm2.01-1.48c.16-.2.24-.46.24-.79s-.08-.59-.25-.78c-.17-.19-.42-.29-.74-.29h-1.26v2.16h1.28c.33,0,.57-.1.73-.3Z"/>
        <path class="cls-7" d="m606.2,440.1h-1.38v-2.75l-2.1-4.05h1.53l1.25,2.71,1.25-2.71h1.53l-2.08,4.05v2.75Z"/>
        <path class="cls-7" d="m562.46,447.92v-1.2h1.98v3.53c-.95.15-1.73.23-2.32.23-1.06,0-1.79-.28-2.19-.85-.4-.57-.59-1.47-.59-2.7s.21-2.12.62-2.67c.41-.55,1.12-.82,2.11-.82.62,0,1.29.07,2.01.21l.36.07-.04,1.07c-.8-.09-1.45-.13-1.96-.13s-.87.06-1.07.18c-.21.12-.36.34-.46.66-.1.32-.15.88-.15,1.66s.1,1.33.29,1.65.59.47,1.2.47l.83-.04v-1.32h-.62Z"/>
        <path class="cls-7" d="m567.12,448.08v2.28h-1.38v-6.8h2.64c1.6,0,2.4.75,2.4,2.24,0,.89-.33,1.54-1,1.96l.97,2.6h-1.51l-.79-2.28h-1.33Zm2.01-1.48c.16-.2.24-.46.24-.79s-.08-.59-.25-.78c-.17-.19-.42-.29-.74-.29h-1.26v2.16h1.28c.33,0,.57-.1.73-.3Z"/>
        <path class="cls-7" d="m571.29,450.36l1.53-6.8h2.62l1.53,6.8h-1.38l-.27-1.23h-2.38l-.27,1.23h-1.38Zm2.6-5.66l-.69,3.23h1.86l-.69-3.23h-.48Z"/>
        <path class="cls-7" d="m577.88,450.36v-6.8h2.33l1.64,5.6h.1v-5.6h1.38v6.8h-2.27l-1.7-5.6h-.1v5.6h-1.38Z"/>
        <path class="cls-7" d="m587.1,450.36h-2.29v-6.8h2.29c.59,0,1.07.06,1.45.18.38.12.67.33.89.61.21.28.35.62.43,1,.08.38.12.88.12,1.5s-.04,1.12-.11,1.52c-.07.4-.21.76-.42,1.08-.2.32-.5.55-.89.69s-.88.21-1.48.21Zm1.45-2.7c.01-.21.02-.51.02-.88s-.01-.68-.04-.91c-.03-.23-.09-.43-.19-.62-.1-.19-.25-.31-.44-.38-.2-.07-.46-.1-.8-.1h-.91v4.4h.91c.5,0,.86-.13,1.09-.38.19-.21.31-.58.36-1.12Z"/>
        <path class="cls-7" d="m593.28,444.64c-.73,0-1.09.24-1.09.72,0,.21.09.38.27.49.18.11.6.28,1.27.49.66.21,1.13.45,1.4.72.27.27.4.68.4,1.25,0,.71-.22,1.25-.65,1.62-.43.37-1,.55-1.7.55-.52,0-1.16-.08-1.91-.24l-.36-.07.14-1.07c.89.12,1.58.18,2.05.18.71,0,1.06-.29,1.06-.88,0-.21-.08-.38-.25-.5-.16-.12-.49-.25-.98-.39-.77-.22-1.32-.48-1.63-.79-.32-.3-.48-.73-.48-1.27,0-.68.21-1.19.62-1.52.41-.33.98-.5,1.7-.5.49,0,1.12.07,1.88.2l.36.07-.11,1.09c-.94-.11-1.6-.16-1.99-.16Z"/>
        <path class="cls-7" d="m596.02,444.78v-1.22h5v1.22h-1.8v5.58h-1.38v-5.58h-1.82Z"/>
        <path class="cls-7" d="m600.95,450.36l1.53-6.8h2.62l1.53,6.8h-1.38l-.27-1.23h-2.38l-.27,1.23h-1.38Zm2.6-5.66l-.69,3.23h1.86l-.69-3.23h-.48Z"/>
        <path class="cls-7" d="m607.54,450.36v-6.8h2.33l1.64,5.6h.1v-5.6h1.38v6.8h-2.27l-1.7-5.6h-.1v5.6h-1.38Z"/>
        <path class="cls-7" d="m616.76,450.36h-2.29v-6.8h2.29c.59,0,1.07.06,1.45.18.38.12.67.33.89.61.21.28.35.62.43,1,.08.38.12.88.12,1.5s-.04,1.12-.11,1.52c-.07.4-.21.76-.42,1.08-.2.32-.5.55-.89.69s-.88.21-1.48.21Zm1.45-2.7c.01-.21.02-.51.02-.88s-.01-.68-.04-.91c-.03-.23-.09-.43-.19-.62-.1-.19-.25-.31-.44-.38-.2-.07-.46-.1-.8-.1h-.91v4.4h.91c.5,0,.86-.13,1.09-.38.19-.21.31-.58.36-1.12Z"/>
      </g>
      <path class="cls-7" d="m552.43,408.89v6.6h-1.38v-5.04l-1.43.92-.63-1.03,2.18-1.45h1.26Z"/>
      <path class="cls-7" d="m586.37,484.56h-4.28v-1.17l1.41-1.43c.5-.51.85-.91,1.04-1.18s.29-.56.29-.88-.08-.53-.25-.65c-.16-.13-.4-.19-.69-.19-.45,0-.93.04-1.46.12l-.24.03-.07-1.07c.65-.2,1.33-.3,2.03-.3,1.4,0,2.1.63,2.1,1.89,0,.49-.11.92-.32,1.28-.21.36-.6.8-1.16,1.31l-1.15,1.04h2.74v1.2Z"/>
      <path class="cls-7" d="m85.81,361.15c.61-.24,1.3-.36,2.05-.36s1.31.15,1.66.44.52.76.52,1.4-.26,1.13-.77,1.47c.32.17.55.35.69.54.14.19.21.48.21.89,0,.71-.18,1.24-.54,1.59-.36.35-.93.52-1.71.52-.58,0-1.19-.09-1.83-.26l-.32-.08.07-1.05c.75.13,1.37.19,1.88.19.69,0,1.03-.29,1.03-.88,0-.25-.09-.44-.26-.59-.18-.15-.41-.22-.7-.22h-1.33v-1.14h1.33c.22,0,.42-.09.58-.28.17-.19.26-.39.26-.62,0-.47-.33-.71-.99-.71-.46,0-.95.05-1.47.14l-.26.04-.09-1.02Z"/>
      <path class="cls-7" d="m83.63,399.47h-4.28v-1.17l1.41-1.43c.5-.51.85-.91,1.04-1.18s.29-.56.29-.88-.08-.53-.25-.65c-.16-.13-.4-.19-.69-.19-.45,0-.93.04-1.46.12l-.24.03-.07-1.07c.65-.2,1.33-.3,2.03-.3,1.4,0,2.1.63,2.1,1.89,0,.49-.11.92-.32,1.28-.21.36-.6.8-1.16,1.31l-1.15,1.04h2.74v1.2Z"/>
      <path class="cls-7" d="m77.73,425.5v6.6h-1.38v-5.04l-1.43.92-.63-1.03,2.18-1.45h1.26Z"/>
      <g>
        <path class="cls-7" d="m180.64,589.41h1.45l-1.58,6.8h-2.55l-1.58-6.8h1.45l1.18,5.6h.45l1.18-5.6Z"/>
        <path class="cls-7" d="m182.99,596.21v-6.8h1.38v6.8h-1.38Z"/>
        <path class="cls-7" d="m188.35,594.23h-1.12v1.98h-1.38v-6.8h2.5c1.61,0,2.42.79,2.42,2.36,0,.79-.21,1.4-.62,1.83-.41.42-1.01.63-1.8.63Zm-1.12-1.18h1.11c.69,0,1.03-.43,1.03-1.28,0-.42-.08-.72-.25-.9-.17-.18-.43-.28-.78-.28h-1.11v2.46Z"/>
        <path class="cls-7" d="m193.33,590.63v-1.22h5v1.22h-1.8v5.58h-1.38v-5.58h-1.82Z"/>
        <path class="cls-7" d="m199.2,596.21v-6.8h4.4v1.2h-3.02v1.59h2.42v1.18h-2.42v1.63h3.02v1.2h-4.4Z"/>
        <path class="cls-7" d="m204.74,596.21v-6.8h2.33l1.64,5.6h.1v-5.6h1.38v6.8h-2.27l-1.7-5.6h-.1v5.6h-1.38Z"/>
        <path class="cls-7" d="m211.06,590.63v-1.22h5v1.22h-1.8v5.58h-1.38v-5.58h-1.82Z"/>
      </g>
      <line class="cls-3" x1="95.12" y1="581.06" x2="82.63" y2="581.06"/>
      <line class="cls-3" x1="473.3" y1="576.67" x2="460.81" y2="576.67"/>
      <line class="cls-3" x1="473.3" y1="586.67" x2="460.81" y2="586.67"/>
    </g>
  </g>
</svg>