<?xml version="1.0" encoding="UTF-8"?>
<svg xmlns="http://www.w3.org/2000/svg" viewBox="0 0 630 800">
  <defs>
    <style>
      .cls-1 {
        stroke: #1a171b;
        stroke-width: .52px;
      }

      .cls-1, .cls-2, .cls-3, .cls-4, .cls-5 {
        fill: none;
      }

      .cls-2 {
        stroke-width: 17.57px;
      }

      .cls-2, .cls-3 {
        stroke-miterlimit: 3.86;
      }

      .cls-2, .cls-4 {
        stroke: #fff;
      }

      .cls-3 {
        stroke-width: 13.43px;
      }

      .cls-3, .cls-5 {
        stroke: #000;
      }

      .cls-4 {
        stroke-width: 1.8px;
      }

      .cls-6, .cls-7 {
        stroke-width: 0px;
      }

      .cls-5 {
        stroke-width: 15.3px;
      }

      .cls-7 {
        fill: #7d7d7d;
      }
 
 #GA path, #GA rect{
        mask: url(#mask-stripe)
      }

    </style>


   <pattern id="pattern-stripe" 
            width="4" height="4" 
            patternUnits="userSpaceOnUse"
            patternTransform="rotate(45)">
            <rect width="1.5" height="4" transform="translate(0,0)" fill="white"></rect>
    </pattern>
    <mask id="mask-stripe">
            <rect x="0" y="0" width="100%" height="100%" fill="url(#pattern-stripe)" />
    </mask>  
</defs> 





  <g id="GA">
    <path idGrandstand="11004" class="cls-7" d="m349.16,335.29l6.23,6.51-22.87,21.87-6.23-6.51,22.87-21.87ZM88,207.27l3.33,9.78-50.09,17.03-18.15,25.51-8.42-5.99,20.08-28.23,53.25-18.1Zm-66.73,61.62l9.1,26.27-9.76,3.38-9.1-26.27,9.76-3.38Zm121.66-41.72l10.79,23.72-9.41,4.28-9.94-21.85-11.23-10.5-12.01-6.11,4.69-9.21,13.31,6.77,13.8,12.9Z"/>
  </g>
  <g id="track">
    <g>
      <g>
        <path class="cls-2" d="m249.24,397.67c12.17,5.14,35.75,14.45,51.1,5.1,30.28-18.44,46.96-45.33,77.96-64.21,8.03-4.89,18.76-9.89,25.17-11.6,7.24-1.93,14.6-3.94,19.38-3.89,6.62.06,4.13,9.3,12.29,8.36l17.46-4.77c15.66-3.9,22.83,2.36,30.34,13.61l106.93,160.85c8.75,13.05,10.5,18.51,3.24,36-1.61,3.88-4.52,10.86-8.43,13.85-10.04,7.65-21.31,5.41-26.12,1.04-5.87-5.33-11.38-15.86-18.47-28.39-5.39-9.54-7.8-13.69-13.55-23.16-10.14-16.69-25.52-6.66-35.78-23.55-4.95-8.14.83-21.56-5.29-31.63-10.08-16.59-37.37-.7-49.02-18.17-10.57-15.85,6.29-32.81-2.37-47.06-8.78-14.45-45.29-15.61-59.52-6.95-30.39,18.51-55.12,70.12-71.1,73.77-20.27,4.64-48.52.23-50.86-11.67-2.51-12.78,5.89-104.94,5.89-104.94,1.41-9.1,2.95-16.02,4.52-19.09,16.39-32.13,30.26-49.09,21.46-65.15-8.9-16.25-20.42-6.79-27.03,1.66-4.28,5.47-33.23,48.56-49.24,63.69-19.46,18.4-51.38,6.13-66.22-18.29-6.56-10.79-10.94-30.61-17.99-42.21-14.22-23.41-26.11-23.12-54.08-13.71-21.15,7.11-39.59,23.74-30.73,43.4,9.44,20.96,33.96,32.22,50.32,41.02,40.52,21.8,49.52,26.5,49.52,26.5,0,0,94.15,42.65,110.21,49.6Z"/>
        <path class="cls-3" d="m249.24,397.67c12.17,5.14,35.75,14.45,51.1,5.1,30.28-18.44,46.96-45.33,77.96-64.21,8.03-4.89,18.76-9.89,25.17-11.6,7.24-1.93,14.6-3.94,19.38-3.89,6.62.06,4.13,9.3,12.29,8.36l17.46-4.77c15.66-3.9,22.83,2.36,30.34,13.61l106.93,160.85c8.75,13.05,10.5,18.51,3.24,36-1.61,3.88-4.52,10.86-8.43,13.85-10.04,7.65-21.31,5.41-26.12,1.04-5.87-5.33-11.38-15.86-18.47-28.39-5.39-9.54-7.8-13.69-13.55-23.16-10.14-16.69-25.52-6.66-35.78-23.55-4.95-8.14.83-21.56-5.29-31.63-10.08-16.59-37.37-.7-49.02-18.17-10.57-15.85,6.29-32.81-2.37-47.06-8.78-14.45-45.29-15.61-59.52-6.95-30.39,18.51-55.12,70.12-71.1,73.77-20.27,4.64-48.52.23-50.86-11.67-2.51-12.78,5.89-104.94,5.89-104.94,1.41-9.1,2.95-16.02,4.52-19.09,16.39-32.13,30.26-49.09,21.46-65.15-8.9-16.25-20.42-6.79-27.03,1.66-4.28,5.47-33.23,48.56-49.24,63.69-19.46,18.4-51.38,6.13-66.22-18.29-6.56-10.79-10.94-30.61-17.99-42.21-14.22-23.41-26.11-23.12-54.08-13.71-21.15,7.11-39.59,23.74-30.73,43.4,9.44,20.96,33.96,32.22,50.32,41.02,40.52,21.8,49.52,26.5,49.52,26.5,0,0,94.15,42.65,110.21,49.6Z"/>
      </g>
      <g>
        <path class="cls-5" d="m249.24,397.67c12.17,5.14,35.75,14.45,51.1,5.1,30.28-18.44,46.96-45.33,77.96-64.21,8.03-4.89,18.76-9.89,25.17-11.6,7.24-1.93,14.6-3.94,19.38-3.89,6.62.06,4.13,9.3,12.29,8.36l17.46-4.77c15.66-3.9,22.83,2.36,30.34,13.61l106.93,160.85c8.75,13.05,10.5,18.51,3.24,36-1.61,3.88-4.52,10.86-8.43,13.85-10.04,7.65-21.31,5.41-26.12,1.04-5.87-5.33-11.38-15.86-18.47-28.39-5.39-9.54-7.8-13.69-13.55-23.16-10.14-16.69-25.52-6.66-35.78-23.55-4.95-8.14.83-21.56-5.29-31.63-10.08-16.59-37.37-.7-49.02-18.17-10.57-15.85,6.29-32.81-2.37-47.06-8.78-14.45-45.29-15.61-59.52-6.95-30.39,18.51-55.12,70.12-71.1,73.77-20.27,4.64-48.52.23-50.86-11.67-2.51-12.78,5.89-104.94,5.89-104.94,1.41-9.1,2.95-16.02,4.52-19.09,16.39-32.13,30.26-49.09,21.46-65.15-8.9-16.25-20.42-6.79-27.03,1.66-4.28,5.47-33.23,48.56-49.24,63.69-19.46,18.4-51.38,6.13-66.22-18.29-6.56-10.79-10.94-30.61-17.99-42.21-14.22-23.41-26.11-23.12-54.08-13.71-21.15,7.11-39.59,23.74-30.73,43.4,9.44,20.96,33.96,32.22,50.32,41.02,40.52,21.8,49.52,26.5,49.52,26.5,0,0,94.15,42.65,110.21,49.6Z"/>
        <path class="cls-5" d="m249.24,397.67c12.17,5.14,35.75,14.45,51.1,5.1,30.28-18.44,46.96-45.33,77.96-64.21,8.03-4.89,18.76-9.89,25.17-11.6,7.24-1.93,14.6-3.94,19.38-3.89,6.62.06,4.13,9.3,12.29,8.36l17.46-4.77c15.66-3.9,22.83,2.36,30.34,13.61l106.93,160.85c8.75,13.05,10.5,18.51,3.24,36-1.61,3.88-4.52,10.86-8.43,13.85-10.04,7.65-21.31,5.41-26.12,1.04-5.87-5.33-11.38-15.86-18.47-28.39-5.39-9.54-7.8-13.69-13.55-23.16-10.14-16.69-25.52-6.66-35.78-23.55-4.95-8.14.83-21.56-5.29-31.63-10.08-16.59-37.37-.7-49.02-18.17-10.57-15.85,6.29-32.81-2.37-47.06-8.78-14.45-45.29-15.61-59.52-6.95-30.39,18.51-55.12,70.12-71.1,73.77-20.27,4.64-48.52.23-50.86-11.67-2.51-12.78,5.89-104.94,5.89-104.94,1.41-9.1,2.95-16.02,4.52-19.09,16.39-32.13,30.26-49.09,21.46-65.15-8.9-16.25-20.42-6.79-27.03,1.66-4.28,5.47-33.23,48.56-49.24,63.69-19.46,18.4-51.38,6.13-66.22-18.29-6.56-10.79-10.94-30.61-17.99-42.21-14.22-23.41-26.11-23.12-54.08-13.71-21.15,7.11-39.59,23.74-30.73,43.4,9.44,20.96,33.96,32.22,50.32,41.02,40.52,21.8,49.52,26.5,49.52,26.5,0,0,94.15,42.65,110.21,49.6Z"/>
      </g>
      <g>
        <path class="cls-4" d="m249.24,397.67c12.17,5.14,35.75,14.45,51.1,5.1,30.28-18.44,46.96-45.33,77.96-64.21,8.03-4.89,18.76-9.89,25.17-11.6,7.24-1.93,14.6-3.94,19.38-3.89,6.62.06,4.13,9.3,12.29,8.36l17.46-4.77c15.66-3.9,22.83,2.36,30.34,13.61l106.93,160.85c8.75,13.05,10.5,18.51,3.24,36-1.61,3.88-4.52,10.86-8.43,13.85-10.04,7.65-21.31,5.41-26.12,1.04-5.87-5.33-11.38-15.86-18.47-28.39-5.39-9.54-7.8-13.69-13.55-23.16-10.14-16.69-25.52-6.66-35.78-23.55-4.95-8.14.83-21.56-5.29-31.63-10.08-16.59-37.37-.7-49.02-18.17-10.57-15.85,6.29-32.81-2.37-47.06-8.78-14.45-45.29-15.61-59.52-6.95-30.39,18.51-55.12,70.12-71.1,73.77-20.27,4.64-48.52.23-50.86-11.67-2.51-12.78,5.89-104.94,5.89-104.94,1.41-9.1,2.95-16.02,4.52-19.09,16.39-32.13,30.26-49.09,21.46-65.15-8.9-16.25-20.42-6.79-27.03,1.66-4.28,5.47-33.23,48.56-49.24,63.69-19.46,18.4-51.38,6.13-66.22-18.29-6.56-10.79-10.94-30.61-17.99-42.21-14.22-23.41-26.11-23.12-54.08-13.71-21.15,7.11-39.59,23.74-30.73,43.4,9.44,20.96,33.96,32.22,50.32,41.02,40.52,21.8,49.52,26.5,49.52,26.5,0,0,94.15,42.65,110.21,49.6Z"/>
        <path class="cls-4" d="m249.24,397.67c12.17,5.14,35.75,14.45,51.1,5.1,30.28-18.44,46.96-45.33,77.96-64.21,8.03-4.89,18.76-9.89,25.17-11.6,7.24-1.93,14.6-3.94,19.38-3.89,6.62.06,4.13,9.3,12.29,8.36l17.46-4.77c15.66-3.9,22.83,2.36,30.34,13.61l106.93,160.85c8.75,13.05,10.5,18.51,3.24,36-1.61,3.88-4.52,10.86-8.43,13.85-10.04,7.65-21.31,5.41-26.12,1.04-5.87-5.33-11.38-15.86-18.47-28.39-5.39-9.54-7.8-13.69-13.55-23.16-10.14-16.69-25.52-6.66-35.78-23.55-4.95-8.14.83-21.56-5.29-31.63-10.08-16.59-37.37-.7-49.02-18.17-10.57-15.85,6.29-32.81-2.37-47.06-8.78-14.45-45.29-15.61-59.52-6.95-30.39,18.51-55.12,70.12-71.1,73.77-20.27,4.64-48.52.23-50.86-11.67-2.51-12.78,5.89-104.94,5.89-104.94,1.41-9.1,2.95-16.02,4.52-19.09,16.39-32.13,30.26-49.09,21.46-65.15-8.9-16.25-20.42-6.79-27.03,1.66-4.28,5.47-33.23,48.56-49.24,63.69-19.46,18.4-51.38,6.13-66.22-18.29-6.56-10.79-10.94-30.61-17.99-42.21-14.22-23.41-26.11-23.12-54.08-13.71-21.15,7.11-39.59,23.74-30.73,43.4,9.44,20.96,33.96,32.22,50.32,41.02,40.52,21.8,49.52,26.5,49.52,26.5,0,0,94.15,42.65,110.21,49.6Z"/>
      </g>
    </g>
  </g>
  <g id="arrow">
    <g>
      <path class="cls-6" d="m496.76,397.63l4.79.74c.22.04.42,0,.6-.14s.29-.31.32-.53l.91-4.8,1.53.28-.92,4.79c-.11.64-.42,1.14-.95,1.52s-1.1.51-1.73.39l-4.78-.72.24-1.52Z"/>
      <path class="cls-6" d="m490.7,389.14l4.79.74c.22.04.42,0,.6-.14s.29-.31.32-.53l.91-4.8,1.53.28-.92,4.79c-.11.64-.42,1.14-.95,1.52s-1.1.51-1.73.39l-4.78-.72.24-1.52Z"/>
      <path class="cls-6" d="m493.73,393.38l4.79.74c.22.04.42,0,.6-.14s.29-.31.32-.53l.91-4.8,1.53.28-.92,4.79c-.11.64-.42,1.14-.95,1.52s-1.1.51-1.73.39l-4.78-.72.24-1.52Z"/>
    </g>
  </g>
  <g id="start">
    <g>
      <rect class="cls-6" x="481.22" y="369.16" width="3.47" height="3.44" transform="translate(-125.6 349.34) rotate(-35.49)"/>
      <rect class="cls-6" x="480.39" y="373.98" width="3.47" height="3.44" transform="translate(-128.55 349.75) rotate(-35.49)"/>
      <rect class="cls-6" x="486.05" y="369.95" width="3.47" height="3.44" transform="translate(-125.16 352.29) rotate(-35.49)"/>
      <rect class="cls-6" x="476.4" y="368.39" width="3.47" height="3.44" transform="translate(-126.04 346.4) rotate(-35.49)"/>
      <rect class="cls-6" x="482.06" y="364.35" width="3.47" height="3.44" transform="translate(-122.65 348.94) rotate(-35.49)"/>
      <rect class="cls-6" x="485.21" y="374.77" width="3.47" height="3.44" transform="translate(-128.11 352.7) rotate(-35.49)"/>
      <rect class="cls-6" x="484.39" y="379.59" width="3.47" height="3.44" transform="translate(-131.06 353.11) rotate(-35.49)"/>
      <rect class="cls-6" x="490.05" y="375.55" width="3.47" height="3.44" transform="translate(-127.67 355.65) rotate(-35.49)"/>
    </g>
  </g>
  <g id="grandstands">
    <g id="Suzuka">
      <g id="Q2">
        <rect idGrandstand="11001" class="cls-7" x="428.08" y="302.58" width="28.42" height="6.2"/>
      </g>
      <g id="Q1">
        <rect idGrandstand="11000" class="cls-7" x="447.97" y="299.99" width="6.2" height="27.39" transform="translate(128.93 758.77) rotate(-88.92)"/>
      </g>
      <g id="B1">
        <path idGrandstand="10845" class="cls-7" d="m558.06,565.36l-3.62,9.68c5.88,2.2,11.11,3,15.6,3,11.44,0,18.08-5.17,18.46-5.48l-6.46-8.07c-.08.07-8.81,6.55-23.98.87Z"/>
      </g>
      <g id="C">
        <rect idGrandstand="10996" class="cls-7" x="519.02" y="494.05" width="10.33" height="82.37" transform="translate(-212.09 396.84) rotate(-34.95)"/>
      </g>
      <g id="E">
        <path idGrandstand="10998" class="cls-7" d="m412.81,381.05l-16.23-3.33-3.05,9.42,14.03,2.91c1.53.23-.44,3.48-.79,4.33-1.39,2.28-2.69,3.89-5.05,6.59l7.78,6.8c3.01-3.44,5.13-8.07,6.52-11.07,2.69-8.2,6.07-13.87-3.2-15.65Z"/>
      </g>
      <g id="R">
        <rect idGrandstand="11002" class="cls-7" x="477.08" y="304.86" width="10.33" height="26.77" transform="translate(-33.03 579.65) rotate(-60.32)"/>
      </g>
      <g id="S">
        <rect idGrandstand="11003" class="cls-7" x="497.33" y="327.72" width="10.33" height="23.92" transform="translate(-104.04 339.28) rotate(-34.02)"/>
      </g>
      <g id="V1">
        <rect idGrandstand="10805" class="cls-7" x="530.98" y="348.49" width="10.33" height="82.34" transform="translate(-126.24 366.67) rotate(-34.02)"/>
      </g>
      <g id="A1">
        <rect idGrandstand="10825" class="cls-7" x="570.48" y="430.97" width="8" height="41.57" transform="translate(-154.43 398.81) rotate(-34.03)"/>
      </g>
      <g id="A2">
        <polygon idGrandstand="10835" class="cls-7" points="598.97 493.91 587.98 477.72 594.61 473.24 605.6 489.43 598.97 493.91"/>
      </g>
      <g id="I">
        <rect idGrandstand="10999" class="cls-7" x="219.79" y="242.13" width="36.29" height="10.33" transform="translate(-101.35 298.83) rotate(-54.74)"/>
      </g>
      <g id="D">
        <path idGrandstand="11015" class="cls-7" d="m467.19,460.48c2.09,4.48,2.35,8.45,2.37,8.89l-10.32.54s-.18-2.41-1.42-5.07c-.23-.5-.49-.97-.76-1.42l8.82-5.39c.48.78.92,1.6,1.31,2.45Zm-12.93-.26c.95.86,1.66,1.65,2.12,2.18l8.28-6.19c-2.44-3.26-5.6-5.69-9.4-7.22-1.2-.51-3.02-1.27-5.29-2.1-2.6-.96-4.01-1.33-5.89-2.01-4.73-1.7-7.13-2.57-8.92-3.55-2.33-1.28-5.64-3.5-8.99-7.46-6.81-9.73-3.91-20.74-3.76-21.19l-4.91-1.61-4.9-1.63c-.21.64-4.27,16.85,5.58,30.93,4.39,5.24,8.71,7.99,11.76,9.52,4.25,2.14,7.42,2.1,16.14,5.44,1.58.6,4.9,1.91,8.19,4.88Z"/>
      </g>
      <g id="_13OR_OVERPASS_G_" data-name="13OR / OVERPASS (G)">
        <path idGrandstand="20537" class="cls-7" d="m309.87,364.17l-30.58,22.29,3.65,5.01,30.58-22.29-3.65-5.01Zm-25.57,28.89l3.65,5.01,30.58-22.29-3.65-5.01-30.58,22.29Z"/>
      </g>
      <g id="D_Oasis" data-name="D Oasis">
        <path idGrandstand="22238" class="cls-7" d="m400.35,410.34l-.03,11.31,6.23.12.03-11.31-6.23-.12Zm-.07,23.15l6.23.12.03-11.31-6.23-.12-.03,11.31Z"/>
      </g>
      <path idGrandstand="" class="cls-7" d="m272.55,345.72l-3.1,37.72-6.18-.51,3.1-37.72,6.18.51Zm2.09,0l-3.1,37.72,6.18.51,3.1-37.72-6.18-.51Z"/>
      <g id="O">
        <rect idGrandstand="20557" class="cls-7" x="175.17" y="358.26" width="10.33" height="53.46" transform="translate(-244.6 398.01) rotate(-66.66)"/>
      </g>
      <g id="V2">
        <rect idGrandstand="10815" class="cls-7" x="542.95" y="340.28" width="10.33" height="82.34" transform="translate(-119.6 371.96) rotate(-34.02)"/>
      </g>
      <g id="B2">
        <path idGrandstand="10855" class="cls-7" d="m598.23,570.25l7.1,7.5c-.71.67-13.65,12.69-34.11,12.69-6.53,0-13.83-1.22-21.74-4.43l3.88-9.58c26.37,10.69,44.12-5.49,44.87-6.18Zm6.76.96l10.35-10.82-3.43-3.37-10.35,10.82,3.43,3.37Z"/>
      </g>
      <g id="H">
        <polygon idGrandstand="20547" class="cls-7" points="285.85 289.9 293.55 294.59 283.69 312.06 276 307.38 285.85 289.9"/>
      </g>
    </g>
  </g>
  <g id="misc">
    <g>
      <line class="cls-1" x1="443.06" y1="304.65" x2="443.06" y2="290.87"/>
      <line class="cls-1" x1="296.41" y1="378.14" x2="296.41" y2="340.4"/>
      <line class="cls-1" x1="460.29" y1="312.57" x2="460.29" y2="299.48"/>
      <line class="cls-1" x1="557.28" y1="423.16" x2="586.11" y2="423.16"/>
      <line class="cls-1" x1="570.28" y1="415.57" x2="586.11" y2="415.57"/>
    </g>
  </g>
  <g id="gs_names" data-name="gs names">
    <path class="cls-7" d="m176.96,400.88c-.42.56-1.15.84-2.19.84s-1.76-.28-2.18-.84c-.42-.56-.64-1.45-.64-2.65s.21-2.09.64-2.67c.42-.58,1.15-.88,2.18-.88s1.76.29,2.19.88.64,1.47.64,2.67-.21,2.08-.64,2.65Zm-3.29-.88c.2.35.57.53,1.1.53s.91-.17,1.11-.53c.2-.35.29-.94.29-1.76s-.1-1.42-.3-1.79c-.2-.37-.57-.56-1.1-.56s-.9.19-1.1.56c-.2.37-.3.97-.3,1.79s.1,1.41.29,1.76Z"/>
    <path class="cls-7" d="m24.49,220.77v-6.8h2.35l1.2,4.96,1.2-4.96h2.35v6.8h-1.38v-5.26h-.15l-1.33,4.96h-1.38l-1.33-4.96h-.15v5.26h-1.38Z"/>
    <g>
      <path class="cls-7" d="m284.56,320.27v6.6h-1.38v-5.04l-1.43.92-.63-1.03,2.18-1.45h1.26Z"/>
      <path class="cls-7" d="m286.6,320.51c.61-.24,1.3-.36,2.05-.36s1.31.14,1.66.43.52.75.52,1.4-.26,1.13-.77,1.47c.32.17.55.35.69.54.14.19.21.48.21.89,0,.71-.18,1.24-.54,1.59-.36.35-.93.52-1.71.52-.58,0-1.19-.09-1.83-.26l-.32-.08.07-1.05c.75.13,1.37.19,1.88.19.69,0,1.03-.29,1.03-.88,0-.25-.09-.44-.26-.59-.18-.15-.41-.22-.7-.22h-1.33v-1.14h1.33c.22,0,.42-.09.58-.28.17-.19.26-.39.26-.62,0-.47-.33-.71-.99-.71-.46,0-.95.05-1.47.14l-.26.04-.09-1.02Z"/>
      <path class="cls-7" d="m292.46,320.97c.43-.55,1.07-.82,1.92-.82s1.49.27,1.92.82c.43.55.65,1.43.65,2.64s-.21,2.08-.64,2.6c-.43.52-1.07.79-1.92.79s-1.49-.26-1.92-.79-.64-1.39-.64-2.6.21-2.09.64-2.64Zm3.06,2.61c0-.82-.09-1.4-.26-1.73-.17-.33-.47-.49-.88-.49s-.7.17-.88.5c-.18.33-.26.91-.26,1.73s.09,1.39.27,1.72c.18.33.47.49.88.49s.7-.16.87-.49c.17-.33.26-.9.26-1.72Z"/>
      <path class="cls-7" d="m299.3,324.59v2.28h-1.38v-6.8h2.64c1.6,0,2.4.75,2.4,2.24,0,.89-.33,1.54-1,1.96l.97,2.6h-1.51l-.79-2.28h-1.33Zm2.01-1.48c.16-.2.24-.46.24-.79s-.08-.59-.25-.78c-.17-.19-.42-.29-.74-.29h-1.26v2.16h1.28c.33,0,.57-.1.73-.3Z"/>
      <path class="cls-7" d="m305.89,326.79l2.88-7.1,1.18.42-2.88,7.1-1.18-.42Z"/>
      <path class="cls-7" d="m278.49,336.41c-.42.56-1.15.84-2.19.84s-1.76-.28-2.18-.84c-.42-.56-.64-1.45-.64-2.65s.21-2.09.64-2.67c.42-.58,1.15-.88,2.18-.88s1.76.29,2.19.88.64,1.47.64,2.67-.21,2.08-.64,2.65Zm-3.29-.88c.2.35.57.53,1.1.53s.91-.17,1.11-.53c.2-.35.29-.94.29-1.76s-.1-1.42-.3-1.79c-.2-.37-.57-.56-1.1-.56s-.9.19-1.1.56c-.2.37-.3.97-.3,1.79s.1,1.41.29,1.76Z"/>
      <path class="cls-7" d="m283.89,330.33h1.45l-1.58,6.8h-2.55l-1.58-6.8h1.45l1.18,5.6h.45l1.18-5.6Z"/>
      <path class="cls-7" d="m286.24,337.13v-6.8h4.4v1.2h-3.02v1.59h2.42v1.18h-2.42v1.63h3.02v1.2h-4.4Z"/>
      <path class="cls-7" d="m293.16,334.85v2.28h-1.38v-6.8h2.64c1.6,0,2.4.75,2.4,2.24,0,.89-.33,1.54-1,1.96l.97,2.6h-1.51l-.79-2.28h-1.33Zm2.01-1.48c.16-.2.24-.46.24-.79s-.08-.59-.25-.78c-.17-.19-.42-.29-.74-.29h-1.26v2.16h1.28c.33,0,.57-.1.73-.3Z"/>
      <path class="cls-7" d="m300.48,335.15h-1.12v1.98h-1.38v-6.8h2.5c1.61,0,2.42.79,2.42,2.36,0,.79-.21,1.4-.62,1.83-.41.42-1.01.63-1.8.63Zm-1.12-1.18h1.11c.69,0,1.03-.43,1.03-1.28,0-.42-.08-.72-.25-.9-.17-.18-.43-.28-.78-.28h-1.11v2.46Z"/>
      <path class="cls-7" d="m303.11,337.13l1.53-6.8h2.62l1.53,6.8h-1.38l-.27-1.23h-2.38l-.27,1.23h-1.38Zm2.6-5.66l-.69,3.23h1.86l-.69-3.23h-.48Z"/>
      <path class="cls-7" d="m311.72,331.41c-.73,0-1.09.24-1.09.72,0,.21.09.38.27.49.18.11.6.28,1.27.49.66.21,1.13.45,1.4.72.27.27.4.68.4,1.25,0,.71-.22,1.25-.65,1.62-.43.37-1,.55-1.7.55-.52,0-1.16-.08-1.91-.24l-.36-.07.14-1.07c.89.12,1.58.18,2.05.18.71,0,1.06-.29,1.06-.88,0-.21-.08-.38-.25-.5-.16-.12-.49-.25-.98-.39-.77-.22-1.32-.48-1.63-.79-.32-.3-.48-.73-.48-1.27,0-.68.21-1.19.62-1.52.41-.33.98-.5,1.7-.5.49,0,1.12.07,1.88.2l.36.07-.11,1.09c-.94-.11-1.6-.16-1.99-.16Z"/>
      <path class="cls-7" d="m317.16,331.41c-.73,0-1.09.24-1.09.72,0,.21.09.38.27.49.18.11.6.28,1.27.49.66.21,1.13.45,1.4.72.27.27.4.68.4,1.25,0,.71-.22,1.25-.65,1.62-.43.37-1,.55-1.7.55-.52,0-1.16-.08-1.91-.24l-.36-.07.14-1.07c.89.12,1.58.18,2.05.18.71,0,1.06-.29,1.06-.88,0-.21-.08-.38-.25-.5-.16-.12-.49-.25-.98-.39-.77-.22-1.32-.48-1.63-.79-.32-.3-.48-.73-.48-1.27,0-.68.21-1.19.62-1.52.41-.33.98-.5,1.7-.5.49,0,1.12.07,1.88.2l.36.07-.11,1.09c-.94-.11-1.6-.16-1.99-.16Z"/>
    </g>
    <g>
      <path class="cls-7" d="m439.96,287.03c-1.04,0-1.77-.28-2.19-.84-.42-.56-.63-1.44-.63-2.65s.21-2.1.64-2.68c.42-.58,1.15-.88,2.18-.88s1.76.29,2.19.88.64,1.48.64,2.68c0,1.48-.35,2.48-1.05,2.99l.83,1.34-1.26.59-.9-1.47c-.07.02-.21.03-.44.03Zm-1.1-1.72c.2.35.57.52,1.1.52s.91-.17,1.11-.52c.2-.35.29-.93.29-1.76s-.1-1.43-.3-1.8c-.2-.37-.57-.56-1.1-.56s-.9.19-1.1.56c-.2.37-.3.97-.3,1.8s.1,1.41.29,1.76Z"/>
      <path class="cls-7" d="m448.15,286.91h-4.28v-1.17l1.41-1.43c.5-.51.85-.91,1.04-1.18s.29-.56.29-.88-.08-.53-.25-.65c-.16-.13-.4-.19-.69-.19-.45,0-.93.04-1.46.12l-.24.03-.07-1.07c.65-.2,1.33-.3,2.03-.3,1.4,0,2.1.63,2.1,1.89,0,.49-.11.92-.32,1.28-.21.36-.6.8-1.16,1.31l-1.15,1.04h2.74v1.2Z"/>
    </g>
    <path class="cls-7" d="m358.35,334.18h-1.12v1.98h-1.38v-6.8h2.5c1.61,0,2.42.79,2.42,2.36,0,.79-.21,1.4-.62,1.83-.41.42-1.01.63-1.8.63Zm-1.12-1.18h1.11c.69,0,1.03-.43,1.03-1.28,0-.42-.08-.72-.25-.9-.17-.18-.43-.28-.78-.28h-1.11v2.46Z"/>
    <path class="cls-7" d="m294.81,289.9v-2.82h-2.53v2.82h-1.38v-6.8h1.38v2.78h2.53v-2.78h1.38v6.8h-1.38Z"/>
    <g>
      <path class="cls-7" d="m456.84,296.33c-1.04,0-1.77-.28-2.19-.84-.42-.56-.63-1.44-.63-2.65s.21-2.1.64-2.68c.42-.58,1.15-.88,2.18-.88s1.76.29,2.19.88.64,1.48.64,2.68c0,1.48-.35,2.48-1.05,2.99l.83,1.34-1.26.59-.9-1.47c-.07.02-.21.03-.44.03Zm-1.1-1.72c.2.35.57.52,1.1.52s.91-.17,1.11-.52c.2-.35.29-.93.29-1.76s-.1-1.43-.3-1.8c-.2-.37-.57-.56-1.1-.56s-.9.19-1.1.56c-.2.37-.3.97-.3,1.8s.1,1.41.29,1.76Z"/>
      <path class="cls-7" d="m464.28,289.61v6.6h-1.38v-5.04l-1.43.92-.63-1.03,2.18-1.45h1.26Z"/>
    </g>
    <path class="cls-7" d="m486.56,307.7v2.28h-1.38v-6.8h2.64c1.6,0,2.4.75,2.4,2.24,0,.89-.33,1.54-1,1.96l.97,2.6h-1.51l-.79-2.28h-1.33Zm2.01-1.48c.16-.2.24-.46.24-.79s-.08-.59-.25-.78c-.17-.19-.42-.29-.74-.29h-1.26v2.16h1.28c.33,0,.57-.1.73-.3Z"/>
    <path class="cls-7" d="m512.45,330.44c-.73,0-1.09.24-1.09.72,0,.21.09.38.27.49.18.11.6.28,1.27.49.66.21,1.13.45,1.4.72.27.27.4.68.4,1.25,0,.71-.22,1.25-.65,1.62-.43.37-1,.55-1.7.55-.52,0-1.16-.08-1.91-.24l-.36-.07.14-1.07c.89.12,1.58.18,2.05.18.71,0,1.06-.29,1.06-.88,0-.21-.08-.38-.25-.5-.16-.12-.49-.25-.98-.39-.77-.22-1.32-.48-1.63-.79-.32-.3-.48-.73-.48-1.27,0-.68.21-1.19.62-1.52.41-.33.98-.5,1.7-.5.49,0,1.12.07,1.88.2l.36.07-.11,1.09c-.94-.11-1.6-.16-1.99-.16Z"/>
    <g>
      <path class="cls-7" d="m592.49,419.91h1.45l-1.58,6.8h-2.55l-1.58-6.8h1.45l1.18,5.6h.45l1.18-5.6Z"/>
      <path class="cls-7" d="m598.28,420.11v6.6h-1.38v-5.04l-1.43.92-.63-1.03,2.18-1.45h1.26Z"/>
    </g>
    <g>
      <path class="cls-7" d="m592.49,408.77h1.45l-1.58,6.8h-2.55l-1.58-6.8h1.45l1.18,5.6h.45l1.18-5.6Z"/>
      <path class="cls-7" d="m599.03,415.57h-4.28v-1.17l1.41-1.43c.5-.51.85-.91,1.04-1.18s.29-.56.29-.88-.08-.53-.25-.65c-.16-.13-.4-.19-.69-.19-.45,0-.93.04-1.46.12l-.24.03-.07-1.07c.65-.2,1.33-.3,2.03-.3,1.4,0,2.1.63,2.1,1.89,0,.49-.11.92-.32,1.28-.21.36-.6.8-1.16,1.31l-1.15,1.04h2.74v1.2Z"/>
    </g>
    <g>
      <path class="cls-7" d="m582.86,449.23l1.53-6.8h2.62l1.53,6.8h-1.38l-.27-1.23h-2.38l-.27,1.23h-1.38Zm2.6-5.66l-.69,3.23h1.86l-.69-3.23h-.48Z"/>
      <path class="cls-7" d="m592.89,442.63v6.6h-1.38v-5.04l-1.43.92-.63-1.03,2.18-1.45h1.26Z"/>
    </g>
    <g>
      <path class="cls-7" d="m603.83,479.7l1.53-6.8h2.62l1.53,6.8h-1.38l-.27-1.23h-2.38l-.27,1.23h-1.38Zm2.6-5.66l-.69,3.23h1.86l-.69-3.23h-.48Z"/>
      <path class="cls-7" d="m614.61,479.7h-4.28v-1.17l1.41-1.43c.5-.51.85-.91,1.04-1.18s.29-.56.29-.88-.08-.53-.25-.65c-.16-.13-.4-.19-.69-.19-.45,0-.93.04-1.46.12l-.24.03-.07-1.07c.65-.2,1.33-.3,2.03-.3,1.4,0,2.1.63,2.1,1.89,0,.49-.11.92-.32,1.28-.21.36-.6.8-1.16,1.31l-1.15,1.04h2.74v1.2Z"/>
    </g>
    <g>
      <path class="cls-7" d="m583.4,590.57h2.67c.71,0,1.24.14,1.59.42s.53.74.53,1.38c0,.38-.06.68-.17.91s-.31.42-.58.59c.3.13.52.31.67.55.14.24.22.57.22,1,0,.66-.19,1.15-.58,1.47-.39.32-.93.48-1.63.48h-2.71v-6.8Zm2.6,1.18h-1.22v1.62h1.23c.52,0,.78-.27.78-.81s-.26-.81-.79-.81Zm.04,2.78h-1.26v1.66h1.26c.3,0,.52-.06.67-.18s.21-.34.21-.66c0-.55-.29-.82-.88-.82Z"/>
      <path class="cls-7" d="m593.68,597.37h-4.28v-1.17l1.41-1.43c.5-.51.85-.91,1.04-1.18s.29-.56.29-.88-.08-.53-.25-.65c-.16-.13-.4-.19-.69-.19-.45,0-.93.04-1.46.12l-.24.03-.07-1.07c.65-.2,1.33-.3,2.03-.3,1.4,0,2.1.63,2.1,1.89,0,.49-.11.92-.32,1.28-.21.36-.6.8-1.16,1.31l-1.15,1.04h2.74v1.2Z"/>
    </g>
    <path class="cls-7" d="m509.91,545.01c-.71.15-1.34.23-1.91.23s-1.02-.07-1.36-.21c-.34-.14-.61-.36-.8-.67s-.33-.67-.4-1.08c-.07-.41-.11-.93-.11-1.56,0-1.31.18-2.23.55-2.74s1.05-.78,2.04-.78c.57,0,1.24.09,1.99.27l-.04,1.1c-.66-.1-1.21-.15-1.65-.15s-.75.06-.94.17c-.19.12-.32.34-.42.67-.09.33-.13.88-.13,1.67s.09,1.33.27,1.64c.18.3.55.46,1.1.46s1.13-.05,1.75-.14l.03,1.13Z"/>
    <path class="cls-7" d="m393.02,398.52v-6.8h4.4v1.2h-3.02v1.59h2.42v1.18h-2.42v1.63h3.02v1.2h-4.4Z"/>
    <path class="cls-7" d="m421.23,456.84h-2.29v-6.8h2.29c.59,0,1.07.06,1.45.18.38.12.67.33.89.61.21.28.35.62.43,1,.08.38.12.88.12,1.5s-.04,1.12-.11,1.52c-.07.4-.21.76-.42,1.08-.2.32-.5.55-.89.69s-.88.21-1.48.21Zm1.45-2.7c.01-.21.02-.51.02-.88s-.01-.68-.04-.91c-.03-.23-.09-.43-.19-.62-.1-.19-.25-.31-.44-.38-.2-.07-.46-.1-.8-.1h-.91v4.4h.91c.5,0,.86-.13,1.09-.38.19-.21.31-.58.36-1.12Z"/>
    <g>
      <path class="cls-7" d="m363.54,425.68h-2.29v-6.8h2.29c.59,0,1.07.06,1.45.18.38.12.67.33.89.61.21.28.35.62.43,1,.08.38.12.88.12,1.5s-.04,1.12-.11,1.52c-.07.4-.21.76-.42,1.08-.2.32-.5.55-.89.69s-.88.21-1.48.21Zm1.45-2.7c.01-.21.02-.51.02-.88s-.01-.68-.04-.91c-.03-.23-.09-.43-.19-.62-.1-.19-.25-.31-.44-.38-.2-.07-.46-.1-.8-.1h-.91v4.4h.91c.5,0,.86-.13,1.09-.38.19-.21.31-.58.36-1.12Z"/>
      <path class="cls-7" d="m367.45,423.63v-1.22h2.96v1.22h-2.96Z"/>
      <path class="cls-7" d="m376.42,424.95c-.42.56-1.15.84-2.19.84s-1.76-.28-2.18-.84c-.42-.56-.64-1.45-.64-2.65s.21-2.09.64-2.67c.42-.58,1.15-.88,2.18-.88s1.76.29,2.19.88.64,1.47.64,2.67-.21,2.08-.64,2.65Zm-3.29-.88c.2.35.57.53,1.1.53s.91-.17,1.11-.53c.2-.35.29-.94.29-1.76s-.1-1.42-.3-1.79c-.2-.37-.57-.56-1.1-.56s-.9.19-1.1.56c-.2.37-.3.97-.3,1.79s.1,1.41.29,1.76Z"/>
      <path class="cls-7" d="m377.56,425.68l1.53-6.8h2.62l1.53,6.8h-1.38l-.27-1.23h-2.38l-.27,1.23h-1.38Zm2.6-5.66l-.69,3.23h1.86l-.69-3.23h-.48Z"/>
      <path class="cls-7" d="m386.17,419.96c-.73,0-1.09.24-1.09.72,0,.21.09.38.27.49.18.11.6.28,1.27.49.66.21,1.13.45,1.4.72.27.27.4.68.4,1.25,0,.71-.22,1.25-.65,1.62-.43.37-1,.55-1.7.55-.52,0-1.16-.08-1.91-.24l-.36-.07.14-1.07c.89.12,1.58.18,2.05.18.71,0,1.06-.29,1.06-.88,0-.21-.08-.38-.25-.5-.16-.12-.49-.25-.98-.39-.77-.22-1.32-.48-1.63-.79-.32-.3-.48-.73-.48-1.27,0-.68.21-1.19.62-1.52.41-.33.98-.5,1.7-.5.49,0,1.12.07,1.88.2l.36.07-.11,1.09c-.94-.11-1.6-.16-1.99-.16Z"/>
      <path class="cls-7" d="m389.52,425.68v-6.8h1.38v6.8h-1.38Z"/>
      <path class="cls-7" d="m394.47,419.96c-.73,0-1.09.24-1.09.72,0,.21.09.38.27.49.18.11.6.28,1.27.49.66.21,1.13.45,1.4.72.27.27.4.68.4,1.25,0,.71-.22,1.25-.65,1.62-.43.37-1,.55-1.7.55-.52,0-1.16-.08-1.91-.24l-.36-.07.14-1.07c.89.12,1.58.18,2.05.18.71,0,1.06-.29,1.06-.88,0-.21-.08-.38-.25-.5-.16-.12-.49-.25-.98-.39-.77-.22-1.32-.48-1.63-.79-.32-.3-.48-.73-.48-1.27,0-.68.21-1.19.62-1.52.41-.33.98-.5,1.7-.5.49,0,1.12.07,1.88.2l.36.07-.11,1.09c-.94-.11-1.6-.16-1.99-.16Z"/>
    </g>
    <g>
      <path class="cls-7" d="m586.09,560.91h2.67c.71,0,1.24.14,1.59.42s.53.74.53,1.38c0,.38-.06.68-.17.91s-.31.42-.58.59c.3.13.52.31.67.55.14.24.22.57.22,1,0,.66-.19,1.15-.58,1.47-.39.32-.93.48-1.63.48h-2.71v-6.8Zm2.6,1.18h-1.22v1.62h1.23c.52,0,.78-.27.78-.81s-.26-.81-.79-.81Zm.04,2.78h-1.26v1.66h1.26c.3,0,.52-.06.67-.18s.21-.34.21-.66c0-.55-.29-.82-.88-.82Z"/>
      <path class="cls-7" d="m595.62,561.11v6.6h-1.38v-5.04l-1.43.92-.63-1.03,2.18-1.45h1.26Z"/>
    </g>
    <path class="cls-7" d="m224.34,245.28v-6.8h1.38v6.8h-1.38Z"/>
    <path class="cls-7" d="m6.2,292.51v-6.8h2.33l1.64,5.6h.1v-5.6h1.38v6.8h-2.27l-1.7-5.6h-.1v5.6h-1.38Z"/>
    <path class="cls-7" d="m148.6,220.77h-3.87v-6.8h1.38v5.58h2.49v1.22Z"/>
  </g>
</svg>